<svg width="247" height="247" viewBox="0 0 247 247" fill="none" xmlns="http://www.w3.org/2000/svg">
<g clip-path="url(#clip0_3487_61122)">
<mask id="path-1-inside-1_3487_61122" fill="white">
<path fill-rule="evenodd" clip-rule="evenodd" d="M97.2593 211.754C90.0134 211.403 83.7387 208.951 79.2833 204.22C65.9587 190.073 73.9519 160.903 97.1366 139.066C120.321 117.23 149.918 110.997 163.242 125.144C168.95 131.204 170.746 140.02 169.112 149.836C179.614 152.156 187.603 157.664 190.69 165.878C194.697 176.537 189.491 189.204 178.307 199.649C179.421 201.769 180.043 204.023 180.094 206.366C180.384 219.748 161.957 231.001 138.936 231.5C118.013 231.954 100.496 223.369 97.2593 211.754Z"/>
</mask>
<path fill-rule="evenodd" clip-rule="evenodd" d="M97.2593 211.754C90.0134 211.403 83.7387 208.951 79.2833 204.22C65.9587 190.073 73.9519 160.903 97.1366 139.066C120.321 117.23 149.918 110.997 163.242 125.144C168.95 131.204 170.746 140.02 169.112 149.836C179.614 152.156 187.603 157.664 190.69 165.878C194.697 176.537 189.491 189.204 178.307 199.649C179.421 201.769 180.043 204.023 180.094 206.366C180.384 219.748 161.957 231.001 138.936 231.5C118.013 231.954 100.496 223.369 97.2593 211.754Z" fill="#508DFF"/>
<path d="M97.2593 211.754L101.112 210.681L100.337 207.899L97.4533 207.759L97.2593 211.754ZM79.2833 204.22L76.3715 206.963L79.2833 204.22ZM97.1366 139.066L99.8791 141.978L97.1366 139.066ZM163.242 125.144L160.331 127.886L163.242 125.144ZM169.112 149.836L165.167 149.179L164.543 152.923L168.25 153.742L169.112 149.836ZM190.69 165.878L194.435 164.47L194.435 164.47L190.69 165.878ZM178.307 199.649L175.577 196.725L173.346 198.809L174.766 201.51L178.307 199.649ZM180.094 206.366L176.095 206.453L176.095 206.453L180.094 206.366ZM138.936 231.5L138.849 227.501L138.936 231.5ZM97.4533 207.759C90.9919 207.445 85.7863 205.291 82.1951 201.478L76.3715 206.963C81.6911 212.611 89.0348 215.36 97.0653 215.75L97.4533 207.759ZM82.1951 201.478C76.8518 195.805 75.3488 186.634 78.3768 175.584C81.3832 164.612 88.7324 152.476 99.8791 141.978L94.3941 136.154C82.356 147.492 74.1163 160.86 70.6612 173.47C67.2275 186 68.3903 198.489 76.3715 206.963L82.1951 201.478ZM99.8791 141.978C111.026 131.48 123.579 124.87 134.711 122.525C145.923 120.164 154.987 122.213 160.331 127.886L166.154 122.401C158.173 113.927 145.777 112.019 133.063 114.697C120.269 117.391 106.432 124.816 94.3941 136.154L99.8791 141.978ZM160.331 127.886C164.915 132.754 166.669 140.154 165.167 149.179L173.058 150.493C174.823 139.887 172.985 129.654 166.154 122.401L160.331 127.886ZM168.25 153.742C177.969 155.889 184.501 160.78 186.946 167.285L194.435 164.47C190.705 154.548 181.259 148.423 169.975 145.93L168.25 153.742ZM186.946 167.285C190.115 175.716 186.256 186.753 175.577 196.725L181.037 202.572C192.726 191.656 199.279 177.358 194.435 164.47L186.946 167.285ZM174.766 201.51C175.617 203.129 176.058 204.779 176.095 206.453L184.093 206.28C184.027 203.266 183.225 200.409 181.847 197.788L174.766 201.51ZM176.095 206.453C176.196 211.124 173.016 216.171 166.172 220.35C159.427 224.469 149.781 227.264 138.849 227.501L139.023 235.499C151.112 235.237 162.19 232.156 170.341 227.178C178.393 222.261 184.282 214.99 184.093 206.28L176.095 206.453ZM138.849 227.501C128.925 227.717 119.95 225.779 113.192 222.545C106.338 219.265 102.299 214.938 101.112 210.681L93.4061 212.828C95.4567 220.186 101.794 225.959 109.739 229.761C117.779 233.61 128.025 235.738 139.023 235.499L138.849 227.501Z" fill="black" mask="url(#path-1-inside-1_3487_61122)"/>
<path d="M120.687 177.765C119.729 182.661 117.406 186.728 114.518 189.366C111.63 192.004 108.296 193.131 105.159 192.517C102.021 191.903 99.3572 189.603 97.6762 186.071C95.9954 182.54 95.3753 177.897 96.3329 173.002C97.2905 168.106 99.6142 164.039 102.502 161.401C105.39 158.763 108.724 157.636 111.861 158.25C114.999 158.864 117.663 161.164 119.344 164.696C121.025 168.227 121.645 172.87 120.687 177.765Z" fill="white" stroke="black" stroke-width="4"/>
<path fill-rule="evenodd" clip-rule="evenodd" d="M114.389 173.549L106.585 175.523L112.446 181.552C110.238 185.61 106.469 188.022 102.769 187.298C97.8267 186.331 94.8787 180.137 96.1843 173.462C97.4898 166.788 102.555 162.161 107.497 163.128C111.579 163.926 114.301 168.292 114.389 173.549Z" fill="black"/>
<mask id="path-5-inside-2_3487_61122" fill="white">
<path d="M123.135 173.113C123.121 168.031 121.567 163.396 118.815 160.229C116.062 157.061 112.337 155.62 108.458 156.222C104.58 156.824 100.865 159.421 98.1322 163.44C95.3991 167.459 93.8714 172.572 93.8851 177.654L108.51 175.383L123.135 173.113Z"/>
</mask>
<path d="M123.135 173.113C123.121 168.031 121.567 163.396 118.815 160.229C116.062 157.061 112.337 155.62 108.458 156.222C104.58 156.824 100.865 159.421 98.1322 163.44C95.3991 167.459 93.8714 172.572 93.8851 177.654L108.51 175.383L123.135 173.113Z" fill="#508DFF" stroke="black" stroke-width="8" mask="url(#path-5-inside-2_3487_61122)"/>
<path d="M144.945 177.765C143.987 182.661 141.664 186.728 138.776 189.366C135.888 192.004 132.554 193.131 129.416 192.517C126.279 191.903 123.615 189.603 121.934 186.071C120.253 182.54 119.633 177.897 120.591 173.002C121.548 168.106 123.872 164.039 126.76 161.401C129.648 158.763 132.982 157.636 136.119 158.25C139.257 158.864 141.921 161.164 143.602 164.696C145.282 168.227 145.902 172.87 144.945 177.765Z" fill="white" stroke="black" stroke-width="4"/>
<path fill-rule="evenodd" clip-rule="evenodd" d="M138.916 173.124L131.112 175.098L136.974 181.126C134.765 185.185 130.996 187.596 127.296 186.872C122.354 185.906 119.406 179.711 120.712 173.037C122.017 166.362 127.082 161.735 132.024 162.702C136.107 163.501 138.829 167.867 138.916 173.124Z" fill="black"/>
<mask id="path-8-inside-3_3487_61122" fill="white">
<path d="M146.908 178.149C147.898 173.085 147.359 167.936 145.407 163.836C143.456 159.736 140.253 157.021 136.503 156.287C132.753 155.554 128.763 156.862 125.411 159.925C122.058 162.987 119.619 167.553 118.628 172.618L132.768 175.383L146.908 178.149Z"/>
</mask>
<path d="M146.908 178.149C147.898 173.085 147.359 167.936 145.407 163.836C143.456 159.736 140.253 157.021 136.503 156.287C132.753 155.554 128.763 156.862 125.411 159.925C122.058 162.987 119.619 167.553 118.628 172.618L132.768 175.383L146.908 178.149Z" fill="#508DFF" stroke="black" stroke-width="8" mask="url(#path-8-inside-3_3487_61122)"/>
<path d="M163.016 194.5C163.016 198.642 161.225 200 159.016 200C156.806 200 155.016 198.642 155.016 194.5C155.016 190.358 159.016 187 159.016 187C159.016 187 163.016 190.358 163.016 194.5Z" fill="#E9F1FF" stroke="black" stroke-width="4"/>
<mask id="path-10-inside-4_3487_61122" fill="white">
<path fill-rule="evenodd" clip-rule="evenodd" d="M37.7442 6C34.5027 6 31.875 8.62771 31.875 11.8692V98.1308C31.875 101.372 34.5027 104 37.7442 104H62.8662L82.1533 115.135V104H209.006C212.247 104 214.875 101.372 214.875 98.1308V11.8692C214.875 8.62771 212.247 6 209.006 6H37.7442Z"/>
</mask>
<path fill-rule="evenodd" clip-rule="evenodd" d="M37.7442 6C34.5027 6 31.875 8.62771 31.875 11.8692V98.1308C31.875 101.372 34.5027 104 37.7442 104H62.8662L82.1533 115.135V104H209.006C212.247 104 214.875 101.372 214.875 98.1308V11.8692C214.875 8.62771 212.247 6 209.006 6H37.7442Z" fill="white"/>
<path d="M62.8662 104L64.8662 100.536L63.938 100H62.8662V104ZM82.1533 115.135L80.1533 118.6L86.1533 122.064V115.135H82.1533ZM82.1533 104V100H78.1533V104H82.1533ZM35.875 11.8692C35.875 10.8369 36.7118 10 37.7442 10V2C32.2936 2 27.875 6.41856 27.875 11.8692H35.875ZM35.875 98.1308V11.8692H27.875V98.1308H35.875ZM37.7442 100C36.7118 100 35.875 99.1632 35.875 98.1308H27.875C27.875 103.581 32.2936 108 37.7442 108V100ZM62.8662 100H37.7442V108H62.8662V100ZM84.1533 111.671L64.8662 100.536L60.8662 107.464L80.1533 118.6L84.1533 111.671ZM78.1533 104V115.135H86.1533V104H78.1533ZM209.006 100H82.1533V108H209.006V100ZM210.875 98.1308C210.875 99.1631 210.038 100 209.006 100V108C214.456 108 218.875 103.581 218.875 98.1308H210.875ZM210.875 11.8692V98.1308H218.875V11.8692H210.875ZM209.006 10C210.038 10 210.875 10.8369 210.875 11.8692H218.875C218.875 6.41857 214.456 2 209.006 2V10ZM37.7442 10H209.006V2H37.7442V10Z" fill="black" mask="url(#path-10-inside-4_3487_61122)"/>
<path d="M65.8825 70.5625V64.0625L85.445 33.75H95.57V63.875H101.507V70.5625H95.57V79H87.82V70.5625H65.8825ZM74.195 63.875H87.945V43H87.445L74.195 63.5625V63.875ZM124.375 79.625C113.469 79.625 106.969 71.1875 107 56.375C106.969 41.625 113.531 33.125 124.375 33.125C135.219 33.125 141.75 41.625 141.75 56.375C141.75 71.2188 135.25 79.625 124.375 79.625ZM115.188 56.375C115.188 67.25 118.688 72.7812 124.375 72.8125C130.031 72.7812 133.562 67.25 133.562 56.375C133.531 45.5938 130.031 39.9062 124.375 39.875C118.719 39.9062 115.219 45.5938 115.188 56.375ZM147.43 70.5625V64.0625L166.993 33.75H177.118V63.875H183.055V70.5625H177.118V79H169.368V70.5625H147.43ZM155.743 63.875H169.493V43H168.993L155.743 63.5625V63.875Z" fill="black"/>
<path d="M7.17999 171.593C30.586 164.503 45.4434 182.111 49.658 197.216C53.8381 212.196 36.822 225.761 22.8168 219.209C11.4562 213.893 13.2925 201.468 23.5071 196.915C34.8131 191.876 49.9577 195.117 59.3425 202.829C65.1022 207.562 73.718 223.273 65.9693 229.794C60.7954 234.149 53.3268 231.379 54.638 224.106C56.5804 213.331 68.4566 213.432 76.2417 217.061C80.427 219.012 87.1609 226.12 85.5583 232.448" stroke="#BBD3FF" stroke-width="6" stroke-linecap="round"/>
<path d="M241.875 148.853C241.381 139.437 232.608 126.548 222.188 123.726C211.581 120.854 203.743 126.847 199.423 135.562C196.185 142.096 196.089 151.047 200.225 157.332C203.745 162.681 212.727 165.7 217.142 159.694C224.765 149.326 217.396 135.947 205.627 131.924C200.373 130.129 189.32 131.039 182.875 140.113" stroke="#BBD3FF" stroke-width="6" stroke-linecap="round"/>
<path d="M196.131 210.155C196.794 207.755 197.67 207.201 199.054 206.793C199.994 206.49 200.786 206.024 201.03 205.079C201.322 204.025 200.674 203.123 199.646 202.847C198.712 202.597 197.645 202.958 197.24 204.205L194.882 203.573C195.628 201.053 197.86 200.266 200.19 200.89C202.737 201.573 204.103 203.455 203.511 205.703C203.09 207.238 202.058 208.033 200.637 208.431C199.363 208.807 198.736 209.337 198.338 210.747L198.292 210.917L196.085 210.325L196.131 210.155ZM195.06 212.942C195.263 212.147 196.107 211.676 196.921 211.884C197.702 212.103 198.197 212.933 197.985 213.726C197.767 214.537 196.921 215.018 196.138 214.808C195.326 214.591 194.834 213.751 195.06 212.942Z" fill="#BBD3FF"/>
<path d="M60.0642 142.574C59.0632 138.718 59.8344 137.249 61.4247 135.578C62.4851 134.404 63.2103 133.126 62.7908 131.621C62.353 129.926 60.7336 129.195 59.0885 129.636C57.5944 130.036 56.4043 131.391 56.8406 133.441L53.0674 134.452C52.0852 130.364 54.5497 127.488 58.2776 126.489C62.3526 125.397 65.7513 126.913 66.7289 130.501C67.373 132.965 66.5791 134.892 64.9285 136.58C63.4649 138.121 63.0195 139.356 63.5959 141.628L63.6687 141.9L60.137 142.846L60.0642 142.574ZM60.8107 147.292C60.4559 146.028 61.2484 144.7 62.5423 144.337C63.799 144.016 65.1497 144.771 65.4894 146.038C65.8371 147.336 65.0487 148.68 63.796 149.016C62.498 149.363 61.1433 148.594 60.8107 147.292Z" fill="#BBD3FF"/>
</g>
<defs>
<clipPath id="clip0_3487_61122">
<rect width="247" height="247" fill="white"/>
</clipPath>
</defs>
</svg>
