<svg width="247" height="247" viewBox="0 0 247 247" fill="none" xmlns="http://www.w3.org/2000/svg">
<g clip-path="url(#clip0_3487_61126)">
<path d="M58.8164 142.45C59.0172 143.88 57.3762 144.827 56.2387 143.939L16.4132 112.83C15.5163 112.13 15.6131 110.744 16.5987 110.175L49.3962 91.2393C50.3818 90.6703 51.6301 91.2792 51.7884 92.4062L58.8164 142.45Z" fill="#E9F1FF" stroke="black" stroke-width="3" stroke-linejoin="round"/>
<path d="M32.6182 123.241L51.7769 104.083C52.2301 103.63 53.0061 103.89 53.0947 104.524L55.735 123.447C55.7704 123.7 55.6786 123.955 55.4896 124.128L45.1202 133.595C44.837 133.854 44.4073 133.867 44.109 133.626L32.6794 124.394C32.3206 124.105 32.2921 123.568 32.6182 123.241Z" fill="#508DFF"/>
<path d="M18.0479 111.006L40.6583 96.24C40.7147 96.2032 40.7805 96.1836 40.8478 96.1836C41.1607 96.1836 41.3132 96.5657 41.0864 96.7812L22.7101 114.239C22.4658 114.471 22.0996 114.519 21.8037 114.357L18.1006 112.337C17.5852 112.056 17.5564 111.327 18.0479 111.006Z" fill="#508DFF"/>
<path d="M58.8164 142.446C59.0172 143.876 57.3762 144.823 56.2387 143.935L16.4132 112.826C15.5163 112.126 15.6131 110.74 16.5987 110.171L49.3962 91.2354C50.3818 90.6664 51.6301 91.2753 51.7884 92.4023L58.8164 142.446Z" stroke="black" stroke-width="3" stroke-linejoin="round"/>
<path d="M19.431 97.3685C20.2725 97.3552 20.4816 96.5749 19.7595 96.1427L7.51383 88.8131C6.94451 88.4724 6.18615 88.612 6.06057 89.0806L4.03638 96.635C3.91081 97.1036 4.49777 97.6037 5.1612 97.5932L19.431 97.3685Z" fill="#FF82B6"/>
<path d="M36.9636 87.4857C36.9768 88.3272 37.7571 88.5362 38.1893 87.8142L45.5189 75.5685C45.8597 74.9992 45.7201 74.2408 45.2514 74.1153L37.6971 72.0911C37.2284 71.9655 36.7283 72.5525 36.7388 73.2159L36.9636 87.4857Z" fill="#80FFF7"/>
<path d="M26.5291 89.443C27.1335 90.0287 27.8331 89.6248 27.6281 88.8086L24.1519 74.9668C23.9903 74.3233 23.3554 73.8857 22.9352 74.1283L16.1621 78.0387C15.7419 78.2813 15.8034 79.05 16.2799 79.5117L26.5291 89.443Z" fill="#FFE55A"/>
<path d="M6.85547 202.5H80.8555" stroke="black" stroke-width="3" stroke-linecap="round" stroke-linejoin="round"/>
<path d="M170.855 202.5H244.855" stroke="black" stroke-width="3" stroke-linecap="round" stroke-linejoin="round"/>
<path d="M33.7174 208.062L32.2722 184.893C32.245 184.458 32.5018 184.054 32.9122 183.905C47.292 178.696 66.7043 181.627 75.4598 183.952C75.9106 184.071 76.2101 184.492 76.1868 184.958L75.0345 208.05C75.008 208.582 74.5687 209 74.0358 209H34.7154C34.1873 209 33.7502 208.589 33.7174 208.062Z" fill="#C6FFFC" stroke="black" stroke-width="3" stroke-linecap="round" stroke-linejoin="round"/>
<path d="M59.2266 208V184C59.2266 183.448 58.7788 183 58.2266 183H49.2266C48.6743 183 48.2266 183.448 48.2266 184V208C48.2266 208.552 48.6743 209 49.2266 209H58.2266C58.7788 209 59.2266 208.552 59.2266 208Z" fill="#1FD2C7" stroke="black" stroke-width="3" stroke-linecap="round" stroke-linejoin="round"/>
<path d="M78.4514 175.652C56.8087 170.709 38.4213 173.47 29.6597 175.629C29.1923 175.744 28.8795 176.18 28.9126 176.66L29.4134 183.923C29.4525 184.489 29.9586 184.909 30.5237 184.85C51.933 182.598 69.9273 183.802 78.0971 184.815C78.6988 184.889 79.2258 184.421 79.2258 183.815V176.623C79.2258 176.16 78.9035 175.755 78.4514 175.652Z" fill="#C6FFFC" stroke="black" stroke-width="3" stroke-linecap="round" stroke-linejoin="round"/>
<path d="M59.3935 182.389V174.314C59.3935 173.762 58.9458 173.314 58.3935 173.314H49.375C48.8227 173.314 48.375 173.762 48.375 174.314V182.389C48.375 182.941 48.8227 183.389 49.375 183.389H58.3935C58.9458 183.389 59.3935 182.941 59.3935 182.389Z" fill="#1FD2C7" stroke="black" stroke-width="3" stroke-linecap="round" stroke-linejoin="round"/>
<path d="M69.4324 174.826L68.2125 163.638C68.1344 162.921 67.2865 162.45 66.6396 162.765L53.7876 169.006L39.9103 162.503C39.1931 162.167 38.4301 162.628 38.5054 163.352L39.6372 174.236C39.712 174.955 40.5619 175.43 41.2107 175.115L53.7876 169.006L68.028 175.68C68.7471 176.017 69.5115 175.553 69.4324 174.826Z" fill="#1FD2C7" stroke="black" stroke-width="3" stroke-linecap="round" stroke-linejoin="round"/>
<path d="M49.6163 171.283L49.0449 167.283C48.8727 166.078 49.8077 165 51.0248 165H56.4127C57.6298 165 58.5648 166.078 58.3926 167.283L57.8212 171.283C57.6804 172.268 56.8366 173 55.8413 173H51.5962C50.6009 173 49.7571 172.268 49.6163 171.283Z" fill="#1FD2C7" stroke="black" stroke-width="3" stroke-linecap="round" stroke-linejoin="round"/>
<mask id="path-16-inside-1_3487_61126" fill="white">
<path fill-rule="evenodd" clip-rule="evenodd" d="M81.2371 205.754C73.9923 205.402 67.7186 202.95 63.2638 198.22C49.9392 184.073 57.9324 154.903 81.117 133.066C104.302 111.23 133.898 104.997 147.223 119.144C152.931 125.204 154.727 134.02 153.093 143.836C163.593 146.156 171.582 151.664 174.669 159.877C178.676 170.537 173.469 183.205 162.285 193.649C163.399 195.77 164.021 198.023 164.072 200.367C164.362 213.748 145.935 225.001 122.914 225.501C101.991 225.955 84.4737 217.369 81.2371 205.754Z"/>
</mask>
<path fill-rule="evenodd" clip-rule="evenodd" d="M81.2371 205.754C73.9923 205.402 67.7186 202.95 63.2638 198.22C49.9392 184.073 57.9324 154.903 81.117 133.066C104.302 111.23 133.898 104.997 147.223 119.144C152.931 125.204 154.727 134.02 153.093 143.836C163.593 146.156 171.582 151.664 174.669 159.877C178.676 170.537 173.469 183.205 162.285 193.649C163.399 195.77 164.021 198.023 164.072 200.367C164.362 213.748 145.935 225.001 122.914 225.501C101.991 225.955 84.4737 217.369 81.2371 205.754Z" fill="white"/>
<path d="M81.2371 205.754L84.127 204.949L83.5457 202.863L81.3828 202.758L81.2371 205.754ZM63.2638 198.22L61.0799 200.277L61.0799 200.277L63.2638 198.22ZM81.117 133.066L83.1739 135.25L81.117 133.066ZM147.223 119.144L145.039 121.201L145.039 121.201L147.223 119.144ZM153.093 143.836L150.133 143.344L149.666 146.152L152.446 146.766L153.093 143.836ZM174.669 159.877L171.861 160.933L174.669 159.877ZM162.285 193.649L160.237 191.457L158.564 193.019L159.629 195.045L162.285 193.649ZM164.072 200.367L167.071 200.302L167.071 200.302L164.072 200.367ZM122.914 225.501L122.979 228.5L122.979 228.5L122.914 225.501ZM81.3828 202.758C74.7264 202.434 69.2544 200.205 65.4477 196.164L61.0799 200.277C66.1828 205.695 73.2582 208.37 81.0914 208.751L81.3828 202.758ZM65.4477 196.164C59.7746 190.14 58.3141 180.555 61.3928 169.319C64.4553 158.143 71.9159 145.853 83.1739 135.25L79.0602 130.882C67.1336 142.115 59.0052 155.329 55.6061 167.734C52.2232 180.08 53.4284 192.153 61.0799 200.277L65.4477 196.164ZM83.1739 135.25C94.432 124.647 107.146 117.935 118.486 115.547C129.885 113.146 139.366 115.177 145.039 121.201L149.407 117.087C141.755 108.963 129.775 107.037 117.249 109.676C104.663 112.326 90.9868 119.649 79.0602 130.882L83.1739 135.25ZM145.039 121.201C149.904 126.366 151.669 134.121 150.133 143.344L156.052 144.329C157.785 133.92 155.957 124.041 149.407 117.087L145.039 121.201ZM152.446 146.766C162.36 148.956 169.255 154.001 171.861 160.933L177.477 158.822C173.908 149.327 164.827 143.357 153.74 140.907L152.446 146.766ZM171.861 160.933C175.239 169.921 171.043 181.366 160.237 191.457L164.332 195.842C175.895 185.044 182.112 171.153 177.477 158.822L171.861 160.933ZM159.629 195.045C160.546 196.79 161.032 198.591 161.072 200.432L167.071 200.302C167.009 197.456 166.252 194.75 164.94 192.253L159.629 195.045ZM161.072 200.432C161.185 205.608 157.666 210.932 150.671 215.204C143.75 219.431 133.926 222.261 122.849 222.501L122.979 228.5C134.923 228.241 145.823 225.195 153.798 220.325C161.699 215.5 167.249 208.507 167.071 200.302L161.072 200.432ZM122.849 222.501C112.79 222.72 103.656 220.759 96.7382 217.447C89.7477 214.102 85.4213 209.594 84.127 204.949L78.3472 206.56C80.2895 213.53 86.3399 219.122 94.1479 222.859C102.028 226.631 112.115 228.736 122.979 228.5L122.849 222.501Z" fill="black" mask="url(#path-16-inside-1_3487_61126)"/>
<path d="M105.158 171.861C104.182 176.851 101.81 181.017 98.8358 183.735C95.8611 186.452 92.3722 187.659 89.043 187.007C85.7138 186.356 82.9366 183.924 81.2052 180.286C79.4739 176.648 78.8466 171.895 79.8227 166.906C80.7987 161.916 83.1706 157.75 86.1451 155.032C89.1198 152.315 92.6087 151.108 95.9379 151.759C99.2671 152.411 102.044 154.843 103.776 158.481C105.507 162.119 106.134 166.872 105.158 171.861Z" fill="white" stroke="black" stroke-width="3"/>
<path d="M104.506 167.932C96.5266 163.367 89.6487 161.973 80.6866 168.877" stroke="black" stroke-width="3" stroke-linecap="round"/>
<path d="M129.412 171.861C128.436 176.851 126.064 181.017 123.09 183.735C120.115 186.452 116.626 187.659 113.297 187.007C109.968 186.356 107.191 183.924 105.459 180.286C103.728 176.648 103.101 171.895 104.077 166.906C105.053 161.916 107.425 157.75 110.399 155.032C113.374 152.315 116.863 151.108 120.192 151.759C123.521 152.411 126.298 154.843 128.03 158.481C129.761 162.119 130.388 166.872 129.412 171.861Z" fill="white" stroke="black" stroke-width="3"/>
<path d="M105.355 166.999C113.855 163.498 120.855 163 128.855 170.999" stroke="black" stroke-width="3" stroke-linecap="round"/>
<path d="M87.418 193L84.8555 196.417" stroke="#FF8B7B" stroke-width="3" stroke-linecap="round" stroke-linejoin="round"/>
<path d="M119.875 193L117.312 196.417" stroke="#FF8B7B" stroke-width="3" stroke-linecap="round" stroke-linejoin="round"/>
<path d="M93.3906 193L90.8281 196.417" stroke="#FF8B7B" stroke-width="3" stroke-linecap="round" stroke-linejoin="round"/>
<path d="M125.855 193L123.293 196.417" stroke="#FF8B7B" stroke-width="3" stroke-linecap="round" stroke-linejoin="round"/>
<path d="M167.293 225.067L164.906 189.496C164.876 189.05 165.143 188.638 165.566 188.493C189.062 180.406 221.102 185.019 235.078 188.542C235.539 188.659 235.837 189.082 235.812 189.556L233.906 225.054C233.878 225.584 233.439 226 232.908 226H168.291C167.764 226 167.328 225.592 167.293 225.067Z" fill="#BBD3FF" stroke="black" stroke-width="3" stroke-linecap="round" stroke-linejoin="round"/>
<path d="M208.855 225V188C208.855 187.448 208.408 187 207.855 187H191.855C191.303 187 190.855 187.448 190.855 188V225C190.855 225.552 191.303 226 191.855 226H207.855C208.408 226 208.855 225.552 208.855 225Z" fill="#2470FF" stroke="black" stroke-width="3" stroke-linecap="round" stroke-linejoin="round"/>
<path d="M239.081 176.318C204.105 168.23 174.423 172.838 160.649 176.297C160.182 176.414 159.879 176.847 159.913 177.328L160.784 189.96C160.823 190.527 161.33 190.947 161.895 190.886C196.755 187.159 225.999 189.215 238.721 190.849C239.323 190.926 239.855 190.459 239.855 189.853V177.291C239.855 176.827 239.532 176.423 239.081 176.318Z" fill="#BBD3FF" stroke="black" stroke-width="3" stroke-linecap="round" stroke-linejoin="round"/>
<path d="M208.355 187.5V173.5C208.355 172.948 207.908 172.5 207.355 172.5H191.855C191.303 172.5 190.855 172.948 190.855 173.5V187.5C190.855 188.052 191.303 188.5 191.855 188.5H207.355C207.908 188.5 208.355 188.052 208.355 187.5Z" fill="#2470FF" stroke="black" stroke-width="3" stroke-linecap="round" stroke-linejoin="round"/>
<path d="M172.127 168.854L201.355 165.5L228.594 167.889C229.237 167.946 229.659 168.589 229.455 169.202L227.206 175.949C227.018 176.511 226.386 176.788 225.846 176.545L201.355 165.5L174.813 176.6C174.29 176.818 173.69 176.559 173.491 176.028L171.305 170.199C171.077 169.59 171.481 168.928 172.127 168.854Z" fill="#2470FF"/>
<path d="M201.355 165.5L172.127 168.854C171.481 168.928 171.077 169.59 171.305 170.199L173.491 176.028C173.69 176.559 174.29 176.818 174.813 176.6L201.355 165.5ZM201.355 165.5L225.846 176.545C226.386 176.788 227.018 176.511 227.206 175.949L229.455 169.202C229.659 168.589 229.237 167.946 228.594 167.889L201.355 165.5Z" stroke="black" stroke-width="3" stroke-linecap="round" stroke-linejoin="round"/>
<path d="M180.501 175.484L182.137 156.287C182.2 155.543 183.027 155.128 183.661 155.522L199.975 165.657L217.485 155.16C218.183 154.741 219.062 155.287 218.996 156.099L217.474 174.814C217.414 175.56 216.586 175.977 215.95 175.582L199.975 165.657L182.011 176.427C181.312 176.846 180.431 176.297 180.501 175.484Z" fill="#2470FF" stroke="black" stroke-width="3" stroke-linecap="round" stroke-linejoin="round"/>
<path d="M204.721 169.272L205.544 163.272C205.709 162.07 204.775 161 203.562 161H196.148C194.936 161 194.002 162.07 194.167 163.272L194.99 169.272C195.126 170.262 195.972 171 196.971 171H202.74C203.739 171 204.585 170.262 204.721 169.272Z" fill="#2470FF" stroke="black" stroke-width="3" stroke-linecap="round" stroke-linejoin="round"/>
<path d="M142.346 232.062L140.901 208.893C140.874 208.458 141.131 208.054 141.541 207.905C155.921 202.696 175.333 205.627 184.089 207.952C184.539 208.071 184.839 208.492 184.816 208.958L183.663 232.05C183.637 232.582 183.198 233 182.665 233H143.344C142.816 233 142.379 232.589 142.346 232.062Z" fill="#FFF3B4" stroke="black" stroke-width="3" stroke-linecap="round" stroke-linejoin="round"/>
<path d="M167.855 232V208C167.855 207.448 167.408 207 166.855 207H157.855C157.303 207 156.855 207.448 156.855 208V232C156.855 232.552 157.303 233 157.855 233H166.855C167.408 233 167.855 232.552 167.855 232Z" fill="#FF82B6" stroke="black" stroke-width="3" stroke-linecap="round" stroke-linejoin="round"/>
<path d="M187.08 199.652C165.438 194.709 147.05 197.47 138.289 199.629C137.821 199.744 137.508 200.18 137.542 200.66L138.042 207.923C138.081 208.489 138.587 208.909 139.153 208.85C160.562 206.598 178.556 207.802 186.726 208.815C187.328 208.889 187.855 208.421 187.855 207.815V200.623C187.855 200.16 187.532 199.755 187.08 199.652Z" fill="#FFF3B4" stroke="black" stroke-width="3" stroke-linecap="round" stroke-linejoin="round"/>
<path d="M168.022 206.389V198.314C168.022 197.762 167.575 197.314 167.022 197.314H158.004C157.452 197.314 157.004 197.762 157.004 198.314V206.389C157.004 206.941 157.452 207.389 158.004 207.389H167.022C167.575 207.389 168.022 206.941 168.022 206.389Z" fill="#FF82B6" stroke="black" stroke-width="3" stroke-linecap="round" stroke-linejoin="round"/>
<path d="M147.142 198.826L148.362 187.638C148.44 186.921 149.288 186.45 149.935 186.765L162.787 193.006L176.664 186.503C177.381 186.167 178.144 186.628 178.069 187.352L176.937 198.236C176.862 198.955 176.012 199.43 175.364 199.115L162.787 193.006L148.546 199.68C147.827 200.017 147.063 199.553 147.142 198.826Z" fill="#FF82B6" stroke="black" stroke-width="3" stroke-linecap="round" stroke-linejoin="round"/>
<path d="M166.958 195.283L167.529 191.283C167.701 190.078 166.767 189 165.549 189H160.161C158.944 189 158.009 190.078 158.182 191.283L158.753 195.283C158.894 196.268 159.738 197 160.733 197H164.978C165.973 197 166.817 196.268 166.958 195.283Z" fill="#FF82B6" stroke="black" stroke-width="3" stroke-linecap="round" stroke-linejoin="round"/>
<mask id="path-40-inside-2_3487_61126" fill="white">
<path fill-rule="evenodd" clip-rule="evenodd" d="M222.779 50C227.792 50 231.855 54.0637 231.855 59.0766V97.9234C231.855 102.936 227.792 107 222.779 107H191.963L172.011 118.519V107H162.932C157.919 107 153.855 102.936 153.855 97.9234V59.0766C153.855 54.0637 157.919 50 162.932 50H222.779Z"/>
</mask>
<path fill-rule="evenodd" clip-rule="evenodd" d="M222.779 50C227.792 50 231.855 54.0637 231.855 59.0766V97.9234C231.855 102.936 227.792 107 222.779 107H191.963L172.011 118.519V107H162.932C157.919 107 153.855 102.936 153.855 97.9234V59.0766C153.855 54.0637 157.919 50 162.932 50H222.779Z" fill="white"/>
<path d="M191.963 107L190.463 104.402L191.159 104H191.963V107ZM172.011 118.519L173.511 121.117L169.011 123.715V118.519H172.011ZM172.011 107V104H175.011V107H172.011ZM228.855 59.0766C228.855 55.7206 226.135 53 222.779 53V47C229.449 47 234.855 52.4069 234.855 59.0766H228.855ZM228.855 97.9234V59.0766H234.855V97.9234H228.855ZM222.779 104C226.135 104 228.855 101.279 228.855 97.9234H234.855C234.855 104.593 229.449 110 222.779 110V104ZM191.963 104H222.779V110H191.963V104ZM193.463 109.598L173.511 121.117L170.511 115.921L190.463 104.402L193.463 109.598ZM169.011 118.519V107H175.011V118.519H169.011ZM162.932 104H172.011V110H162.932V104ZM156.855 97.9234C156.855 101.279 159.576 104 162.932 104V110C156.262 110 150.855 104.593 150.855 97.9234H156.855ZM156.855 59.0766V97.9234H150.855V59.0766H156.855ZM162.932 53C159.576 53 156.855 55.7206 156.855 59.0766H150.855C150.855 52.4069 156.262 47 162.932 47V53ZM222.779 53H162.932V47H222.779V53Z" fill="black" mask="url(#path-40-inside-2_3487_61126)"/>
<path d="M174.997 72.6341L174.997 72.6383C174.994 73.6965 175.209 74.7461 175.63 75.7267C176.052 76.7075 176.672 77.6014 177.457 78.3554L177.463 78.3607L177.468 78.3661L192.747 93.3335L208.025 78.3661L208.025 78.3661L208.034 78.3578C209.618 76.8303 210.499 74.7693 210.5 72.6314C210.501 70.4936 209.623 68.4316 208.041 66.9022C206.457 65.3712 204.297 64.5013 202.033 64.5C199.77 64.4987 197.608 65.366 196.022 66.8952L196.005 66.9125L195.986 66.9291L193.752 68.9451L192.749 69.85L191.744 68.9469L189.494 66.9243L189.476 66.9077L189.458 66.8905C188.275 65.754 186.763 64.9758 185.111 64.6619C183.459 64.3479 181.748 64.5139 180.196 65.1369C178.645 65.7598 177.328 66.809 176.406 68.1441C175.484 69.4785 174.996 71.0409 174.997 72.6341Z" fill="#FF8B7B" stroke="black" stroke-width="3"/>
</g>
<defs>
<clipPath id="clip0_3487_61126">
<rect width="247" height="247" fill="white"/>
</clipPath>
</defs>
</svg>
