<svg width="247" height="247" viewBox="0 0 247 247" fill="none" xmlns="http://www.w3.org/2000/svg">
<g clip-path="url(#clip0_3487_61124)">
<mask id="path-1-inside-1_3487_61124" fill="white">
<path fill-rule="evenodd" clip-rule="evenodd" d="M98.2593 211.754C91.0134 211.403 84.7387 208.951 80.2833 204.22C66.9587 190.073 74.9519 160.903 98.1366 139.066C121.321 117.23 150.918 110.997 164.242 125.144C169.95 131.204 171.746 140.02 170.112 149.836C180.614 152.156 188.603 157.664 191.69 165.878C195.697 176.537 190.491 189.204 179.307 199.649C180.421 201.769 181.043 204.023 181.094 206.366C181.384 219.748 162.957 231.001 139.936 231.5C119.013 231.954 101.496 223.369 98.2593 211.754Z"/>
</mask>
<path fill-rule="evenodd" clip-rule="evenodd" d="M98.2593 211.754C91.0134 211.403 84.7387 208.951 80.2833 204.22C66.9587 190.073 74.9519 160.903 98.1366 139.066C121.321 117.23 150.918 110.997 164.242 125.144C169.95 131.204 171.746 140.02 170.112 149.836C180.614 152.156 188.603 157.664 191.69 165.878C195.697 176.537 190.491 189.204 179.307 199.649C180.421 201.769 181.043 204.023 181.094 206.366C181.384 219.748 162.957 231.001 139.936 231.5C119.013 231.954 101.496 223.369 98.2593 211.754Z" fill="#508DFF"/>
<path d="M98.2593 211.754L102.112 210.681L101.337 207.899L98.4533 207.759L98.2593 211.754ZM80.2833 204.22L77.3715 206.963L80.2833 204.22ZM98.1366 139.066L100.879 141.978L98.1366 139.066ZM164.242 125.144L161.331 127.886L164.242 125.144ZM170.112 149.836L166.167 149.179L165.543 152.923L169.25 153.742L170.112 149.836ZM191.69 165.878L195.435 164.47L195.435 164.47L191.69 165.878ZM179.307 199.649L176.577 196.725L174.346 198.809L175.766 201.51L179.307 199.649ZM181.094 206.366L177.095 206.453L177.095 206.453L181.094 206.366ZM139.936 231.5L139.849 227.501L139.936 231.5ZM98.4533 207.759C91.9919 207.445 86.7863 205.291 83.1951 201.478L77.3715 206.963C82.6911 212.611 90.0348 215.36 98.0653 215.75L98.4533 207.759ZM83.1951 201.478C77.8518 195.805 76.3488 186.634 79.3768 175.584C82.3832 164.612 89.7324 152.476 100.879 141.978L95.3941 136.154C83.356 147.492 75.1163 160.86 71.6612 173.47C68.2275 186 69.3903 198.489 77.3715 206.963L83.1951 201.478ZM100.879 141.978C112.026 131.48 124.579 124.87 135.711 122.525C146.923 120.164 155.987 122.213 161.331 127.886L167.154 122.401C159.173 113.927 146.777 112.019 134.063 114.697C121.269 117.391 107.432 124.816 95.3941 136.154L100.879 141.978ZM161.331 127.886C165.915 132.754 167.669 140.154 166.167 149.179L174.058 150.493C175.823 139.887 173.985 129.654 167.154 122.401L161.331 127.886ZM169.25 153.742C178.969 155.889 185.501 160.78 187.946 167.285L195.435 164.47C191.705 154.548 182.259 148.423 170.975 145.93L169.25 153.742ZM187.946 167.285C191.115 175.716 187.256 186.753 176.577 196.725L182.037 202.572C193.726 191.656 200.279 177.358 195.435 164.47L187.946 167.285ZM175.766 201.51C176.617 203.129 177.058 204.779 177.095 206.453L185.093 206.28C185.027 203.266 184.225 200.409 182.847 197.788L175.766 201.51ZM177.095 206.453C177.196 211.124 174.016 216.171 167.172 220.35C160.427 224.469 150.781 227.264 139.849 227.501L140.023 235.499C152.112 235.237 163.19 232.156 171.341 227.178C179.393 222.261 185.282 214.99 185.093 206.28L177.095 206.453ZM139.849 227.501C129.925 227.717 120.95 225.779 114.192 222.545C107.338 219.265 103.299 214.938 102.112 210.681L94.4061 212.828C96.4567 220.186 102.794 225.959 110.739 229.761C118.779 233.61 129.025 235.738 140.023 235.499L139.849 227.501Z" fill="black" mask="url(#path-1-inside-1_3487_61124)"/>
<path d="M121.687 177.765C120.729 182.661 118.406 186.728 115.518 189.366C112.63 192.004 109.296 193.131 106.159 192.517C103.021 191.903 100.357 189.603 98.6762 186.071C96.9954 182.54 96.3753 177.897 97.3329 173.002C98.2905 168.106 100.614 164.039 103.502 161.401C106.39 158.763 109.724 157.636 112.861 158.25C115.999 158.864 118.663 161.164 120.344 164.696C122.025 168.227 122.645 172.87 121.687 177.765Z" fill="#508DFF" stroke="black" stroke-width="4"/>
<mask id="path-4-inside-2_3487_61124" fill="white">
<path d="M124.135 173.113C124.121 168.031 122.567 163.396 119.815 160.229C117.062 157.061 113.337 155.62 109.458 156.222C105.58 156.824 101.865 159.421 99.1322 163.44C96.3991 167.459 94.8714 172.572 94.8851 177.654L109.51 175.383L124.135 173.113Z"/>
</mask>
<path d="M124.135 173.113C124.121 168.031 122.567 163.396 119.815 160.229C117.062 157.061 113.337 155.62 109.458 156.222C105.58 156.824 101.865 159.421 99.1322 163.44C96.3991 167.459 94.8714 172.572 94.8851 177.654L109.51 175.383L124.135 173.113Z" fill="#508DFF" stroke="black" stroke-width="8" mask="url(#path-4-inside-2_3487_61124)"/>
<path d="M145.945 177.765C144.987 182.661 142.664 186.728 139.776 189.366C136.888 192.004 133.554 193.131 130.416 192.517C127.279 191.903 124.615 189.603 122.934 186.071C121.253 182.54 120.633 177.897 121.591 173.002C122.548 168.106 124.872 164.039 127.76 161.401C130.648 158.763 133.982 157.636 137.119 158.25C140.257 158.864 142.921 161.164 144.602 164.696C146.282 168.227 146.902 172.87 145.945 177.765Z" fill="#508DFF" stroke="black" stroke-width="4"/>
<mask id="path-6-inside-3_3487_61124" fill="white">
<path d="M147.908 178.149C148.898 173.085 148.359 167.936 146.407 163.836C144.456 159.736 141.253 157.021 137.503 156.287C133.753 155.554 129.763 156.862 126.411 159.925C123.058 162.987 120.619 167.553 119.628 172.618L133.768 175.383L147.908 178.149Z"/>
</mask>
<path d="M147.908 178.149C148.898 173.085 148.359 167.936 146.407 163.836C144.456 159.736 141.253 157.021 137.503 156.287C133.753 155.554 129.763 156.862 126.411 159.925C123.058 162.987 120.619 167.553 119.628 172.618L133.768 175.383L147.908 178.149Z" fill="#508DFF" stroke="black" stroke-width="8" mask="url(#path-6-inside-3_3487_61124)"/>
<path d="M164.016 194.5C164.016 198.642 162.225 200 160.016 200C157.806 200 156.016 198.642 156.016 194.5C156.016 190.358 160.016 187 160.016 187C160.016 187 164.016 190.358 164.016 194.5Z" fill="#E9F1FF" stroke="black" stroke-width="4"/>
<mask id="path-8-inside-4_3487_61124" fill="white">
<path fill-rule="evenodd" clip-rule="evenodd" d="M38.7442 6C35.5027 6 32.875 8.62771 32.875 11.8692V98.1308C32.875 101.372 35.5027 104 38.7442 104H63.8662L83.1533 115.135V104H210.006C213.247 104 215.875 101.372 215.875 98.1308V11.8692C215.875 8.62771 213.247 6 210.006 6H38.7442Z"/>
</mask>
<path fill-rule="evenodd" clip-rule="evenodd" d="M38.7442 6C35.5027 6 32.875 8.62771 32.875 11.8692V98.1308C32.875 101.372 35.5027 104 38.7442 104H63.8662L83.1533 115.135V104H210.006C213.247 104 215.875 101.372 215.875 98.1308V11.8692C215.875 8.62771 213.247 6 210.006 6H38.7442Z" fill="white"/>
<path d="M63.8662 104L65.8662 100.536L64.938 100H63.8662V104ZM83.1533 115.135L81.1533 118.6L87.1533 122.064V115.135H83.1533ZM83.1533 104V100H79.1533V104H83.1533ZM36.875 11.8692C36.875 10.8369 37.7118 10 38.7442 10V2C33.2936 2 28.875 6.41856 28.875 11.8692H36.875ZM36.875 98.1308V11.8692H28.875V98.1308H36.875ZM38.7442 100C37.7118 100 36.875 99.1632 36.875 98.1308H28.875C28.875 103.581 33.2936 108 38.7442 108V100ZM63.8662 100H38.7442V108H63.8662V100ZM85.1533 111.671L65.8662 100.536L61.8662 107.464L81.1533 118.6L85.1533 111.671ZM79.1533 104V115.135H87.1533V104H79.1533ZM210.006 100H83.1533V108H210.006V100ZM211.875 98.1308C211.875 99.1631 211.038 100 210.006 100V108C215.456 108 219.875 103.581 219.875 98.1308H211.875ZM211.875 11.8692V98.1308H219.875V11.8692H211.875ZM210.006 10C211.038 10 211.875 10.8369 211.875 11.8692H219.875C219.875 6.41857 215.456 2 210.006 2V10ZM38.7442 10H210.006V2H38.7442V10Z" fill="black" mask="url(#path-8-inside-4_3487_61124)"/>
<path d="M84.8825 79.625C75.8512 79.625 69.195 74.2188 68.945 66.75H76.8825C77.1325 70.4062 80.6012 73.0312 84.8825 73.0625C89.945 73.0312 93.6012 69.375 93.57 64.375C93.6012 59.1875 89.8512 55.5312 84.6325 55.5C81.1012 55.4688 78.5387 56.7188 77.1325 59.375H69.57L72.32 33.75H99.07V40.5625H79.0075L77.6325 52.5625H78.07C79.82 50.5938 83.1012 49.1562 86.82 49.125C95.2262 49.1562 101.476 55.4062 101.445 64.125C101.476 73.1562 94.6637 79.625 84.8825 79.625ZM124.688 79.625C113.781 79.625 107.281 71.1875 107.312 56.375C107.281 41.625 113.844 33.125 124.688 33.125C135.531 33.125 142.062 41.625 142.062 56.375C142.062 71.2188 135.562 79.625 124.688 79.625ZM115.5 56.375C115.5 67.25 119 72.7812 124.688 72.8125C130.344 72.7812 133.875 67.25 133.875 56.375C133.844 45.5938 130.344 39.9062 124.688 39.875C119.031 39.9062 115.531 45.5938 115.5 56.375ZM165.243 79.625C154.336 79.625 147.836 71.1875 147.868 56.375C147.836 41.625 154.399 33.125 165.243 33.125C176.086 33.125 182.618 41.625 182.618 56.375C182.618 71.2188 176.118 79.625 165.243 79.625ZM156.055 56.375C156.055 67.25 159.555 72.7812 165.243 72.8125C170.899 72.7812 174.43 67.25 174.43 56.375C174.399 45.5938 170.899 39.9062 165.243 39.875C159.586 39.9062 156.086 45.5938 156.055 56.375Z" fill="black"/>
<path d="M8.17999 171.593C31.586 164.503 46.4434 182.111 50.658 197.216C54.8381 212.196 37.822 225.761 23.8168 219.209C12.4562 213.893 14.2925 201.468 24.5071 196.915C35.8131 191.876 50.9577 195.117 60.3425 202.829C66.1022 207.562 74.718 223.273 66.9693 229.794C61.7954 234.149 54.3268 231.379 55.638 224.106C57.5804 213.331 69.4566 213.432 77.2417 217.061C81.427 219.012 88.1609 226.12 86.5583 232.448" stroke="#BBD3FF" stroke-width="6" stroke-linecap="round"/>
<path d="M242.875 148.853C242.381 139.437 233.608 126.548 223.188 123.726C212.581 120.854 204.743 126.847 200.423 135.562C197.185 142.096 197.089 151.047 201.225 157.332C204.745 162.681 213.727 165.7 218.142 159.694C225.765 149.326 218.396 135.947 206.627 131.924C201.373 130.129 190.32 131.039 183.875 140.113" stroke="#BBD3FF" stroke-width="6" stroke-linecap="round"/>
<path d="M197.131 210.155C197.794 207.755 198.67 207.201 200.054 206.793C200.994 206.49 201.786 206.024 202.03 205.079C202.322 204.025 201.674 203.123 200.646 202.847C199.712 202.597 198.645 202.958 198.24 204.205L195.882 203.573C196.628 201.053 198.86 200.266 201.19 200.89C203.737 201.573 205.103 203.455 204.511 205.703C204.09 207.238 203.058 208.033 201.637 208.431C200.363 208.807 199.736 209.337 199.338 210.747L199.292 210.917L197.085 210.325L197.131 210.155ZM196.06 212.942C196.263 212.147 197.107 211.676 197.921 211.884C198.702 212.103 199.197 212.933 198.985 213.726C198.767 214.537 197.921 215.018 197.138 214.808C196.326 214.591 195.834 213.751 196.06 212.942Z" fill="#BBD3FF"/>
<path d="M61.0642 142.574C60.0632 138.718 60.8344 137.249 62.4247 135.578C63.4851 134.404 64.2103 133.126 63.7908 131.621C63.353 129.926 61.7336 129.195 60.0885 129.636C58.5944 130.036 57.4043 131.391 57.8406 133.441L54.0674 134.452C53.0852 130.364 55.5497 127.488 59.2776 126.489C63.3526 125.397 66.7513 126.913 67.7289 130.501C68.373 132.965 67.5791 134.892 65.9285 136.58C64.4649 138.121 64.0195 139.356 64.5959 141.628L64.6687 141.9L61.137 142.846L61.0642 142.574ZM61.8107 147.292C61.4559 146.028 62.2484 144.7 63.5423 144.337C64.799 144.016 66.1497 144.771 66.4894 146.038C66.8371 147.336 66.0487 148.68 64.796 149.016C63.498 149.363 62.1433 148.594 61.8107 147.292Z" fill="#BBD3FF"/>
</g>
<defs>
<clipPath id="clip0_3487_61124">
<rect width="247" height="247" fill="white"/>
</clipPath>
</defs>
</svg>
