<svg width="88" height="88" viewBox="0 0 88 88" fill="none" xmlns="http://www.w3.org/2000/svg">
<g clip-path="url(#clip0_1070_12577)">
<path d="M34.3521 24.6778L71.2359 55.627C72.3304 56.5454 72.1263 58.2847 70.849 58.9256L16.5615 86.1682C15.0037 86.95 13.2658 85.4917 13.7652 83.8219L31.167 25.6285C31.5764 24.2592 33.2538 23.7562 34.3483 24.6746L34.3521 24.6778Z" fill="url(#paint0_linear_1070_12577)"/>
<path d="M27.9373 36.4476C27.9373 36.4476 31.1369 44.0305 41.9373 53.0931C56.1601 65.0274 60.7609 63.99 60.7609 63.99L49.1519 69.8154C49.1519 69.8154 43.1675 67.9208 35.1444 61.1886C28.5792 55.6798 24.1053 49.2561 24.2162 48.8919L27.9373 36.4476Z" fill="url(#paint1_linear_1070_12577)"/>
<path d="M21.3105 58.6016C21.3105 58.6016 23.6195 64.2888 28.856 68.6827C35.5753 74.3209 40.0941 74.3629 40.0941 74.3629L28.4927 80.1947C28.4927 80.1947 26.183 79.9012 22.2275 76.5822C18.2721 73.2632 17.5895 71.0459 17.5895 71.0459L21.3105 58.6016Z" fill="url(#paint2_linear_1070_12577)"/>
<path d="M52.4198 2.29901L57.9913 1.33006C57.9913 1.33006 61.242 6.65262 59.5506 16.249C57.8592 25.8454 52.3776 29.2545 52.3776 29.2545C52.3776 29.2545 57.8083 16.5355 52.4163 2.29932L52.4198 2.29901Z" fill="url(#paint3_linear_1070_12577)"/>
<path d="M42.2327 6.17098L41.0303 11.4581L45.0291 11.6638L47.3385 7.09472L42.2327 6.17098Z" fill="url(#paint4_linear_1070_12577)"/>
<path d="M69.5391 18.7527L65.7329 23.2887L67.8734 26.7683L72.8522 23.359L69.5391 18.7527Z" fill="url(#paint5_linear_1070_12577)"/>
<path d="M87.1578 23.4355L81.6247 25.5493L79.0377 22.3892L83.8877 18.7972L87.1578 23.4355Z" fill="url(#paint6_linear_1070_12577)"/>
<path d="M77.2787 41.4178L73.032 42.5979L71.8905 46.1283L77.077 45.4571L77.2787 41.4178Z" fill="url(#paint7_linear_1070_12577)"/>
<path d="M29.5169 9.72806L29.4556 14.7336L32.3025 15.1795L33.4852 10.7548L29.5169 9.72806Z" fill="url(#paint8_linear_1070_12577)"/>
<path d="M88.0644 45.7268L83.1439 46.6582L82.2104 43.9319L86.3641 41.997L88.0644 45.7268Z" fill="url(#paint9_linear_1070_12577)"/>
<path d="M47.7942 46.113C58.72 55.2808 69.3041 60.6547 71.4344 58.1159C73.5647 55.5771 66.4345 46.087 55.5087 36.9192C44.5829 27.7513 33.9989 22.3774 31.8686 24.9163C29.7382 27.4551 36.8684 36.9452 47.7942 46.113Z" fill="url(#paint10_linear_1070_12577)" stroke="url(#paint11_linear_1070_12577)" stroke-width="0.742962" stroke-linecap="round" stroke-linejoin="round"/>
<path d="M83.0739 48.3061C81.5295 46.8415 79.2823 46.1139 77.1717 46.3215C76.0753 46.4297 75.0114 46.7891 74.0871 47.3921C73.1493 48.0032 72.414 48.8718 71.4886 49.5031C71.3671 49.586 71.243 49.6604 71.1174 49.7366C70.8544 49.8955 71.4144 49.6031 71.0872 49.7534C70.8702 49.8535 70.6443 49.9332 70.4154 49.9974C70.3724 50.0099 70.3275 50.0209 70.2861 50.0316C70.038 50.0992 70.3733 50.001 70.3953 50.0097C70.3295 49.9837 70.1154 50.0571 70.0368 50.0658C69.8099 50.0927 69.5827 50.0967 69.3559 50.1042C69.1624 50.1105 69.6542 50.1274 69.4621 50.109C69.4017 50.1037 69.3397 50.1003 69.2792 50.095C69.1724 50.0832 69.0655 50.0714 68.9599 50.0541C68.8544 50.0369 68.7485 50.0162 68.6442 49.9936C68.5848 49.9794 68.5237 49.9671 68.464 49.9494C68.4351 49.9413 68.4045 49.9352 68.3737 49.9255C68.2634 49.8946 68.3143 49.9113 68.5224 49.9725C68.4663 49.9157 68.2968 49.8935 68.2164 49.8617C68.116 49.8228 68.0169 49.7786 67.9159 49.7328C67.7888 49.6716 67.6666 49.6047 67.5427 49.5397C67.4281 49.4791 67.3513 49.5088 67.5808 49.5716C67.5175 49.5542 67.4405 49.4798 67.3878 49.4421C66.4003 48.7595 65.5915 47.8602 64.6341 47.1379C63.6767 46.4157 62.6698 45.9341 61.5254 45.6356C59.3089 45.057 56.7668 45.4734 54.9105 46.8351C54.2841 47.2956 54.033 48.2559 54.5293 48.9091C55.0256 49.5624 55.9304 49.7831 56.6033 49.2903C56.7657 49.1703 56.9305 49.0589 57.1033 48.9573C57.2072 48.8953 57.5519 48.7629 57.1378 48.9279C57.2451 48.885 57.3462 48.8303 57.4516 48.7858C57.6371 48.7078 57.8285 48.6381 58.0209 48.579C58.1171 48.5494 58.2151 48.5214 58.3135 48.4969C58.6326 48.4143 58.0442 48.5434 58.367 48.4834C58.799 48.4015 59.2401 48.363 59.6814 48.3667C60.0097 48.3697 59.4413 48.3436 59.6989 48.3652C59.8019 48.3738 59.9066 48.3805 60.0099 48.3926C60.2326 48.4172 60.4526 48.4527 60.6717 48.497C60.774 48.518 60.8748 48.5409 60.9759 48.5674C61.0337 48.5835 61.0916 48.5996 61.1475 48.6141C61.3043 48.6515 60.9842 48.5614 60.9915 48.5642C61.2161 48.6522 61.4443 48.7204 61.6645 48.8175C61.857 48.9012 62.0469 48.9957 62.2305 49.0979C62.2918 49.1331 62.5896 49.3116 62.3715 49.1772C62.1533 49.0429 62.3715 49.1772 62.4245 49.2185C62.4883 49.2623 62.5524 49.3096 62.6146 49.3553C63.5511 50.0406 64.3375 50.9048 65.2724 51.592C66.2074 52.2792 67.334 52.8385 68.5376 53.0083C69.5965 53.1573 70.6983 53.0697 71.7077 52.7133C72.8044 52.3264 73.6706 51.6033 74.5265 50.8423C74.9225 50.4902 75.3239 50.1394 75.7694 49.8482C75.8644 49.7852 75.9619 49.7308 76.0592 49.6729C76.2753 49.5429 75.7609 49.8119 76.0643 49.6707C76.2762 49.5728 76.4931 49.4921 76.7164 49.4232C76.7902 49.4008 77.1478 49.3149 76.9122 49.3637C76.6766 49.4125 77.0408 49.3419 77.1156 49.33C77.3646 49.2924 77.6166 49.2703 77.8667 49.2661C77.9106 49.264 77.9548 49.2654 78.0006 49.2649C78.2405 49.2651 78.04 49.2915 77.9329 49.2568C78.0365 49.2918 78.1794 49.2722 78.2917 49.2853C78.5445 49.3126 78.797 49.3558 79.0472 49.4133C79.1228 49.4313 79.4848 49.5372 79.256 49.462C79.0272 49.3868 79.3962 49.5115 79.4581 49.5343C79.7006 49.6242 79.9337 49.729 80.1611 49.8484C80.2666 49.9045 80.3684 49.9802 80.4784 50.0271C80.4545 50.0168 80.1616 49.8131 80.3701 49.9589C80.419 49.9934 80.4714 50.0277 80.5202 50.0622C80.7424 50.2227 80.9518 50.3984 81.1519 50.589C81.7192 51.1267 82.7838 51.0176 83.2523 50.4052C83.77 49.7303 83.6746 48.8814 83.0685 48.3048L83.0739 48.3061Z" fill="url(#paint12_linear_1070_12577)"/>
<path d="M83.0739 48.3061C81.5295 46.8415 79.2823 46.1139 77.1717 46.3215C76.0753 46.4297 75.0114 46.7891 74.0871 47.3921C73.1493 48.0032 72.414 48.8718 71.4886 49.5031C71.3671 49.586 71.243 49.6604 71.1174 49.7366C70.8544 49.8955 71.4144 49.6031 71.0872 49.7534C70.8702 49.8535 70.6443 49.9332 70.4154 49.9974C70.3724 50.0099 70.3275 50.0209 70.2861 50.0316C70.038 50.0992 70.3733 50.001 70.3953 50.0097C70.3295 49.9837 70.1154 50.0571 70.0368 50.0658C69.8099 50.0927 69.5827 50.0967 69.3559 50.1042C69.1624 50.1105 69.6542 50.1274 69.4621 50.109C69.4017 50.1037 69.3397 50.1003 69.2792 50.095C69.1724 50.0832 69.0655 50.0714 68.9599 50.0541C68.8544 50.0369 68.7485 50.0162 68.6442 49.9936C68.5848 49.9794 68.5237 49.9671 68.464 49.9494C68.4351 49.9413 68.4045 49.9352 68.3737 49.9255C68.2634 49.8946 68.3143 49.9113 68.5224 49.9725C68.4663 49.9157 68.2968 49.8935 68.2164 49.8617C68.116 49.8228 68.0169 49.7786 67.9159 49.7328C67.7888 49.6716 67.6666 49.6047 67.5427 49.5397C67.4281 49.4791 67.3513 49.5088 67.5808 49.5716C67.5175 49.5542 67.4405 49.4798 67.3878 49.4421C66.4003 48.7595 65.5915 47.8602 64.6341 47.1379C63.6767 46.4157 62.6698 45.9341 61.5254 45.6356C59.3089 45.057 56.7668 45.4734 54.9105 46.8351C54.2841 47.2956 54.033 48.2559 54.5293 48.9091C55.0256 49.5624 55.9304 49.7831 56.6033 49.2903C56.7657 49.1703 56.9305 49.0589 57.1033 48.9573C57.2072 48.8953 57.5519 48.7629 57.1378 48.9279C57.2451 48.885 57.3462 48.8303 57.4516 48.7858C57.6371 48.7078 57.8285 48.6381 58.0209 48.579C58.1171 48.5494 58.2151 48.5214 58.3135 48.4969C58.6326 48.4143 58.0442 48.5434 58.367 48.4834C58.799 48.4015 59.2401 48.363 59.6814 48.3667C60.0097 48.3697 59.4413 48.3436 59.6989 48.3652C59.8019 48.3738 59.9066 48.3805 60.0099 48.3926C60.2326 48.4172 60.4526 48.4527 60.6717 48.497C60.774 48.518 60.8748 48.5409 60.9759 48.5674C61.0337 48.5835 61.0916 48.5996 61.1475 48.6141C61.3043 48.6515 60.9842 48.5614 60.9915 48.5642C61.2161 48.6522 61.4443 48.7204 61.6645 48.8175C61.857 48.9012 62.0469 48.9957 62.2305 49.0979C62.2918 49.1331 62.5896 49.3116 62.3715 49.1772C62.1533 49.0429 62.3715 49.1772 62.4245 49.2185C62.4883 49.2623 62.5524 49.3096 62.6146 49.3553C63.5511 50.0406 64.3375 50.9048 65.2724 51.592C66.2074 52.2792 67.334 52.8385 68.5376 53.0083C69.5965 53.1573 70.6983 53.0697 71.7077 52.7133C72.8044 52.3264 73.6706 51.6033 74.5265 50.8423C74.9225 50.4902 75.3239 50.1394 75.7694 49.8482C75.8644 49.7852 75.9619 49.7308 76.0592 49.6729C76.2753 49.5429 75.7609 49.8119 76.0643 49.6707C76.2762 49.5728 76.4931 49.4921 76.7164 49.4232C76.7902 49.4008 77.1478 49.3149 76.9122 49.3637C76.6766 49.4125 77.0408 49.3419 77.1156 49.33C77.3646 49.2924 77.6166 49.2703 77.8667 49.2661C77.9106 49.264 77.9548 49.2654 78.0006 49.2649C78.2405 49.2651 78.04 49.2915 77.9329 49.2568C78.0365 49.2918 78.1794 49.2722 78.2917 49.2853C78.5445 49.3126 78.797 49.3558 79.0472 49.4133C79.1228 49.4313 79.4848 49.5372 79.256 49.462C79.0272 49.3868 79.3962 49.5115 79.4581 49.5343C79.7006 49.6242 79.9337 49.729 80.1611 49.8484C80.2666 49.9045 80.3684 49.9802 80.4784 50.0271C80.4545 50.0168 80.1616 49.8131 80.3701 49.9589C80.419 49.9934 80.4714 50.0277 80.5202 50.0622C80.7424 50.2227 80.9518 50.3984 81.1519 50.589C81.7192 51.1267 82.7838 51.0176 83.2523 50.4052C83.77 49.7303 83.6746 48.8814 83.0685 48.3048L83.0739 48.3061Z" fill="url(#paint13_linear_1070_12577)" fill-opacity="0.2"/>
<path d="M80.7733 40.5539L81.4229 34.936C81.4229 34.936 75.9238 31.9954 66.4398 34.2291C56.9541 36.4647 53.8641 42.1304 53.8641 42.1304C53.8641 42.1304 66.2528 35.9828 80.7733 40.5539Z" fill="url(#paint14_linear_1070_12577)"/>
<path d="M39.4761 17.1716C39.6034 17.2557 39.7259 17.3455 39.8389 17.4468C39.896 17.4947 39.9438 17.5575 40.0025 17.6035C39.6817 17.3441 39.838 17.4169 39.9334 17.539C40.0287 17.6612 40.1091 17.7935 40.191 17.9239C40.3486 18.1729 40.0433 17.5859 40.1607 17.8595C40.2011 17.9583 40.2466 18.0549 40.2838 18.1574C40.3392 18.3078 40.3616 18.4822 40.4256 18.6301C40.2817 18.2952 40.3862 18.4413 40.4096 18.5874C40.4223 18.6727 40.4332 18.7564 40.4424 18.842C40.4612 19.0167 40.4641 19.1911 40.469 19.367C40.4793 19.6871 40.5023 19.022 40.4722 19.3438C40.4616 19.4647 40.451 19.5855 40.435 19.7051C40.4106 19.8889 40.3756 20.0737 40.3333 20.2555C40.3284 20.2806 40.2487 20.5186 40.2604 20.5317L40.3183 20.3468C40.299 20.4084 40.2778 20.4685 40.255 20.5304C40.0957 20.9677 39.8834 21.3831 39.6504 21.7844C39.1752 22.6021 38.6111 23.371 38.2193 24.236C37.4372 25.9606 37.3508 27.9771 38.2996 29.649C38.804 30.5361 39.6665 31.1009 40.4672 31.6852C40.6481 31.8175 40.8277 31.9553 40.9959 32.1028C41.0244 32.1268 41.2478 32.3012 41.2401 32.3337C41.2501 32.2869 41.0078 32.0577 41.196 32.2934C41.2929 32.4137 41.38 32.5419 41.4584 32.6726C41.5284 32.7864 41.5766 32.9956 41.4329 32.6025C41.4698 32.7016 41.522 32.794 41.5624 32.8928C41.6343 33.0699 41.6836 33.2508 41.7384 33.433C41.8239 33.7253 41.681 33.08 41.729 33.3862C41.7458 33.4976 41.7661 33.6087 41.7794 33.7204C41.8042 33.9228 41.8165 34.1246 41.82 34.3253C41.8219 34.4081 41.8044 34.5101 41.8168 34.5919C41.8265 34.36 41.8286 34.3228 41.8175 34.479C41.8122 34.5394 41.807 34.5999 41.8017 34.6603C41.7799 34.8756 41.7474 35.0883 41.704 35.2985C41.6856 35.3901 41.6637 35.4819 41.6433 35.5719C41.6275 35.6332 41.6117 35.6946 41.5959 35.7559C41.5512 35.9098 41.5624 35.877 41.6281 35.6597C41.601 35.6726 41.5467 35.8996 41.5355 35.9323C41.4915 36.0543 41.4437 36.1732 41.3943 36.2939C41.3035 36.5064 41.2033 36.711 41.0941 36.9145C40.7259 37.6046 41.1148 38.6024 41.8296 38.8908C42.616 39.2101 43.4118 38.8918 43.8059 38.1553C44.6243 36.6233 45.0275 34.7202 44.671 33.0036C44.4907 32.1322 44.1948 31.2709 43.6223 30.5731C43.2687 30.1402 42.8707 29.7641 42.422 29.433C42.0297 29.1427 41.6186 28.8789 41.2503 28.5601C41.1647 28.4882 41.0886 28.4049 41.0029 28.3331C40.8697 28.2213 41.0873 28.4103 41.0815 28.425C41.0863 28.4193 40.9846 28.3047 40.9748 28.2932C40.9152 28.2173 40.8607 28.1391 40.8095 28.0572C40.7889 28.0237 40.7699 27.9884 40.7494 27.9549C40.6408 27.7827 40.8118 28.0429 40.8154 28.0849C40.8039 27.9325 40.6738 27.7357 40.6304 27.5826C40.6181 27.5431 40.6141 27.4976 40.5987 27.4619C40.5961 27.4533 40.6548 27.7815 40.636 27.6262C40.6236 27.525 40.6026 27.4263 40.5921 27.3266C40.5816 27.227 40.574 27.1201 40.5722 27.018C40.5708 26.9616 40.5775 26.6559 40.5665 26.8932C40.5556 27.1305 40.5741 26.8185 40.5816 26.7632C40.5931 26.6528 40.6084 26.5456 40.6273 26.4382C40.6438 26.345 40.6619 26.2499 40.6839 26.1581C40.6965 26.1005 40.8005 25.7369 40.7291 25.9689C40.6577 26.2009 40.7637 25.8812 40.7836 25.8266C40.8283 25.7115 40.8764 25.5962 40.9264 25.4825C41.3344 24.5826 41.928 23.7863 42.4141 22.9325C42.9003 22.0786 43.2275 21.2016 43.364 20.262C43.6416 18.3346 43.113 16.0227 41.3899 14.8947C41.0455 14.6674 40.7269 14.5136 40.3017 14.5525C39.9377 14.5844 39.5161 14.7853 39.2895 15.0785C38.8463 15.657 38.7736 16.7216 39.4733 17.1789L39.4761 17.1716Z" fill="url(#paint15_linear_1070_12577)"/>
<path d="M44.744 28.6066L45.1465 33.1871L48.4283 32.3145L49.1043 28.0258L44.744 28.6066Z" fill="url(#paint16_linear_1070_12577)"/>
</g>
<defs>
<linearGradient id="paint0_linear_1070_12577" x1="22.1939" y1="40.4547" x2="51.5109" y2="83.5567" gradientUnits="userSpaceOnUse">
<stop stop-color="#E9F1FF"/>
<stop offset="1" stop-color="#BBD3FF"/>
</linearGradient>
<linearGradient id="paint1_linear_1070_12577" x1="23.3341" y1="41.9335" x2="56.1578" y2="69.4758" gradientUnits="userSpaceOnUse">
<stop stop-color="#508DFF"/>
<stop offset="1" stop-color="#2470FF"/>
</linearGradient>
<linearGradient id="paint2_linear_1070_12577" x1="17.0731" y1="63.6516" x2="35.8548" y2="79.4113" gradientUnits="userSpaceOnUse">
<stop stop-color="#508DFF"/>
<stop offset="1" stop-color="#2470FF"/>
</linearGradient>
<linearGradient id="paint3_linear_1070_12577" x1="47.1649" y1="8.56148" x2="60.7292" y2="19.9432" gradientUnits="userSpaceOnUse">
<stop stop-color="#FF66BD"/>
<stop offset="1" stop-color="#FFF8B4"/>
</linearGradient>
<linearGradient id="paint4_linear_1070_12577" x1="39.7578" y1="7.849" x2="50.1231" y2="8.53311" gradientUnits="userSpaceOnUse">
<stop stop-color="#FF61BB"/>
<stop offset="1" stop-color="#FCD7FF"/>
</linearGradient>
<linearGradient id="paint5_linear_1070_12577" x1="68.3823" y1="27.1953" x2="70.2732" y2="19.3687" gradientUnits="userSpaceOnUse">
<stop stop-color="#6ED6FF"/>
<stop offset="1" stop-color="#AAFFD6"/>
</linearGradient>
<linearGradient id="paint6_linear_1070_12577" x1="84.3567" y1="26.7712" x2="82.2855" y2="18.5186" gradientUnits="userSpaceOnUse">
<stop stop-color="#FFDA43"/>
<stop offset="1" stop-color="#FFEFAE"/>
</linearGradient>
<linearGradient id="paint7_linear_1070_12577" x1="73.6435" y1="42.2259" x2="76.0054" y2="46.1089" gradientUnits="userSpaceOnUse">
<stop stop-color="#FFA0D6"/>
<stop offset="1" stop-color="#FF61BB"/>
</linearGradient>
<linearGradient id="paint8_linear_1070_12577" x1="30.7329" y1="15.804" x2="31.2652" y2="8.89269" gradientUnits="userSpaceOnUse">
<stop stop-color="#FFDA43"/>
<stop offset="1" stop-color="#FFEFAE"/>
</linearGradient>
<linearGradient id="paint9_linear_1070_12577" x1="83.0666" y1="42.9117" x2="86.7203" y2="44.7269" gradientUnits="userSpaceOnUse">
<stop stop-color="#6ED6FF"/>
<stop offset="1" stop-color="#7AAAFF"/>
</linearGradient>
<linearGradient id="paint10_linear_1070_12577" x1="55.8564" y1="26.1758" x2="42.1739" y2="76.0787" gradientUnits="userSpaceOnUse">
<stop stop-color="#E9F1FF"/>
<stop offset="1" stop-color="#508DFF"/>
</linearGradient>
<linearGradient id="paint11_linear_1070_12577" x1="31.8686" y1="24.9163" x2="71.4344" y2="58.1159" gradientUnits="userSpaceOnUse">
<stop stop-color="#E9F1FF"/>
<stop offset="1" stop-color="#B3CFFF"/>
</linearGradient>
<linearGradient id="paint12_linear_1070_12577" x1="60.4894" y1="41.6555" x2="77.398" y2="55.8435" gradientUnits="userSpaceOnUse">
<stop stop-color="#FFDA43"/>
<stop offset="1" stop-color="#FFEFAE"/>
</linearGradient>
<linearGradient id="paint13_linear_1070_12577" x1="88.0298" y1="45.8056" x2="64.1755" y2="50.651" gradientUnits="userSpaceOnUse">
<stop stop-color="white" stop-opacity="0"/>
<stop offset="1" stop-color="#FF66BC"/>
</linearGradient>
<linearGradient id="paint14_linear_1070_12577" x1="61.2381" y1="33.1568" x2="76.3442" y2="45.8323" gradientUnits="userSpaceOnUse">
<stop stop-color="#FF61BB"/>
<stop offset="1" stop-color="#FFA4CD"/>
</linearGradient>
<linearGradient id="paint15_linear_1070_12577" x1="35.1839" y1="21.5138" x2="47.7183" y2="32.0315" gradientUnits="userSpaceOnUse">
<stop stop-color="#FFF8B4"/>
<stop offset="1" stop-color="#4BDFFF"/>
</linearGradient>
<linearGradient id="paint16_linear_1070_12577" x1="47.486" y1="33.4349" x2="45.9881" y2="27.1239" gradientUnits="userSpaceOnUse">
<stop stop-color="#6ED6FF"/>
<stop offset="1" stop-color="#AAFFD6"/>
</linearGradient>
<clipPath id="clip0_1070_12577">
<rect width="88" height="88" fill="white"/>
</clipPath>
</defs>
</svg>
