<svg width="120" height="120" viewBox="0 0 120 120" fill="none" xmlns="http://www.w3.org/2000/svg">
<g clip-path="url(#clip0_1080_13473)">
<path d="M43.5538 33.7098L93.8499 75.9132C95.3424 77.1656 95.064 79.5373 93.3222 80.4113L19.2938 117.56C17.1696 118.626 14.7997 116.638 15.4808 114.361L39.2105 35.0061C39.7687 33.139 42.0561 32.4531 43.5486 33.7054L43.5538 33.7098Z" fill="url(#paint0_linear_1080_13473)"/>
<path d="M34.8062 49.7596C34.8062 49.7596 39.1694 60.0998 53.8971 72.4579C73.2919 88.7321 79.5657 87.3173 79.5657 87.3173L63.7352 95.2611C63.7352 95.2611 55.5747 92.6776 44.634 83.4973C35.6816 75.9853 29.5807 67.2257 29.7321 66.729L34.8062 49.7596Z" fill="url(#paint1_linear_1080_13473)"/>
<path d="M25.77 79.9695C25.77 79.9695 28.9186 87.7247 36.0592 93.7165C45.2219 101.405 51.384 101.462 51.384 101.462L35.5639 109.415C35.5639 109.415 32.4142 109.014 27.0204 104.488C21.6267 99.9625 20.6959 96.939 20.6959 96.939L25.77 79.9695Z" fill="url(#paint2_linear_1080_13473)"/>
<path d="M68.1916 3.19331L75.7892 1.87201C75.7892 1.87201 80.2219 9.13005 77.9154 22.216C75.6089 35.302 68.1341 39.9508 68.1341 39.9508C68.1341 39.9508 75.5397 22.6066 68.1868 3.19373L68.1916 3.19331Z" fill="url(#paint3_linear_1080_13473)"/>
<path d="M54.3 8.47322L52.6603 15.6829L58.1132 15.9634L61.2623 9.73287L54.3 8.47322Z" fill="url(#paint4_linear_1080_13473)"/>
<path d="M91.5361 25.6301L86.3459 31.8156L89.2648 36.5604L96.0541 31.9114L91.5361 25.6301Z" fill="url(#paint5_linear_1080_13473)"/>
<path d="M110.772 82.4398L102.789 81.2322L100.259 86.1957L107.765 89.5687L110.772 82.4398Z" fill="url(#paint6_linear_1080_13473)"/>
<path d="M115.561 32.0157L108.016 34.8981L104.489 30.589L111.102 25.6908L115.561 32.0157Z" fill="url(#paint7_linear_1080_13473)"/>
<path d="M107.325 107.226L100.934 102.287L102.774 97.031L110.4 100.124L107.325 107.226Z" fill="#FE84CF"/>
<path d="M102.09 56.5371L96.2992 58.1462L94.7426 62.9604L101.815 62.0452L102.09 56.5371Z" fill="url(#paint8_linear_1080_13473)"/>
<path d="M18.4293 30.484L23.2169 34.1178L22.8857 39.1665L16.651 35.7044L18.4293 30.484Z" fill="url(#paint9_linear_1080_13473)"/>
<path d="M36.9602 13.3238L36.8767 20.1495L40.7589 20.7575L42.3715 14.7239L36.9602 13.3238Z" fill="url(#paint10_linear_1080_13473)"/>
<path d="M119.742 61.3303L113.032 62.6004L111.759 58.8828L117.423 56.2443L119.742 61.3303Z" fill="url(#paint11_linear_1080_13473)"/>
<path d="M10.25 49.1914L15.0993 53.9996L18.2349 51.6314L15.0181 46.2746L10.25 49.1914Z" fill="url(#paint12_linear_1080_13473)"/>
<path d="M76.9364 105.269L72.3565 100.203L74.8665 97.1799L80.0696 100.64L76.9364 105.269Z" fill="url(#paint13_linear_1080_13473)"/>
<path d="M61.8841 62.9396C76.7829 75.4412 91.2158 82.7692 94.1207 79.3072C97.0257 75.8452 87.3028 62.9042 72.404 50.4026C57.5051 37.901 43.0723 30.5729 40.1673 34.0349C37.2624 37.4969 46.9853 50.438 61.8841 62.9396Z" fill="url(#paint14_linear_1080_13473)" stroke="url(#paint15_linear_1080_13473)" stroke-width="1.01313" stroke-linecap="round" stroke-linejoin="round"/>
<path d="M109.993 65.9302C107.887 63.933 104.822 62.9408 101.944 63.2239C100.449 63.3715 98.9982 63.8616 97.7377 64.6838C96.4589 65.5172 95.4562 66.7017 94.1943 67.5625C94.0286 67.6756 93.8595 67.777 93.6882 67.8809C93.3296 68.0975 94.0932 67.6988 93.6469 67.9038C93.351 68.0403 93.0431 68.149 92.7308 68.2365C92.6722 68.2536 92.611 68.2686 92.5545 68.2832C92.2162 68.3753 92.6735 68.2415 92.7034 68.2533C92.6138 68.2178 92.3219 68.3179 92.2147 68.3297C91.9052 68.3664 91.5954 68.3719 91.2861 68.3821C91.0223 68.3908 91.6929 68.4139 91.4309 68.3887C91.3485 68.3814 91.264 68.3768 91.1816 68.3696C91.0358 68.3535 90.8901 68.3374 90.7462 68.3139C90.6022 68.2904 90.4578 68.2622 90.3156 68.2313C90.2346 68.2119 90.1513 68.1952 90.0699 68.171C90.0304 68.1601 89.9888 68.1517 89.9468 68.1385C89.7964 68.0964 89.8657 68.1191 90.1496 68.2025C90.073 68.1251 89.8419 68.0948 89.7323 68.0515C89.5954 67.9985 89.4602 67.9382 89.3225 67.8757C89.1492 67.7922 88.9825 67.701 88.8136 67.6123C88.6573 67.5298 88.5526 67.5702 88.8655 67.6559C88.7793 67.6322 88.6742 67.5307 88.6023 67.4793C87.2558 66.5485 86.1528 65.3222 84.8473 64.3372C83.5417 63.3523 82.1687 62.6956 80.6082 62.2886C77.5857 61.4996 74.1191 62.0674 71.5879 63.9243C70.7337 64.5523 70.3912 65.8617 71.0681 66.7525C71.7449 67.6433 72.9786 67.9443 73.8962 67.2723C74.1176 67.1087 74.3424 66.9567 74.578 66.8182C74.7198 66.7337 75.1898 66.5531 74.625 66.7781C74.7714 66.7195 74.9092 66.645 75.053 66.5843C75.3059 66.478 75.5669 66.383 75.8293 66.3023C75.9604 66.262 76.0942 66.2238 76.2283 66.1904C76.6634 66.0778 75.8611 66.2538 76.3013 66.172C76.8904 66.0604 77.4919 66.0077 78.0936 66.0128C78.5413 66.0169 77.7662 65.9813 78.1175 66.0107C78.258 66.0225 78.4007 66.0316 78.5416 66.0482C78.8452 66.0817 79.1453 66.13 79.444 66.1905C79.5836 66.2192 79.721 66.2504 79.8588 66.2865C79.9377 66.3084 80.0166 66.3304 80.0929 66.3502C80.3066 66.4012 79.8702 66.2783 79.8801 66.2822C80.1864 66.4021 80.4976 66.4952 80.7978 66.6276C81.0603 66.7418 81.3193 66.8706 81.5696 67.0099C81.6532 67.0579 82.0593 67.3013 81.7619 67.1181C81.4645 66.9349 81.7619 67.1181 81.8342 67.1743C81.9212 67.234 82.0086 67.2986 82.0934 67.3609C83.3705 68.2954 84.4428 69.4739 85.7178 70.4109C86.9927 71.348 88.5289 72.1107 90.1702 72.3423C91.6142 72.5455 93.1166 72.4261 94.4931 71.9401C95.9886 71.4124 97.1698 70.4264 98.3369 69.3887C98.877 68.9085 99.4244 68.4301 100.032 68.033C100.161 67.9471 100.294 67.873 100.427 67.794C100.722 67.6167 100.02 67.9835 100.434 67.791C100.723 67.6575 101.019 67.5474 101.323 67.4535C101.424 67.423 101.911 67.3058 101.59 67.3724C101.269 67.439 101.766 67.3426 101.868 67.3265C102.207 67.2751 102.551 67.2451 102.892 67.2393C102.952 67.2364 103.012 67.2384 103.074 67.2377C103.402 67.238 103.128 67.2739 102.982 67.2266C103.123 67.2743 103.318 67.2477 103.471 67.2655C103.816 67.3027 104.16 67.3616 104.501 67.44C104.605 67.4646 105.098 67.609 104.786 67.5064C104.474 67.4039 104.977 67.5739 105.062 67.605C105.392 67.7276 105.71 67.8705 106.021 68.0334C106.164 68.1098 106.303 68.2131 106.453 68.277C106.421 68.263 106.021 67.9853 106.305 68.184C106.372 68.2311 106.444 68.2778 106.51 68.3249C106.813 68.5437 107.099 68.7833 107.372 69.0432C108.145 69.7764 109.597 69.6278 110.236 68.7926C110.942 67.8722 110.812 66.7147 109.985 65.9284L109.993 65.9302Z" fill="url(#paint16_linear_1080_13473)"/>
<path d="M109.993 65.9302C107.887 63.933 104.822 62.9408 101.944 63.2239C100.449 63.3715 98.9982 63.8616 97.7377 64.6838C96.4589 65.5172 95.4562 66.7017 94.1943 67.5625C94.0286 67.6756 93.8595 67.777 93.6882 67.8809C93.3296 68.0975 94.0932 67.6988 93.6469 67.9038C93.351 68.0403 93.0431 68.149 92.7308 68.2365C92.6722 68.2536 92.611 68.2686 92.5545 68.2832C92.2162 68.3753 92.6735 68.2415 92.7034 68.2533C92.6138 68.2178 92.3219 68.3179 92.2147 68.3297C91.9052 68.3664 91.5954 68.3719 91.2861 68.3821C91.0223 68.3908 91.6929 68.4139 91.4309 68.3887C91.3485 68.3814 91.264 68.3768 91.1816 68.3696C91.0358 68.3535 90.8901 68.3374 90.7462 68.3139C90.6022 68.2904 90.4578 68.2622 90.3156 68.2313C90.2346 68.2119 90.1513 68.1952 90.0699 68.171C90.0304 68.1601 89.9888 68.1517 89.9468 68.1385C89.7964 68.0964 89.8657 68.1191 90.1496 68.2025C90.073 68.1251 89.8419 68.0948 89.7323 68.0515C89.5954 67.9985 89.4602 67.9382 89.3225 67.8757C89.1492 67.7922 88.9825 67.701 88.8136 67.6123C88.6573 67.5298 88.5526 67.5702 88.8655 67.6559C88.7793 67.6322 88.6742 67.5307 88.6023 67.4793C87.2558 66.5485 86.1528 65.3222 84.8473 64.3372C83.5417 63.3523 82.1687 62.6956 80.6082 62.2886C77.5857 61.4996 74.1191 62.0674 71.5879 63.9243C70.7337 64.5523 70.3912 65.8617 71.0681 66.7525C71.7449 67.6433 72.9786 67.9443 73.8962 67.2723C74.1176 67.1087 74.3424 66.9567 74.578 66.8182C74.7198 66.7337 75.1898 66.5531 74.625 66.7781C74.7714 66.7195 74.9092 66.645 75.053 66.5843C75.3059 66.478 75.5669 66.383 75.8293 66.3023C75.9604 66.262 76.0942 66.2238 76.2283 66.1904C76.6634 66.0778 75.8611 66.2538 76.3013 66.172C76.8904 66.0604 77.4919 66.0077 78.0936 66.0128C78.5413 66.0169 77.7662 65.9813 78.1175 66.0107C78.258 66.0225 78.4007 66.0316 78.5416 66.0482C78.8452 66.0817 79.1453 66.13 79.444 66.1905C79.5836 66.2192 79.721 66.2504 79.8588 66.2865C79.9377 66.3084 80.0166 66.3304 80.0929 66.3502C80.3066 66.4012 79.8702 66.2783 79.8801 66.2822C80.1864 66.4021 80.4976 66.4952 80.7978 66.6276C81.0603 66.7418 81.3193 66.8706 81.5696 67.0099C81.6532 67.0579 82.0593 67.3013 81.7619 67.1181C81.4645 66.9349 81.7619 67.1181 81.8342 67.1743C81.9212 67.234 82.0086 67.2986 82.0934 67.3609C83.3705 68.2954 84.4428 69.4739 85.7178 70.4109C86.9927 71.348 88.5289 72.1107 90.1702 72.3423C91.6142 72.5455 93.1166 72.4261 94.4931 71.9401C95.9886 71.4124 97.1698 70.4264 98.3369 69.3887C98.877 68.9085 99.4244 68.4301 100.032 68.033C100.161 67.9471 100.294 67.873 100.427 67.794C100.722 67.6167 100.02 67.9835 100.434 67.791C100.723 67.6575 101.019 67.5474 101.323 67.4535C101.424 67.423 101.911 67.3058 101.59 67.3724C101.269 67.439 101.766 67.3426 101.868 67.3265C102.207 67.2751 102.551 67.2451 102.892 67.2393C102.952 67.2364 103.012 67.2384 103.074 67.2377C103.402 67.238 103.128 67.2739 102.982 67.2266C103.123 67.2743 103.318 67.2477 103.471 67.2655C103.816 67.3027 104.16 67.3616 104.501 67.44C104.605 67.4646 105.098 67.609 104.786 67.5064C104.474 67.4039 104.977 67.5739 105.062 67.605C105.392 67.7276 105.71 67.8705 106.021 68.0334C106.164 68.1098 106.303 68.2131 106.453 68.277C106.421 68.263 106.021 67.9853 106.305 68.184C106.372 68.2311 106.444 68.2778 106.51 68.3249C106.813 68.5437 107.099 68.7833 107.372 69.0432C108.145 69.7764 109.597 69.6278 110.236 68.7926C110.942 67.8722 110.812 66.7147 109.985 65.9284L109.993 65.9302Z" fill="url(#paint17_linear_1080_13473)" fill-opacity="0.2"/>
<path d="M106.855 55.3591L107.741 47.6983C107.741 47.6983 100.242 43.6884 87.3094 46.7344C74.3745 49.7829 70.1608 57.5088 70.1608 57.5088C70.1608 57.5088 87.0545 49.1257 106.855 55.3591Z" fill="url(#paint18_linear_1080_13473)"/>
<path d="M50.5412 23.4741C50.7148 23.5888 50.8818 23.7112 51.0358 23.8493C51.1137 23.9146 51.1789 24.0003 51.259 24.0631C50.8216 23.7093 51.0347 23.8085 51.1647 23.9751C51.2947 24.1417 51.4043 24.3221 51.5161 24.5C51.731 24.8395 51.3146 24.039 51.4747 24.4122C51.5298 24.5469 51.5918 24.6785 51.6425 24.8184C51.7182 25.0234 51.7486 25.2613 51.836 25.4629C51.6397 25.0062 51.7822 25.2054 51.8141 25.4047C51.8315 25.521 51.8463 25.6351 51.8589 25.7519C51.8845 25.9902 51.8885 26.2279 51.8951 26.4678C51.9092 26.9043 51.9405 25.9973 51.8995 26.4362C51.8851 26.601 51.8706 26.7658 51.8488 26.9289C51.8154 27.1795 51.7677 27.4314 51.71 27.6794C51.7034 27.7136 51.5947 28.0382 51.6107 28.056L51.6897 27.8038C51.6633 27.8879 51.6344 27.9698 51.6033 28.0543C51.3861 28.6505 51.0966 29.217 50.7789 29.7643C50.1308 30.8792 49.3615 31.9278 48.8274 33.1074C47.7608 35.4591 47.643 38.2088 48.9368 40.4887C49.6247 41.6984 50.8008 42.4686 51.8927 43.2653C52.1394 43.4458 52.3843 43.6336 52.6136 43.8348C52.6525 43.8675 52.9571 44.1054 52.9466 44.1496C52.9602 44.0859 52.6298 43.7733 52.8864 44.0947C53.0186 44.2588 53.1374 44.4336 53.2443 44.6118C53.3397 44.767 53.4055 45.0523 53.2095 44.5162C53.2598 44.6513 53.331 44.7774 53.3861 44.9121C53.4842 45.1536 53.5514 45.4003 53.6261 45.6487C53.7427 46.0473 53.5479 45.1673 53.6133 45.5849C53.6362 45.7368 53.6639 45.8883 53.682 46.0406C53.7158 46.3167 53.7326 46.5918 53.7373 46.8655C53.74 46.9784 53.7161 47.1175 53.7331 47.2291C53.7463 46.9129 53.7491 46.8621 53.734 47.0751C53.7268 47.1575 53.7196 47.2399 53.7124 47.3223C53.6827 47.6159 53.6384 47.906 53.5793 48.1926C53.5541 48.3174 53.5242 48.4427 53.4964 48.5654C53.4749 48.649 53.4534 48.7327 53.4318 48.8164C53.3708 49.0261 53.3861 48.9815 53.4756 48.6851C53.4387 48.7027 53.3648 49.0122 53.3494 49.0569C53.2894 49.2233 53.2242 49.3853 53.1569 49.5499C53.0331 49.8397 52.8964 50.1187 52.7475 50.3963C52.2454 51.3373 52.7757 52.6979 53.7505 53.0912C54.8228 53.5265 55.908 53.0925 56.4455 52.0882C57.5614 49.9991 58.1113 47.404 57.625 45.0631C57.3792 43.8748 56.9758 42.7004 56.1951 41.7489C55.7129 41.1585 55.1702 40.6456 54.5583 40.1941C54.0234 39.7984 53.4628 39.4385 52.9606 39.0039C52.8437 38.9058 52.74 38.7923 52.6232 38.6943C52.4415 38.5418 52.7383 38.7996 52.7304 38.8196C52.7369 38.8118 52.5982 38.6556 52.5848 38.6399C52.5036 38.5364 52.4293 38.4298 52.3594 38.3181C52.3314 38.2724 52.3055 38.2242 52.2774 38.1785C52.1294 37.9438 52.3625 38.2986 52.3675 38.3559C52.3517 38.148 52.1743 37.8797 52.1152 37.6708C52.0984 37.617 52.093 37.5549 52.0719 37.5063C52.0685 37.4945 52.1485 37.9421 52.1228 37.7303C52.1059 37.5923 52.0773 37.4577 52.063 37.3218C52.0487 37.186 52.0384 37.0402 52.0358 36.9009C52.0339 36.8241 52.0431 36.4072 52.0281 36.7308C52.0131 37.0544 52.0385 36.6289 52.0487 36.5535C52.0644 36.403 52.0853 36.2568 52.1109 36.1103C52.1335 35.9832 52.1582 35.8536 52.1881 35.7283C52.2053 35.6499 52.3471 35.154 52.2498 35.4704C52.1524 35.7868 52.297 35.3508 52.3242 35.2763C52.385 35.1195 52.4506 34.9622 52.5188 34.8071C53.0753 33.5799 53.8846 32.4942 54.5476 31.3298C55.2105 30.1655 55.6567 28.9696 55.8428 27.6882C56.2213 25.06 55.5006 21.9074 53.1509 20.3693C52.6812 20.0592 52.2468 19.8495 51.667 19.9026C51.1705 19.946 50.5956 20.22 50.2867 20.6198C49.6823 21.4087 49.5832 22.8604 50.5373 23.484L50.5412 23.4741Z" fill="url(#paint19_linear_1080_13473)"/>
<path d="M57.7246 39.0672L58.2735 45.3134L62.7487 44.1233L63.6705 38.2752L57.7246 39.0672Z" fill="url(#paint20_linear_1080_13473)"/>
<path d="M24.7651 2.72729L27.5521 10.3056L23.198 13.7806L18.3859 7.10588L24.7651 2.72729Z" fill="url(#paint21_linear_1080_13473)"/>
</g>
<defs>
<linearGradient id="paint0_linear_1080_13473" x1="26.9744" y1="55.2237" x2="66.9521" y2="113.999" gradientUnits="userSpaceOnUse">
<stop stop-color="#E9F1FF"/>
<stop offset="1" stop-color="#BBD3FF"/>
</linearGradient>
<linearGradient id="paint1_linear_1080_13473" x1="28.5291" y1="57.2403" x2="73.2887" y2="94.798" gradientUnits="userSpaceOnUse">
<stop stop-color="#508DFF"/>
<stop offset="1" stop-color="#2470FF"/>
</linearGradient>
<linearGradient id="paint2_linear_1080_13473" x1="19.9917" y1="86.8558" x2="45.6031" y2="108.346" gradientUnits="userSpaceOnUse">
<stop stop-color="#508DFF"/>
<stop offset="1" stop-color="#2470FF"/>
</linearGradient>
<linearGradient id="paint3_linear_1080_13473" x1="61.0259" y1="11.733" x2="79.5226" y2="27.2536" gradientUnits="userSpaceOnUse">
<stop stop-color="#FF66BD"/>
<stop offset="1" stop-color="#FFF8B4"/>
</linearGradient>
<linearGradient id="paint4_linear_1080_13473" x1="50.925" y1="10.7614" x2="65.0596" y2="11.6943" gradientUnits="userSpaceOnUse">
<stop stop-color="#FF61BB"/>
<stop offset="1" stop-color="#FCD7FF"/>
</linearGradient>
<linearGradient id="paint5_linear_1080_13473" x1="89.9587" y1="37.1427" x2="92.5372" y2="26.4701" gradientUnits="userSpaceOnUse">
<stop stop-color="#6ED6FF"/>
<stop offset="1" stop-color="#AAFFD6"/>
</linearGradient>
<linearGradient id="paint6_linear_1080_13473" x1="100.124" y1="87.0914" x2="110.577" y2="83.7318" gradientUnits="userSpaceOnUse">
<stop stop-color="#6ED6FF"/>
<stop offset="1" stop-color="#AAFFD6"/>
</linearGradient>
<linearGradient id="paint7_linear_1080_13473" x1="111.742" y1="36.5644" x2="108.917" y2="25.3109" gradientUnits="userSpaceOnUse">
<stop stop-color="#FFDA43"/>
<stop offset="1" stop-color="#FFEFAE"/>
</linearGradient>
<linearGradient id="paint8_linear_1080_13473" x1="97.1331" y1="57.6389" x2="100.354" y2="62.934" gradientUnits="userSpaceOnUse">
<stop stop-color="#FFA0D6"/>
<stop offset="1" stop-color="#FF61BB"/>
</linearGradient>
<linearGradient id="paint9_linear_1080_13473" x1="22.6291" y1="33.3384" x2="17.6808" y2="37.07" gradientUnits="userSpaceOnUse">
<stop stop-color="#FFA0D6"/>
<stop offset="1" stop-color="#FF61BB"/>
</linearGradient>
<linearGradient id="paint10_linear_1080_13473" x1="38.6185" y1="21.6091" x2="39.3442" y2="12.1846" gradientUnits="userSpaceOnUse">
<stop stop-color="#FFDA43"/>
<stop offset="1" stop-color="#FFEFAE"/>
</linearGradient>
<linearGradient id="paint11_linear_1080_13473" x1="112.927" y1="57.4915" x2="117.909" y2="59.9669" gradientUnits="userSpaceOnUse">
<stop stop-color="#6ED6FF"/>
<stop offset="1" stop-color="#7AAAFF"/>
</linearGradient>
<linearGradient id="paint12_linear_1080_13473" x1="18.0462" y1="49.825" x2="12.5319" y2="49.0875" gradientUnits="userSpaceOnUse">
<stop stop-color="#C1FBFF"/>
<stop offset="1" stop-color="#6ED6FF"/>
</linearGradient>
<linearGradient id="paint13_linear_1080_13473" x1="76.6623" y1="97.4515" x2="77.1452" y2="102.994" gradientUnits="userSpaceOnUse">
<stop stop-color="#6ED6FF"/>
<stop offset="1" stop-color="#7AAAFF"/>
</linearGradient>
<linearGradient id="paint14_linear_1080_13473" x1="72.878" y1="35.7525" x2="64.2102" y2="92.1037" gradientUnits="userSpaceOnUse">
<stop stop-color="#E9F1FF"/>
<stop offset="1" stop-color="#508DFF"/>
</linearGradient>
<linearGradient id="paint15_linear_1080_13473" x1="40.1673" y1="34.0349" x2="94.1207" y2="79.3072" gradientUnits="userSpaceOnUse">
<stop stop-color="#E9F1FF"/>
<stop offset="1" stop-color="#B3CFFF"/>
</linearGradient>
<linearGradient id="paint16_linear_1080_13473" x1="79.1954" y1="56.8612" x2="102.253" y2="76.2085" gradientUnits="userSpaceOnUse">
<stop stop-color="#FFDA43"/>
<stop offset="1" stop-color="#FFEFAE"/>
</linearGradient>
<linearGradient id="paint17_linear_1080_13473" x1="116.751" y1="62.5204" x2="84.2219" y2="69.1278" gradientUnits="userSpaceOnUse">
<stop stop-color="white" stop-opacity="0"/>
<stop offset="1" stop-color="#FF66BC"/>
</linearGradient>
<linearGradient id="paint18_linear_1080_13473" x1="80.2163" y1="45.2721" x2="100.815" y2="62.5569" gradientUnits="userSpaceOnUse">
<stop stop-color="#FF61BB"/>
<stop offset="1" stop-color="#FFA4CD"/>
</linearGradient>
<linearGradient id="paint19_linear_1080_13473" x1="44.6881" y1="29.3953" x2="61.7805" y2="43.7375" gradientUnits="userSpaceOnUse">
<stop stop-color="#FFF8B4"/>
<stop offset="1" stop-color="#4BDFFF"/>
</linearGradient>
<linearGradient id="paint20_linear_1080_13473" x1="61.4638" y1="45.6512" x2="59.4212" y2="37.0453" gradientUnits="userSpaceOnUse">
<stop stop-color="#6ED6FF"/>
<stop offset="1" stop-color="#AAFFD6"/>
</linearGradient>
<linearGradient id="paint21_linear_1080_13473" x1="22.3478" y1="14.0932" x2="23.5387" y2="3.17833" gradientUnits="userSpaceOnUse">
<stop stop-color="#6ED6FF"/>
<stop offset="1" stop-color="#AAFFD6"/>
</linearGradient>
<clipPath id="clip0_1080_13473">
<rect width="120" height="120" fill="white"/>
</clipPath>
</defs>
</svg>
