<svg width="335" height="148" viewBox="0 0 335 148" fill="none" xmlns="http://www.w3.org/2000/svg">
<rect width="335" height="148" rx="4" fill="#F9F9FA"/>
<path d="M24.7422 40.9297V44.5273H21.7188V45.7461H25.9609V46.6484H16.3867V45.7461H20.6172V44.5273H17.6055V40.9297H24.7422ZM17.4531 48.5234V47.6445H24.7891V50.9961H23.6641V48.5234H17.4531ZM18.6953 43.6367H23.6406V41.8086H18.6953V43.6367ZM30.5195 42.3594C30.5137 43.6836 31.4629 44.9785 33.0508 45.5234L32.4766 46.3906C31.2988 45.9863 30.4258 45.1426 29.9688 44.1055C29.5117 45.2598 28.5918 46.1855 27.3438 46.625L26.7695 45.7461C28.3809 45.1953 29.3887 43.7949 29.3828 42.3711V42.0781H27.1094V41.1758H32.7695V42.0781H30.5195V42.3594ZM28.3984 48.207V47.3047H35.5117V50.9961H34.3984V48.207H28.3984ZM32.4531 44.082V43.168H34.3984V40.4961H35.5117V46.7773H34.3984V44.082H32.4531Z" fill="#838A94"/>
<path d="M25.375 19.4961V29.9961H24.3086V24.5469H23.0078V29.4922H21.9648V19.7773H23.0078V23.6445H24.3086V19.4961H25.375ZM20.9219 20.832C20.9102 23.5977 19.9961 26.0703 16.9961 27.7695L16.3516 26.9961C18.6836 25.6777 19.668 23.8906 19.8438 21.7461H16.7969V20.832H20.9219ZM35.4648 19.5078V27.1367H34.3516V19.5078H35.4648ZM35.7812 28.8711V29.7734H28.5977V26.3633H29.7227V28.8711H35.7812ZM29.7695 20.2109C31.3516 20.2109 32.5586 21.2891 32.5586 22.8125C32.5586 24.3594 31.3516 25.4258 29.7695 25.4258C28.1875 25.4258 26.9688 24.3594 26.9688 22.8125C26.9688 21.2891 28.1875 20.2109 29.7695 20.2109ZM29.7695 21.1836C28.7852 21.1836 28.0586 21.8516 28.0586 22.8125C28.0586 23.7969 28.7852 24.4531 29.7695 24.4531C30.7305 24.4531 31.4688 23.7969 31.4688 22.8125C31.4688 21.8516 30.7305 21.1836 29.7695 21.1836ZM45.8828 19.4961V25.7422H44.7695V23.082H42.8125V22.168H44.7695V19.4961H45.8828ZM42.3672 26.0352C44.5703 26.0352 45.918 26.7617 45.918 28.0156C45.918 29.2695 44.5703 29.9844 42.3672 29.9961C40.1641 29.9844 38.8047 29.2695 38.8164 28.0156C38.8047 26.7617 40.1641 26.0352 42.3672 26.0352ZM42.3672 26.9023C40.832 26.9023 39.918 27.3008 39.918 28.0156C39.918 28.7188 40.832 29.1289 42.3672 29.1172C43.9023 29.1289 44.8164 28.7188 44.8164 28.0156C44.8164 27.3008 43.9023 26.9023 42.3672 26.9023ZM40.8906 21.3477C40.8906 22.6836 41.8398 23.9727 43.4219 24.5117L42.8477 25.3906C41.6699 24.9805 40.8027 24.1426 40.3516 23.1055C39.8887 24.2832 38.9688 25.2266 37.7148 25.6836L37.1289 24.793C38.7578 24.2305 39.7539 22.8125 39.7539 21.3594V21.125H37.4805V20.2227H43.1406V21.125H40.8906V21.3477ZM57.1094 27.7695V28.6953H47.5V27.7695H51.7305V25.6133H48.6016V20.2109H49.7148V22.0156H54.8711V20.2109H55.9727V25.6133H52.832V27.7695H57.1094ZM49.7148 24.7109H54.8711V22.918H49.7148V24.7109ZM66.1797 20.4219C66.168 21.8164 67.8789 23.1289 69.9414 23.3984L69.5078 24.3125C67.791 24.0371 66.2793 23.1465 65.6055 21.9102C64.9141 23.1523 63.4082 24.0371 61.7031 24.3125L61.2578 23.3984C63.3203 23.1289 65.0078 21.8281 65.0195 20.4219V19.8477H66.1797V20.4219ZM70.375 25.3438V26.2578H66.1094V29.9961H65.0195V26.2578H60.8008V25.3438H70.375ZM75.0625 21.1719C75.0625 22.4727 76.082 23.6914 77.6992 24.1602L77.1367 25.0273C75.9121 24.6582 74.9863 23.8555 74.5117 22.8242C74.0371 23.9258 73.0996 24.7988 71.8398 25.2148L71.2773 24.3359C72.9062 23.832 73.9258 22.5547 73.9375 21.1719V21.0547H71.582V20.1523H77.3711V21.0547H75.0625V21.1719ZM79.8789 19.4961V25.1797H78.7656V19.4961H79.8789ZM74.1016 25.6719V26.8438H78.7773V25.6719H79.8789V29.8672H73.0117V25.6719H74.1016ZM74.1016 28.9648H78.7773V27.7227H74.1016V28.9648Z" fill="#838A94"/>
<path d="M83.0703 40.4961V50.9961H81.957V40.4961H83.0703ZM74.4453 48.1367C75.3125 48.1309 76.2969 48.125 77.3281 48.1016V47.0469C76.1035 46.8828 75.3066 46.1621 75.3125 45.1367C75.3066 43.9531 76.3379 43.1738 77.8555 43.168C79.3906 43.1738 80.4395 43.9531 80.4453 45.1367C80.4395 46.1504 79.6484 46.8652 78.4297 47.041V48.0605C79.4023 48.0137 80.3867 47.9434 81.3125 47.8203L81.3945 48.6523C79.0625 49.0391 76.5195 49.0684 74.5977 49.0625L74.4453 48.1367ZM74.668 42.6406V41.75H77.3281V40.5195H78.4414V41.75H81.0781V42.6406H74.668ZM76.3672 45.1367C76.3555 45.8047 76.9766 46.2207 77.8555 46.2148C78.7637 46.2207 79.3789 45.8047 79.3789 45.1367C79.3789 44.4629 78.7637 44.0352 77.8555 44.0352C76.9766 44.0352 76.3555 44.4629 76.3672 45.1367ZM93.4883 40.5078V48.4648H92.375V47.457H90.2656V46.6719H92.375V40.5078H93.4883ZM84.7109 45.3008C86.6504 45.2832 89.2695 45.2656 91.5078 44.9844L91.5781 45.7812C90.6816 45.9336 89.7383 46.0273 88.8125 46.0918V48.1367H87.6992V46.1504C86.6797 46.1914 85.7012 46.1914 84.8516 46.1914L84.7109 45.3008ZM85.5312 42.7578C85.5254 41.6445 86.5859 40.9062 88.1445 40.9062C89.6797 40.9062 90.7461 41.6445 90.7461 42.7578C90.7461 43.877 89.6797 44.5859 88.1445 44.5859C86.5918 44.5859 85.5254 43.877 85.5312 42.7578ZM86.1641 50.7734V47.6914H87.2656V49.8711H93.7461V50.7734H86.1641ZM86.5859 42.7578C86.5801 43.3789 87.2129 43.7656 88.1445 43.7656C89.041 43.7656 89.6855 43.3789 89.6914 42.7578C89.6855 42.1309 89.041 41.7266 88.1445 41.7383C87.2129 41.7266 86.5801 42.1309 86.5859 42.7578ZM103.309 40.4961V44.6797H104.938V45.6055H103.309V50.9844H102.195V40.4961H103.309ZM95.1406 48.1836C97.7715 46.8711 99.2012 44.9727 99.4297 42.5234H95.668V41.5977H100.566C100.555 44.6328 99.2188 47.3457 95.7617 49.0508L95.1406 48.1836ZM114.207 40.4961V46.1328H113.094V40.4961H114.207ZM105.711 43.4141C105.717 41.9727 106.9 40.9707 108.512 40.9766C110.117 40.9707 111.301 41.9727 111.301 43.4141C111.301 44.8496 110.117 45.8516 108.512 45.8398C106.9 45.8516 105.717 44.8496 105.711 43.4141ZM106.801 43.4141C106.795 44.3223 107.516 44.9258 108.512 44.9258C109.496 44.9258 110.211 44.3223 110.211 43.4141C110.211 42.5176 109.496 41.9082 108.512 41.9141C107.516 41.9082 106.795 42.5176 106.801 43.4141ZM107.34 50.8672V46.6367H108.43V47.8203H113.105V46.6367H114.207V50.8672H107.34ZM108.43 49.9531H113.105V48.6992H108.43V49.9531ZM124.344 41.1641V45.4766H119.352V41.1641H124.344ZM120.043 50.1055C121.953 49.918 123.447 48.9629 123.523 48.0195H120.465V47.1758H123.547V46.1914H124.648V47.1758H127.742V48.0195H124.672C124.748 48.9336 126.207 49.8945 128.117 50.1055L127.742 50.9609C126.096 50.7617 124.736 50.0586 124.104 49.1328C123.459 50.0703 122.082 50.7617 120.43 50.9609L120.043 50.1055ZM120.441 44.6094H123.242V42.0547H120.441V44.6094ZM126.395 46.4961V40.4961H127.496V46.4961H126.395ZM137.949 41.293V41.8789C137.938 42.582 137.938 43.625 137.68 44.9844L136.578 44.8789C136.807 43.7188 136.842 42.8691 136.854 42.207H132.652V41.293H137.949ZM132.02 45.8867C132.664 45.8867 133.396 45.8809 134.164 45.8633V43.6484H135.266V45.8281C136.391 45.7812 137.551 45.6992 138.605 45.5469L138.676 46.3555C136.484 46.7422 133.977 46.7832 132.125 46.7891L132.02 45.8867ZM133.613 50.7734V47.668H134.727V49.8711H140.75V50.7734H133.613ZM139.273 48.3828V40.4961H140.41V43.8359H141.852V44.7734H140.41V48.3828H139.273ZM151.191 40.4961V51.0195H150.078V40.4961H151.191ZM143.059 42.3477V41.4453H147.98V45.2773H144.207V47.5742C145.912 47.5684 147.395 47.4863 149.152 47.1992L149.258 48.1133C147.4 48.4238 145.818 48.4941 143.961 48.5H143.07V44.3867H146.844V42.3477H143.059ZM154.73 49.1914L153.793 52.4258H152.797L153.418 49.1914H154.73ZM167.914 40.4961V50.9961H166.848V45.6055H165.594V50.4805H164.539V40.6953H165.594V44.668H166.848V40.4961H167.914ZM158.703 48.0312C160.238 47.1699 160.953 45.3594 160.953 43.2734V42.5938H158.984V41.6914H163.859V42.5938H162.031V43.2734C162.031 45.1602 162.74 46.8711 164.27 47.6562L163.613 48.5117C162.582 47.9492 161.891 46.9707 161.516 45.7637C161.158 47.1406 160.467 48.2422 159.395 48.875L158.703 48.0312ZM177.441 40.4961V44.8906H179.023V45.8281H177.441V50.9961H176.328V40.4961H177.441ZM169.086 48.1367C169.912 48.1367 170.873 48.1367 171.875 48.1074V47.041C170.691 46.8652 169.918 46.1504 169.93 45.1367C169.918 43.9531 170.943 43.1738 172.438 43.168C173.926 43.1738 174.963 43.9531 174.969 45.1367C174.963 46.1504 174.178 46.8711 172.988 47.041V48.0664C173.92 48.0195 174.857 47.9434 175.73 47.8203L175.801 48.6406C173.527 49.0449 171.072 49.0684 169.262 49.0625L169.086 48.1367ZM169.285 42.6289V41.7383H171.875V40.5195H172.988V41.7383H175.578V42.6289H169.285ZM170.973 45.1367C170.973 45.8047 171.559 46.2207 172.438 46.2148C173.316 46.2207 173.896 45.8047 173.902 45.1367C173.896 44.4629 173.316 44.0352 172.438 44.0352C171.559 44.0352 170.973 44.4629 170.973 45.1367ZM191.387 45.2539V46.1445H187.59V41.4453H191.281V42.3477H188.703V45.2539H191.387ZM182.516 49.6836V48.7812H186.734V46.6484H187.824V48.7812H192.125V49.6836H182.516ZM183.312 46.1445V41.457H186.934V42.3594H184.426V45.2305C185.299 45.2188 186.119 45.1543 187.027 44.9492L187.121 45.875C185.996 46.1211 185.047 46.1504 183.934 46.1445H183.312ZM201.383 43.5664V44.457H194.152V40.8711H195.254V43.5664H201.383ZM192.875 46.6719V45.7812H202.484V46.6719H192.875ZM194.07 50.75V47.668H195.184V49.8359H201.453V50.75H194.07ZM209.973 43.168C209.973 45.0898 211.051 47.0059 212.656 47.7266L211.977 48.6172C210.787 48.0195 209.885 46.8359 209.422 45.4004C208.959 46.9121 208.045 48.1895 206.832 48.8164L206.129 47.9141C207.758 47.1348 208.842 45.1133 208.848 43.168V41.375H209.973V43.168ZM211.496 44.8906V43.9883H213.84V40.4961H214.941V51.0195H213.84V44.8906H211.496ZM225.254 40.4961V51.0195H224.141V40.4961H225.254ZM217.145 48.5V41.375H218.258V44.0703H221.082V41.375H222.184V48.5H217.145ZM218.258 47.5859H221.082V44.9492H218.258V47.5859ZM232.262 41.9844C232.262 43.6953 234.084 45.3125 236.105 45.6758L235.59 46.6016C233.908 46.2383 232.367 45.1367 231.688 43.6602C230.996 45.1309 229.455 46.2266 227.773 46.6016L227.281 45.6758C229.273 45.3008 231.084 43.6953 231.09 41.9844V41.1875H232.262V41.9844ZM226.93 49.6133V48.6875H236.539V49.6133H226.93ZM248.926 40.4961V51.0195H247.812V40.4961H248.926ZM240.594 44.9609C240.594 42.7168 241.725 41.2871 243.312 41.2812C244.871 41.2871 246.02 42.7168 246.02 44.9609C246.02 47.2285 244.871 48.6582 243.312 48.6523C241.725 48.6582 240.594 47.2285 240.594 44.9609ZM241.672 44.9609C241.666 46.6309 242.334 47.6562 243.312 47.6562C244.273 47.6562 244.941 46.6309 244.941 44.9609C244.941 43.3145 244.273 42.2832 243.312 42.2773C242.334 42.2832 241.666 43.3145 241.672 44.9609ZM260.176 45.6172V46.5195H250.602V45.6172H252.898V44.2051C252.084 43.877 251.627 43.3496 251.633 42.6523C251.627 41.4043 253.074 40.6777 255.383 40.6836C257.686 40.6777 259.127 41.4043 259.133 42.6523C259.127 43.3496 258.67 43.877 257.855 44.2109V45.6172H260.176ZM251.738 49.0977C251.738 47.8965 253.098 47.2344 255.383 47.2344C257.639 47.2344 258.998 47.8965 259.004 49.0977C258.998 50.3105 257.639 50.9727 255.383 50.9727C253.098 50.9727 251.738 50.3105 251.738 49.0977ZM252.781 42.6523C252.775 43.3555 253.748 43.748 255.383 43.7539C257.006 43.748 257.99 43.3555 257.984 42.6523C257.99 41.9492 257.006 41.5449 255.383 41.5391C253.748 41.5449 252.775 41.9492 252.781 42.6523ZM252.863 49.0977C252.857 49.7539 253.777 50.1289 255.383 50.1172C256.965 50.1289 257.891 49.7539 257.891 49.0977C257.891 48.4531 256.965 48.0898 255.383 48.0898C253.777 48.0898 252.857 48.4531 252.863 49.0977ZM254.023 45.6172H256.754V44.498C256.344 44.5625 255.881 44.5977 255.383 44.5977C254.891 44.5977 254.434 44.5625 254.023 44.5039V45.6172ZM269.445 41.1641V45.4766H264.453V41.1641H269.445ZM265.145 50.1055C267.055 49.918 268.549 48.9629 268.625 48.0195H265.566V47.1758H268.648V46.1914H269.75V47.1758H272.844V48.0195H269.773C269.85 48.9336 271.309 49.8945 273.219 50.1055L272.844 50.9609C271.197 50.7617 269.838 50.0586 269.205 49.1328C268.561 50.0703 267.184 50.7617 265.531 50.9609L265.145 50.1055ZM265.543 44.6094H268.344V42.0547H265.543V44.6094ZM271.496 46.4961V40.4961H272.598V46.4961H271.496ZM286.215 40.4961V50.9961H285.148V40.4961H286.215ZM277.051 48.1016C278.539 47.2051 279.295 45.2949 279.301 43.4258V42.582H277.367V41.6797H282.172V42.582H280.367V43.4258C280.367 45.2188 281.094 47.0176 282.57 47.8672L281.902 48.6875C280.9 48.0898 280.215 47.0176 279.846 45.752C279.471 47.123 278.756 48.2949 277.73 48.9336L277.051 48.1016ZM281.398 45.125V44.2109H283.027V40.7188H284.082V50.4688H283.027V45.125H281.398ZM292.309 47.0938C294.582 47.0938 296.018 47.8145 296.023 49.0391C296.018 50.2578 294.582 50.9785 292.309 50.9727C290.059 50.9785 288.617 50.2578 288.617 49.0391C288.617 47.8145 290.059 47.0938 292.309 47.0938ZM287.586 46.2266V45.3242H291.418V43.3555H292.508V45.3242H297.137V46.2266H287.586ZM288.699 41.9023V41.0117H295.941V41.8906C295.947 42.7285 295.947 43.5957 295.648 44.6797L294.559 44.5625C294.84 43.4902 294.84 42.7168 294.84 41.9023H288.699ZM289.73 49.0391C289.719 49.7188 290.721 50.1113 292.309 50.1172C293.914 50.1113 294.91 49.7188 294.922 49.0391C294.91 48.3477 293.914 47.9434 292.309 47.9375C290.721 47.9434 289.719 48.3477 289.73 49.0391Z" fill="#838A94"/>
<path d="M83.082 61.4961V72.0195H81.9688V61.4961H83.082ZM74.75 65.9609C74.75 63.7168 75.8809 62.2871 77.4688 62.2812C79.0273 62.2871 80.1758 63.7168 80.1758 65.9609C80.1758 68.2285 79.0273 69.6582 77.4688 69.6523C75.8809 69.6582 74.75 68.2285 74.75 65.9609ZM75.8281 65.9609C75.8223 67.6309 76.4902 68.6562 77.4688 68.6562C78.4297 68.6562 79.0977 67.6309 79.0977 65.9609C79.0977 64.3145 78.4297 63.2832 77.4688 63.2773C76.4902 63.2832 75.8223 64.3145 75.8281 65.9609ZM89.1875 62.6797V65.4102H90.5938V61.6953H91.6602V71.4805H90.5938V66.3242H89.1875V69.2305H85.1094V62.6797H89.1875ZM86.1641 68.3398H88.1445V63.5586H86.1641V68.3398ZM92.7266 71.9961V61.4961H93.793V71.9961H92.7266ZM98.1055 61.8477C99.6875 61.8594 100.854 62.8262 100.859 64.2031C100.854 65.5859 99.6875 66.5469 98.1055 66.5469C96.5059 66.5469 95.3457 65.5859 95.3398 64.2031C95.3457 62.8262 96.5059 61.8594 98.1055 61.8477ZM96.4297 64.2031C96.4238 65.0703 97.1387 65.6445 98.1055 65.6445C99.0664 65.6445 99.7812 65.0703 99.7812 64.2031C99.7812 63.3477 99.0664 62.7734 98.1055 62.7852C97.1387 62.7734 96.4238 63.3477 96.4297 64.2031ZM96.9336 68.2109V67.3203H103.836V69.9688H98.0469V70.9766H104.188V71.8672H96.9688V69.1367H102.734V68.2109H96.9336ZM102.723 66.8398V61.4961H103.836V66.8398H102.723ZM107.387 70.1914L106.449 73.4258H105.453L106.074 70.1914H107.387ZM121.062 66.1016V66.9336H116.832V67.8125H119.867V70.1797H113.75V71.0469H120.16V71.8906H112.66V69.4062H118.766V68.6211H112.648V67.8125H115.73V66.9336H111.512V66.1016H121.062ZM111.98 64.8477C113.99 64.7363 115.408 64.1211 115.637 63.2305H112.461V62.375H115.73V61.4492H116.832V62.375H120.113V63.2305H116.92C117.143 64.1211 118.561 64.7363 120.594 64.8477L120.254 65.6914C118.426 65.5566 116.938 65.0234 116.281 64.1035C115.625 65.0234 114.137 65.5566 112.297 65.6914L111.98 64.8477ZM125.082 63.5117C125.082 64.6602 125.814 65.8203 127.18 66.3359L126.594 67.1914C125.615 66.8164 124.93 66.1016 124.555 65.2402C124.168 66.2129 123.453 67.0566 122.434 67.4961L121.824 66.6289C123.242 66.0137 124.004 64.6777 124.004 63.5117V62.1523H125.082V63.5117ZM123.758 70.0742C123.746 68.8789 125.111 68.1699 127.309 68.1641C129.5 68.1699 130.877 68.8789 130.883 70.0742C130.877 71.2695 129.5 71.9785 127.309 71.9727C125.111 71.9785 123.746 71.2695 123.758 70.0742ZM124.859 70.0742C124.848 70.7422 125.779 71.1289 127.309 71.1172C128.832 71.1289 129.764 70.7422 129.77 70.0742C129.764 69.4004 128.832 69.0137 127.309 69.0195C125.779 69.0137 124.848 69.4004 124.859 70.0742ZM127.508 67.6367V61.6953H128.539V64.2383H129.77V61.5078H130.824V67.9648H129.77V65.1523H128.539V67.6367H127.508ZM140.996 61.5078V69.2422H139.883V66.5117H137.275C136.783 67.1035 136.021 67.4609 135.148 67.4609C133.566 67.4609 132.389 66.3535 132.395 64.8125C132.389 63.2598 133.566 62.1523 135.148 62.1406C136.016 62.1465 136.771 62.5039 137.264 63.0898H139.883V61.5078H140.996ZM133.461 64.8125C133.455 65.8027 134.164 66.4824 135.148 66.4766C136.092 66.4824 136.812 65.8027 136.812 64.8125C136.812 63.8223 136.092 63.1426 135.148 63.1367C134.164 63.1426 133.455 63.8223 133.461 64.8125ZM134.176 71.7734V68.4336H135.289V70.8711H141.277V71.7734H134.176ZM137.756 63.9922C137.838 64.25 137.879 64.5195 137.879 64.8125C137.879 65.0938 137.838 65.3633 137.762 65.6094H139.883V63.9922H137.756ZM151.121 66.3359V67.2266H147.945V69.793H152.223V70.707H142.613V69.793H146.844V67.2266H143.809V62.3047H151.027V63.207H144.922V66.3359H151.121ZM154.871 70.1914L153.934 73.4258H152.938L153.559 70.1914H154.871ZM162.711 63.0664C162.705 64.5371 163.66 65.8496 165.254 66.3711L164.645 67.2383C163.49 66.8164 162.641 66.0078 162.184 64.9531C161.732 66.1543 160.818 67.0977 159.547 67.5547L158.949 66.6641C160.625 66.0898 161.598 64.6895 161.609 63.1133V62.082H162.711V63.0664ZM160.672 69.9922C160.666 68.7207 162.014 67.9824 164.223 67.9883C166.42 67.9824 167.768 68.7207 167.773 69.9922C167.768 71.2578 166.42 71.9785 164.223 71.9727C162.014 71.9785 160.666 71.2578 160.672 69.9922ZM161.773 69.9922C161.768 70.6895 162.682 71.0996 164.223 71.0938C165.752 71.0996 166.666 70.6895 166.672 69.9922C166.666 69.2715 165.752 68.8555 164.223 68.8555C162.682 68.8555 161.768 69.2715 161.773 69.9922ZM164.41 64.543V63.6289H166.625V61.4961H167.738V67.6953H166.625V64.543H164.41ZM178.098 61.4961V66.957H176.996V65.7031H174.699V66.5703H169.859V61.9766H170.973V63.3945H173.598V61.9766H174.699V62.9375H176.996V61.4961H178.098ZM170.973 65.6797H173.598V64.25H170.973V65.6797ZM171.23 68.293V67.4258H178.098V70.0039H172.367V70.9766H178.473V71.8672H171.254V69.1719H176.996V68.293H171.23ZM174.699 64.8477H176.996V63.793H174.699V64.8477Z" fill="#838A94"/>
<path d="M83.0703 82.4961V92.9961H81.957V82.4961H83.0703ZM74.4453 90.1367C75.3125 90.1309 76.2969 90.125 77.3281 90.1016V89.0469C76.1035 88.8828 75.3066 88.1621 75.3125 87.1367C75.3066 85.9531 76.3379 85.1738 77.8555 85.168C79.3906 85.1738 80.4395 85.9531 80.4453 87.1367C80.4395 88.1504 79.6484 88.8652 78.4297 89.041V90.0605C79.4023 90.0137 80.3867 89.9434 81.3125 89.8203L81.3945 90.6523C79.0625 91.0391 76.5195 91.0684 74.5977 91.0625L74.4453 90.1367ZM74.668 84.6406V83.75H77.3281V82.5195H78.4414V83.75H81.0781V84.6406H74.668ZM76.3672 87.1367C76.3555 87.8047 76.9766 88.2207 77.8555 88.2148C78.7637 88.2207 79.3789 87.8047 79.3789 87.1367C79.3789 86.4629 78.7637 86.0352 77.8555 86.0352C76.9766 86.0352 76.3555 86.4629 76.3672 87.1367ZM93.4883 82.5078V90.4648H92.375V89.457H90.2656V88.6719H92.375V82.5078H93.4883ZM84.7109 87.3008C86.6504 87.2832 89.2695 87.2656 91.5078 86.9844L91.5781 87.7812C90.6816 87.9336 89.7383 88.0273 88.8125 88.0918V90.1367H87.6992V88.1504C86.6797 88.1914 85.7012 88.1914 84.8516 88.1914L84.7109 87.3008ZM85.5312 84.7578C85.5254 83.6445 86.5859 82.9062 88.1445 82.9062C89.6797 82.9062 90.7461 83.6445 90.7461 84.7578C90.7461 85.877 89.6797 86.5859 88.1445 86.5859C86.5918 86.5859 85.5254 85.877 85.5312 84.7578ZM86.1641 92.7734V89.6914H87.2656V91.8711H93.7461V92.7734H86.1641ZM86.5859 84.7578C86.5801 85.3789 87.2129 85.7656 88.1445 85.7656C89.041 85.7656 89.6855 85.3789 89.6914 84.7578C89.6855 84.1309 89.041 83.7266 88.1445 83.7383C87.2129 83.7266 86.5801 84.1309 86.5859 84.7578ZM103.391 82.9883V83.8789H99.6289V84.8516H103.191V85.707H99.6289V86.75C101.604 86.7441 102.729 86.709 104.082 86.4922L104.188 87.3711C102.74 87.6113 101.527 87.6465 99.3359 87.6523H98.5156V82.9883H103.391ZM99.5234 89.3164V88.4375H106.309V91.0156H100.637V92.0234H106.672V92.8906H99.5469V90.1953H105.207V89.3164H99.5234ZM105.195 87.957V82.4961H106.309V84.7109H107.832V85.625H106.309V87.957H105.195ZM114.77 87.4766V88.3672H112.496V89.9434C113.457 89.8906 114.43 89.8086 115.344 89.6797L115.426 90.4883C113.053 90.9395 110.504 90.9395 108.629 90.957L108.488 90.0312C109.338 90.0312 110.34 90.0254 111.395 89.9902V88.3672H109.262V83.4102H114.723V84.3125H110.387V85.4375H114.512V86.3047H110.387V87.4766H114.77ZM116 93.0195V82.4961H117.113V93.0195H116ZM125.586 85.168C125.574 87.084 126.734 89.0176 128.363 89.7383L127.695 90.6172C126.488 90.043 125.533 88.8652 125.041 87.4297C124.555 88.9707 123.588 90.2363 122.328 90.8516L121.648 89.9141C123.301 89.1816 124.461 87.1719 124.461 85.168V83.375H125.586V85.168ZM129.312 93.0195V82.4961H130.426V93.0195H129.312ZM143.75 82.9648V83.8555H140.557C140.65 84.916 142.162 85.8242 144.113 86.0234L143.703 86.8906C141.887 86.6914 140.387 85.9121 139.812 84.7871C139.238 85.9121 137.744 86.6914 135.934 86.8906L135.535 86.0234C137.463 85.8066 138.98 84.9102 139.068 83.8555H135.91V82.9648H143.75ZM135.031 88.4141V87.5117H144.629V88.4141H135.031ZM136.098 90.2891V89.3867H143.434V92.9961H142.309V90.2891H136.098ZM149.258 85.168C149.246 87.084 150.406 89.0176 152.035 89.7383L151.367 90.6172C150.16 90.043 149.205 88.8652 148.713 87.4297C148.227 88.9707 147.26 90.2363 146 90.8516L145.32 89.9141C146.973 89.1816 148.133 87.1719 148.133 85.168V83.375H149.258V85.168ZM152.984 93.0195V82.4961H154.098V93.0195H152.984ZM164.715 83.5742V84.4883H163.637V89.3809C164.158 89.3398 164.668 89.293 165.16 89.2344L165.219 90.043C163.021 90.4121 160.543 90.4473 158.703 90.4531L158.574 89.5273C158.99 89.5273 159.441 89.5215 159.91 89.5156V84.4883H158.832V83.5742H164.715ZM160.988 89.498C161.504 89.4863 162.031 89.4688 162.559 89.4453V84.4883H160.988V89.498ZM165.77 92.9961V82.4961H166.883V86.6328H168.57V87.5469H166.883V92.9961H165.77ZM177.805 82.4961V92.9961H176.68V82.4961H177.805ZM169.18 90.1836C171.969 88.8535 173.334 86.9609 173.551 84.5117H169.684V83.6211H174.676C174.676 86.6973 173.369 89.3574 169.766 91.0859L169.18 90.1836Z" fill="#838A94"/>
<path d="M24.6367 61.4961V64.3438H26.1602V65.2812H24.6367V68.2344H23.5234V61.4961H24.6367ZM16.3984 63.5V62.6211H18.9766V61.4141H20.0898V62.6211H22.6562V63.5H16.3984ZM16.9727 65.8555C16.9668 64.7246 17.998 63.9863 19.5273 63.9805C21.0391 63.9863 22.0703 64.7246 22.0703 65.8555C22.0703 66.9805 21.0391 67.7129 19.5273 67.707C17.998 67.7129 16.9668 66.9805 16.9727 65.8555ZM17.8047 70.1562C17.793 68.9961 19.1172 68.3164 21.2852 68.3164C23.4238 68.3164 24.7539 68.9961 24.7539 70.1562C24.7539 71.2988 23.4238 71.9785 21.2852 71.9727C19.1172 71.9785 17.793 71.2988 17.8047 70.1562ZM18.0508 65.8555C18.0391 66.4766 18.6367 66.8633 19.5273 66.8633C20.418 66.8633 21.0156 66.4766 21.0273 65.8555C21.0156 65.2168 20.418 64.8125 19.5273 64.8125C18.6367 64.8125 18.0391 65.2168 18.0508 65.8555ZM18.9062 70.1562C18.9004 70.7715 19.7734 71.1289 21.2852 71.1289C22.7734 71.1289 23.6465 70.7715 23.6523 70.1562C23.6465 69.5176 22.7734 69.1777 21.2852 69.1719C19.7734 69.1777 18.9004 69.5176 18.9062 70.1562ZM35.1133 61.9297V65.5273H32.0898V66.7461H36.332V67.6484H26.7578V66.7461H30.9883V65.5273H27.9766V61.9297H35.1133ZM27.8242 69.5234V68.6445H35.1602V71.9961H34.0352V69.5234H27.8242ZM29.0664 64.6367H34.0117V62.8086H29.0664V64.6367Z" fill="#838A94"/>
<path d="M25.9961 90.7695V91.6953H16.3867V90.7695H20.6172V88.6133H17.4883V83.2109H18.6016V85.0156H23.7578V83.2109H24.8594V88.6133H21.7188V90.7695H25.9961ZM18.6016 87.7109H23.7578V85.918H18.6016V87.7109ZM36.3555 88.4258V89.3398H33.918V92.9961H32.793V89.3398H30.2852V92.9961H29.1367V89.3398H26.7461V88.4258H36.3555ZM27.7891 85.2148C27.7949 83.7969 29.3066 82.8945 31.5273 82.8945C33.748 82.8945 35.2715 83.7969 35.2656 85.2148C35.2715 86.6152 33.748 87.5 31.5273 87.4883C29.3066 87.5 27.7949 86.6152 27.7891 85.2148ZM28.9375 85.2148C28.9316 86.0762 29.9688 86.6094 31.5273 86.6094C33.0918 86.6094 34.123 86.0762 34.1289 85.2148C34.123 84.3301 33.0918 83.791 31.5273 83.7852C29.9688 83.791 28.9316 84.3301 28.9375 85.2148ZM45.8594 82.4961V92.9961H44.7344V82.4961H45.8594ZM37.2344 90.1836C40.0234 88.8535 41.3887 86.9609 41.6055 84.5117H37.7383V83.6211H42.7305C42.7305 86.6973 41.4238 89.3574 37.8203 91.0859L37.2344 90.1836ZM55.75 82.4961V85.6016H57.2734V86.5273H55.75V90.125H54.625V82.4961H55.75ZM47.4883 88.0859C49.9492 87.3477 51.4727 85.9473 51.6895 84.2188H47.9336V83.293H52.9023C52.9023 86.0469 51.0273 88.0449 47.957 88.9766L47.4883 88.0859ZM49.082 92.7734V89.3398H50.207V91.8711H56.1836V92.7734H49.082Z" fill="#838A94"/>
<path d="M18.6855 111.904H18.0215L18.0801 110.391L16.791 111.201L16.459 110.625L17.8066 109.922L16.459 109.209L16.791 108.633L18.0801 109.443L18.0215 107.93H18.6855L18.627 109.443L19.916 108.633L20.248 109.209L18.9102 109.922L20.248 110.625L19.916 111.201L18.627 110.391L18.6855 111.904ZM28.5107 107.109V115.791H27.7587V111.25H26.5576V115.361H25.8252V107.344H26.5576V110.615H27.7587V107.109H28.5107ZM21.1084 113.389C23.125 112.261 23.955 110.674 24.0869 108.877H21.4404V108.242H24.8388C24.8291 110.449 24.0527 112.534 21.5576 113.926L21.1084 113.389ZM36.9491 107.119V113.467H36.1874V107.119H36.9491ZM29.9862 109.854C29.9814 108.604 30.9628 107.729 32.2616 107.725C33.5605 107.729 34.5321 108.604 34.537 109.854C34.5321 111.118 33.5605 111.997 32.2616 111.992C30.9628 111.997 29.9814 111.118 29.9862 109.854ZM30.7382 109.854C30.7284 110.718 31.3827 111.318 32.2616 111.318C33.1259 111.318 33.7851 110.718 33.7851 109.854C33.7851 109.004 33.1259 108.398 32.2616 108.398C31.3827 108.398 30.7284 109.004 30.7382 109.854ZM31.3437 115.605V112.822H32.1054V114.961H37.2226V115.605H31.3437ZM45.661 107.109V112.285H44.8895V110.01H43.1415V109.375H44.8895V107.109H45.661ZM38.5028 111.592C39.7919 111.128 40.7098 109.951 40.7098 108.711V108.389H38.747V107.744H43.4247V108.389H41.4813V108.701C41.4813 109.834 42.3505 110.913 43.62 111.348L43.2196 111.963C42.2479 111.611 41.4911 110.879 41.1151 109.985C40.744 111.001 39.9384 111.812 38.9032 112.207L38.5028 111.592ZM39.87 114.17C39.8651 113.149 40.9735 112.554 42.7802 112.559C44.5819 112.554 45.6903 113.149 45.6903 114.17C45.6903 115.195 44.5819 115.781 42.7802 115.791C40.9735 115.781 39.8651 115.195 39.87 114.17ZM40.6317 114.17C40.6268 114.8 41.4471 115.181 42.7802 115.176C44.1083 115.181 44.9286 114.8 44.9286 114.17C44.9286 113.535 44.1083 113.154 42.7802 113.154C41.4471 113.154 40.6268 113.535 40.6317 114.17ZM55.0955 114.043V114.678H47.1463V114.043H50.7205V112.168H48.0838V107.725H48.8553V109.297H53.367V107.725H54.119V112.168H51.4725V114.043H55.0955ZM48.8553 111.543H53.367V109.922H48.8553V111.543ZM62.7341 107.92C62.739 109.146 64.3308 110.2 65.8982 110.42L65.5857 111.045C64.238 110.82 62.9002 110.073 62.3435 109.009C61.7869 110.083 60.4539 110.82 59.1013 111.045L58.7888 110.42C60.3562 110.2 61.9431 109.165 61.9431 107.92V107.422H62.7341V107.92ZM58.3787 112.646V112.002H66.2888V112.646H62.6951V115.791H61.9431V112.646H58.3787ZM70.1862 108.545C70.1911 109.678 71.1286 110.684 72.4226 111.074L72.032 111.68C71.0163 111.357 70.2009 110.659 69.8103 109.761C69.4245 110.723 68.6042 111.475 67.5691 111.826L67.1687 111.221C68.4773 110.806 69.4099 109.736 69.4148 108.545V108.32H67.3835V107.695H72.1882V108.32H70.1862V108.545ZM68.6042 115.674V112.236H69.3659V113.291H73.4675V112.236H74.2292V115.674H68.6042ZM69.3659 115.049H73.4675V113.906H69.3659V115.049ZM73.4675 111.807V107.109H74.2292V111.807H73.4675ZM82.8248 107.676V111.211H78.7526V107.676H82.8248ZM79.3776 115.166C80.8717 115 82.3073 114.155 82.3073 113.291H79.7389V112.695H82.317V111.846H83.0788V112.695H85.6764V113.291H83.0983C83.0934 114.136 84.4899 114.98 85.9791 115.166L85.7155 115.762C84.4118 115.581 83.2204 114.966 82.7028 114.165C82.1803 114.985 80.9596 115.581 79.651 115.762L79.3776 115.166ZM79.5045 110.605H82.0729V108.301H79.5045V110.605ZM84.6998 112.1V107.109H85.4518V112.1H84.6998ZM96.6841 107.109V115.811H95.9127V107.109H96.6841ZM89.8482 110.811C89.8531 108.965 90.7711 107.788 92.065 107.783C93.3541 107.788 94.2867 108.965 94.2818 110.811C94.2867 112.661 93.3541 113.833 92.065 113.828C90.7711 113.833 89.8531 112.661 89.8482 110.811ZM90.5904 110.811C90.5904 112.222 91.1959 113.149 92.065 113.145C92.939 113.149 93.5396 112.222 93.5396 110.811C93.5396 109.399 92.939 108.472 92.065 108.467C91.1959 108.472 90.5904 109.399 90.5904 110.811ZM106.119 111.406V112.041H98.2085V111.406H100.171V110.181C99.4781 109.912 99.0874 109.473 99.0874 108.887C99.0874 107.866 100.259 107.28 102.164 107.275C104.053 107.28 105.225 107.866 105.23 108.887C105.225 109.468 104.839 109.907 104.156 110.181V111.406H106.119ZM99.1656 114.238C99.1607 113.247 100.279 112.7 102.164 112.705C104.024 112.7 105.142 113.247 105.152 114.238C105.142 115.229 104.024 115.771 102.164 115.771C100.279 115.771 99.1607 115.229 99.1656 114.238ZM99.8784 108.887C99.8736 109.521 100.743 109.888 102.164 109.893C103.57 109.888 104.444 109.521 104.449 108.887C104.444 108.262 103.57 107.881 102.164 107.881C100.743 107.881 99.8736 108.262 99.8784 108.887ZM99.9468 114.238C99.937 114.829 100.772 115.181 102.164 115.176C103.541 115.181 104.376 114.829 104.38 114.238C104.376 113.647 103.541 113.301 102.164 113.291C100.772 113.301 99.937 113.647 99.9468 114.238ZM100.933 111.406H103.394V110.386C103.028 110.454 102.618 110.488 102.164 110.488C101.709 110.488 101.299 110.454 100.933 110.391V111.406ZM114.332 107.109V115.791H113.59V107.109H114.332ZM106.999 110.859C107.003 109.014 107.736 107.847 108.864 107.842C109.918 107.847 110.631 108.862 110.729 110.498H111.852V107.295H112.584V115.352H111.852V111.133H110.734C110.661 112.822 109.933 113.882 108.864 113.877C107.736 113.882 107.003 112.705 106.999 110.859ZM107.721 110.859C107.711 112.266 108.161 113.154 108.864 113.145C109.572 113.154 110.021 112.266 110.016 110.859C110.021 109.448 109.572 108.564 108.864 108.564C108.161 108.564 107.711 109.448 107.721 110.859ZM125.545 107.109V115.791H124.813V111.24H123.534V115.342H122.83V107.305H123.534V110.605H124.813V107.109H125.545ZM118.446 113.643V108.174H121.698V108.809H119.207V112.988C120.404 112.983 121.229 112.939 122.196 112.744L122.264 113.389C121.219 113.604 120.335 113.638 119.002 113.643H118.446ZM133.593 107.119V109.98H134.902V110.625H133.593V113.623H132.831V107.119H133.593ZM126.826 108.809V108.184H129.033V107.119H129.794V108.184H132.001V108.809H126.826ZM127.324 110.908C127.319 109.922 128.159 109.287 129.413 109.287C130.654 109.287 131.494 109.922 131.503 110.908C131.494 111.885 130.654 112.515 129.413 112.51C128.159 112.515 127.319 111.885 127.324 110.908ZM128.056 110.908C128.051 111.519 128.593 111.914 129.413 111.904C130.224 111.914 130.771 111.519 130.781 110.908C130.771 110.288 130.224 109.888 129.413 109.893C128.593 109.888 128.051 110.288 128.056 110.908ZM128.163 115.605V113.105H128.915V114.961H133.994V115.605H128.163ZM145.958 111.406V112.021H138.038V111.406H141.622V110.391H139.044V107.52H144.972V108.135H139.796V109.766H145.031V110.391H142.365V111.406H145.958ZM138.995 114.219C138.991 113.228 140.118 112.661 141.993 112.656C143.854 112.661 144.972 113.228 144.982 114.219C144.972 115.22 143.854 115.781 141.993 115.791C140.118 115.781 138.991 115.22 138.995 114.219ZM139.777 114.219C139.767 114.829 140.602 115.181 141.993 115.176C143.37 115.181 144.205 114.829 144.21 114.219C144.205 113.618 143.37 113.262 141.993 113.262C140.602 113.262 139.767 113.618 139.777 114.219ZM149.563 107.744C150.925 107.749 151.892 108.579 151.897 109.785C151.892 110.996 150.925 111.821 149.563 111.826C148.191 111.821 147.214 110.996 147.219 109.785C147.214 108.579 148.191 107.749 149.563 107.744ZM146.77 113.242C148.371 113.247 150.583 113.232 152.502 112.949L152.561 113.516C150.573 113.887 148.44 113.896 146.877 113.896L146.77 113.242ZM147.971 109.785C147.966 110.596 148.635 111.152 149.563 111.152C150.481 111.152 151.15 110.596 151.145 109.785C151.15 108.979 150.481 108.418 149.563 108.418C148.635 108.418 147.966 108.979 147.971 109.785ZM153.078 115.811V107.109H153.84V115.811H153.078ZM163.343 111.143V111.748H155.394V111.143H163.343ZM156.351 113.018V112.441H162.347V114.287H157.132V115.117H162.63V115.674H156.361V113.76H161.585V113.018H156.351ZM156.4 107.93V107.373H162.318V109.17H157.191V109.932H162.474V110.488H156.429V108.643H161.546V107.93H156.4ZM173.823 107.109V115.791H173.062V111.24H170.991V110.605H173.062V107.109H173.823ZM166.646 113.525C168.994 112.388 170.083 110.713 170.239 108.682H167.026V108.057H171.011C171.006 110.518 169.966 112.7 167.066 114.141L166.646 113.525ZM183.258 112.266V112.891H179.635V115.791H178.883V112.891H175.309V112.266H183.258ZM176.324 111.211V107.471H177.086V108.672H181.461V107.471H182.232V111.211H176.324ZM177.086 110.586H181.461V109.297H177.086V110.586ZM190.788 107.08V109.189H192.106V109.824H190.788V111.885H190.026V107.08H190.788ZM184.021 108.516V107.9H186.228V107.021H186.989V107.9H189.196V108.516H184.021ZM184.519 110.332C184.514 109.453 185.344 108.911 186.608 108.906C187.868 108.911 188.689 109.453 188.698 110.332C188.689 111.216 187.868 111.753 186.608 111.758C185.344 111.753 184.514 111.216 184.519 110.332ZM185.251 112.91V112.334H190.788V114.258H186.023V115.107H191.11V115.693H185.271V113.691H190.026V112.91H185.251ZM185.251 110.332C185.246 110.854 185.783 111.182 186.608 111.182C187.429 111.182 187.966 110.854 187.976 110.332C187.966 109.814 187.429 109.478 186.608 109.473C185.783 109.478 185.246 109.814 185.251 110.332ZM202.421 107.119V113.682H201.64V112.461H199.726V111.836H201.64V107.119H202.421ZM195.175 110.557C196.293 110.552 197.694 110.542 199.071 110.449C199.242 109.492 199.271 108.77 199.276 108.271H195.956V107.646H200.038V107.988C200.043 108.467 200.043 109.277 199.857 110.386C200.194 110.356 200.526 110.317 200.849 110.273L200.907 110.83C200.097 110.967 199.247 111.05 198.417 111.104V113.105H197.655V111.143C196.801 111.182 195.985 111.191 195.282 111.191L195.175 110.557ZM196.474 115.605V112.949H197.245V114.961H202.636V115.605H196.474ZM211.084 107.109V115.811H210.322V107.109H211.084ZM204.404 108.555V107.92H208.447V111.006H205.205V113.057C206.645 113.062 207.93 112.993 209.482 112.744L209.56 113.389C207.964 113.638 206.645 113.701 205.146 113.701H204.424V110.381H207.676V108.555H204.404ZM219.317 107.109V110.645H220.724V111.289H219.317V115.791H218.556V107.109H219.317ZM212.657 113.535C214.898 112.422 216.119 110.747 216.295 108.691H213.057V108.047H217.071C217.066 110.503 215.914 112.744 213.087 114.141L212.657 113.535ZM226.77 112.939C226.765 113.706 227.18 114.521 228.006 114.99C228.836 114.478 229.275 113.608 229.27 112.939V112.461H230.022V112.939C230.017 113.833 230.677 114.722 231.79 115.107L231.409 115.674C230.54 115.366 229.934 114.761 229.632 114.033C229.363 114.736 228.831 115.405 228.03 115.742C227.185 115.42 226.648 114.785 226.389 114.058C226.077 114.756 225.481 115.361 224.651 115.674L224.261 115.107C225.359 114.697 226.018 113.77 226.028 112.939V112.461H226.77V112.939ZM224.036 109.658C224.031 108.447 224.993 107.622 226.311 107.627C227.63 107.622 228.582 108.447 228.587 109.658C228.582 110.85 227.63 111.67 226.311 111.67C224.993 111.67 224.031 110.85 224.036 109.658ZM224.788 109.658C224.778 110.464 225.418 111.03 226.311 111.035C227.195 111.03 227.835 110.464 227.835 109.658C227.835 108.848 227.195 108.271 226.311 108.281C225.418 108.271 224.778 108.848 224.788 109.658ZM230.237 112.08V107.119H230.999V112.08H230.237ZM236.469 107.676C238.28 107.681 239.642 108.628 239.642 110.059C239.642 111.504 238.28 112.451 236.469 112.441C234.657 112.451 233.295 111.504 233.295 110.059C233.295 108.628 234.657 107.681 236.469 107.676ZM232.513 114.639V113.994H240.463V114.639H232.513ZM234.027 110.059C234.017 111.113 235.067 111.816 236.469 111.816C237.86 111.816 238.9 111.113 238.9 110.059C238.9 109.019 237.86 108.296 236.469 108.301C235.067 108.296 234.017 109.019 234.027 110.059ZM245.503 107.979V109.199H247.632V107.109H248.393V115.811H247.632V112.227H245.503V113.594H241.548V107.979H245.503ZM242.309 112.979H244.76V108.584H242.309V112.979ZM245.503 111.592H247.632V109.834H245.503V111.592ZM251.304 114.346L250.543 117.002H249.82L250.357 114.346H251.304ZM262.947 111.406V112.021H255.027V111.406H258.611V110.391H256.033V107.52H261.961V108.135H256.785V109.766H262.019V110.391H259.353V111.406H262.947ZM255.984 114.219C255.979 113.228 257.107 112.661 258.982 112.656C260.842 112.661 261.961 113.228 261.97 114.219C261.961 115.22 260.842 115.781 258.982 115.791C257.107 115.781 255.979 115.22 255.984 114.219ZM256.765 114.219C256.755 114.829 257.59 115.181 258.982 115.176C260.359 115.181 261.194 114.829 261.199 114.219C261.194 113.618 260.359 113.262 258.982 113.262C257.59 113.262 256.755 113.618 256.765 114.219ZM266.551 107.744C267.914 107.749 268.88 108.579 268.885 109.785C268.88 110.996 267.914 111.821 266.551 111.826C265.179 111.821 264.203 110.996 264.208 109.785C264.203 108.579 265.179 107.749 266.551 107.744ZM263.758 113.242C265.36 113.247 267.572 113.232 269.491 112.949L269.549 113.516C267.562 113.887 265.428 113.896 263.866 113.896L263.758 113.242ZM264.96 109.785C264.955 110.596 265.624 111.152 266.551 111.152C267.469 111.152 268.138 110.596 268.133 109.785C268.138 108.979 267.469 108.418 266.551 108.418C265.624 108.418 264.955 108.979 264.96 109.785ZM270.067 115.811V107.109H270.829V115.811H270.067ZM282.129 107.109V115.791H281.368V111.24H279.297V110.605H281.368V107.109H282.129ZM274.952 113.525C277.3 112.388 278.389 110.713 278.545 108.682H275.332V108.057H279.317C279.312 110.518 278.272 112.7 275.372 114.141L274.952 113.525ZM291.564 112.266V112.891H287.941V115.791H287.189V112.891H283.615V112.266H291.564ZM284.63 111.211V107.471H285.392V108.672H289.767V107.471H290.539V111.211H284.63ZM285.392 110.586H289.767V109.297H285.392V110.586ZM297.943 109.443C297.938 111.03 299.017 112.622 300.296 113.203L299.828 113.809C298.836 113.33 297.982 112.3 297.567 111.064C297.166 112.373 296.312 113.472 295.296 113.984L294.808 113.34C296.102 112.749 297.171 111.089 297.181 109.443V107.861H297.943V109.443ZM301.244 115.811V107.109H302.015V115.811H301.244ZM23.4707 121.109V129.791H22.709V121.109H23.4707ZM16.4004 127.477C17.1426 127.472 17.9922 127.467 18.8711 127.438V126.49C17.8262 126.383 17.1523 125.787 17.1621 124.918C17.1523 123.937 17.9873 123.302 19.2422 123.307C20.4971 123.302 21.3467 123.937 21.3418 124.918C21.3467 125.777 20.6729 126.373 19.6426 126.49V127.408C20.4824 127.369 21.332 127.311 22.1328 127.203L22.1914 127.789C20.2529 128.102 18.1289 128.131 16.5176 128.131L16.4004 127.477ZM16.5859 122.809V122.184H18.8711V121.119H19.6426V122.184H21.9082V122.809H16.5859ZM17.875 124.918C17.8701 125.519 18.4365 125.914 19.2422 125.904C20.0527 125.914 20.6143 125.519 20.6094 124.918C20.6143 124.312 20.0527 123.902 19.2422 123.902C18.4365 123.902 17.8701 124.312 17.875 124.918ZM32.1923 121.119V127.711H31.4209V126.812H29.624V126.256H31.4209V121.119H32.1923ZM24.9853 125.143C26.6015 125.133 28.7793 125.118 30.6396 124.889L30.6884 125.445C29.917 125.567 29.1015 125.646 28.3056 125.694V127.408H27.5341V125.733C26.6552 125.768 25.8203 125.768 25.0927 125.768L24.9853 125.143ZM25.6884 122.984C25.6836 122.071 26.5527 121.471 27.8369 121.471C29.1113 121.471 29.9804 122.071 29.9853 122.984C29.9804 123.912 29.1113 124.488 27.8369 124.488C26.5527 124.488 25.6836 123.912 25.6884 122.984ZM26.2353 129.605V127.066H27.0068V128.961H32.4072V129.605H26.2353ZM26.4209 122.984C26.4111 123.551 26.9873 123.917 27.8369 123.922C28.6621 123.917 29.248 123.551 29.2529 122.984C29.248 122.428 28.6621 122.047 27.8369 122.057C26.9873 122.047 26.4111 122.428 26.4209 122.984ZM40.4355 121.109V124.645H41.8417V125.289H40.4355V129.791H39.6737V121.109H40.4355ZM33.7753 127.535C36.0165 126.422 37.2372 124.747 37.413 122.691H34.1757V122.047H38.1894C38.1845 124.503 37.0321 126.744 34.205 128.141L33.7753 127.535ZM49.5673 121.109V125.768H48.8055V121.109H49.5673ZM42.6044 123.531C42.5995 122.345 43.5614 121.529 44.8798 121.539C46.1981 121.529 47.1503 122.345 47.1552 123.531C47.1503 124.713 46.1981 125.528 44.8798 125.523C43.5614 125.528 42.5995 124.713 42.6044 123.531ZM43.3563 123.531C43.3466 124.322 43.9862 124.884 44.8798 124.889C45.7636 124.884 46.4032 124.322 46.4032 123.531C46.4032 122.735 45.7636 122.179 44.8798 122.184C43.9862 122.179 43.3466 122.735 43.3563 123.531ZM43.9423 129.674V126.207H44.704V127.262H48.8055V126.207H49.5673V129.674H43.9423ZM44.704 129.049H48.8055V127.877H44.704V129.049ZM58.2401 121.109V129.811H57.4686V121.109H58.2401ZM51.4041 124.811C51.409 122.965 52.327 121.788 53.6209 121.783C54.91 121.788 55.8426 122.965 55.8377 124.811C55.8426 126.661 54.91 127.833 53.6209 127.828C52.327 127.833 51.409 126.661 51.4041 124.811ZM52.1463 124.811C52.1463 126.222 52.7518 127.149 53.6209 127.145C54.495 127.149 55.0955 126.222 55.0955 124.811C55.0955 123.399 54.495 122.472 53.6209 122.467C52.7518 122.472 52.1463 123.399 52.1463 124.811ZM69.7361 121.109V129.791H69.0037V121.109H69.7361ZM62.2068 127.477C63.4177 126.754 64.1257 125.167 64.1209 123.59V122.77H62.4509V122.135H66.4548V122.77H64.863V123.59C64.863 125.089 65.5418 126.588 66.738 127.281L66.2693 127.848C65.4148 127.335 64.8093 126.397 64.5066 125.294C64.1941 126.49 63.5642 127.511 62.6951 128.053L62.2068 127.477ZM65.7908 124.869V124.244H67.2556V121.324H67.9783V129.342H67.2556V124.869H65.7908ZM77.7839 121.119V123.98H79.0925V124.625H77.7839V127.623H77.0222V121.119H77.7839ZM71.0163 122.809V122.184H73.2234V121.119H73.9851V122.184H76.1921V122.809H71.0163ZM71.5144 124.908C71.5095 123.922 72.3493 123.287 73.6042 123.287C74.8445 123.287 75.6843 123.922 75.6941 124.908C75.6843 125.885 74.8445 126.515 73.6042 126.51C72.3493 126.515 71.5095 125.885 71.5144 124.908ZM72.2468 124.908C72.2419 125.519 72.7839 125.914 73.6042 125.904C74.4148 125.914 74.9616 125.519 74.9714 124.908C74.9616 124.288 74.4148 123.888 73.6042 123.893C72.7839 123.888 72.2419 124.288 72.2468 124.908ZM72.3542 129.605V127.105H73.1062V128.961H78.1843V129.605H72.3542ZM86.8473 121.119V126.109H86.0759V121.119H86.8473ZM79.7087 125.26C80.446 125.26 81.3054 125.26 82.1989 125.23V124.293H80.4997V121.549H84.6208V122.184H81.2712V123.678H84.6989V124.293H82.9704V125.196C83.7761 125.157 84.5915 125.094 85.3532 124.986L85.402 125.543C83.4977 125.865 81.3932 125.895 79.8259 125.895L79.7087 125.26ZM81.1247 129.674V126.5H81.8864V127.428H86.0954V126.5H86.8473V129.674H81.1247ZM81.8864 129.049H86.0954V128.023H81.8864V129.049ZM95.5202 121.109V129.791H94.7584V121.109H95.5202ZM88.9284 127.555V121.969H89.6803V126.891C91.0084 126.881 92.3756 126.778 93.8307 126.471L93.9381 127.125C92.3952 127.447 91.0231 127.555 89.6315 127.555H88.9284ZM103.763 121.109V124.547H105.218V125.191H103.763V129.811H103.002V121.109H103.763ZM97.4254 127.633V121.959H101.478V122.594H98.1871V126.988C99.7594 126.983 100.868 126.915 102.162 126.676L102.259 127.34C100.897 127.584 99.7594 127.633 98.109 127.633H97.4254ZM106.645 129.059C106.303 129.054 106.01 128.771 106.02 128.424C106.01 128.082 106.303 127.799 106.645 127.799C106.992 127.799 107.275 128.082 107.27 128.424C107.275 128.771 106.992 129.054 106.645 129.059Z" fill="#838A94"/>
</svg>
