<svg width="18" height="18" viewBox="0 0 18 18" fill="none" xmlns="http://www.w3.org/2000/svg">
<path d="M9.84375 12.6562C9.84375 12.8231 9.79427 12.9863 9.70155 13.125C9.60884 13.2638 9.47707 13.3719 9.32289 13.4358C9.16872 13.4996 8.99907 13.5163 8.83539 13.4838C8.67172 13.4512 8.52138 13.3709 8.40338 13.2529C8.28538 13.1349 8.20502 12.9845 8.17246 12.8209C8.13991 12.6572 8.15662 12.4875 8.22048 12.3334C8.28434 12.1792 8.39249 12.0474 8.53124 11.9547C8.66999 11.862 8.83312 11.8125 9 11.8125C9.22378 11.8125 9.43839 11.9014 9.59662 12.0596C9.75486 12.2179 9.84375 12.4325 9.84375 12.6562ZM9 5.0625C7.44891 5.0625 6.1875 6.19805 6.1875 7.59375V7.875C6.1875 8.02418 6.24677 8.16726 6.35226 8.27275C6.45774 8.37824 6.60082 8.4375 6.75 8.4375C6.89919 8.4375 7.04226 8.37824 7.14775 8.27275C7.25324 8.16726 7.3125 8.02418 7.3125 7.875V7.59375C7.3125 6.82031 8.06977 6.1875 9 6.1875C9.93024 6.1875 10.6875 6.82031 10.6875 7.59375C10.6875 8.36719 9.93024 9 9 9C8.85082 9 8.70774 9.05926 8.60226 9.16475C8.49677 9.27024 8.4375 9.41331 8.4375 9.5625V10.125C8.4375 10.2742 8.49677 10.4173 8.60226 10.5227C8.70774 10.6282 8.85082 10.6875 9 10.6875C9.14919 10.6875 9.29226 10.6282 9.39775 10.5227C9.50324 10.4173 9.5625 10.2742 9.5625 10.125V10.0744C10.845 9.83883 11.8125 8.81578 11.8125 7.59375C11.8125 6.19805 10.5511 5.0625 9 5.0625ZM16.3125 9C16.3125 10.4463 15.8836 11.8601 15.0801 13.0626C14.2766 14.2651 13.1346 15.2024 11.7984 15.7559C10.4622 16.3093 8.99189 16.4541 7.5734 16.172C6.15492 15.8898 4.85196 15.1934 3.82928 14.1707C2.80661 13.148 2.11017 11.8451 1.82801 10.4266C1.54586 9.00811 1.69067 7.53781 2.24413 6.20163C2.7976 4.86544 3.73486 3.72339 4.9374 2.91988C6.13993 2.11637 7.55373 1.6875 9 1.6875C10.9388 1.68955 12.7975 2.46063 14.1685 3.83154C15.5394 5.20246 16.3105 7.06123 16.3125 9ZM15.1875 9C15.1875 7.77623 14.8246 6.57994 14.1447 5.56241C13.4648 4.54488 12.4985 3.75181 11.3679 3.2835C10.2372 2.81518 8.99314 2.69264 7.79288 2.93139C6.59262 3.17014 5.49012 3.75944 4.62478 4.62478C3.75944 5.49011 3.17014 6.59262 2.93139 7.79288C2.69265 8.99314 2.81518 10.2372 3.2835 11.3679C3.75182 12.4985 4.54488 13.4648 5.56241 14.1447C6.57994 14.8246 7.77623 15.1875 9 15.1875C10.6405 15.1856 12.2132 14.5331 13.3732 13.3732C14.5331 12.2132 15.1856 10.6405 15.1875 9Z" fill="#99A0AD"/>
</svg>
