<svg width="24" height="24" viewBox="0 0 24 24" fill="none" xmlns="http://www.w3.org/2000/svg">
<g clip-path="url(#clip0_3487_70102)">
<path d="M16.4898 8.76126C16.6354 8.56996 16.7033 8.41659 16.7873 8.227C16.8278 8.13536 16.8722 8.03525 16.9308 7.91831C17.2368 7.30906 17.8578 6.71649 18.5328 7.82651L16.4898 8.76126ZM16.4898 8.76126C16.3458 8.94487 16.0308 8.86975 15.9948 8.63607L16.4898 8.76126ZM9.64873 1.7961L9.6487 1.79539C9.63562 1.48811 9.69353 1.31967 9.83161 1.22767C9.98462 1.12574 10.2763 1.08581 10.8195 1.16488C11.45 1.25977 12.1338 1.66045 12.7938 2.28482C13.452 2.9075 14.0766 3.74347 14.5889 4.68952L14.5889 4.68956C15.4612 6.29903 15.7641 7.84347 15.8709 8.65243L15.8709 8.65243L15.8713 8.6551C15.8982 8.82988 16.03 8.94144 16.1718 8.97649C16.3129 9.01139 16.4811 8.97493 16.5882 8.8384L16.5893 8.83697C16.7042 8.68595 16.7738 8.55659 16.8371 8.42074C16.8602 8.37122 16.8816 8.32293 16.9036 8.27318C16.9432 8.18356 16.9849 8.08919 17.0425 7.97435C17.1155 7.8292 17.2057 7.68804 17.3081 7.57459C17.4112 7.46034 17.5204 7.38095 17.6302 7.34715C17.7352 7.31484 17.8498 7.32107 17.9783 7.39519C18.1113 7.4718 18.2632 7.62372 18.426 7.89145L18.4263 7.89189C18.7399 8.40288 19.3552 9.44669 19.8918 10.6877C20.4295 11.9311 20.8828 13.3604 20.8828 14.6452C20.8828 16.7166 20.4357 18.7684 19.1132 20.3014C17.7937 21.8309 15.5833 22.8662 12.0078 22.8662C8.43229 22.8662 6.22192 21.8309 4.90246 20.3014C3.57995 18.7684 3.13281 16.7166 3.13281 14.6452C3.13281 12.5993 4.04507 10.9782 5.17787 9.55476C5.67538 8.92961 6.21294 8.34556 6.73327 7.78022C6.80588 7.70133 6.87816 7.62281 6.94994 7.54458C7.5342 6.90792 8.08682 6.29044 8.51107 5.66858L8.51132 5.66821C9.50139 4.20602 9.68547 2.79283 9.64873 1.7961Z" fill="#2470FF" stroke="black" stroke-width="0.25"/>
<path d="M12.5614 9.43574L12.5689 9.44974L12.6562 9.43626C12.9515 9.39061 13.0923 9.41624 13.1572 9.45951C13.2075 9.49299 13.2407 9.55913 13.2322 9.72362L13.2321 9.72582C13.2135 10.2796 13.3164 11.0752 13.8655 11.8866L13.8656 11.8867C14.1009 12.2333 14.4072 12.5759 14.7283 12.9259C14.7699 12.9712 14.8118 13.0167 14.8538 13.0624C15.1381 13.3713 15.4301 13.6885 15.7006 14.0279C16.3204 14.8056 16.8141 15.6839 16.8141 16.7907C16.8141 17.9232 16.5694 19.0361 15.8544 19.8649C15.1425 20.6902 13.9446 21.256 11.9891 21.256C10.0335 21.256 8.83567 20.6902 8.12371 19.8649C7.4087 19.0361 7.16406 17.9232 7.16406 16.7907C7.16406 16.0986 7.41032 15.3203 7.70509 14.6369C7.99874 13.9561 8.33507 13.3818 8.50505 13.0997C8.59133 12.9573 8.66841 12.8826 8.72994 12.8472C8.78713 12.8142 8.83398 12.8128 8.87665 12.8259C8.92415 12.8405 8.97636 12.8765 9.02958 12.9349C9.08191 12.9924 9.1293 13.0651 9.1684 13.1413C9.19338 13.1919 9.21449 13.239 9.23477 13.2843C9.28667 13.4001 9.33304 13.5036 9.42444 13.6209L9.42443 13.621L9.42587 13.6227C9.50124 13.7159 9.61655 13.74 9.71155 13.7166C9.80685 13.6932 9.89927 13.617 9.91679 13.4952L9.91686 13.4947C9.97871 13.0522 10.1467 12.2084 10.6143 11.3329C10.8925 10.8129 11.2334 10.3569 11.5911 10.0191C11.9201 9.70853 12.2549 9.5056 12.5614 9.43574ZM9.52306 13.5441C9.60406 13.6443 9.77506 13.6026 9.79306 13.4774C9.85606 13.0267 10.0271 12.1671 10.5041 11.274L9.52306 13.5441Z" fill="white" stroke="black" stroke-width="0.25"/>
<path d="M11.5564 15.2198C11.5855 15.2174 11.6268 15.2189 11.6845 15.2274L11.6844 15.2287C11.8154 15.2484 11.9682 15.334 12.1253 15.4836C12.2805 15.6314 12.4303 15.8328 12.5557 16.0653C12.7627 16.4574 12.8404 16.8341 12.8661 17.0247L12.8661 17.0247L12.8665 17.027C12.8796 17.1127 12.9443 17.1674 13.0089 17.1857C13.0745 17.2042 13.1606 17.1903 13.215 17.1177C13.2496 17.0745 13.2701 17.036 13.2873 16.998C13.2947 16.9816 13.3003 16.9682 13.3058 16.9552C13.3143 16.9353 13.3222 16.9165 13.3351 16.89C13.3518 16.8593 13.3705 16.8319 13.3894 16.8113C13.4095 16.7895 13.4238 16.7819 13.4302 16.7799C13.4303 16.7798 13.4305 16.7798 13.4307 16.7797C13.4322 16.7791 13.4347 16.7782 13.4437 16.7833C13.4581 16.7914 13.4861 16.8145 13.5228 16.8736L13.5228 16.8737L13.5241 16.8756C13.6021 16.9963 13.7538 17.253 13.8855 17.5583C14.0181 17.8658 14.125 18.2102 14.125 18.5103C14.125 19.0168 14.0154 19.5037 13.7054 19.8631C13.3984 20.2189 12.8755 20.4718 12 20.4718C11.1245 20.4718 10.6016 20.2189 10.2946 19.8631C9.98464 19.5037 9.875 19.0168 9.875 18.5103C9.875 18.0291 10.0877 17.6431 10.3643 17.2943C10.4892 17.1369 10.6246 16.99 10.7581 16.8452C10.7729 16.8291 10.7878 16.813 10.8026 16.7969C10.9484 16.6384 11.0913 16.4802 11.2027 16.3198L11.2027 16.3198L11.2035 16.3186C11.4638 15.9341 11.5133 15.5569 11.504 15.2949C11.5042 15.2634 11.5076 15.2455 11.5109 15.2359C11.5124 15.2316 11.5136 15.2301 11.5137 15.23C11.5137 15.2299 11.5137 15.2299 11.5137 15.23C11.5136 15.23 11.5137 15.2299 11.5141 15.2296C11.5157 15.2286 11.5261 15.2223 11.5564 15.2198Z" fill="#1A50B5" stroke="black" stroke-width="0.25"/>
</g>
<defs>
<clipPath id="clip0_3487_70102">
<rect width="18" height="22" fill="white" transform="translate(3 1)"/>
</clipPath>
</defs>
</svg>
