<svg width="33" height="33" viewBox="0 0 33 33" fill="none" xmlns="http://www.w3.org/2000/svg">
<g clip-path="url(#clip0_3364_50468)">
<rect width="33" height="33" rx="16.5" fill="white"/>
<mask id="path-3-inside-1_3364_50468" fill="white">
<path fill-rule="evenodd" clip-rule="evenodd" d="M7.54365 31.9751C5.47192 31.8753 3.67788 31.1769 2.40414 29.8291C-1.40383 25.7998 0.880505 17.4915 7.50634 11.2722C14.1322 5.05286 22.5905 3.27755 26.3984 7.30692C28.029 9.0323 28.5425 11.5422 28.0764 14.3368C31.0768 14.9977 33.3592 16.5662 34.2414 18.9052C35.3863 21.9408 33.8989 25.5482 30.7035 28.5227C31.0234 29.1279 31.2018 29.7712 31.2164 30.4403C31.2994 34.2516 26.0333 37.4565 19.4542 37.5988C13.4749 37.7281 8.46887 35.2831 7.54365 31.9751Z"/>
</mask>
<path fill-rule="evenodd" clip-rule="evenodd" d="M7.54365 31.9751C5.47192 31.8753 3.67788 31.1769 2.40414 29.8291C-1.40383 25.7998 0.880505 17.4915 7.50634 11.2722C14.1322 5.05286 22.5905 3.27755 26.3984 7.30692C28.029 9.0323 28.5425 11.5422 28.0764 14.3368C31.0768 14.9977 33.3592 16.5662 34.2414 18.9052C35.3863 21.9408 33.8989 25.5482 30.7035 28.5227C31.0234 29.1279 31.2018 29.7712 31.2164 30.4403C31.2994 34.2516 26.0333 37.4565 19.4542 37.5988C13.4749 37.7281 8.46887 35.2831 7.54365 31.9751Z" fill="white"/>
<path d="M7.54365 31.9751L8.50719 31.7047L8.31325 31.0113L7.5933 30.9766L7.54365 31.9751ZM2.40414 29.8291L1.67628 30.5159L1.67628 30.5159L2.40414 29.8291ZM7.50634 11.2722L6.82193 10.5441L7.50634 11.2722ZM26.3984 7.30692L25.6706 7.99374L25.6706 7.99374L26.3984 7.30692ZM28.0764 14.3368L27.0896 14.1739L26.9337 15.1089L27.8597 15.3129L28.0764 14.3368ZM34.2414 18.9052L35.1776 18.5515L35.1776 18.5515L34.2414 18.9052ZM30.7035 28.5227L30.0221 27.7918L29.461 28.3141L29.8187 28.9906L30.7035 28.5227ZM31.2164 30.4403L30.2162 30.4635L31.2164 30.4403ZM19.4542 37.5988L19.4744 38.5981L19.4542 37.5988ZM7.5933 30.9766C5.71713 30.8863 4.18986 30.2617 3.13201 29.1423L1.67628 30.5159C3.16591 32.0922 5.22672 32.8643 7.49401 32.9735L7.5933 30.9766ZM3.13201 29.1423C1.5581 27.4769 1.1351 24.8073 2.00722 21.6354C2.8741 18.4825 4.98967 15.0049 8.19076 12.0002L6.82193 10.5441C3.39718 13.7588 1.05767 17.545 0.077907 21.1084C-0.896598 24.6527 -0.557787 28.152 1.67628 30.5159L3.13201 29.1423ZM8.19076 12.0002C11.3918 8.99561 15.0021 7.09852 18.2134 6.4245C21.4447 5.74628 24.0958 6.32738 25.6706 7.99374L27.1263 6.6201C24.8931 4.25708 21.4111 3.71115 17.8048 4.46808C14.1785 5.22921 10.2467 7.32945 6.82193 10.5441L8.19076 12.0002ZM25.6706 7.99374C27.0203 9.42192 27.5226 11.5779 27.0896 14.1739L29.0632 14.4997C29.5624 11.5065 29.0377 8.64268 27.1263 6.6201L25.6706 7.99374ZM27.8597 15.3129C30.6655 15.931 32.5838 17.3463 33.3051 19.2589L35.1776 18.5515C34.1346 15.7861 31.488 14.0644 28.2932 13.3606L27.8597 15.3129ZM33.3051 19.2589C34.2396 21.7366 33.0909 24.9353 30.0221 27.7918L31.3848 29.2536C34.707 26.1611 36.5329 22.145 35.1776 18.5515L33.3051 19.2589ZM29.8187 28.9906C30.0724 29.4706 30.2053 29.9626 30.2162 30.4635L32.2166 30.4171C32.1984 29.5798 31.9744 28.7852 31.5882 28.0548L29.8187 28.9906ZM30.2162 30.4635C30.2467 31.8627 29.2917 33.3383 27.3141 34.5419C25.3615 35.7303 22.5794 36.5314 19.434 36.5995L19.4744 38.5981C22.9081 38.5239 26.0485 37.6514 28.3531 36.2489C30.6325 34.8616 32.2691 32.8291 32.2166 30.4171L30.2162 30.4635ZM19.434 36.5995C16.5783 36.6612 13.9903 36.106 12.0357 35.1737C10.0566 34.2298 8.86148 32.9714 8.50719 31.7047L6.58011 32.2454C7.15104 34.2867 8.9215 35.9049 11.1716 36.9781C13.4461 38.063 16.3508 38.6657 19.4744 38.5981L19.434 36.5995Z" fill="#838A94" mask="url(#path-3-inside-1_3364_50468)"/>
<path d="M14.3283 22.3133C14.0522 23.7204 13.3815 24.8923 12.5441 25.6547C11.7068 26.4171 10.7317 26.7497 9.80693 26.5694C8.8822 26.3891 8.1047 25.7149 7.61729 24.6942C7.12989 23.6736 6.95175 22.3362 7.22793 20.9291C7.50411 19.522 8.17477 18.35 9.01214 17.5876C9.84953 16.8252 10.8246 16.4927 11.7494 16.6729C12.6741 16.8532 13.4516 17.5274 13.939 18.5481C14.4264 19.5688 14.6045 20.9062 14.3283 22.3133Z" fill="white" stroke="#838A94"/>
<path fill-rule="evenodd" clip-rule="evenodd" d="M12.4549 21.0909L10.2103 21.6567L11.8953 23.3839C11.2635 24.5348 10.1891 25.2179 9.13423 25.0123C7.72183 24.7369 6.87933 22.9727 7.25244 21.0717C7.62556 19.1707 9.07301 17.8528 10.4854 18.1282C11.6507 18.3553 12.4281 19.5961 12.4549 21.0909Z" fill="#838A94"/>
<mask id="path-7-inside-2_3364_50468" fill="white">
<path d="M14.9575 21.0513C14.9692 19.6016 14.5401 18.2714 13.7646 17.3532C12.9891 16.435 11.9307 16.004 10.8222 16.1552C9.71379 16.3063 8.64611 17.0271 7.85406 18.1591C7.06201 19.291 6.61047 20.7414 6.59878 22.1911L10.7781 21.6212L14.9575 21.0513Z"/>
</mask>
<path d="M14.9575 21.0513C14.9692 19.6016 14.5401 18.2714 13.7646 17.3532C12.9891 16.435 11.9307 16.004 10.8222 16.1552C9.71379 16.3063 8.64611 17.0271 7.85406 18.1591C7.06201 19.291 6.61047 20.7414 6.59878 22.1911L10.7781 21.6212L14.9575 21.0513Z" fill="white" stroke="#838A94" stroke-width="2" mask="url(#path-7-inside-2_3364_50468)"/>
<path d="M21.2658 22.3133C20.9897 23.7204 20.319 24.8923 19.4816 25.6547C18.6443 26.4171 17.6692 26.7497 16.7444 26.5694C15.8197 26.3891 15.0422 25.7149 14.5548 24.6942C14.0674 23.6736 13.8893 22.3362 14.1654 20.9291C14.4416 19.522 15.1123 18.35 15.9496 17.5876C16.787 16.8252 17.7621 16.4927 18.6869 16.6729C19.6116 16.8532 20.3891 17.5274 20.8765 18.5481C21.3639 19.5688 21.542 20.9062 21.2658 22.3133Z" fill="white" stroke="#838A94"/>
<path fill-rule="evenodd" clip-rule="evenodd" d="M19.4744 20.971L17.2347 21.5357L18.9166 23.2596C18.2851 24.4125 17.2096 25.097 16.1538 24.8912C14.7414 24.6158 13.8989 22.8516 14.272 20.9506C14.6451 19.0496 16.0925 17.7317 17.5049 18.0071C18.6706 18.2343 19.448 19.4756 19.4744 20.971Z" fill="#838A94"/>
<mask id="path-10-inside-3_3364_50468" fill="white">
<path d="M21.7566 22.4089C21.8968 21.6947 21.9311 20.9671 21.8575 20.2676C21.784 19.5681 21.604 18.9105 21.3279 18.3323C21.0518 17.7541 20.6849 17.2667 20.2483 16.8978C19.8117 16.5289 19.3138 16.2858 18.7832 16.1823C18.2525 16.0788 17.6994 16.1171 17.1555 16.2948C16.6116 16.4726 16.0875 16.7864 15.6131 17.2183C15.1387 17.6502 14.7234 18.1917 14.3908 18.812C14.0582 19.4323 13.8149 20.1192 13.6747 20.8334L17.7156 21.6212L21.7566 22.4089Z"/>
</mask>
<path d="M21.7566 22.4089C21.8968 21.6947 21.9311 20.9671 21.8575 20.2676C21.784 19.5681 21.604 18.9105 21.3279 18.3323C21.0518 17.7541 20.6849 17.2667 20.2483 16.8978C19.8117 16.5289 19.3138 16.2858 18.7832 16.1823C18.2525 16.0788 17.6994 16.1171 17.1555 16.2948C16.6116 16.4726 16.0875 16.7864 15.6131 17.2183C15.1387 17.6502 14.7234 18.1917 14.3908 18.812C14.0582 19.4323 13.8149 20.1192 13.6747 20.8334L17.7156 21.6212L21.7566 22.4089Z" fill="white" stroke="#838A94" stroke-width="2" mask="url(#path-10-inside-3_3364_50468)"/>
<path d="M6 7.5L7.35415 8.69007" stroke="#838A94" stroke-linecap="round"/>
<path d="M10.4414 5L10.5574 6.79904" stroke="#838A94" stroke-linecap="round"/>
</g>
<rect x="0.5" y="0.5" width="32" height="32" rx="16" stroke="#838A94"/>
<defs>
<clipPath id="clip0_3364_50468">
<rect width="33" height="33" rx="16.5" fill="white"/>
</clipPath>
</defs>
</svg>
