<svg width="171" height="77" viewBox="0 0 171 77" fill="none" xmlns="http://www.w3.org/2000/svg">
<path fill-rule="evenodd" clip-rule="evenodd" d="M61.645 41.7056C61.645 63.9243 70.8793 76.5806 86.5825 76.5806C102.286 76.5806 111.473 63.9243 111.52 41.7056C111.473 19.6274 102.145 6.83057 86.5825 6.83057C70.9731 6.83057 61.645 19.6274 61.645 41.7056ZM86.5825 67.6743C77.395 67.6743 71.9106 58.6274 71.9575 41.7056C71.9575 24.8306 77.4418 15.5962 86.5825 15.5493C95.6762 15.5962 101.207 24.8306 101.207 41.7056C101.207 58.6274 95.7231 67.6743 86.5825 67.6743ZM81.5825 35.6431C82.9632 35.6431 84.0825 34.5238 84.0825 33.1431C84.0825 31.7624 82.9632 30.6431 81.5825 30.6431C80.2017 30.6431 79.0825 31.7624 79.0825 33.1431C79.0825 34.5238 80.2017 35.6431 81.5825 35.6431ZM91.5825 35.6431C92.9632 35.6431 94.0825 34.5238 94.0825 33.1431C94.0825 31.7624 92.9632 30.6431 91.5825 30.6431C90.2017 30.6431 89.0825 31.7624 89.0825 33.1431C89.0825 34.5238 90.2017 35.6431 91.5825 35.6431ZM80 40.5C80 39.6716 80.6716 39 81.5 39H91.5C92.3284 39 93 39.6716 93 40.5C93 41.3284 92.3284 42 91.5 42H81.5C80.6716 42 80 41.3284 80 40.5Z" fill="#508DFF"/>
<path fill-rule="evenodd" clip-rule="evenodd" d="M121 41.7056C121 63.9243 130.234 76.5806 145.938 76.5806C161.641 76.5806 170.828 63.9243 170.875 41.7056C170.828 19.6274 161.5 6.83057 145.938 6.83057C130.328 6.83057 121 19.6274 121 41.7056ZM145.938 67.6743C136.75 67.6743 131.266 58.6274 131.312 41.7056C131.312 24.8306 136.797 15.5962 145.938 15.5493C155.031 15.5962 160.562 24.8306 160.562 41.7056C160.562 58.6274 155.078 67.6743 145.938 67.6743ZM140.938 35.6431C142.318 35.6431 143.438 34.5238 143.438 33.1431C143.438 31.7624 142.318 30.6431 140.938 30.6431C139.557 30.6431 138.438 31.7624 138.438 33.1431C138.438 34.5238 139.557 35.6431 140.938 35.6431ZM150.938 35.6431C152.318 35.6431 153.438 34.5238 153.438 33.1431C153.438 31.7624 152.318 30.6431 150.938 30.6431C149.557 30.6431 148.438 31.7624 148.438 33.1431C148.438 34.5238 149.557 35.6431 150.938 35.6431ZM139.355 40.5C139.355 39.6716 140.027 39 140.855 39H150.855C151.683 39 152.355 39.6716 152.355 40.5C152.355 41.3284 151.683 42 150.855 42H140.855C140.027 42 139.355 41.3284 139.355 40.5Z" fill="#508DFF"/>
<path d="M27.9688 76.75C15.125 76.75 5.46875 68.9219 5 58.0938H15.0312C15.5938 63.8594 21.125 68.0781 27.9688 68.125C36.2188 68.0781 42.125 62.125 42.125 54.0625C42.125 45.8125 36.0312 39.8125 27.5 39.7188C22.0625 39.7188 17.8906 41.5469 15.5938 45.7188H5.84375L10.25 7.9375H48.6875V16.75H18.7812L16.5312 35.7812H17.1875C20 33.0625 24.7812 31.2344 29.9375 31.1875C42.7344 31.2344 52.1562 40.7031 52.1562 53.7812C52.1562 67.1406 42.125 76.75 27.9688 76.75Z" fill="#508DFF"/>
<path d="M109.286 10.9857C109.986 8.48842 110.927 7.92081 112.399 7.47499C113.333 7.20258 114.134 6.65903 114.403 5.65514C114.724 4.46004 114.008 3.4588 112.861 3.15138C111.828 2.8747 110.655 3.23673 110.19 4.62867L108.125 4.07532C108.855 1.6578 111.047 0.820713 113.322 1.43043C115.808 2.0965 117.072 4.03375 116.488 6.21362C116.075 7.75291 115.065 8.57866 113.651 8.99906C112.317 9.38958 111.683 9.95756 111.237 11.5083L111.206 11.623L109.255 11.1004L109.286 10.9857ZM108.207 13.7911C108.397 13.0428 109.182 12.5974 109.928 12.7972C110.664 12.9945 111.112 13.7703 110.922 14.5186C110.712 15.2618 109.939 15.7002 109.2 15.5125C108.457 15.3031 107.997 14.5343 108.207 13.7911Z" fill="#508DFF"/>
<path d="M52.746 29.8863C52.2037 27.7656 52.6521 26.9535 53.54 26.0064C54.1076 25.4132 54.464 24.6777 54.237 23.8304C53.9667 22.8217 53.0212 22.3917 52.0528 22.6512C51.1813 22.8847 50.4767 23.6444 50.7241 24.8581L48.9811 25.3252C48.4943 23.2501 49.7431 21.7133 51.6636 21.1987C53.7617 20.6365 55.5032 21.5191 55.9962 23.359C56.3443 24.6582 55.9543 25.6882 55.0981 26.5922C54.2876 27.4407 54.064 28.1234 54.3922 29.4452L54.4182 29.5421L52.772 29.9832L52.746 29.8863ZM53.1408 32.3925C52.9641 31.7653 53.3502 31.1083 53.9797 30.9396C54.601 30.7731 55.2559 31.1512 55.4326 31.7785C55.5932 32.41 55.2129 33.0568 54.5937 33.2314C53.9621 33.392 53.3014 33.0241 53.1408 32.3925Z" fill="#508DFF"/>
</svg>
