<svg width="2030" height="720" viewBox="0 0 2030 720" fill="none" xmlns="http://www.w3.org/2000/svg">
<path d="M662.079 294.48L698.799 460.44L733.359 294.48H806.439L839.199 463.32L877.719 294.48H952.239L879.519 581.4H804.999L769.359 400.32L734.439 581.4H660.279L587.559 294.48H662.079Z" fill="black"/>
<path d="M921.18 581.4L1018.38 294.48H1112.7L1209.9 581.4H1135.02L1107.66 501.12L1014.78 526.68L996.06 581.4H921.18ZM1037.82 458.64L1088.22 444.6L1065.54 377.28L1037.82 458.64Z" fill="black"/>
<path d="M1248.48 294.48L1317.96 498.6L1387.44 294.48H1462.32L1365.12 581.4H1270.8L1173.6 294.48H1248.48Z" fill="black"/>
<path d="M1709.21 403.92V465.84H1567.73V519.84H1719.65V581.4H1492.85V294.48H1716.05V356.4H1567.73V403.92H1709.21Z" fill="black"/>
<path d="M1766.12 294.48H1905.08C1924.52 294.48 1941.8 298.08 1957.64 305.28C1972.76 312.84 1986.08 322.92 1996.88 335.52C2007.68 348.48 2015.96 363.24 2021.72 380.52C2027.12 398.16 2030 417.24 2030 437.4C2030 458.64 2026.76 478.08 2021 495.36C2014.52 513.36 2005.52 528.48 1994 541.08C1981.76 553.68 1967.36 563.76 1950.08 570.96C1932.44 577.8 1912.28 581.4 1889.6 581.4H1766.12V294.48ZM1841 519.48H1885.28C1896.8 519.48 1907.24 517.32 1916.24 512.64C1924.88 508.32 1932.08 502.56 1937.84 494.64C1943.6 487.44 1947.92 478.44 1950.8 468.36C1953.68 458.28 1955.12 447.84 1955.12 436.32C1955.12 425.52 1953.32 415.08 1950.08 405C1946.48 395.64 1941.8 387 1935.68 379.8C1929.2 372.6 1921.28 366.84 1911.92 362.52C1902.56 358.56 1891.76 356.4 1879.52 356.4H1841V519.48Z" fill="black"/>
<path d="M3.61671 320.098C3.98104 298.426 27.6896 285.294 46.2541 296.482L202.205 390.46C219.954 401.155 230.927 420.253 231.23 440.973L234.069 635.161C234.236 646.588 222.074 653.997 211.996 648.608L48.4681 561.154C18.7112 545.24 0.356666 514.018 0.923881 480.278L3.61671 320.098Z" fill="#2470FF"/>
<path d="M233.696 49.7854C233.696 27.8999 257.593 14.4003 276.338 25.6963L430.971 118.88C448.987 129.737 460.002 149.236 460.002 170.27V504.522C460.002 574.651 383.346 617.836 323.367 581.497L233.696 527.17V49.7854Z" fill="#2470FF" fill-opacity="0.3"/>
<path d="M119.785 180.266C119.785 159.045 142.389 145.469 161.122 155.437L314.276 236.932C333.856 247.35 346.091 267.72 346.091 289.9V569.784C346.091 637.777 273.59 681.215 213.637 649.142L119.785 598.934V180.266Z" fill="#2470FF" fill-opacity="0.6"/>
</svg>
