<svg width="33" height="33" viewBox="0 0 33 33" fill="none" xmlns="http://www.w3.org/2000/svg">
<rect x="0.5" y="0.5" width="32" height="32" rx="16" fill="white"/>
<rect x="0.5" y="0.5" width="32" height="32" rx="16" stroke="#DEE1E5"/>
<circle cx="16.5" cy="16.5" r="12" stroke="#3C3F44"/>
<circle cx="14.2247" cy="13.2247" r="1" transform="rotate(15 14.2247 13.2247)" fill="#3C3F44"/>
<circle cx="19.0528" cy="13.2247" r="1" transform="rotate(15 19.0528 13.2247)" fill="#3C3F44"/>
<path d="M21.45 16.5C21.7538 16.5 22.0029 16.7469 21.9725 17.0491C21.8465 18.3061 21.2903 19.4879 20.3891 20.3891C19.3576 21.4205 17.9587 22 16.5 22C15.0413 22 13.6424 21.4205 12.6109 20.3891C11.7097 19.4879 11.1535 18.3061 11.0275 17.0491C10.9971 16.7469 11.2462 16.5 11.55 16.5C11.8538 16.5 12.0965 16.7472 12.1343 17.0486C12.2555 18.0133 12.6939 18.9165 13.3887 19.6113C14.2139 20.4364 15.333 20.9 16.5 20.9C17.667 20.9 18.7861 20.4364 19.6113 19.6113C20.3061 18.9165 20.7445 18.0133 20.8657 17.0486C20.9036 16.7472 21.1462 16.5 21.45 16.5Z" fill="#3C3F44"/>
</svg>
