<svg width="18" height="18" viewBox="0 0 18 18" fill="none" xmlns="http://www.w3.org/2000/svg">
<path d="M11.5647 13.7555C11.62 13.8404 11.6514 13.9386 11.6555 14.0398C11.6597 14.1411 11.6364 14.2416 11.5881 14.3306C11.5398 14.4197 11.4684 14.4941 11.3814 14.546C11.2943 14.5979 11.1949 14.6252 11.0936 14.6252H0.719658C0.618335 14.6252 0.518896 14.5979 0.431848 14.546C0.3448 14.4941 0.273374 14.4197 0.225118 14.3306C0.176862 14.2416 0.153566 14.1411 0.157693 14.0398C0.16182 13.9386 0.193216 13.8404 0.248564 13.7555C1.04036 12.5367 2.205 11.6066 3.56872 11.104C2.81483 10.6021 2.24247 9.87091 1.93627 9.01856C1.63008 8.16621 1.60631 7.23795 1.86849 6.37105C2.13066 5.50415 2.66486 4.74463 3.39208 4.20481C4.1193 3.66499 5.00093 3.37354 5.90661 3.37354C6.81229 3.37354 7.69393 3.66499 8.42115 4.20481C9.14837 4.74463 9.68256 5.50415 9.94474 6.37105C10.2069 7.23795 10.1831 8.16621 9.87695 9.01856C9.57076 9.87091 8.99839 10.6021 8.2445 11.104C9.60822 11.6066 10.7729 12.5367 11.5647 13.7555ZM17.7458 13.7449C16.9538 12.5313 15.7918 11.6052 14.432 11.104C15.322 10.5045 15.9501 9.58834 16.1885 8.54205C16.4268 7.49576 16.2575 6.39797 15.7149 5.47213C15.1724 4.54628 14.2974 3.86198 13.2682 3.5585C12.2389 3.25503 11.1326 3.35519 10.1746 3.83861C10.1379 3.85752 10.1059 3.88426 10.0808 3.91693C10.0556 3.94959 10.038 3.98739 10.029 4.02764C10.0201 4.0679 10.0201 4.10962 10.0291 4.14985C10.0381 4.19009 10.0559 4.22786 10.0811 4.26048C10.7934 5.1491 11.2026 6.24248 11.2485 7.38047C11.2944 8.51846 10.9748 9.64125 10.3363 10.5844C10.295 10.646 10.2798 10.7215 10.2939 10.7943C10.308 10.8671 10.3503 10.9314 10.4115 10.9732C11.244 11.5542 11.9566 12.2902 12.5104 13.1409C12.7337 13.483 12.8249 13.8946 12.767 14.299C12.7605 14.3392 12.7628 14.3804 12.7737 14.4196C12.7847 14.4589 12.8041 14.4953 12.8305 14.5263C12.8569 14.5573 12.8897 14.5823 12.9267 14.5993C12.9637 14.6164 13.004 14.6253 13.0447 14.6252H17.2846C17.4084 14.6253 17.5289 14.5844 17.6271 14.509C17.7254 14.4337 17.796 14.3279 17.8281 14.2083C17.8477 14.1296 17.8504 14.0477 17.8363 13.9679C17.8221 13.888 17.7913 13.8121 17.7458 13.7449Z" fill="#1F2123"/>
</svg>
