<svg width="24" height="25" viewBox="0 0 24 25" fill="none" xmlns="http://www.w3.org/2000/svg">
<path d="M20.7946 16.9944C20.2743 16.0981 19.5009 13.5622 19.5009 10.25C19.5009 8.26088 18.7107 6.35322 17.3042 4.9467C15.8976 3.54018 13.99 2.75 12.0009 2.75C10.0117 2.75 8.10409 3.54018 6.69757 4.9467C5.29104 6.35322 4.50087 8.26088 4.50087 10.25C4.50087 13.5631 3.72649 16.0981 3.20618 16.9944C3.07331 17.2222 3.00287 17.4811 3.00196 17.7449C3.00106 18.0086 3.06972 18.268 3.20102 18.4967C3.33233 18.7255 3.52163 18.9156 3.74984 19.0478C3.97805 19.1801 4.2371 19.2498 4.50087 19.25H8.3268C8.49984 20.0967 8.96001 20.8577 9.62949 21.4042C10.299 21.9507 11.1367 22.2492 12.0009 22.2492C12.8651 22.2492 13.7028 21.9507 14.3722 21.4042C15.0417 20.8577 15.5019 20.0967 15.6749 19.25H19.5009C19.7646 19.2496 20.0235 19.1798 20.2516 19.0475C20.4796 18.9151 20.6688 18.725 20.8 18.4963C20.9312 18.2676 20.9998 18.0083 20.9988 17.7446C20.9979 17.4809 20.9274 17.2222 20.7946 16.9944ZM12.0009 20.75C11.5357 20.7499 11.082 20.6055 10.7022 20.3369C10.3225 20.0683 10.0353 19.6886 9.88024 19.25H14.1215C13.9664 19.6886 13.6793 20.0683 13.2995 20.3369C12.9197 20.6055 12.466 20.7499 12.0009 20.75ZM4.50087 17.75C5.22274 16.5087 6.00087 13.6325 6.00087 10.25C6.00087 8.6587 6.63301 7.13258 7.75823 6.00736C8.88344 4.88214 10.4096 4.25 12.0009 4.25C13.5922 4.25 15.1183 4.88214 16.2435 6.00736C17.3687 7.13258 18.0009 8.6587 18.0009 10.25C18.0009 13.6297 18.7771 16.5059 19.5009 17.75H4.50087Z" fill="#3C3F44"/>
<circle cx="18" cy="5.5" r="3" fill="#E50C19"/>
</svg>
