<svg width="33" height="33" viewBox="0 0 33 33" fill="none" xmlns="http://www.w3.org/2000/svg">
<g clip-path="url(#clip0_3364_50433)">
<rect width="33" height="33" rx="16.5" fill="white"/>
<path fill-rule="evenodd" clip-rule="evenodd" d="M7.54365 32.9751C5.47192 32.8753 3.67788 32.1769 2.40414 30.8291C-1.40383 26.7998 0.880505 18.4915 7.50634 12.2722C14.1322 6.05286 22.5905 4.27755 26.3984 8.30692C28.029 10.0323 28.5425 12.5422 28.0764 15.3368C31.0768 15.9977 33.3592 17.5662 34.2414 19.9052C35.3863 22.9408 33.8989 26.5482 30.7035 29.5227C31.0234 30.1279 31.2018 30.7712 31.2164 31.4403C31.2994 35.2516 26.0333 38.4565 19.4542 38.5988C13.4749 38.7281 8.46887 36.2831 7.54365 32.9751Z" fill="#508DFF"/>
<path d="M7.54365 32.9751L8.02542 32.8399L7.92845 32.4932L7.56847 32.4759L7.54365 32.9751ZM2.40414 30.8291L2.04021 31.1725L2.04021 31.1725L2.40414 30.8291ZM7.50634 12.2722L7.16413 11.9082L7.16413 11.9082L7.50634 12.2722ZM26.3984 8.30692L26.0345 8.65033L26.0345 8.65033L26.3984 8.30692ZM28.0764 15.3368L27.583 15.2553L27.5051 15.7228L27.9681 15.8248L28.0764 15.3368ZM34.2414 19.9052L34.7095 19.7284L34.7095 19.7284L34.2414 19.9052ZM30.7035 29.5227L30.3628 29.1573L30.0822 29.4184L30.2611 29.7567L30.7035 29.5227ZM31.2164 31.4403L30.7163 31.4519L30.7163 31.4519L31.2164 31.4403ZM19.4542 38.5988L19.4643 39.0985L19.4643 39.0985L19.4542 38.5988ZM7.56847 32.4759C5.59453 32.3808 3.93387 31.7193 2.76808 30.4857L2.04021 31.1725C3.4219 32.6346 5.34932 33.3698 7.51883 33.4743L7.56847 32.4759ZM2.76808 30.4857C1.02913 28.6457 0.627172 25.7687 1.52489 22.5036C2.41999 19.2481 4.59155 15.6934 7.84855 12.6362L7.16413 11.9082C3.7953 15.0703 1.51177 18.7794 0.560236 22.2402C-0.388675 25.6914 -0.0288144 28.9832 2.04021 31.1725L2.76808 30.4857ZM7.84855 12.6362C11.1055 9.57907 14.7962 7.63119 18.1112 6.9354C21.4363 6.2375 24.2951 6.80981 26.0345 8.65033L26.7624 7.96351C24.6938 5.77466 21.4195 5.21994 17.9069 5.95719C14.3844 6.69654 10.533 8.74599 7.16413 11.9082L7.84855 12.6362ZM26.0345 8.65033C27.5246 10.2271 28.0325 12.5601 27.583 15.2553L28.5698 15.4182C29.0525 12.5244 28.5334 9.83749 26.7624 7.96351L26.0345 8.65033ZM27.9681 15.8248C30.8712 16.4643 32.9715 17.9562 33.7733 20.0821L34.7095 19.7284C33.7469 17.1762 31.2824 15.531 28.1848 14.8487L27.9681 15.8248ZM33.7733 20.0821C34.8129 22.8387 33.4949 26.2417 30.3628 29.1573L31.0441 29.8882C34.303 26.8547 35.9596 23.0429 34.7095 19.7284L33.7733 20.0821ZM30.2611 29.7567C30.5479 30.2992 30.7036 30.8669 30.7163 31.4519L31.7165 31.4287C31.7001 30.6755 31.4989 29.9566 31.1458 29.2888L30.2611 29.7567ZM30.7163 31.4519C30.7523 33.1043 29.6269 34.7191 27.5738 35.9687C25.5333 37.2106 22.6616 38.0296 19.4441 38.0991L19.4643 39.0985C22.8259 39.0258 25.8768 38.1711 28.0933 36.8221C30.2973 35.4808 31.7635 33.5875 31.7165 31.4287L30.7163 31.4519ZM19.4441 38.0991C16.5214 38.1623 13.8543 37.5953 11.8197 36.6248C9.77284 35.6485 8.43387 34.3002 8.02542 32.8399L7.06188 33.1102C7.57865 34.9579 9.20528 36.4861 11.3876 37.527C13.5821 38.5737 16.4077 39.1646 19.4643 39.0985L19.4441 38.0991Z" fill="black"/>
<path d="M14.3244 22.3133C14.0483 23.7204 13.3776 24.8923 12.5402 25.6547C11.7028 26.4171 10.7277 26.7497 9.80302 26.5694C8.87829 26.3891 8.10079 25.7149 7.61338 24.6942C7.12598 23.6736 6.94785 22.3362 7.22403 20.9291C7.50021 19.522 8.17086 18.35 9.00823 17.5876C9.84562 16.8252 10.8207 16.4927 11.7454 16.6729C12.6702 16.8532 13.4477 17.5274 13.9351 18.5481C14.4225 19.5688 14.6006 20.9062 14.3244 22.3133Z" fill="white" stroke="black"/>
<path fill-rule="evenodd" clip-rule="evenodd" d="M12.451 21.0909L10.2064 21.6567L11.8914 23.3839C11.2596 24.5348 10.1852 25.2179 9.13032 25.0123C7.71792 24.7369 6.87542 22.9727 7.24854 21.0717C7.62166 19.1707 9.0691 17.8528 10.4815 18.1282C11.6468 18.3553 12.4242 19.5961 12.451 21.0909Z" fill="black"/>
<path d="M21.2619 22.3133C20.9858 23.7204 20.3151 24.8923 19.4777 25.6547C18.6403 26.4171 17.6652 26.7497 16.7405 26.5694C15.8158 26.3891 15.0383 25.7149 14.5509 24.6942C14.0635 23.6736 13.8853 22.3362 14.1615 20.9291C14.4377 19.522 15.1084 18.35 15.9457 17.5876C16.7831 16.8252 17.7582 16.4927 18.6829 16.6729C19.6077 16.8532 20.3852 17.5274 20.8726 18.5481C21.36 19.5688 21.5381 20.9062 21.2619 22.3133Z" fill="white" stroke="black"/>
<path fill-rule="evenodd" clip-rule="evenodd" d="M19.4705 20.971L17.2308 21.5357L18.9127 23.2596C18.2812 24.4125 17.2057 25.097 16.1499 24.8912C14.7375 24.6158 13.895 22.8516 14.2681 20.9506C14.6412 19.0496 16.0886 17.7317 17.501 18.0071C18.6667 18.2343 19.4441 19.4756 19.4705 20.971Z" fill="black"/>
<path d="M6.56614 6.73908C6.55934 6.62097 6.71917 6.57815 6.77233 6.68384L7.2061 7.54616C7.22565 7.58503 7.26645 7.60855 7.30988 7.60599L8.27478 7.54911C8.39305 7.54214 8.43595 7.70226 8.33005 7.75535L7.46598 8.18854C7.42708 8.20804 7.40351 8.2488 7.40601 8.29224L7.46152 9.25592C7.46832 9.37404 7.3085 9.41686 7.25533 9.31117L6.82156 8.44884C6.80201 8.40997 6.76121 8.38646 6.71778 8.38902L5.75288 8.4459C5.63461 8.45287 5.59171 8.29275 5.69762 8.23966L6.56169 7.80647C6.60058 7.78697 6.62416 7.7462 6.62165 7.70276L6.56614 6.73908Z" fill="black"/>
<path d="M9.62468 3.9377C9.65753 3.77912 9.88402 3.77912 9.91687 3.9377L10.1849 5.23156C10.197 5.28988 10.2426 5.33543 10.3009 5.34744L11.5969 5.61408C11.7557 5.64676 11.7557 5.87367 11.5969 5.90635L10.3009 6.17299C10.2426 6.185 10.197 6.23055 10.1849 6.28887L9.91687 7.58273C9.88402 7.74131 9.65753 7.74131 9.62468 7.58273L9.35665 6.28887C9.34457 6.23055 9.29896 6.185 9.24062 6.17299L7.94466 5.90635C7.78582 5.87367 7.78582 5.64676 7.94466 5.61408L9.24062 5.34744C9.29896 5.33543 9.34457 5.28988 9.35665 5.23156L9.62468 3.9377Z" fill="black"/>
</g>
<rect x="0.5" y="0.5" width="32" height="32" rx="16" stroke="black"/>
<defs>
<clipPath id="clip0_3364_50433">
<rect width="33" height="33" rx="16.5" fill="white"/>
</clipPath>
</defs>
</svg>
