<svg width="32" height="32" viewBox="0 0 32 32" fill="none" xmlns="http://www.w3.org/2000/svg">
<path d="M22.7071 16.7081L12.7071 26.7081C12.6142 26.801 12.5039 26.8747 12.3825 26.9249C12.2611 26.9752 12.131 27.0011 11.9996 27.0011C11.8682 27.0011 11.7381 26.9752 11.6167 26.9249C11.4953 26.8747 11.385 26.801 11.2921 26.7081C11.1992 26.6151 11.1255 26.5048 11.0752 26.3835C11.0249 26.2621 10.999 26.132 10.999 26.0006C10.999 25.8692 11.0249 25.7391 11.0752 25.6177C11.1255 25.4963 11.1992 25.386 11.2921 25.2931L20.5858 16.0006L11.2921 6.70806C11.1044 6.52042 10.999 6.26592 10.999 6.00056C10.999 5.73519 11.1044 5.4807 11.2921 5.29306C11.4797 5.10542 11.7342 5 11.9996 5C12.2649 5 12.5194 5.10542 12.7071 5.29306L22.7071 15.2931C22.8001 15.3859 22.8738 15.4962 22.9241 15.6176C22.9745 15.739 23.0004 15.8691 23.0004 16.0006C23.0004 16.132 22.9745 16.2621 22.9241 16.3835C22.8738 16.5049 22.8001 16.6152 22.7071 16.7081Z" fill="#343330"/>
</svg>
