<svg width="90" height="20" viewBox="0 0 90 20" fill="none" xmlns="http://www.w3.org/2000/svg">
<mask id="path-1-inside-1_3541_59089" fill="white">
<path fill-rule="evenodd" clip-rule="evenodd" d="M4.77416 15.4532C3.73649 15.4042 2.83788 15.0558 2.20014 14.3824C0.296164 12.3722 1.43832 8.22739 4.75121 5.12465C8.06411 2.02191 12.2932 1.13624 14.1972 3.14643C15.0127 4.00747 15.2694 5.26014 15.036 6.6548C16.5363 6.98447 17.6777 7.76702 18.1188 8.93403C18.6909 10.4474 17.9486 12.2456 16.3532 13.729C16.5135 14.0312 16.6029 14.3525 16.6102 14.6867C16.6517 16.5881 14.0187 18.187 10.7292 18.258C7.74002 18.3225 5.23739 17.1031 4.77416 15.4532Z"/>
</mask>
<path fill-rule="evenodd" clip-rule="evenodd" d="M4.77416 15.4532C3.73649 15.4042 2.83788 15.0558 2.20014 14.3824C0.296164 12.3722 1.43832 8.22739 4.75121 5.12465C8.06411 2.02191 12.2932 1.13624 14.1972 3.14643C15.0127 4.00747 15.2694 5.26014 15.036 6.6548C16.5363 6.98447 17.6777 7.76702 18.1188 8.93403C18.6909 10.4474 17.9486 12.2456 16.3532 13.729C16.5135 14.0312 16.6029 14.3525 16.6102 14.6867C16.6517 16.5881 14.0187 18.187 10.7292 18.258C7.74002 18.3225 5.23739 17.1031 4.77416 15.4532Z" fill="#2470FF"/>
<path d="M4.77416 15.4532L5.30414 15.3037L5.19724 14.9229L4.80151 14.9042L4.77416 15.4532ZM2.20014 14.3824L1.79984 14.7606L1.79984 14.7606L2.20014 14.3824ZM4.75121 5.12465L5.12721 5.52511L5.12721 5.52511L4.75121 5.12465ZM14.1972 3.14643L14.5975 2.76825L14.5975 2.76825L14.1972 3.14643ZM15.036 6.6548L14.4931 6.56549L14.4071 7.07966L14.9164 7.19159L15.036 6.6548ZM18.1188 8.93403L17.6038 9.12922L17.6038 9.12922L18.1188 8.93403ZM16.3532 13.729L15.9787 13.3272L15.6692 13.6149L15.8667 13.9872L16.3532 13.729ZM16.6102 14.6867L16.06 14.7L16.06 14.7L16.6102 14.6867ZM10.7292 18.258L10.7397 18.8075L10.7397 18.8075L10.7292 18.258ZM4.80151 14.9042C3.87122 14.8603 3.11934 14.5521 2.60043 14.0043L1.79984 14.7606C2.55642 15.5594 3.60176 15.9481 4.74681 16.0022L4.80151 14.9042ZM2.60043 14.0043C1.83011 13.191 1.61666 11.8804 2.04999 10.3079C2.48047 8.74566 3.53241 7.01874 5.12721 5.52511L4.37522 4.7242C2.65712 6.3333 1.48154 8.23018 0.988714 10.0186C0.498732 11.7968 0.666189 13.5637 1.79984 14.7606L2.60043 14.0043ZM5.12721 5.52511C6.72194 4.03154 8.51896 3.09019 10.1143 2.75609C11.7206 2.41968 13.0258 2.71046 13.7969 3.52462L14.5975 2.76825C13.4646 1.57221 11.7032 1.30073 9.89083 1.68029C8.06736 2.06217 6.09338 3.11503 4.37522 4.7242L5.12721 5.52511ZM13.7969 3.52462C14.4578 4.22242 14.7082 5.28039 14.4931 6.56549L15.5788 6.74411C15.8306 5.23988 15.5676 3.79251 14.5975 2.76825L13.7969 3.52462ZM14.9164 7.19159C16.3102 7.49784 17.2513 8.19651 17.6038 9.12922L18.6338 8.73884C18.1041 7.33753 16.7624 6.47111 15.1555 6.11802L14.9164 7.19159ZM17.6038 9.12922C18.0599 10.3357 17.5043 11.9088 15.9787 13.3272L16.7277 14.1308C18.393 12.5825 19.3219 10.5592 18.6338 8.73884L17.6038 9.12922ZM15.8667 13.9872C15.9905 14.2206 16.0547 14.4586 16.06 14.7L17.1605 14.6734C17.1512 14.2464 17.0365 13.8419 16.8397 13.4708L15.8667 13.9872ZM16.06 14.7C16.0746 15.3716 15.615 16.0934 14.6337 16.6893C13.6663 17.2768 12.2842 17.6747 10.7186 17.7085L10.7397 18.8075C12.4636 18.7703 14.0428 18.3333 15.2039 17.6282C16.3512 16.9315 17.1873 15.9031 17.1605 14.6734L16.06 14.7ZM10.7186 17.7085C9.29757 17.7391 8.01157 17.4634 7.04217 17.0022C6.0592 16.5345 5.47601 15.9158 5.30414 15.3037L4.24419 15.6028C4.53555 16.6405 5.43528 17.4564 6.56672 17.9948C7.71172 18.5396 9.17161 18.8413 10.7397 18.8075L10.7186 17.7085Z" fill="black" mask="url(#path-1-inside-1_3541_59089)"/>
<path d="M4.85718 10.0676C4.61619 10.7663 4.61274 11.4606 4.78925 12.0144C4.96578 12.5682 5.31403 12.9638 5.77007 13.1193C6.22611 13.2749 6.74522 13.1751 7.22642 12.8457C7.7076 12.5162 8.13347 11.9659 8.37446 11.2673C8.61545 10.5686 8.6189 9.87429 8.44238 9.3205C8.26586 8.76669 7.91761 8.37111 7.46157 8.21557C7.00553 8.06002 6.48642 8.15976 6.00522 8.48923C5.52403 8.81869 5.09817 9.36897 4.85718 10.0676Z" fill="white" stroke="black" stroke-width="0.55"/>
<path fill-rule="evenodd" clip-rule="evenodd" d="M6.06388 9.80548L7.00991 10.7202L5.68403 11.0933C5.66446 11.8487 6.00269 12.4984 6.58901 12.6984C7.37174 12.9654 8.30021 12.3297 8.66279 11.2785C9.02538 10.2273 8.68478 9.15878 7.90205 8.89181C7.25488 8.67107 6.50808 9.06743 6.06388 9.80548Z" fill="black"/>
<path d="M8.45874 10.0686C8.21775 10.7672 8.2143 11.4616 8.39082 12.0154C8.56734 12.5692 8.91559 12.9648 9.37163 13.1203C9.82767 13.2759 10.3468 13.1761 10.828 12.8466C11.3092 12.5172 11.735 11.9669 11.976 11.2683C12.217 10.5696 12.2205 9.87527 12.0439 9.32148C11.8674 8.76767 11.5192 8.37209 11.0631 8.21654C10.6071 8.061 10.088 8.16073 9.60678 8.49021C9.1256 8.81967 8.69973 9.36994 8.45874 10.0686Z" fill="white" stroke="black" stroke-width="0.55"/>
<path fill-rule="evenodd" clip-rule="evenodd" d="M9.58341 9.76642L10.5294 10.6811L9.20356 11.0543C9.18399 11.8096 9.52222 12.4594 10.1085 12.6593C10.8913 12.9263 11.8197 12.2906 12.1823 11.2394C12.5449 10.1883 12.2043 9.11972 11.4216 8.85275C10.7744 8.63201 10.0276 9.02836 9.58341 9.76642Z" fill="black"/>
<path d="M84.0106 3.5C85.2322 3.5 86.2901 3.71513 87.1842 4.14539C88.0784 4.56336 88.7584 5.15957 89.2244 5.93404C89.6903 6.70851 89.9233 7.61206 89.9233 8.64468C89.9233 9.11182 89.8793 9.56052 89.7911 9.99078C89.5644 11.2447 89.0733 12.3634 88.3176 13.3468C87.5746 14.3303 86.6238 15.1047 85.4652 15.6702C84.3192 16.2234 83.0472 16.5 81.6493 16.5H76.3789L78.7402 3.5H84.0106ZM81.9516 13.3284C83.0346 13.3284 83.9351 13.0395 84.6529 12.4617C85.3707 11.8716 85.8304 11.048 86.0319 9.99078C86.0823 9.74492 86.1075 9.48061 86.1075 9.19787C86.1075 8.37423 85.8493 7.74113 85.333 7.29858C84.8166 6.85603 84.0925 6.63475 83.1606 6.63475H81.8949L80.667 13.3284H81.9516Z" fill="black"/>
<path d="M71.2335 6.35816L70.8557 8.5156H75.106L74.596 11.2631H70.3456L69.9111 13.6234H74.7282L74.2182 16.5H65.6797L68.041 3.5H76.5606L76.0505 6.35816H71.2335Z" fill="black"/>
<path d="M56.7137 3.5L58.0361 12.8674L62.7398 3.5H66.6879L59.7362 16.5H55.0136L52.7656 3.5H56.7137Z" fill="black"/>
<path d="M48.3112 14.3794H43.5886L42.493 16.5H38.6016L45.7988 3.5H50.068L52.5616 16.5H48.6513L48.3112 14.3794ZM47.8768 11.6319L47.2156 7.40922L45.0243 11.6319H47.8768Z" fill="black"/>
<path d="M42.2279 3.5L36.6174 16.5H32.0648L31.6681 8.5156L28.3434 16.5H23.7908L22.9219 3.5H26.9266L26.8889 12.3879L30.5725 3.5H34.6339L35.0684 12.3511L38.2231 3.5H42.2279Z" fill="black"/>
</svg>
