<svg width="24" height="24" viewBox="0 0 24 24" fill="none" xmlns="http://www.w3.org/2000/svg">
<path d="M22.4997 9.18803C22.5013 9.90226 22.3613 10.6097 22.0878 11.2695C21.8142 11.9293 21.4125 12.5282 20.906 13.0318L12.5341 21.5274C12.4643 21.5983 12.3811 21.6545 12.2894 21.693C12.1977 21.7314 12.0992 21.7511 11.9997 21.7511C11.9003 21.7511 11.8018 21.7314 11.7101 21.693C11.6183 21.6545 11.5352 21.5983 11.4654 21.5274L3.0935 13.0318C2.07283 12.0124 1.49893 10.6292 1.49805 9.18665C1.49717 7.74409 2.06938 6.36026 3.08881 5.33959C4.10823 4.31892 5.49137 3.74502 6.93393 3.74414C8.3765 3.74326 9.76033 4.31548 10.781 5.3349L11.9997 6.47396L13.2269 5.33115C13.9886 4.57327 14.9577 4.05803 16.012 3.85049C17.0663 3.64296 18.1584 3.75242 19.1505 4.16507C20.1426 4.57771 20.9902 5.27504 21.5863 6.16901C22.1824 7.06299 22.5002 8.11354 22.4997 9.18803Z" fill="#3C3F44"/>
</svg>
