<svg width="88" height="88" viewBox="0 0 88 88" fill="none" xmlns="http://www.w3.org/2000/svg">
<g clip-path="url(#clip0_3616_66210)">
<ellipse cx="41.3829" cy="47.1744" rx="41.3829" ry="40.8247" fill="#FFE9E9"/>
<path d="M8.59375 65L22.7556 65" stroke="black" stroke-width="1.27558" stroke-linecap="round" stroke-linejoin="round"/>
<path d="M62.2031 65H75.3534" stroke="black" stroke-width="1.27558" stroke-linecap="round" stroke-linejoin="round"/>
<mask id="path-4-inside-1_3616_66210" fill="white">
<path fill-rule="evenodd" clip-rule="evenodd" d="M23.0825 66.2214C19.9602 66.0715 17.2563 65.029 15.3364 63.018C9.59338 57.0028 13.0385 44.5999 23.0312 35.3153C33.024 26.0308 45.7803 23.3805 51.5233 29.3958C53.9834 31.9726 54.7575 35.7216 54.0531 39.8955C58.579 40.8819 62.022 43.2237 63.3527 46.716C65.0796 51.2483 62.8356 56.6346 58.0149 61.0755C58.4951 61.9769 58.7629 62.9349 58.7848 63.9313C58.91 69.6209 50.9679 74.4055 41.0457 74.6179C32.0273 74.8109 24.4771 71.1603 23.0825 66.2214Z"/>
</mask>
<path fill-rule="evenodd" clip-rule="evenodd" d="M23.0825 66.2214C19.9602 66.0715 17.2563 65.029 15.3364 63.018C9.59338 57.0028 13.0385 44.5999 23.0312 35.3153C33.024 26.0308 45.7803 23.3805 51.5233 29.3958C53.9834 31.9726 54.7575 35.7216 54.0531 39.8955C58.579 40.8819 62.022 43.2237 63.3527 46.716C65.0796 51.2483 62.8356 56.6346 58.0149 61.0755C58.4951 61.9769 58.7629 62.9349 58.7848 63.9313C58.91 69.6209 50.9679 74.4055 41.0457 74.6179C32.0273 74.8109 24.4771 71.1603 23.0825 66.2214Z" fill="white"/>
<path d="M23.0825 66.2214L24.3126 65.8697L24.0652 64.9933L23.1515 64.9494L23.0825 66.2214ZM15.3364 63.018L16.2645 62.1374L16.2645 62.1374L15.3364 63.018ZM23.0312 35.3153L23.8996 36.2444L23.8996 36.2444L23.0312 35.3153ZM51.5233 29.3958L52.4514 28.5151L52.4514 28.5151L51.5233 29.3958ZM54.0531 39.8955L52.793 39.6915L52.5921 40.8822L53.7731 41.1396L54.0531 39.8955ZM63.3527 46.716L62.1578 47.1741L63.3527 46.716ZM58.0149 61.0755L57.1505 60.1427L56.4242 60.8118L56.8855 61.6778L58.0149 61.0755ZM58.7848 63.9313L57.5074 63.9666L58.7848 63.9313ZM41.0457 74.6179L41.0258 73.3447L41.0457 74.6179ZM23.1515 64.9494C20.2762 64.8114 17.9101 63.8611 16.2645 62.1374L14.4082 63.8987C16.6025 66.197 19.6441 67.3316 23.0136 67.4933L23.1515 64.9494ZM16.2645 62.1374C13.8153 59.5721 13.1888 55.4971 14.5142 50.7257C15.8333 45.9766 19.0474 40.7527 23.8996 36.2444L22.1629 34.3863C17.0223 39.1625 13.5175 44.7823 12.0516 50.0597C10.592 55.3146 11.1144 60.4487 14.4082 63.8987L16.2645 62.1374ZM23.8996 36.2444C28.7514 31.7364 34.2327 28.881 39.1246 27.8647C44.0425 26.8429 48.1414 27.7064 50.5951 30.2764L52.4514 28.5151C49.1621 25.0699 44.0114 24.2509 38.6172 25.3716C33.197 26.4977 27.3038 29.6097 22.1629 34.3863L23.8996 36.2444ZM50.5951 30.2764C52.6961 32.477 53.4541 35.7746 52.793 39.6915L55.3131 40.0995C56.0609 35.6686 55.2707 31.4681 52.4514 28.5151L50.5951 30.2764ZM53.7731 41.1396C58.0549 42.0728 61.0334 44.2232 62.1578 47.1741L64.5475 46.2578C63.0106 42.2241 59.103 39.691 54.333 38.6514L53.7731 41.1396ZM62.1578 47.1741C63.6123 50.9915 61.8079 55.8523 57.1505 60.1427L58.8792 62.0082C63.8632 57.4168 66.5469 51.5052 64.5475 46.2578L62.1578 47.1741ZM56.8855 61.6778C57.2812 62.4204 57.4902 63.1856 57.5074 63.9666L60.0623 63.8959C60.0356 62.6842 59.709 61.5334 59.1442 60.4732L56.8855 61.6778ZM57.5074 63.9666C57.5556 66.1599 56.0447 68.4217 53.0268 70.2398C50.0421 72.0378 45.8044 73.2425 41.0258 73.3447L41.0656 75.891C46.2092 75.7809 50.9036 74.487 54.3393 72.4173C57.7417 70.3676 60.1392 67.3923 60.0623 63.8959L57.5074 63.9666ZM41.0258 73.3447C36.6863 73.4376 32.7446 72.603 29.7578 71.1927C26.7386 69.7671 24.8707 67.8461 24.3126 65.8697L21.8524 66.573C22.6889 69.5356 25.2934 71.9093 28.6525 73.4954C32.0441 75.0969 36.3867 75.9911 41.0656 75.891L41.0258 73.3447Z" fill="black" mask="url(#path-4-inside-1_3616_66210)"/>
<path d="M33.4103 51.8137C32.9899 53.9335 31.9684 55.704 30.6864 56.8593C29.4045 58.0145 27.8975 58.5304 26.4558 58.2522C25.0142 57.974 23.8153 56.9359 23.0692 55.3895C22.3229 53.8427 22.053 51.823 22.4733 49.7032C22.8936 47.5833 23.9152 45.8128 25.1972 44.6575C26.479 43.5023 27.986 42.9864 29.4277 43.2646C30.8694 43.5428 32.0682 44.5809 32.8144 46.1274C33.5606 47.6741 33.8306 49.6938 33.4103 51.8137Z" fill="white" stroke="black" stroke-width="1.27558"/>
<path d="M43.8634 51.8137C43.443 53.9335 42.4215 55.704 41.1395 56.8593C39.8577 58.0145 38.3506 58.5304 36.909 58.2522C35.4673 57.974 34.2684 56.9359 33.5223 55.3895C32.7761 53.8427 32.5061 51.823 32.9264 49.7032C33.3468 47.5833 34.3683 45.8128 35.6503 44.6575C36.9321 43.5023 38.4392 42.9864 39.8808 43.2646C41.3225 43.5428 42.5214 44.5809 43.2675 46.1274C44.0137 47.6741 44.2837 49.6938 43.8634 51.8137Z" fill="white" stroke="black" stroke-width="1.27558"/>
<path fill-rule="evenodd" clip-rule="evenodd" d="M30.3731 49.7633L26.9726 50.6206L29.5274 53.2391C28.5645 55.004 26.9206 56.0529 25.3067 55.7383C23.1518 55.3182 21.8664 52.6264 22.4356 49.7261C23.0049 46.8257 25.2133 44.8151 27.3682 45.2352C29.1481 45.5822 30.3349 47.4791 30.3731 49.7633Z" fill="black"/>
<path fill-rule="evenodd" clip-rule="evenodd" d="M41.0723 49.5836L37.6718 50.4409L40.2266 53.0594C39.2637 54.8244 37.6198 55.8732 36.0059 55.5586C33.851 55.1385 32.5656 52.4468 33.1348 49.5464C33.7041 46.6461 35.9125 44.6354 38.0674 45.0555C39.8474 45.4025 41.0341 47.2994 41.0723 49.5836Z" fill="black"/>
<mask id="path-10-inside-2_3616_66210" fill="white">
<path fill-rule="evenodd" clip-rule="evenodd" d="M84.1368 0C86.2682 0 87.9961 1.72787 87.9961 3.8593V20.3764C87.9961 22.5078 86.2682 24.2357 84.1368 24.2357H70.8024L62.2012 29.1342V24.2357H58.2369C56.1055 24.2357 54.3776 22.5078 54.3776 20.3764V3.8593C54.3776 1.72787 56.1055 0 58.2369 0H84.1368Z"/>
</mask>
<path fill-rule="evenodd" clip-rule="evenodd" d="M84.1368 0C86.2682 0 87.9961 1.72787 87.9961 3.8593V20.3764C87.9961 22.5078 86.2682 24.2357 84.1368 24.2357H70.8024L62.2012 29.1342V24.2357H58.2369C56.1055 24.2357 54.3776 22.5078 54.3776 20.3764V3.8593C54.3776 1.72787 56.1055 0 58.2369 0H84.1368Z" fill="white"/>
<path d="M70.8024 24.2357L70.1712 23.1272L70.4647 22.9601H70.8024V24.2357ZM62.2012 29.1342L62.8325 30.2427L60.9257 31.3286V29.1342H62.2012ZM62.2012 24.2357V22.9601H63.4768V24.2357H62.2012ZM86.7205 3.8593C86.7205 2.43235 85.5637 1.27558 84.1368 1.27558V-1.27558C86.9727 -1.27558 89.2717 1.02339 89.2717 3.8593H86.7205ZM86.7205 20.3764V3.8593H89.2717V20.3764H86.7205ZM84.1368 22.9601C85.5637 22.9601 86.7205 21.8033 86.7205 20.3764H89.2717C89.2717 23.2123 86.9727 25.5112 84.1368 25.5112V22.9601ZM70.8024 22.9601H84.1368V25.5112H70.8024V22.9601ZM71.4337 25.3441L62.8325 30.2427L61.57 28.0258L70.1712 23.1272L71.4337 25.3441ZM60.9257 29.1342V24.2357H63.4768V29.1342H60.9257ZM58.2369 22.9601H62.2012V25.5112H58.2369V22.9601ZM55.6532 20.3764C55.6532 21.8033 56.81 22.9601 58.2369 22.9601V25.5112C55.401 25.5112 53.102 23.2123 53.102 20.3764H55.6532ZM55.6532 3.8593V20.3764H53.102V3.8593H55.6532ZM58.2369 1.27558C56.81 1.27558 55.6532 2.43235 55.6532 3.8593H53.102C53.102 1.02339 55.401 -1.27558 58.2369 -1.27558V1.27558ZM84.1368 1.27558H58.2369V-1.27558H84.1368V1.27558Z" fill="black" mask="url(#path-10-inside-2_3616_66210)"/>
<path d="M72.4189 7.10156L72.2686 14.0879H70.7236L70.5596 7.10156H72.4189ZM70.4365 16.043C70.4297 15.4688 70.915 14.9971 71.5029 14.9902C72.0703 14.9971 72.5557 15.4688 72.5557 16.043C72.5557 16.6309 72.0703 17.1094 71.5029 17.1094C70.915 17.1094 70.4297 16.6309 70.4365 16.043Z" fill="black"/>
</g>
<defs>
<clipPath id="clip0_3616_66210">
<rect width="88" height="88" fill="white"/>
</clipPath>
</defs>
</svg>
