<svg width="109" height="109" viewBox="0 0 109 109" fill="none" xmlns="http://www.w3.org/2000/svg">
<circle cx="54.5" cy="54.5" r="54.5" fill="#ECEEF0"/>
<path fill-rule="evenodd" clip-rule="evenodd" d="M50.5655 34C48.7569 34 47.1732 35.2136 46.703 36.9601L45.6154 41H32C29.7909 41 28 42.7909 28 45V72C28 74.2091 29.7909 76 32 76H77C79.2091 76 81 74.2091 81 72V45C81 42.7909 79.2091 41 77 41H63.3846L62.297 36.9601C61.8268 35.2136 60.2431 34 58.4345 34H50.5655ZM55 65C58.866 65 62 61.866 62 58C62 54.134 58.866 51 55 51C51.134 51 48 54.134 48 58C48 61.866 51.134 65 55 65ZM55 68C60.5228 68 65 63.5228 65 58C65 52.4772 60.5228 48 55 48C49.4772 48 45 52.4772 45 58C45 63.5228 49.4772 68 55 68Z" fill="white"/>
<circle cx="93" cy="88" r="11" fill="#ECEEF0" stroke="white" stroke-width="2"/>
<path fill-rule="evenodd" clip-rule="evenodd" d="M93.0004 81.0001C92.4481 81.0001 92.0004 81.4478 92.0004 82.0001V87.0001H86.9995C86.4472 87.0001 85.9995 87.4478 85.9995 88.0001C85.9995 88.5524 86.4472 89.0001 86.9995 89.0001H92.0004V94.0001C92.0004 94.5524 92.4481 95.0001 93.0004 95.0001C93.5527 95.0001 94.0004 94.5524 94.0004 94.0001V89.0001H98.9995C99.5518 89.0001 99.9995 88.5524 99.9995 88.0001C99.9995 87.4478 99.5518 87.0001 98.9995 87.0001H94.0004V82.0001C94.0004 81.4478 93.5527 81.0001 93.0004 81.0001Z" fill="white"/>
</svg>
