<svg width="24" height="24" viewBox="0 0 24 24" fill="none" xmlns="http://www.w3.org/2000/svg">
<path d="M15.5312 18.9693C15.6009 19.039 15.6562 19.1217 15.6939 19.2128C15.7316 19.3038 15.751 19.4014 15.751 19.4999C15.751 19.5985 15.7316 19.6961 15.6939 19.7871C15.6562 19.8781 15.6009 19.9609 15.5312 20.0306C15.4615 20.1002 15.3788 20.1555 15.2878 20.1932C15.1967 20.2309 15.0991 20.2503 15.0006 20.2503C14.902 20.2503 14.8045 20.2309 14.7134 20.1932C14.6224 20.1555 14.5396 20.1002 14.47 20.0306L6.96996 12.5306C6.90023 12.4609 6.84491 12.3782 6.80717 12.2871C6.76943 12.1961 6.75 12.0985 6.75 11.9999C6.75 11.9014 6.76943 11.8038 6.80717 11.7127C6.84491 11.6217 6.90023 11.539 6.96996 11.4693L14.47 3.9693C14.6107 3.82857 14.8016 3.74951 15.0006 3.74951C15.1996 3.74951 15.3905 3.82857 15.5312 3.9693C15.6719 4.11003 15.751 4.30091 15.751 4.49993C15.751 4.69895 15.6719 4.88982 15.5312 5.03055L8.5609 11.9999L15.5312 18.9693Z" fill="#242629"/>
</svg>
