<svg width="88" height="88" viewBox="0 0 88 88" fill="none" xmlns="http://www.w3.org/2000/svg">
<rect x="19" y="11" width="51" height="66" fill="#2470FF"/>
<path d="M44 0C35.2976 0 26.7907 2.58055 19.5549 7.41534C12.3192 12.2501 6.67957 19.122 3.34932 27.1619C0.0190645 35.2019 -0.852282 44.0488 0.845467 52.584C2.54322 61.1191 6.73381 68.9592 12.8873 75.1127C19.0408 81.2662 26.8809 85.4568 35.416 87.1545C43.9512 88.8523 52.7981 87.9809 60.8381 84.6507C68.878 81.3204 75.7499 75.6808 80.5847 68.4451C85.4194 61.2093 88 52.7024 88 44C87.9877 32.3342 83.348 21.1498 75.0991 12.9009C66.8502 4.65197 55.6658 0.0123192 44 0ZM40.6154 23.6923C40.6154 22.7946 40.972 21.9338 41.6067 21.299C42.2415 20.6643 43.1024 20.3077 44 20.3077C44.8977 20.3077 45.7586 20.6643 46.3933 21.299C47.028 21.9338 47.3846 22.7946 47.3846 23.6923V47.3846C47.3846 48.2823 47.028 49.1432 46.3933 49.7779C45.7586 50.4126 44.8977 50.7692 44 50.7692C43.1024 50.7692 42.2415 50.4126 41.6067 49.7779C40.972 49.1432 40.6154 48.2823 40.6154 47.3846V23.6923ZM44 67.6923C42.9959 67.6923 42.0143 67.3945 41.1794 66.8367C40.3445 66.2788 39.6938 65.4859 39.3095 64.5582C38.9253 63.6305 38.8247 62.6097 39.0206 61.6249C39.2165 60.6401 39.7001 59.7355 40.4101 59.0254C41.1201 58.3154 42.0247 57.8319 43.0096 57.636C43.9944 57.4401 45.0152 57.5406 45.9429 57.9249C46.8705 58.3092 47.6635 58.9599 48.2213 59.7948C48.7792 60.6297 49.0769 61.6113 49.0769 62.6154C49.0769 63.9619 48.542 65.2532 47.5899 66.2053C46.6378 67.1574 45.3465 67.6923 44 67.6923Z" fill="#E9F1FF"/>
</svg>
