<svg width="24" height="24" viewBox="0 0 24 24" fill="none" xmlns="http://www.w3.org/2000/svg">
<g clip-path="url(#clip0_3420_56092)">
<rect width="24" height="24" rx="2" fill="#1A50B5"/>
<circle cx="12" cy="13" r="6" fill="#FBF5C0"/>
<rect y="14" width="25" height="14" fill="#5183E1"/>
<path d="M16.6183 14.3806C15.0077 17.4205 14.2256 18.9972 14.0093 19.439C13.9738 19.5115 14.0051 19.5984 14.0782 19.6326L14.8884 20.0107C14.9661 20.0469 15.0571 20.011 15.0854 19.9301C15.3196 19.2598 16.2903 16.4591 16.8566 14.4705C16.903 14.3073 16.6977 14.2306 16.6183 14.3806Z" fill="black" stroke="black" stroke-width="0.25" stroke-linecap="round" stroke-linejoin="round"/>
<path d="M16.2254 11.3099C15.6118 10.5331 14.1736 9.63053 13.2789 9.11303C13.137 9.03093 13.0091 9.19052 13.1084 9.32104C14.0537 10.564 15.7809 13.3126 16.3866 14.5548C16.4375 14.6593 16.5784 14.6652 16.6269 14.5595C16.8731 14.0236 17.3025 12.6736 16.2254 11.3099Z" fill="black" stroke="black" stroke-width="0.25" stroke-linecap="round" stroke-linejoin="round"/>
<path d="M18.9575 11.9739C19.8953 11.657 21.5931 11.6842 22.6253 11.7379C22.789 11.7465 22.8093 11.95 22.6549 12.0053C21.1848 12.5321 18.2386 13.8952 17.0538 14.6065C16.9541 14.6664 16.8328 14.5945 16.8497 14.4795C16.9354 13.896 17.3112 12.5301 18.9575 11.9739Z" fill="black" stroke="black" stroke-width="0.25" stroke-linecap="round" stroke-linejoin="round"/>
<path d="M20.0373 14.547C20.877 15.0712 21.9327 16.4012 22.5456 17.2334C22.6429 17.3654 22.4984 17.5101 22.3577 17.4258C21.0181 16.6232 18.0958 15.2095 16.7945 14.7445C16.685 14.7054 16.6636 14.566 16.7633 14.5061C17.2689 14.2024 18.5632 13.6268 20.0373 14.547Z" fill="black" stroke="black" stroke-width="0.25" stroke-linecap="round" stroke-linejoin="round"/>
<path d="M19.2945 16.2741C19.6964 17.1788 19.8257 18.8719 19.8672 19.9046C19.8738 20.0685 19.673 20.1073 19.6037 19.9587C18.9438 18.5434 17.3152 15.7352 16.4978 14.6209C16.429 14.5271 16.4894 14.3998 16.6055 14.406C17.1944 14.4377 18.5891 14.686 19.2945 16.2741Z" fill="black" stroke="black" stroke-width="0.25" stroke-linecap="round" stroke-linejoin="round"/>
<path d="M14.0449 12.5277C13.0552 12.5077 11.4443 13.0446 10.4762 13.4064C10.3226 13.4639 10.3645 13.664 10.5284 13.6703C12.0888 13.7303 15.3087 14.1436 16.6526 14.4654C16.7658 14.4925 16.8598 14.3875 16.809 14.2828C16.5517 13.7522 15.7823 12.5627 14.0449 12.5277Z" fill="black" stroke="black" stroke-width="0.25" stroke-linecap="round" stroke-linejoin="round"/>
<path d="M13.5189 14.2328C12.6711 14.7439 11.595 16.0574 10.9692 16.88C10.8699 17.0105 11.0122 17.1574 11.1542 17.0753C12.506 16.2935 15.4499 14.9253 16.7582 14.4805C16.8684 14.4431 16.8919 14.3041 16.7931 14.2426C16.2923 13.9311 15.007 13.3355 13.5189 14.2328Z" fill="black" stroke="black" stroke-width="0.25" stroke-linecap="round" stroke-linejoin="round"/>
<path d="M9.45045 19.0923C2.7027 19.7013 1 25 1 25L22 25C22 25 20.1081 18.1305 9.45045 19.0923Z" fill="#605D4A" stroke="black" stroke-width="0.25" stroke-linecap="round" stroke-linejoin="round"/>
<ellipse cx="14.9706" cy="22.0285" rx="0.201076" ry="0.200394" fill="black"/>
<ellipse cx="15.1698" cy="21.0266" rx="0.201076" ry="0.200394" fill="black"/>
<ellipse cx="13.8651" cy="21.6281" rx="0.201076" ry="0.200394" fill="black"/>
</g>
<defs>
<clipPath id="clip0_3420_56092">
<rect width="24" height="24" rx="2" fill="white"/>
</clipPath>
</defs>
</svg>
