<svg width="24" height="24" viewBox="0 0 24 24" fill="none" xmlns="http://www.w3.org/2000/svg">
<path d="M20.7946 16.4944C20.2743 15.5981 19.5009 13.0622 19.5009 9.75C19.5009 7.76088 18.7107 5.85322 17.3042 4.4467C15.8976 3.04018 13.99 2.25 12.0009 2.25C10.0117 2.25 8.10409 3.04018 6.69757 4.4467C5.29104 5.85322 4.50087 7.76088 4.50087 9.75C4.50087 13.0631 3.72649 15.5981 3.20618 16.4944C3.07331 16.7222 3.00287 16.9811 3.00196 17.2449C3.00106 17.5086 3.06972 17.768 3.20102 17.9967C3.33233 18.2255 3.52163 18.4156 3.74984 18.5478C3.97805 18.6801 4.2371 18.7498 4.50087 18.75H8.3268C8.49984 19.5967 8.96001 20.3577 9.62949 20.9042C10.299 21.4507 11.1367 21.7492 12.0009 21.7492C12.8651 21.7492 13.7028 21.4507 14.3722 20.9042C15.0417 20.3577 15.5019 19.5967 15.6749 18.75H19.5009C19.7646 18.7496 20.0235 18.6798 20.2516 18.5475C20.4796 18.4151 20.6688 18.225 20.8 17.9963C20.9312 17.7676 20.9998 17.5083 20.9988 17.2446C20.9979 16.9809 20.9274 16.7222 20.7946 16.4944ZM12.0009 20.25C11.5357 20.2499 11.082 20.1055 10.7022 19.8369C10.3225 19.5683 10.0353 19.1886 9.88024 18.75H14.1215C13.9664 19.1886 13.6793 19.5683 13.2995 19.8369C12.9197 20.1055 12.466 20.2499 12.0009 20.25ZM4.50087 17.25C5.22274 16.0087 6.00087 13.1325 6.00087 9.75C6.00087 8.1587 6.63301 6.63258 7.75823 5.50736C8.88344 4.38214 10.4096 3.75 12.0009 3.75C13.5922 3.75 15.1183 4.38214 16.2435 5.50736C17.3687 6.63258 18.0009 8.1587 18.0009 9.75C18.0009 13.1297 18.7771 16.0059 19.5009 17.25H4.50087Z" fill="#3C3F44"/>
</svg>
