<svg width="84" height="84" viewBox="0 0 84 84" fill="none" xmlns="http://www.w3.org/2000/svg">
<path d="M19.8901 10.8567L22.9706 18.1557M8.07943 19.9661L17.4283 23.9344" stroke="#DEE1E5" stroke-width="3" stroke-linecap="round"/>
<path fill-rule="evenodd" clip-rule="evenodd" d="M72.9724 45.5317C72.9724 60.4434 60.8841 72.5317 45.9724 72.5317C31.0607 72.5317 18.9724 60.4434 18.9724 45.5317C18.9724 30.6201 31.0607 18.5317 45.9724 18.5317C60.8841 18.5317 72.9724 30.6201 72.9724 45.5317ZM75.9724 45.5317C75.9724 62.1003 62.541 75.5317 45.9724 75.5317C29.4039 75.5317 15.9724 62.1003 15.9724 45.5317C15.9724 28.9632 29.4039 15.5317 45.9724 15.5317C62.541 15.5317 75.9724 28.9632 75.9724 45.5317ZM38.4724 38.5317C39.8531 38.5317 40.9724 37.4125 40.9724 36.0317C40.9724 34.651 39.8531 33.5317 38.4724 33.5317C37.0917 33.5317 35.9724 34.651 35.9724 36.0317C35.9724 37.4125 37.0917 38.5317 38.4724 38.5317ZM50.9724 36.0317C50.9724 37.4125 49.8531 38.5317 48.4724 38.5317C47.0917 38.5317 45.9724 37.4125 45.9724 36.0317C45.9724 34.651 47.0917 33.5317 48.4724 33.5317C49.8531 33.5317 50.9724 34.651 50.9724 36.0317ZM47.9724 49.0317C47.9724 51.517 45.9577 53.5317 43.4724 53.5317C40.9871 53.5317 38.9724 51.517 38.9724 49.0317C38.9724 46.5465 40.9871 44.5317 43.4724 44.5317C45.9577 44.5317 47.9724 46.5465 47.9724 49.0317ZM50.9724 49.0317C50.9724 53.1739 47.6145 56.5317 43.4724 56.5317C39.3303 56.5317 35.9724 53.1739 35.9724 49.0317C35.9724 44.8896 39.3303 41.5317 43.4724 41.5317C47.6145 41.5317 50.9724 44.8896 50.9724 49.0317Z" fill="#DEE1E5"/>
</svg>
