<svg width="20" height="20" viewBox="0 0 20 20" fill="none" xmlns="http://www.w3.org/2000/svg">
<path d="M10.7454 14.5594C10.8625 14.6766 10.9283 14.8355 10.9283 15.0012C10.9283 15.1668 10.8625 15.3258 10.7454 15.443L9.96882 16.2242C9.14758 17.0449 8.03395 17.5058 6.87291 17.5054C5.71187 17.5051 4.59853 17.0435 3.77781 16.2223C2.95709 15.401 2.49622 14.2874 2.49658 13.1263C2.49695 11.9653 2.95852 10.852 3.77976 10.0312L5.66414 8.14686C6.45295 7.35742 7.51364 6.89926 8.62915 6.86615C9.74466 6.83303 10.8307 7.22747 11.6649 7.96874C11.7265 8.02332 11.7767 8.08949 11.8127 8.16347C11.8486 8.23746 11.8697 8.3178 11.8746 8.39992C11.8796 8.48205 11.8683 8.56434 11.8414 8.64209C11.8145 8.71985 11.7726 8.79156 11.718 8.85311C11.6635 8.91467 11.5973 8.96488 11.5233 9.00086C11.4493 9.03684 11.369 9.0579 11.2869 9.06284C11.2047 9.06777 11.1224 9.05648 11.0447 9.02961C10.9669 9.00274 10.8952 8.96082 10.8337 8.90624C10.2378 8.3771 9.46234 8.09558 8.66581 8.11925C7.86928 8.14293 7.11188 8.47 6.54851 9.03358L4.66414 10.9156C4.07797 11.5018 3.74866 12.2968 3.74866 13.1258C3.74866 13.9547 4.07797 14.7498 4.66414 15.3359C5.25031 15.9221 6.04532 16.2514 6.87429 16.2514C7.70326 16.2514 8.49828 15.9221 9.08445 15.3359L9.86101 14.5594C9.91906 14.5013 9.98799 14.4552 10.0639 14.4237C10.1397 14.3922 10.2211 14.3761 10.3032 14.3761C10.3853 14.3761 10.4667 14.3922 10.5425 14.4237C10.6184 14.4552 10.6873 14.5013 10.7454 14.5594ZM16.2204 3.77811C15.399 2.9586 14.2861 2.49835 13.1259 2.49835C11.9656 2.49835 10.8527 2.9586 10.0313 3.77811L9.25476 4.55546C9.13759 4.67273 9.0718 4.83175 9.07188 4.99753C9.07195 5.16331 9.13788 5.32227 9.25515 5.43944C9.37243 5.55661 9.53144 5.6224 9.69722 5.62233C9.863 5.62225 10.022 5.55633 10.1391 5.43905L10.9157 4.66249C11.5019 4.07632 12.2969 3.74701 13.1259 3.74701C13.9548 3.74701 14.7498 4.07632 15.336 4.66249C15.9222 5.24866 16.2515 6.04368 16.2515 6.87265C16.2515 7.70161 15.9222 8.49663 15.336 9.0828L13.4516 10.9687C12.888 11.532 12.1304 11.8586 11.3339 11.8819C10.5373 11.9051 9.76203 11.6232 9.16648 11.0937C9.10492 11.0392 9.03322 10.9972 8.95546 10.9704C8.8777 10.9435 8.79541 10.9322 8.71329 10.9371C8.54744 10.9471 8.39233 11.0225 8.2821 11.1469C8.22752 11.2084 8.1856 11.2801 8.15873 11.3579C8.13186 11.4356 8.12057 11.5179 8.12551 11.6001C8.13547 11.7659 8.21091 11.921 8.33523 12.0312C9.16929 12.7727 10.2552 13.1674 11.3707 13.1346C12.4862 13.1018 13.547 12.6439 14.336 11.8547L16.2204 9.9703C17.0404 9.14888 17.5009 8.03565 17.5009 6.87499C17.5009 5.71433 17.0404 4.6011 16.2204 3.77968V3.77811Z" fill="#508DFF"/>
</svg>
