<svg width="1868" height="720" viewBox="0 0 1868 720" fill="none" xmlns="http://www.w3.org/2000/svg">
<path d="M3.61671 320.098C3.98104 298.427 27.6896 285.295 46.2541 296.482L202.205 390.46C219.954 401.156 230.927 420.253 231.23 440.973L234.069 635.162C234.236 646.588 222.074 653.997 211.996 648.608L48.4681 561.154C18.7112 545.241 0.356666 514.018 0.923881 480.278L3.61671 320.098Z" fill="#2470FF"/>
<path d="M233.696 49.7854C233.696 27.8999 257.593 14.4003 276.338 25.6963L430.97 118.88C448.987 129.737 460.002 149.236 460.002 170.27V504.522C460.002 574.651 383.346 617.836 323.367 581.497L233.696 527.17V49.7854Z" fill="#2470FF" fill-opacity="0.3"/>
<path d="M119.785 180.265C119.785 159.045 142.388 145.468 161.122 155.437L314.276 236.931C333.855 247.35 346.091 267.72 346.091 289.899V569.783C346.091 637.777 273.59 681.214 213.637 649.141L119.785 598.933V180.265Z" fill="#2470FF" fill-opacity="0.6"/>
<path d="M1581.58 376.46V433.866H1450.42V483.928H1591.26V541H1381V275H1587.93V332.405H1450.42V376.46H1581.58Z" fill="#508DFF"/>
<path d="M1623.36 275H1752.19C1770.21 275 1786.23 278.338 1800.92 285.013C1814.93 292.021 1827.28 301.366 1837.29 313.048C1847.31 325.063 1854.98 338.747 1860.32 354.767C1865.33 371.12 1868 388.809 1868 407.499C1868 427.191 1865 445.213 1859.66 461.233C1853.65 477.921 1845.3 491.939 1834.62 503.62C1823.28 515.301 1809.93 524.646 1793.91 531.321C1777.55 537.662 1758.86 541 1737.84 541H1623.36V275ZM1692.78 483.595H1733.83C1744.51 483.595 1754.19 481.592 1762.53 477.253C1770.54 473.248 1777.22 467.908 1782.56 460.566C1787.9 453.891 1791.9 445.547 1794.57 436.202C1797.24 426.857 1798.58 417.178 1798.58 406.498C1798.58 396.486 1796.91 386.807 1793.91 377.462C1790.57 368.784 1786.23 360.774 1780.56 354.099C1774.55 347.424 1767.21 342.084 1758.53 338.079C1749.85 334.408 1739.84 332.405 1728.49 332.405H1692.78V483.595Z" fill="#508DFF"/>
<path d="M548 275.148C566.211 295.563 572.832 321.508 583.32 353.523C608.434 429.977 618.922 468.062 641.551 541.469H692.609C708.336 515.805 728.211 482.957 743.949 447.906C752.504 476.336 761.059 504.484 772.367 541.469H823.426C854.891 490.141 901.812 411.484 901.812 340.281C901.812 287.008 878.352 275.148 878.352 275.148H815.973C815.973 275.148 839.164 296.945 839.164 348.273C839.164 381.672 825.359 428.594 808.52 446.805C799.145 414.789 778.168 348.273 768.512 312.953C762.43 282.871 747.535 275.148 747.535 275.148H685.156C685.156 275.148 708.336 296.945 708.336 348.273C708.336 381.672 694.543 428.594 677.703 446.805C664.73 401.816 635.211 318.473 635.211 296.395C635.211 288.941 638.246 281.219 644.586 275.148H548Z" fill="#2470FF"/>
<path d="M933.537 541.469H1009.98C992.599 518.559 982.111 493.445 977.962 461.98H1051.93V507.25C1051.93 521.043 1048.61 535.949 1042.27 541.469H1123.69C1117.35 535.949 1114.03 520.773 1114.03 506.969V295.293C1106.02 280.387 1078.71 271 1053.03 271C963.337 271 914.212 352.691 914.212 428.594C914.212 473.582 920.283 502.281 933.537 541.469ZM978.244 409.551C983.763 373.117 1003.91 327.859 1052.21 327.859L1051.93 409.551H978.244Z" fill="#2470FF"/>
<path d="M1164.53 353.523C1189.37 429.977 1200.13 468.062 1222.76 541.469H1273.82C1305.28 490.141 1352.19 411.484 1352.19 340.281C1352.19 287.008 1328.74 275.148 1328.74 275.148H1266.36C1266.36 275.148 1289.54 296.945 1289.54 348.273C1289.54 381.672 1275.75 428.594 1258.91 446.805C1245.94 401.816 1216.42 318.473 1216.42 296.395C1216.42 288.941 1219.45 281.219 1225.79 275.148H1129.21C1147.42 295.563 1154.04 321.508 1164.53 353.523Z" fill="#2470FF"/>
</svg>
