<svg width="172" height="77" viewBox="0 0 172 77" fill="none" xmlns="http://www.w3.org/2000/svg">
<path d="M119.228 62.4243V54.0806L149.228 7.76807H161.978V53.7056H171.259V62.4243H161.978V75.6431H152.228V62.4243H119.228ZM130.103 53.7056H152.228V20.0493H151.478L130.103 53.1431V53.7056Z" fill="#508DFF"/>
<path d="M0 62.4243V54.0806L30 7.76807H42.75V53.7056H52.0312V62.4243H42.75V75.6431H33V62.4243H0ZM10.875 53.7056H33V20.0493H32.25L10.875 53.1431V53.7056Z" fill="#508DFF"/>
<path fill-rule="evenodd" clip-rule="evenodd" d="M66.2751 0.917154C65.953 0.153915 65.0731 -0.203689 64.3099 0.118424C63.5466 0.440537 63.189 1.32039 63.5111 2.08363L66.5916 9.38264C66.9137 10.1459 67.7935 10.5035 68.5568 10.1814C69.32 9.85925 69.6776 8.9794 69.3555 8.21616L66.2751 0.917154ZM53.6685 9.22898C52.9059 8.90528 52.0254 9.26107 51.7017 10.0236C51.378 10.7862 51.7338 11.6668 52.4963 11.9905L61.8452 15.9589C62.6078 16.2825 63.4884 15.9268 63.8121 15.1642C64.1357 14.4016 63.78 13.521 63.0174 13.1973L53.6685 9.22898ZM86.5825 76.5807C70.8793 76.5807 61.645 63.9244 61.645 41.7057C61.645 19.6275 70.9731 6.83067 86.5825 6.83067C102.145 6.83067 111.473 19.6275 111.52 41.7057C111.473 63.9244 102.286 76.5807 86.5825 76.5807ZM71.9575 41.7057C71.9106 58.6275 77.395 67.6744 86.5825 67.6744C95.7231 67.6744 101.207 58.6275 101.207 41.7057C101.207 24.8307 95.6762 15.5963 86.5825 15.5494C77.4418 15.5963 71.9575 24.8307 71.9575 41.7057ZM84.0825 33.1432C84.0825 34.5239 82.9632 35.6432 81.5825 35.6432C80.2017 35.6432 79.0825 34.5239 79.0825 33.1432C79.0825 31.7625 80.2017 30.6432 81.5825 30.6432C82.9632 30.6432 84.0825 31.7625 84.0825 33.1432ZM94.0825 33.1432C94.0825 34.5239 92.9632 35.6432 91.5825 35.6432C90.2017 35.6432 89.0825 34.5239 89.0825 33.1432C89.0825 31.7625 90.2017 30.6432 91.5825 30.6432C92.9632 30.6432 94.0825 31.7625 94.0825 33.1432ZM91.0825 46.1432C91.0825 48.6284 89.0677 50.6432 86.5825 50.6432C84.0972 50.6432 82.0825 48.6284 82.0825 46.1432C82.0825 43.6579 84.0972 41.6432 86.5825 41.6432C89.0677 41.6432 91.0825 43.6579 91.0825 46.1432ZM94.0825 46.1432C94.0825 50.2853 90.7246 53.6432 86.5825 53.6432C82.4403 53.6432 79.0825 50.2853 79.0825 46.1432C79.0825 42.001 82.4403 38.6432 86.5825 38.6432C90.7246 38.6432 94.0825 42.001 94.0825 46.1432Z" fill="#508DFF"/>
</svg>
