<svg width="281" height="267" viewBox="0 0 281 267" fill="none" xmlns="http://www.w3.org/2000/svg">
<path fill-rule="evenodd" clip-rule="evenodd" d="M60.3591 218.244C43.7889 217.446 29.4397 211.872 19.2516 201.116C-11.2116 168.956 7.06272 102.643 60.0684 53.0035C113.074 3.36376 180.739 -10.8059 211.202 21.3546C224.251 35.13 228.357 55.171 224.623 77.4837C248.631 82.7574 266.894 95.2777 273.953 113.949C283.112 138.179 271.212 166.972 245.648 190.714C248.199 195.537 249.621 200.663 249.738 205.994C250.402 236.414 208.273 261.994 155.642 263.13C107.808 264.162 67.7605 244.647 60.3591 218.244Z" fill="#2470FF"/>
<path d="M60.3591 218.244L63.9217 217.245L63.2017 214.676L60.537 214.548L60.3591 218.244ZM19.2516 201.116L16.5654 203.661L16.5654 203.661L19.2516 201.116ZM60.0684 53.0035L62.5976 55.7042L62.5976 55.7042L60.0684 53.0035ZM211.202 21.3546L208.516 23.8991L208.516 23.8991L211.202 21.3546ZM224.623 77.4837L220.974 76.873L220.393 80.3428L223.829 81.0976L224.623 77.4837ZM273.953 113.949L270.492 115.258L270.492 115.258L273.953 113.949ZM245.648 190.714L243.13 188.003L241.05 189.935L242.377 192.444L245.648 190.714ZM249.738 205.994L246.039 206.075L246.039 206.075L249.738 205.994ZM155.642 263.13L155.562 259.431L155.562 259.431L155.642 263.13ZM60.537 214.548C44.6869 213.785 31.3249 208.482 21.9378 198.572L16.5654 203.661C27.5546 215.262 42.8909 221.107 60.1811 221.939L60.537 214.548ZM21.9378 198.572C7.93392 183.788 4.73008 160.71 11.9262 134.598C19.103 108.555 36.5077 80.1373 62.5976 55.7042L57.5393 50.3029C30.6235 75.5095 12.3882 105.068 4.79215 132.632C-2.78449 160.125 0.106118 186.284 16.5654 203.661L21.9378 198.572ZM62.5976 55.7042C88.6869 31.2715 118.262 15.6926 144.847 10.1254C171.509 4.5422 194.505 9.10735 208.516 23.8991L213.889 18.8102C197.436 1.44136 171.368 -2.98893 143.33 2.88251C115.216 8.76995 84.4556 25.0958 57.5393 50.3029L62.5976 55.7042ZM208.516 23.8991C220.52 36.5715 224.585 55.2975 220.974 76.873L228.272 78.0945C232.13 55.0445 227.982 33.6885 213.889 18.8102L208.516 23.8991ZM223.829 81.0976C247.121 86.2141 264.032 98.1695 270.492 115.258L277.414 112.641C269.757 92.3858 250.14 79.3008 225.417 73.8699L223.829 81.0976ZM270.492 115.258C278.867 137.414 268.23 164.693 243.13 188.003L248.165 193.425C274.195 169.252 287.357 138.944 277.414 112.641L270.492 115.258ZM242.377 192.444C244.682 196.802 245.936 201.367 246.039 206.075L253.437 205.913C253.307 199.958 251.715 194.272 248.918 188.984L242.377 192.444ZM246.039 206.075C246.33 219.405 237.23 232.377 220.755 242.381C204.376 252.326 181.346 258.874 155.562 259.431L155.722 266.829C182.569 266.25 206.919 259.44 224.596 248.706C242.177 238.03 253.81 223.002 253.437 205.913L246.039 206.075ZM155.562 259.431C132.138 259.936 110.753 255.402 94.4282 247.634C78.0115 239.821 67.2192 229.008 63.9217 217.245L56.7964 219.242C60.9004 233.882 73.8324 246.028 91.2483 254.316C108.756 262.647 131.311 267.356 155.722 266.829L155.562 259.431Z" fill="black"/>
<path d="M61.0841 131.815C57.1853 143.117 57.1188 154.377 59.9924 163.392C62.866 172.407 68.5696 178.941 76.1274 181.519C83.6851 184.096 92.2215 182.419 100.055 177.056C107.888 171.693 114.787 162.762 118.686 151.46C122.584 140.158 122.651 128.898 119.777 119.883C116.904 110.868 111.2 104.334 103.642 101.756C96.0846 99.1787 87.5482 100.856 79.7148 106.219C71.8814 111.582 64.9829 120.513 61.0841 131.815Z" fill="white" stroke="black" stroke-width="7.40728"/>
<path fill-rule="evenodd" clip-rule="evenodd" d="M80.8728 127.795L96.0403 142.458L74.773 148.444C74.4627 160.524 79.874 170.915 89.2529 174.114C101.776 178.385 116.632 168.215 122.433 151.398C128.234 134.58 122.785 117.485 110.261 113.214C99.9173 109.686 87.9827 116.01 80.8728 127.795Z" fill="black"/>
<path d="M118.604 131.815C114.705 143.117 114.638 154.377 117.512 163.392C120.386 172.407 126.089 178.941 133.647 181.519C141.205 184.096 149.741 182.419 157.574 177.056C165.408 171.693 172.306 162.762 176.205 151.46C180.104 140.158 180.17 128.898 177.297 119.883C174.423 110.868 168.72 104.334 161.162 101.756C153.604 99.1787 145.068 100.856 137.234 106.219C129.401 111.582 122.502 120.513 118.604 131.815Z" fill="white" stroke="black" stroke-width="7.40728"/>
<path fill-rule="evenodd" clip-rule="evenodd" d="M137.279 127.162L152.447 141.826L131.179 147.811C130.869 159.891 136.28 170.283 145.659 173.481C158.183 177.753 173.038 167.582 178.839 150.765C184.641 133.948 179.191 116.852 166.668 112.581C156.324 109.053 144.389 115.377 137.279 127.162Z" fill="black"/>
</svg>
