<svg width="24" height="24" viewBox="0 0 24 24" fill="none" xmlns="http://www.w3.org/2000/svg">
<path d="M12 2.25C10.0716 2.25 8.18657 2.82183 6.58319 3.89317C4.97982 4.96451 3.73013 6.48726 2.99218 8.26884C2.25422 10.0504 2.06114 12.0108 2.43735 13.9021C2.81355 15.7934 3.74215 17.5307 5.10571 18.8943C6.46928 20.2579 8.20656 21.1865 10.0979 21.5627C11.9892 21.9389 13.9496 21.7458 15.7312 21.0078C17.5127 20.2699 19.0355 19.0202 20.1068 17.4168C21.1782 15.8134 21.75 13.9284 21.75 12C21.7473 9.41498 20.7192 6.93661 18.8913 5.10872C17.0634 3.28084 14.585 2.25273 12 2.25Z" fill="#3C3F44"/>
<path d="M8.46938 14.4694L10.9397 12L8.46938 9.53063C8.32865 9.38989 8.24959 9.19902 8.24959 9C8.24959 8.80098 8.32865 8.61011 8.46938 8.46937C8.61011 8.32864 8.80098 8.24958 9 8.24958C9.19903 8.24958 9.3899 8.32864 9.53063 8.46937L12 10.9397L14.4694 8.46937C14.6101 8.32864 14.8009 8.24958 15 8.24958C15.199 8.24958 15.3899 8.32864 15.5306 8.46937C15.6713 8.61011 15.7504 8.80098 15.7504 9C15.7504 9.19902 15.6713 9.38989 15.5306 9.53063L13.0603 12L15.5306 14.4694C15.6713 14.6101 15.7504 14.8009 15.7504 15C15.7504 15.199 15.6713 15.3899 15.5306 15.5306C15.3899 15.6713 15.199 15.7504 15 15.7504C14.8009 15.7504 14.6101 15.6713 14.4694 15.5306L12 13.0603L9.53063 15.5306C9.3899 15.6713 9.19903 15.7504 9 15.7504C8.80098 15.7504 8.61011 15.6713 8.46938 15.5306C8.32865 15.3899 8.24959 15.199 8.24959 15C8.24959 14.8009 8.32865 14.6101 8.46938 14.4694Z" fill="white"/>
</svg>
