<svg width="144" height="144" viewBox="0 0 144 144" fill="none" xmlns="http://www.w3.org/2000/svg">
<g clip-path="url(#clip0_3687_50613)">
<rect width="144" height="144" rx="12" fill="white"/>
<path d="M153.474 148.35C113.084 129.66 122.614 106.717 132.427 97.5818C132.427 97.5818 89.1683 85.1257 77.6697 103.974C69.4299 117.481 72.1434 136.543 72.1434 136.543L153.474 148.35Z" fill="#508DFF" stroke="black" stroke-width="1.5" stroke-linecap="round"/>
<path d="M114.616 106.403C110.737 118.483 109.557 150.348 147.781 151.847" stroke="black" stroke-width="1.5" stroke-linecap="round"/>
<path d="M104.497 103.098C99.0655 114.545 93.7007 145.981 131.352 152.722" stroke="black" stroke-width="1.5" stroke-linecap="round"/>
<path d="M91.9343 101.518C86.503 112.965 81.1382 144.401 118.789 151.142" stroke="black" stroke-width="1.5" stroke-linecap="round"/>
<path fill-rule="evenodd" clip-rule="evenodd" d="M119.984 89.9908C119.608 90.3697 119.311 90.8122 119.088 91.3086C113.566 86.8146 107.619 85.3218 104.894 88.0689C104.39 88.5777 104.026 89.2013 103.796 89.9161C96.511 86.7426 83.7513 91.2492 76.9411 103.031C76.2132 104.291 76.4284 104.132 77.3534 103.449C79.7928 101.649 87.1679 96.206 95.1971 103.525C102.501 110.67 108.929 112.473 112.11 109.267C112.49 108.883 112.791 108.434 113.014 107.929C118.535 112.42 124.48 113.911 127.203 111.165C127.579 110.786 127.877 110.344 128.099 109.847C133.621 114.341 139.569 115.834 142.293 113.087C145.473 109.88 143.057 102.11 136.896 95.7325C130.736 89.3547 123.164 86.784 119.984 89.9908Z" fill="white"/>
<path d="M119.088 91.3086L118.617 91.8907L119.374 92.5063L119.772 91.6189L119.088 91.3086ZM119.984 89.9908L119.451 89.4603L119.451 89.4603L119.984 89.9908ZM104.894 88.0689L105.427 88.5994L105.427 88.5994L104.894 88.0689ZM103.796 89.9161L103.5 90.6045L104.256 90.934L104.509 90.1496L103.796 89.9161ZM76.9411 103.031L76.2925 102.653L76.2925 102.653L76.9411 103.031ZM77.3534 103.449L77.7993 104.054L77.7993 104.054L77.3534 103.449ZM95.1971 103.525L95.7191 102.989L95.7096 102.979L95.6998 102.97L95.1971 103.525ZM112.11 109.267L111.577 108.736L111.577 108.736L112.11 109.267ZM113.014 107.929L113.485 107.347L112.725 106.729L112.329 107.622L113.014 107.929ZM127.203 111.165L126.671 110.635L126.671 110.635L127.203 111.165ZM128.099 109.847L128.57 109.265L127.813 108.65L127.416 109.537L128.099 109.847ZM142.293 113.087L141.76 112.557L141.76 112.557L142.293 113.087ZM136.896 95.7325L136.359 96.2536L136.359 96.2536L136.896 95.7325ZM119.772 91.6189C119.96 91.1993 120.208 90.8326 120.516 90.5213L119.451 89.4603C119.009 89.9067 118.661 90.4251 118.404 90.9984L119.772 91.6189ZM105.427 88.5994C106.528 87.4892 108.377 87.1411 110.774 87.7043C113.153 88.2633 115.919 89.695 118.617 91.8907L119.559 90.7266C116.735 88.4282 113.766 86.8665 111.11 86.2423C108.472 85.6225 105.985 85.9015 104.362 87.5384L105.427 88.5994ZM104.509 90.1496C104.707 89.5349 105.013 89.0164 105.427 88.5994L104.362 87.5384C103.766 88.1389 103.345 88.8678 103.083 89.6825L104.509 90.1496ZM77.5898 103.41C80.9146 97.6574 85.6862 93.6918 90.4969 91.5518C95.3274 89.4031 100.111 89.1281 103.5 90.6045L104.092 89.2276C100.196 87.5306 94.9573 87.9221 89.8841 90.1788C84.7912 92.4443 79.7778 96.6229 76.2925 102.653L77.5898 103.41ZM76.9075 102.844C76.6688 103.02 76.5016 103.143 76.3839 103.22C76.3228 103.26 76.3037 103.269 76.3119 103.265C76.3155 103.264 76.353 103.246 76.4133 103.234C76.4618 103.224 76.621 103.196 76.8101 103.274C76.9131 103.317 77.011 103.385 77.0898 103.48C77.1665 103.572 77.2078 103.668 77.2294 103.746C77.2685 103.887 77.2512 103.996 77.2468 104.023C77.2369 104.083 77.223 104.099 77.2523 104.033C77.3022 103.921 77.407 103.726 77.5898 103.41L76.2925 102.653C76.1113 102.966 75.97 103.223 75.8845 103.414C75.846 103.5 75.792 103.63 75.7688 103.77C75.7577 103.837 75.7404 103.978 75.7861 104.143C75.842 104.344 75.989 104.557 76.2448 104.662C76.4535 104.749 76.6387 104.722 76.7196 104.705C76.8124 104.686 76.8886 104.655 76.9371 104.633C77.0354 104.588 77.1311 104.529 77.2089 104.477C77.369 104.372 77.5756 104.219 77.7993 104.054L76.9075 102.844ZM95.6998 102.97C91.4999 99.142 87.4004 98.6135 84.0204 99.3328C80.6949 100.04 78.1268 101.944 76.9075 102.844L77.7993 104.054C79.0194 103.154 81.3586 101.436 84.3377 100.802C87.2624 100.179 90.8651 100.589 94.6943 104.079L95.6998 102.97ZM111.577 108.736C110.255 110.069 108.187 110.455 105.427 109.563C102.66 108.669 99.3248 106.516 95.7191 102.989L94.675 104.061C98.3728 107.679 101.903 110 104.972 110.992C108.048 111.986 110.784 111.671 112.642 109.797L111.577 108.736ZM112.329 107.622C112.14 108.048 111.89 108.421 111.577 108.736L112.642 109.797C113.091 109.345 113.441 108.819 113.699 108.236L112.329 107.622ZM126.671 110.635C125.57 111.745 123.722 112.093 121.326 111.53C118.947 110.972 116.182 109.541 113.485 107.347L112.544 108.511C115.367 110.808 118.334 112.369 120.99 112.992C123.627 113.611 126.113 113.332 127.736 111.696L126.671 110.635ZM127.416 109.537C127.228 109.957 126.98 110.323 126.671 110.635L127.736 111.696C128.179 111.249 128.526 110.731 128.783 110.157L127.416 109.537ZM141.76 112.557C140.659 113.667 138.81 114.015 136.413 113.452C134.034 112.893 131.268 111.461 128.57 109.265L127.629 110.429C130.453 112.728 133.421 114.289 136.077 114.914C138.715 115.533 141.202 115.254 142.825 113.617L141.76 112.557ZM136.359 96.2536C139.374 99.3748 141.447 102.812 142.382 105.819C143.331 108.871 143.053 111.253 141.76 112.557L142.825 113.617C144.712 111.715 144.817 108.608 143.812 105.378C142.794 102.104 140.579 98.4681 137.434 95.2115L136.359 96.2536ZM120.516 90.5213C121.802 89.225 124.119 88.9716 127.085 89.9785C130.009 90.9713 133.344 93.1319 136.359 96.2536L137.434 95.2115C134.288 91.9553 130.757 89.6417 127.56 88.5564C124.405 87.4852 121.346 87.5498 119.451 89.4603L120.516 90.5213Z" fill="black"/>
<path d="M129.006 147.009C72.4688 144.247 73.3808 79.8469 80.5034 64.2557C80.5034 64.2557 17.1875 54.3225 -0.811915 79.1549C-6.49248 86.9919 -8.04929 111.373 -8.04929 111.373L57.6708 155.341L129.006 147.009Z" fill="#2470FF" stroke="black" stroke-width="1.5" stroke-linecap="round"/>
<path d="M63.9976 75.6819C60.1032 91.5041 60.0062 150.003 111.02 150.003" stroke="black" stroke-width="1.5" stroke-linecap="round"/>
<path d="M13.7576 76.6579C5.57325 92.5638 -4.29417 148.41 57.5331 149.795" stroke="black" stroke-width="1.5" stroke-linecap="round"/>
<path d="M29.4698 79.5851C22.0084 95.7905 14.6868 151.914 76.6022 150.76" stroke="black" stroke-width="1.5" stroke-linecap="round"/>
<path d="M47.8517 72.4117C40.8033 88.7723 34.0976 161.59 96.0117 159.008" stroke="black" stroke-width="1.5" stroke-linecap="round"/>
<path fill-rule="evenodd" clip-rule="evenodd" d="M57.0251 42.0412C56.6397 42.8713 56.4271 43.7472 56.3756 44.6558C44.28 41.4601 33.403 43.12 30.6217 49.1108C30.1024 50.2292 29.8968 51.4309 29.9765 52.6837C15.8824 52.8137 -2.13627 68.6785 -5.93513 91.1529C-6.17708 92.5844 -6.03737 92.3384 -5.38735 91.1941C-3.16382 87.2797 5.03099 72.8532 24.3463 79.0961C41.1223 85.1607 53.0091 83.657 56.2569 76.6614C56.6454 75.8245 56.8584 74.941 56.9076 74.0244C69.0113 77.2272 79.8988 75.5688 82.6816 69.5747C83.067 68.7446 83.2796 67.8687 83.3311 66.9601C95.4268 70.1558 106.304 68.4959 109.085 62.5051C112.333 55.5095 103.312 45.2575 88.9357 39.6065C74.5598 33.9555 60.2729 35.0456 57.0251 42.0412Z" fill="white"/>
<path d="M56.3756 44.6558L56.1763 45.3828L57.0702 45.619L57.1229 44.6886L56.3756 44.6558ZM57.0251 42.0412L56.3475 41.7311L56.3475 41.7311L57.0251 42.0412ZM30.6217 49.1108L29.9441 48.8007L29.9441 48.8007L30.6217 49.1108ZM29.9765 52.6837L29.9735 53.4352L30.7745 53.4278L30.7235 52.6259L29.9765 52.6837ZM-5.93513 91.1529L-5.19725 91.2692L-5.19725 91.2692L-5.93513 91.1529ZM-5.38735 91.1941L-6.03631 90.8283L-6.03631 90.8283L-5.38735 91.1941ZM24.3463 79.0961L24.608 78.3886L24.5961 78.3843L24.5841 78.3804L24.3463 79.0961ZM56.2569 76.6614L56.9346 76.9714L56.9346 76.9714L56.2569 76.6614ZM56.9076 74.0244L57.1073 73.2975L56.2103 73.0602L56.1602 73.9938L56.9076 74.0244ZM82.6816 69.5747L83.3593 69.8848L83.3593 69.8848L82.6816 69.5747ZM83.3311 66.9601L83.5305 66.2331L82.6365 65.9969L82.5838 66.9273L83.3311 66.9601ZM109.085 62.5051L109.763 62.8152L109.763 62.8152L109.085 62.5051ZM88.9357 39.6065L89.2166 38.9062L88.9357 39.6065ZM57.1229 44.6886C57.1692 43.8718 57.3596 43.0904 57.7027 42.3513L56.3475 41.7311C55.9199 42.6521 55.685 43.6226 55.6284 44.6231L57.1229 44.6886ZM31.2993 49.4209C32.5335 46.7626 35.6398 44.9274 40.119 44.1797C44.5687 43.4369 50.2027 43.8046 56.1763 45.3828L56.575 43.9289C50.4529 42.3114 44.6006 41.9111 39.8925 42.6971C35.2141 43.4781 31.4912 45.4682 29.9441 48.8007L31.2993 49.4209ZM30.7235 52.6259C30.6511 51.4888 30.8379 50.4149 31.2993 49.4209L29.9441 48.8007C29.367 50.0436 29.1425 51.373 29.2295 52.7415L30.7235 52.6259ZM-5.19725 91.2692C-3.32561 80.1963 2.04965 70.7528 8.68662 64.0661C15.3375 57.3654 23.186 53.4978 29.9735 53.4352L29.9795 51.9322C22.6729 51.9996 14.465 56.1294 7.63331 63.0122C0.787706 69.9091 -4.74579 79.6351 -6.673 91.0367L-5.19725 91.2692ZM-6.03631 90.8283C-6.2023 91.1205 -6.32375 91.334 -6.4142 91.4791C-6.46027 91.5531 -6.48523 91.5879 -6.49398 91.599C-6.49863 91.6048 -6.48633 91.5881 -6.45893 91.563C-6.44383 91.5492 -6.35374 91.465 -6.19986 91.4192C-6.11231 91.3931 -5.98949 91.3753 -5.84907 91.4045C-5.70414 91.4348 -5.58601 91.5058 -5.49975 91.5893C-5.35005 91.7341 -5.31516 91.8955 -5.30864 91.9251C-5.29147 92.003 -5.30128 92.0399 -5.29624 91.9649C-5.28837 91.8476 -5.25825 91.6301 -5.19725 91.2692L-6.673 91.0367C-6.73298 91.3916 -6.77613 91.68 -6.7898 91.8835C-6.79553 91.9689 -6.80318 92.1198 -6.77041 92.2684C-6.75609 92.3334 -6.71005 92.5193 -6.54577 92.6782C-6.32157 92.8952 -6.02466 92.9291 -5.79159 92.8597C-5.61624 92.8075 -5.50117 92.7068 -5.45756 92.6669C-5.40165 92.6156 -5.35728 92.5631 -5.32626 92.5238C-5.26366 92.4446 -5.20284 92.352 -5.14819 92.2643C-5.03718 92.0862 -4.89741 91.8398 -4.73839 91.5599L-6.03631 90.8283ZM24.5841 78.3804C14.7047 75.1873 7.58283 77.27 2.64777 80.7213C-2.24527 84.1431 -4.92044 88.8639 -6.03631 90.8283L-4.73839 91.5599C-3.63072 89.6099 -1.09673 85.1602 3.49234 81.9509C8.03938 78.771 14.6725 76.7619 24.1084 79.8117L24.5841 78.3804ZM55.5793 76.3513C54.1164 79.5023 50.6539 81.5479 45.3177 82.0278C39.9891 82.5069 32.9372 81.3996 24.608 78.3886L24.0845 79.8035C32.5314 82.8571 39.8109 84.0302 45.4316 83.5248C51.0448 83.0201 55.1497 80.816 56.9346 76.9714L55.5793 76.3513ZM56.1602 73.9938C56.116 74.818 55.9252 75.6061 55.5793 76.3513L56.9346 76.9714C57.3657 76.0429 57.6008 75.064 57.655 74.0549L56.1602 73.9938ZM82.004 69.2646C80.7692 71.9244 77.6601 73.7601 73.1769 74.5071C68.7235 75.249 63.0848 74.8793 57.1073 73.2975L56.7079 74.7513C62.8342 76.3724 68.691 76.7748 73.4029 75.9897C78.0852 75.2097 81.8112 73.2192 83.3593 69.8848L82.004 69.2646ZM82.5838 66.9273C82.5376 67.7441 82.3471 68.5255 82.004 69.2646L83.3593 69.8848C83.7869 68.9638 84.0217 67.9933 84.0783 66.9928L82.5838 66.9273ZM108.407 62.195C107.173 64.8533 104.067 66.6885 99.5877 67.4362C95.1381 68.179 89.504 67.8113 83.5305 66.2331L83.1317 67.687C89.2539 69.3045 95.1061 69.7048 99.8142 68.9188C104.493 68.1379 108.215 66.1477 109.763 62.8152L108.407 62.195ZM88.6549 40.3068C95.7607 43.1 101.503 47.0165 105.056 51.0533C108.641 55.1275 109.837 59.1157 108.407 62.195L109.763 62.8152C111.581 58.8989 109.891 54.2633 106.183 50.0498C102.443 45.799 96.4867 41.764 89.2166 38.9062L88.6549 40.3068ZM57.7027 42.3513C59.1459 39.2428 63.1558 37.2655 68.8543 36.8307C74.4971 36.4002 81.5505 37.5141 88.6549 40.3068L89.2166 38.9062C81.945 36.0479 74.667 34.8814 68.7605 35.332C62.9095 35.7784 58.1521 37.8439 56.3475 41.7311L57.7027 42.3513Z" fill="black"/>
<path d="M101.062 154.861C46.2525 137.828 54.7506 107.548 65.8509 94.5368C65.8509 94.5368 7.38141 86.3865 -4.30447 111.845C-12.6785 130.088 -5.11829 152.95 -5.11829 152.95L101.062 154.861Z" fill="#004BD8" stroke="black" stroke-width="1.5" stroke-linecap="round"/>
<path d="M44.5234 108.429C41.5092 124.193 45.1611 164.336 94.4081 160.155" stroke="black" stroke-width="1.5" stroke-linecap="round"/>
<path d="M31.0094 105.899C25.902 121.114 24.1202 161.384 73.482 163.866" stroke="black" stroke-width="1.5" stroke-linecap="round"/>
<path d="M14.5602 105.899C9.45276 121.114 7.67098 161.384 57.0328 163.866" stroke="black" stroke-width="1.5" stroke-linecap="round"/>
<path fill-rule="evenodd" clip-rule="evenodd" d="M48.703 87.0008C48.2786 87.5407 47.9668 88.1495 47.7621 88.8149C39.9531 84.0533 32.0845 83.1235 29.0368 87.0008C28.4721 87.7192 28.1068 88.5595 27.9277 89.493C18.0768 86.6281 2.40748 94.3014 -4.42491 110.182C-5.154 111.877 -4.90378 111.643 -3.82858 110.641C-0.993141 107.997 7.57961 100.002 19.0595 107.907C29.5809 115.708 38.1154 116.95 41.6725 112.425C42.1015 111.879 42.4155 111.263 42.6201 110.589C50.4408 115.37 58.3289 116.308 61.3813 112.425C61.8057 111.885 62.1174 111.276 62.3222 110.611C70.1311 115.372 77.9997 116.302 81.0475 112.425C84.6045 107.9 80.2476 98.5397 71.3159 91.519C62.3842 84.4984 52.2601 82.4755 48.703 87.0008Z" fill="white"/>
<path d="M47.7621 88.8149L47.3716 89.4553L48.1952 89.9575L48.4789 89.0355L47.7621 88.8149ZM48.703 87.0008L49.2926 87.4643L49.2926 87.4643L48.703 87.0008ZM29.0368 87.0008L29.6264 87.4643L29.6264 87.4643L29.0368 87.0008ZM27.9277 89.493L27.7182 90.2132L28.509 90.4431L28.6642 89.6343L27.9277 89.493ZM-4.42491 110.182L-3.73597 110.479L-3.73597 110.479L-4.42491 110.182ZM-3.82858 110.641L-4.34009 110.092L-4.34009 110.092L-3.82858 110.641ZM19.0595 107.907L19.5063 107.304L19.4957 107.296L19.4849 107.289L19.0595 107.907ZM41.6725 112.425L42.2621 112.888L42.2621 112.888L41.6725 112.425ZM42.6201 110.589L43.0113 109.949L42.1841 109.443L41.9024 110.371L42.6201 110.589ZM61.3813 112.425L60.7916 111.961L60.7916 111.961L61.3813 112.425ZM62.3222 110.611L62.7126 109.97L61.8891 109.468L61.6054 110.39L62.3222 110.611ZM81.0475 112.425L80.4578 111.961L80.4578 111.961L81.0475 112.425ZM71.3159 91.519L71.7794 90.9294L71.7794 90.9294L71.3159 91.519ZM48.4789 89.0355C48.6581 88.4531 48.9284 87.9277 49.2926 87.4643L48.1134 86.5373C47.6288 87.1538 47.2755 87.846 47.0452 88.5944L48.4789 89.0355ZM29.6264 87.4643C30.9207 85.8177 33.3296 85.0834 36.537 85.4143C39.7226 85.743 43.5356 87.1162 47.3716 89.4553L48.1525 88.1746C44.1796 85.752 40.1538 84.2795 36.6909 83.9222C33.2498 83.5672 30.2006 84.3066 28.4471 86.5373L29.6264 87.4643ZM28.6642 89.6343C28.8231 88.8067 29.1427 88.0796 29.6264 87.4643L28.4471 86.5373C27.8014 87.3588 27.3906 88.3124 27.1911 89.3516L28.6642 89.6343ZM-3.73597 110.479C-0.384557 102.689 5.13084 96.9206 11.0008 93.4537C16.8889 89.9762 23.0528 88.8563 27.7182 90.2132L28.1371 88.7728C22.9516 87.2648 16.3554 88.5492 10.238 92.1622C4.10257 95.7859 -1.63287 101.795 -5.11386 109.886L-3.73597 110.479ZM-4.34009 110.092C-4.6157 110.349 -4.81503 110.535 -4.95873 110.655C-4.99279 110.683 -5.01968 110.705 -5.04039 110.72C-5.06196 110.736 -5.07102 110.742 -5.06991 110.741C-5.06891 110.741 -5.06231 110.737 -5.05082 110.731C-5.03978 110.726 -5.01897 110.716 -4.98991 110.706C-4.94781 110.692 -4.80043 110.648 -4.61047 110.698C-4.50688 110.726 -4.40358 110.779 -4.31459 110.86C-4.22776 110.939 -4.17456 111.027 -4.143 111.101C-4.08591 111.234 -4.0898 111.343 -4.09072 111.366C-4.09277 111.418 -4.10191 111.421 -4.07418 111.332C-4.02507 111.174 -3.91891 110.904 -3.73597 110.479L-5.11386 109.886C-5.29545 110.308 -5.43142 110.644 -5.50685 110.888C-5.54139 110.999 -5.58341 111.152 -5.58954 111.307C-5.5925 111.381 -5.59122 111.53 -5.52185 111.692C-5.43727 111.889 -5.26071 112.077 -4.99624 112.148C-4.77983 112.205 -4.59894 112.157 -4.51637 112.13C-4.42274 112.098 -4.34584 112.056 -4.2941 112.025C-4.18973 111.962 -4.08647 111.881 -3.99704 111.806C-3.81422 111.653 -3.57907 111.434 -3.31708 111.189L-4.34009 110.092ZM19.4849 107.289C13.5425 103.197 8.28071 103.193 4.13173 104.608C0.0325879 106.006 -2.92192 108.77 -4.34009 110.092L-3.31708 111.189C-1.8998 109.868 0.849782 107.312 4.61586 106.028C8.3321 104.761 13.0966 104.711 18.6342 108.524L19.4849 107.289ZM41.0828 111.961C39.54 113.924 36.8516 114.742 33.114 114.051C29.3737 113.359 24.7155 111.167 19.5063 107.304L18.6128 108.509C23.925 112.448 28.7947 114.777 32.8412 115.526C36.8905 116.275 40.2478 115.451 42.2621 112.888L41.0828 111.961ZM41.9024 110.371C41.7233 110.961 41.451 111.493 41.0828 111.961L42.2621 112.888C42.752 112.265 43.1077 111.565 43.3377 110.807L41.9024 110.371ZM60.7916 111.961C59.4953 113.611 57.081 114.345 53.8665 114.01C50.6739 113.677 46.8531 112.297 43.0113 109.949L42.2289 111.229C46.2077 113.661 50.2414 115.141 53.7111 115.502C57.1589 115.861 60.2148 115.122 61.9709 112.888L60.7916 111.961ZM61.6054 110.39C61.4261 110.973 61.1559 111.498 60.7916 111.961L61.9709 112.888C62.4555 112.272 62.8087 111.58 63.039 110.831L61.6054 110.39ZM80.4578 111.961C79.1635 113.608 76.7546 114.342 73.5473 114.011C70.3616 113.683 66.5487 112.309 62.7126 109.97L61.9317 111.251C65.9046 113.674 69.9305 115.146 73.3933 115.503C76.8344 115.859 79.8837 115.119 81.6371 112.888L80.4578 111.961ZM70.8524 92.1087C75.2455 95.5618 78.4833 99.5685 80.185 103.224C81.9066 106.923 81.9694 110.038 80.4578 111.961L81.6371 112.888C83.6826 110.286 83.3454 106.459 81.5449 102.591C79.7245 98.6805 76.318 94.4969 71.7794 90.9294L70.8524 92.1087ZM49.2926 87.4643C50.8043 85.5412 53.8465 84.8663 57.847 85.6656C61.8012 86.4557 66.4594 88.6555 70.8524 92.1087L71.7794 90.9294C67.2408 87.3618 62.371 85.0399 58.1409 84.1947C53.9572 83.3588 50.1588 83.9351 48.1133 86.5373L49.2926 87.4643Z" fill="black"/>
<circle cx="94.3652" cy="22.3652" r="4.36521" fill="white" stroke="black" stroke-width="1.5"/>
<circle cx="124.848" cy="30.8596" r="6.85962" fill="white" stroke="black" stroke-width="1.5"/>
<circle cx="120.426" cy="53.3006" r="5.30062" fill="white" stroke="black" stroke-width="1.5"/>
</g>
<defs>
<clipPath id="clip0_3687_50613">
<rect width="144" height="144" rx="12" fill="white"/>
</clipPath>
</defs>
</svg>
