<svg width="24" height="24" viewBox="0 0 24 24" fill="none" xmlns="http://www.w3.org/2000/svg">
<path d="M20.5153 9.72855L13.0153 2.6523C13.0116 2.6491 13.0082 2.64566 13.005 2.64199C12.7289 2.39086 12.369 2.25171 11.9958 2.25171C11.6225 2.25171 11.2627 2.39086 10.9866 2.64199L10.9763 2.6523L3.48469 9.72855C3.33187 9.86907 3.20989 10.0398 3.12646 10.2299C3.04303 10.42 2.99997 10.6253 3 10.8329V19.5001C3 19.8979 3.15804 20.2795 3.43934 20.5608C3.72064 20.8421 4.10218 21.0001 4.5 21.0001H9C9.39782 21.0001 9.77936 20.8421 10.0607 20.5608C10.342 20.2795 10.5 19.8979 10.5 19.5001V15.0001H13.5V19.5001C13.5 19.8979 13.658 20.2795 13.9393 20.5608C14.2206 20.8421 14.6022 21.0001 15 21.0001H19.5C19.8978 21.0001 20.2794 20.8421 20.5607 20.5608C20.842 20.2795 21 19.8979 21 19.5001V10.8329C21 10.6253 20.957 10.42 20.8735 10.2299C20.7901 10.0398 20.6681 9.86907 20.5153 9.72855ZM19.5 19.5001H15V15.0001C15 14.6023 14.842 14.2208 14.5607 13.9395C14.2794 13.6582 13.8978 13.5001 13.5 13.5001H10.5C10.1022 13.5001 9.72064 13.6582 9.43934 13.9395C9.15804 14.2208 9 14.6023 9 15.0001V19.5001H4.5V10.8329L4.51031 10.8236L12 3.75011L19.4906 10.8217L19.5009 10.8311L19.5 19.5001Z" fill="#838A94"/>
</svg>
