<svg width="25" height="24" viewBox="0 0 25 24" fill="none" xmlns="http://www.w3.org/2000/svg">
<path d="M22.2 15.9C22.0702 15.8026 21.9123 15.75 21.75 15.75H21V6C21 5.20435 20.6839 4.44129 20.1213 3.87868C19.5587 3.31607 18.7956 3 18 3H5.25C4.45435 3 3.69129 3.31607 3.12868 3.87868C2.56607 4.44129 2.25 5.20435 2.25 6C2.25 7.27594 3.19219 8.01938 3.3 8.1C3.42947 8.19804 3.5876 8.25076 3.75 8.25C3.90631 8.24957 4.05858 8.20032 4.18553 8.10912C4.31248 8.01792 4.40776 7.88933 4.45806 7.74133C4.50836 7.59333 4.51115 7.43332 4.46606 7.28365C4.42097 7.13398 4.33024 7.00215 4.20656 6.90656C4.20281 6.90187 3.75 6.53812 3.75 6C3.75 5.60218 3.90804 5.22064 4.18934 4.93934C4.47064 4.65804 4.85218 4.5 5.25 4.5C5.64782 4.5 6.02936 4.65804 6.31066 4.93934C6.59196 5.22064 6.75 5.60218 6.75 6V18C6.75 18.7956 7.06607 19.5587 7.62868 20.1213C8.19129 20.6839 8.95435 21 9.75 21H20.25C21.0456 21 21.8087 20.6839 22.3713 20.1213C22.9339 19.5587 23.25 18.7956 23.25 18C23.25 16.7241 22.3125 15.9806 22.2 15.9ZM11.25 9H17.25C17.4489 9 17.6397 9.07902 17.7803 9.21967C17.921 9.36032 18 9.55109 18 9.75C18 9.94891 17.921 10.1397 17.7803 10.2803C17.6397 10.421 17.4489 10.5 17.25 10.5H11.25C11.0511 10.5 10.8603 10.421 10.7197 10.2803C10.579 10.1397 10.5 9.94891 10.5 9.75C10.5 9.55109 10.579 9.36032 10.7197 9.21967C10.8603 9.07902 11.0511 9 11.25 9ZM10.5 12.75C10.5 12.5511 10.579 12.3603 10.7197 12.2197C10.8603 12.079 11.0511 12 11.25 12H17.25C17.4489 12 17.6397 12.079 17.7803 12.2197C17.921 12.3603 18 12.5511 18 12.75C18 12.9489 17.921 13.1397 17.7803 13.2803C17.6397 13.421 17.4489 13.5 17.25 13.5H11.25C11.0511 13.5 10.8603 13.421 10.7197 13.2803C10.579 13.1397 10.5 12.9489 10.5 12.75ZM20.25 19.5H11.5978C11.862 19.0443 12.0007 18.5267 12 18C12.0002 17.7457 11.9619 17.4929 11.8866 17.25H21.4491C21.6352 17.4565 21.7425 17.7221 21.7519 18C21.7519 18.1971 21.713 18.3923 21.6375 18.5745C21.562 18.7566 21.4514 18.922 21.3119 19.0613C21.1724 19.2006 21.0068 19.3111 20.8246 19.3864C20.6424 19.4616 20.4471 19.5002 20.25 19.5Z" fill="#3C3F44"/>
</svg>
