<svg width="512" height="512" viewBox="0 0 512 512" fill="none" xmlns="http://www.w3.org/2000/svg">
<rect width="512" height="512" fill="white"/>
<mask id="path-1-inside-1_3379_48197" fill="white">
<path fill-rule="evenodd" clip-rule="evenodd" d="M135.43 382.744C111.464 381.579 90.7109 373.469 75.9744 357.823C31.8978 311.026 58.3385 214.533 135.032 142.302C211.725 70.0701 309.628 49.4515 353.704 96.2489C372.585 116.294 378.526 145.458 373.121 177.927C407.858 185.601 434.283 203.82 444.496 230.989C457.75 266.25 440.527 308.154 403.528 342.703C407.216 349.718 409.272 357.172 409.44 364.925C410.401 409.19 349.446 446.413 273.295 448.065C204.081 449.567 146.135 421.167 135.43 382.744Z"/>
</mask>
<path fill-rule="evenodd" clip-rule="evenodd" d="M135.43 382.744C111.464 381.579 90.7109 373.469 75.9744 357.823C31.8978 311.026 58.3385 214.533 135.032 142.302C211.725 70.0701 309.628 49.4515 353.704 96.2489C372.585 116.294 378.526 145.458 373.121 177.927C407.858 185.601 434.283 203.82 444.496 230.989C457.75 266.25 440.527 308.154 403.528 342.703C407.216 349.718 409.272 357.172 409.44 364.925C410.401 409.19 349.446 446.413 273.295 448.065C204.081 449.567 146.135 421.167 135.43 382.744Z" fill="#2470FF"/>
<path d="M135.43 382.744L145.754 379.868L143.678 372.415L135.95 372.04L135.43 382.744ZM75.9744 357.823L68.1727 365.171L68.1727 365.171L75.9744 357.823ZM135.032 142.302L127.684 134.5L127.684 134.5L135.032 142.302ZM353.704 96.2489L345.903 103.597L345.903 103.597L353.704 96.2489ZM373.121 177.927L362.55 176.168L360.88 186.199L370.809 188.392L373.121 177.927ZM444.496 230.989L434.464 234.76L434.464 234.76L444.496 230.989ZM403.528 342.703L396.214 334.87L390.237 340.452L394.042 347.69L403.528 342.703ZM409.44 364.925L398.725 365.158L398.725 365.158L409.44 364.925ZM273.295 448.065L273.527 458.78L273.295 448.065ZM135.95 372.04C114.087 370.977 96.1975 363.663 83.7762 350.475L68.1727 365.171C85.2244 383.275 108.842 392.182 134.91 393.449L135.95 372.04ZM83.7762 350.475C65.2718 330.828 60.407 299.451 70.5507 262.432C80.6368 225.625 105.227 185.095 142.38 150.104L127.684 134.5C88.1428 171.741 61.1664 215.572 49.878 256.768C38.6473 297.753 42.6004 338.02 68.1727 365.171L83.7762 350.475ZM142.38 150.104C179.532 115.112 221.461 92.9919 258.808 85.1267C296.367 77.2166 327.398 83.9503 345.903 103.597L361.506 88.9008C335.934 61.7501 295.975 55.3944 254.39 64.1521C212.593 72.9548 167.224 97.2594 127.684 134.5L142.38 150.104ZM345.903 103.597C361.774 120.448 367.602 145.816 362.55 176.168L383.693 179.687C389.45 145.1 383.395 112.141 361.506 88.9008L345.903 103.597ZM370.809 188.392C403.45 195.603 425.972 212.168 434.464 234.76L454.528 227.218C442.594 195.471 412.265 175.599 375.433 167.462L370.809 188.392ZM434.464 234.76C445.473 264.05 431.859 301.584 396.214 334.87L410.843 350.536C449.195 314.723 470.026 268.45 454.528 227.218L434.464 234.76ZM394.042 347.69C397.023 353.362 398.596 359.2 398.725 365.158L420.155 364.693C419.948 355.145 417.408 346.073 413.015 337.716L394.042 347.69ZM398.725 365.158C399.088 381.878 387.719 399.27 364.699 413.328C341.945 427.223 309.588 436.558 273.062 437.35L273.527 458.78C313.153 457.92 349.349 447.817 375.87 431.621C402.125 415.589 420.753 392.237 420.155 364.693L398.725 365.158ZM273.062 437.35C239.894 438.07 209.806 431.601 187.048 420.709C164.032 409.693 149.949 394.925 145.754 379.868L125.106 385.621C131.616 408.986 151.858 427.629 177.794 440.043C203.99 452.581 237.482 459.562 273.527 458.78L273.062 437.35Z" fill="black" mask="url(#path-1-inside-1_3379_48197)"/>
<path d="M136.504 256.983C130.859 273.439 130.763 289.834 134.923 302.958C139.083 316.083 147.337 325.587 158.264 329.335C169.19 333.082 181.54 330.646 192.881 322.837C204.22 315.03 214.208 302.027 219.852 285.571C225.497 269.115 225.593 252.72 221.433 239.596C217.273 226.471 209.019 216.967 198.092 213.22C187.166 209.472 174.816 211.908 163.476 219.717C152.136 227.525 142.148 240.527 136.504 256.983Z" fill="white" stroke="black" stroke-width="10.7174"/>
<path fill-rule="evenodd" clip-rule="evenodd" d="M165.199 251.149L187.142 272.485L156.377 281.193C155.929 298.77 163.758 313.889 177.328 318.543C195.448 324.758 216.942 309.959 225.335 285.488C233.729 261.017 225.844 236.141 207.724 229.926C192.756 224.792 175.486 233.997 165.199 251.149Z" fill="black"/>
<path d="M219.699 256.983C214.054 273.439 213.959 289.834 218.118 302.958C222.279 316.083 230.533 325.587 241.459 329.335C252.386 333.082 264.735 330.646 276.076 322.837C287.416 315.03 297.403 302.027 303.048 285.571C308.692 269.115 308.788 252.72 304.629 239.596C300.468 226.471 292.214 216.967 281.288 213.22C270.361 209.472 258.012 211.908 246.671 219.717C235.331 227.525 225.344 240.527 219.699 256.983Z" fill="white" stroke="black" stroke-width="10.7174"/>
<path fill-rule="evenodd" clip-rule="evenodd" d="M246.801 250.21L268.744 271.545L237.979 280.253C237.53 297.83 245.36 312.949 258.929 317.604C277.049 323.819 298.543 309.019 306.937 284.548C315.331 260.077 307.446 235.201 289.326 228.986C274.358 223.852 257.087 233.058 246.801 250.21Z" fill="black"/>
</svg>
