<svg width="18" height="18" viewBox="0 0 18 18" fill="none" xmlns="http://www.w3.org/2000/svg">
<path d="M9.00391 1.5C8.01899 1.5 7.04372 1.69399 6.13378 2.0709C5.22384 2.44781 4.39704 3.00026 3.70061 3.6967C2.29408 5.10322 1.50391 7.01088 1.50391 9C1.50391 12.315 3.65641 15.1275 6.63391 16.125C7.00891 16.185 7.12891 15.9525 7.12891 15.75V14.4825C5.05141 14.9325 4.60891 13.4775 4.60891 13.4775C4.26391 12.6075 3.77641 12.375 3.77641 12.375C3.09391 11.91 3.82891 11.925 3.82891 11.925C4.57891 11.9775 4.97641 12.6975 4.97641 12.6975C5.62891 13.8375 6.73141 13.5 7.15891 13.32C7.22641 12.8325 7.42141 12.5025 7.63141 12.315C5.96641 12.1275 4.21891 11.4825 4.21891 8.625C4.21891 7.7925 4.50391 7.125 4.99141 6.5925C4.91641 6.405 4.65391 5.625 5.06641 4.6125C5.06641 4.6125 5.69641 4.41 7.12891 5.3775C7.72141 5.2125 8.36641 5.13 9.00391 5.13C9.64141 5.13 10.2864 5.2125 10.8789 5.3775C12.3114 4.41 12.9414 4.6125 12.9414 4.6125C13.3539 5.625 13.0914 6.405 13.0164 6.5925C13.5039 7.125 13.7889 7.7925 13.7889 8.625C13.7889 11.49 12.0339 12.12 10.3614 12.3075C10.6314 12.54 10.8789 12.9975 10.8789 13.695V15.75C10.8789 15.9525 10.9989 16.1925 11.3814 16.125C14.3589 15.12 16.5039 12.315 16.5039 9C16.5039 8.01509 16.3099 7.03982 15.933 6.12987C15.5561 5.21993 15.0036 4.39314 14.3072 3.6967C13.6108 3.00026 12.784 2.44781 11.874 2.0709C10.9641 1.69399 9.98882 1.5 9.00391 1.5Z" fill="#F9F9FA"/>
</svg>
