<svg width="1404" height="320" viewBox="0 0 1404 320" fill="none" xmlns="http://www.w3.org/2000/svg">
<mask id="path-1-inside-1_3687_50726" fill="white">
<path fill-rule="evenodd" clip-rule="evenodd" d="M76.3608 247.243C59.7906 246.446 45.4414 240.872 35.2533 230.116C4.79011 197.955 23.0644 131.643 76.0701 82.0034C129.076 32.3636 196.741 18.1939 227.204 50.3545C240.252 64.1298 244.359 84.1708 240.624 106.484C264.632 111.757 282.896 124.278 289.954 142.949C299.114 167.179 287.214 195.972 261.649 219.714C264.2 224.537 265.623 229.663 265.74 234.994C266.403 265.414 224.275 290.994 171.644 292.13C123.809 293.162 83.7622 273.646 76.3608 247.243Z"/>
</mask>
<path fill-rule="evenodd" clip-rule="evenodd" d="M76.3608 247.243C59.7906 246.446 45.4414 240.872 35.2533 230.116C4.79011 197.955 23.0644 131.643 76.0701 82.0034C129.076 32.3636 196.741 18.1939 227.204 50.3545C240.252 64.1298 244.359 84.1708 240.624 106.484C264.632 111.757 282.896 124.278 289.954 142.949C299.114 167.179 287.214 195.972 261.649 219.714C264.2 224.537 265.623 229.663 265.74 234.994C266.403 265.414 224.275 290.994 171.644 292.13C123.809 293.162 83.7622 273.646 76.3608 247.243Z" fill="#2470FF"/>
<path d="M76.3608 247.243L83.4993 245.232L82.0625 240.107L76.736 239.85L76.3608 247.243ZM35.2533 230.116L40.6444 225.023L40.6444 225.023L35.2533 230.116ZM76.0701 82.0034L71.0065 76.6101L76.0701 82.0034ZM227.204 50.3545L232.595 45.261L232.595 45.261L227.204 50.3545ZM240.624 106.484L233.313 105.281L232.154 112.206L239.015 113.713L240.624 106.484ZM289.954 142.949L296.89 140.32L296.89 140.32L289.954 142.949ZM261.649 219.714L256.608 214.3L252.441 218.17L255.093 223.184L261.649 219.714ZM265.74 234.994L258.329 235.173L258.329 235.173L265.74 234.994ZM171.644 292.13L171.785 299.53L171.644 292.13ZM76.736 239.85C61.6112 239.122 49.2348 234.092 40.6444 225.023L29.8622 235.209C41.6481 247.652 57.9699 253.769 75.9855 254.637L76.736 239.85ZM40.6444 225.023C27.8595 211.525 24.5026 189.98 31.5074 164.562C38.4739 139.282 55.4612 111.439 81.1337 87.3967L71.0065 76.6101C43.6733 102.208 25.0206 132.34 17.2143 160.667C9.44637 188.855 12.184 216.546 29.8622 235.209L40.6444 225.023ZM81.1337 87.3967C106.805 63.3552 135.781 48.1536 161.595 42.7481C187.557 37.3113 209.017 41.939 221.813 55.4479L232.595 45.261C214.928 26.6094 187.324 22.2416 158.586 28.2595C129.7 34.3086 98.3406 51.0118 71.0065 76.6101L81.1337 87.3967ZM221.813 55.4479C232.779 67.0251 236.801 84.4439 233.313 105.281L247.935 107.686C251.917 83.8978 247.725 61.2345 232.595 45.261L221.813 55.4479ZM239.015 113.713C261.587 118.671 277.153 130.062 283.019 145.578L296.89 140.32C288.639 118.493 267.677 104.843 242.234 99.2543L239.015 113.713ZM283.019 145.578C290.614 165.671 281.232 191.431 256.608 214.3L266.69 225.129C293.196 200.513 307.613 168.687 296.89 140.32L283.019 145.578ZM255.093 223.184C257.154 227.081 258.24 231.088 258.329 235.173L273.15 234.814C273.007 228.238 271.246 221.993 268.205 216.244L255.093 223.184ZM258.329 235.173C258.579 246.624 250.748 258.56 234.837 268.221C219.114 277.769 196.751 284.185 171.502 284.729L171.785 299.53C199.168 298.939 224.184 291.997 242.517 280.865C260.662 269.847 273.564 253.783 273.15 234.814L258.329 235.173ZM171.502 284.729C148.575 285.224 127.776 280.779 112.042 273.291C96.1259 265.717 86.3962 255.566 83.4993 245.232L69.2223 249.255C73.7268 265.324 87.7215 278.132 105.638 286.658C123.737 295.271 146.878 300.067 171.785 299.53L171.502 284.729Z" fill="black" mask="url(#path-1-inside-1_3687_50726)"/>
<path d="M77.0841 160.817C73.1853 172.119 73.1188 183.379 75.9924 192.394C78.866 201.409 84.5696 207.943 92.1274 210.521C99.6851 213.098 108.221 211.421 116.055 206.058C123.888 200.695 130.787 191.764 134.686 180.462C138.584 169.16 138.651 157.9 135.777 148.885C132.904 139.87 127.2 133.336 119.642 130.758C112.085 128.181 103.548 129.858 95.7148 135.221C87.8814 140.584 80.9829 149.515 77.0841 160.817Z" fill="white" stroke="black" stroke-width="7.40728"/>
<path fill-rule="evenodd" clip-rule="evenodd" d="M96.8728 156.795L112.04 171.458L90.773 177.444C90.4627 189.524 95.874 199.915 105.253 203.114C117.776 207.385 132.632 197.215 138.433 180.398C144.234 163.58 138.785 146.485 126.261 142.214C115.917 138.686 103.983 145.01 96.8728 156.795Z" fill="black"/>
<path d="M134.604 160.817C130.705 172.119 130.638 183.379 133.512 192.394C136.386 201.409 142.089 207.943 149.647 210.521C157.205 213.098 165.741 211.421 173.574 206.058C181.408 200.695 188.306 191.764 192.205 180.462C196.104 169.16 196.17 157.9 193.297 148.885C190.423 139.87 184.72 133.336 177.162 130.758C169.604 128.181 161.068 129.858 153.234 135.221C145.401 140.584 138.502 149.515 134.604 160.817Z" fill="white" stroke="black" stroke-width="7.40728"/>
<path fill-rule="evenodd" clip-rule="evenodd" d="M153.279 156.162L168.447 170.826L147.179 176.811C146.869 188.891 152.28 199.283 161.659 202.481C174.183 206.753 189.038 196.582 194.839 179.765C200.641 162.948 195.191 145.852 182.668 141.581C172.324 138.053 160.389 144.377 153.279 156.162Z" fill="black"/>
<path d="M1309.39 56C1328.93 56 1345.86 59.4421 1360.17 66.3262C1374.47 73.0137 1385.35 82.5532 1392.81 94.9447C1400.27 107.336 1403.99 121.793 1403.99 138.315C1403.99 145.789 1403.29 152.968 1401.88 159.852C1398.25 179.915 1390.39 197.814 1378.3 213.549C1366.41 229.284 1351.2 241.676 1332.66 250.723C1314.32 259.574 1293.97 264 1271.61 264H1187.28L1225.06 56H1309.39ZM1276.44 213.254C1293.77 213.254 1308.18 208.632 1319.66 199.387C1331.15 189.946 1338.5 176.768 1341.73 159.852C1342.53 155.919 1342.94 151.69 1342.94 147.166C1342.94 133.988 1338.81 123.858 1330.55 116.777C1322.28 109.696 1310.7 106.156 1295.79 106.156H1275.54L1255.89 213.254H1276.44Z" fill="black"/>
<path d="M1105 101.73L1098.95 136.25H1166.96L1158.8 180.21H1090.79L1083.84 217.974H1160.91L1152.75 264H1016.13L1053.91 56H1190.23L1182.07 101.73H1105Z" fill="black"/>
<path d="M872.675 56L893.833 205.878L969.094 56H1032.26L921.035 264H845.472L809.504 56H872.675Z" fill="black"/>
<path d="M738.229 230.071H662.666L645.135 264H582.871L698.03 56H766.339L806.237 264H743.67L738.229 230.071ZM731.278 186.111L720.699 118.548L685.637 186.111H731.278Z" fill="black"/>
<path d="M640.895 56L551.126 264H478.283L471.936 136.25L418.739 264H345.896L331.992 56H396.07L395.465 198.207L454.405 56H519.389L526.341 197.617L576.818 56H640.895Z" fill="black"/>
</svg>
