<svg width="14" height="14" viewBox="0 0 14 14" fill="none" xmlns="http://www.w3.org/2000/svg">
<path d="M12.5407 6.83333C12.5407 6.99909 12.4748 7.15806 12.3576 7.27527C12.2404 7.39248 12.0814 7.45833 11.9157 7.45833H2.74902C2.58326 7.45833 2.42429 7.39248 2.30708 7.27527C2.18987 7.15806 2.12402 6.99909 2.12402 6.83333C2.12402 6.66757 2.18987 6.5086 2.30708 6.39139C2.42429 6.27418 2.58326 6.20833 2.74902 6.20833H11.9157C12.0814 6.20833 12.2404 6.27418 12.3576 6.39139C12.4748 6.5086 12.5407 6.66757 12.5407 6.83333ZM2.74902 4.125H11.9157C12.0814 4.125 12.2404 4.05915 12.3576 3.94194C12.4748 3.82473 12.5407 3.66576 12.5407 3.5C12.5407 3.33424 12.4748 3.17527 12.3576 3.05806C12.2404 2.94085 12.0814 2.875 11.9157 2.875H2.74902C2.58326 2.875 2.42429 2.94085 2.30708 3.05806C2.18987 3.17527 2.12402 3.33424 2.12402 3.5C2.12402 3.66576 2.18987 3.82473 2.30708 3.94194C2.42429 4.05915 2.58326 4.125 2.74902 4.125ZM11.9157 9.54167H2.74902C2.58326 9.54167 2.42429 9.60751 2.30708 9.72472C2.18987 9.84193 2.12402 10.0009 2.12402 10.1667C2.12402 10.3324 2.18987 10.4914 2.30708 10.6086C2.42429 10.7258 2.58326 10.7917 2.74902 10.7917H11.9157C12.0814 10.7917 12.2404 10.7258 12.3576 10.6086C12.4748 10.4914 12.5407 10.3324 12.5407 10.1667C12.5407 10.0009 12.4748 9.84193 12.3576 9.72472C12.2404 9.60751 12.0814 9.54167 11.9157 9.54167Z" fill="#E9F1FF"/>
</svg>
