<svg width="360" height="80" viewBox="0 0 360 80" fill="none" xmlns="http://www.w3.org/2000/svg">
<mask id="path-1-inside-1_3687_50726" fill="white">
<path fill-rule="evenodd" clip-rule="evenodd" d="M19.0908 61.8069C14.9459 61.6084 11.3565 60.2149 8.80835 57.5248C1.19247 49.4847 5.7611 32.9067 19.0127 20.4968C32.2642 8.08696 49.1807 4.54455 56.7965 12.5846C60.0596 16.0295 61.0859 21.0416 60.1509 26.6217C66.1503 27.9408 70.7141 31.0704 72.4782 35.737C74.767 41.7916 71.7958 48.9862 65.4104 54.9201C66.0505 56.1278 66.4076 57.4116 66.4367 58.7469C66.6026 66.3518 56.0705 72.747 42.9125 73.0308C30.9524 73.2888 20.9394 68.4088 19.0908 61.8069Z"/>
</mask>
<path fill-rule="evenodd" clip-rule="evenodd" d="M19.0908 61.8069C14.9459 61.6084 11.3565 60.2149 8.80835 57.5248C1.19247 49.4847 5.7611 32.9067 19.0127 20.4968C32.2642 8.08696 49.1807 4.54455 56.7965 12.5846C60.0596 16.0295 61.0859 21.0416 60.1509 26.6217C66.1503 27.9408 70.7141 31.0704 72.4782 35.737C74.767 41.7916 71.7958 48.9862 65.4104 54.9201C66.0505 56.1278 66.4076 57.4116 66.4367 58.7469C66.6026 66.3518 56.0705 72.747 42.9125 73.0308C30.9524 73.2888 20.9394 68.4088 19.0908 61.8069Z" fill="#2470FF"/>
<path d="M19.0908 61.8069L21.2111 61.2101L20.7846 59.6869L19.2017 59.6111L19.0908 61.8069ZM8.80835 57.5248L7.20724 59.0375L7.20724 59.0375L8.80835 57.5248ZM19.0127 20.4968L17.5088 18.8951L17.5088 18.8951L19.0127 20.4968ZM56.7965 12.5846L58.3976 11.0719L58.3976 11.0719L56.7965 12.5846ZM60.1509 26.6217L57.9796 26.2642L57.635 28.3207L59.6724 28.7687L60.1509 26.6217ZM72.4782 35.737L74.538 34.9561L74.538 34.9561L72.4782 35.737ZM65.4104 54.9201L63.9128 53.3125L62.6748 54.4629L63.4641 55.9521L65.4104 54.9201ZM66.4367 58.7469L64.2358 58.8002L64.2358 58.8002L66.4367 58.7469ZM42.9125 73.0308L42.8704 70.833L42.8704 70.833L42.9125 73.0308ZM19.2017 59.6111C15.4861 59.4332 12.4829 58.201 10.4095 56.0121L7.20724 59.0375C10.2302 62.2288 14.4057 63.7837 18.9799 64.0027L19.2017 59.6111ZM10.4095 56.0121C7.32817 52.7592 6.4744 47.5174 8.20768 41.2279C9.9296 34.9797 14.1373 28.0726 20.5165 22.0986L17.5088 18.8951C10.6364 25.331 5.93407 32.9178 3.96275 40.0711C2.0028 47.1831 2.67265 54.2504 7.20724 59.0375L10.4095 56.0121ZM20.5165 22.0986C26.8954 16.1249 34.0835 12.3598 40.4647 11.0235C46.8902 9.67796 52.1108 10.841 55.1954 14.0974L58.3976 11.0719C53.8663 6.28821 46.8209 5.20239 39.5713 6.72051C32.2774 8.2479 24.3815 12.4589 17.5088 18.8951L20.5165 22.0986ZM55.1954 14.0974C57.8399 16.8892 58.8412 21.1223 57.9796 26.2642L62.3221 26.9793C63.3306 20.9609 62.2793 15.1698 58.3976 11.0719L55.1954 14.0974ZM59.6724 28.7687C65.2455 29.9941 69.0084 32.7881 70.4183 36.5178L74.538 34.9561C72.4198 29.3527 67.055 25.8876 60.6293 24.4748L59.6724 28.7687ZM70.4183 36.5178C72.2429 41.3443 70.0187 47.6383 63.9128 53.3125L66.9081 56.5276C73.5729 50.3341 77.2911 42.2388 74.538 34.9561L70.4183 36.5178ZM63.4641 55.9521C63.9583 56.8846 64.2147 57.8356 64.2358 58.8002L68.6377 58.6936C68.6004 56.9876 68.1428 55.371 67.3568 53.888L63.4641 55.9521ZM64.2358 58.8002C64.2944 61.4864 62.4559 64.3733 58.5307 66.7567C54.6612 69.1062 49.1327 70.6979 42.8704 70.833L42.9546 75.2286C49.8503 75.0799 56.1668 73.3321 60.8115 70.5118C65.4003 67.7255 68.745 63.6124 68.6377 58.6936L64.2358 58.8002ZM42.8704 70.833C37.1845 70.9557 32.0391 69.8523 28.1611 68.0065C24.2287 66.1348 21.8968 63.6591 21.2111 61.2101L16.9706 62.4037C18.1334 66.5567 21.7323 69.8219 26.2586 71.9762C30.8392 74.1564 36.6804 75.364 42.9546 75.2286L42.8704 70.833Z" fill="black" mask="url(#path-1-inside-1_3687_50726)"/>
<path d="M19.4248 40.268C18.4608 43.0623 18.447 45.8395 19.1531 48.0544C19.8592 50.2695 21.2522 51.8517 23.0764 52.4738C24.9006 53.0959 26.977 52.697 28.9018 51.3792C30.8265 50.0615 32.53 47.8606 33.494 45.0663C34.4579 42.272 34.4717 39.4948 33.7657 37.2799C33.0596 35.0648 31.6665 33.4826 29.8424 32.8605C28.0182 32.2383 25.9417 32.6373 24.0169 33.955C22.0922 35.2728 20.3887 37.4737 19.4248 40.268Z" fill="white" stroke="black" stroke-width="2.1999"/>
<path fill-rule="evenodd" clip-rule="evenodd" d="M24.2596 39.2119L28.0412 42.8679L22.7401 44.3598C22.6607 47.3822 24.0138 49.9827 26.36 50.7829C29.4909 51.8507 33.2047 49.308 34.6551 45.1038C36.1054 40.8995 34.743 36.6256 31.6121 35.5578C29.0235 34.6749 26.0364 36.2601 24.2596 39.2119Z" fill="black"/>
<path d="M33.831 40.268C32.8671 43.0623 32.8533 45.8395 33.5593 48.0544C34.2654 50.2695 35.6585 51.8517 37.4826 52.4738C39.3068 53.0959 41.3833 52.697 43.3081 51.3792C45.2328 50.0615 46.9363 47.8606 47.9002 45.0663C48.8642 42.272 48.878 39.4948 48.1719 37.2799C47.4658 35.0648 46.0728 33.4826 44.2486 32.8605C42.4244 32.2383 40.348 32.6373 38.4232 33.955C36.4984 35.2728 34.795 37.4737 33.831 40.268Z" fill="white" stroke="black" stroke-width="2.1999"/>
<path fill-rule="evenodd" clip-rule="evenodd" d="M38.326 39.0557L42.1076 42.7117L36.8065 44.2036C36.7271 47.226 38.0802 49.8264 40.4264 50.6266C43.5573 51.6944 47.2711 49.1518 48.7215 44.9475C50.1718 40.7432 48.8094 36.4693 45.6785 35.4015C43.0899 34.5187 40.1028 36.1039 38.326 39.0557Z" fill="black"/>
<path d="M336.031 14.002C340.917 14.002 345.149 14.8624 348.725 16.5833C352.302 18.255 355.022 20.6397 356.886 23.7373C358.75 26.8349 359.682 30.4488 359.682 34.5789C359.682 36.4473 359.505 38.2419 359.153 39.9628C358.246 44.978 356.281 49.4523 353.259 53.3858C350.287 57.3192 346.484 60.4169 341.849 62.6786C337.265 64.8912 332.177 65.9975 326.586 65.9975H305.504L314.949 14.002H336.031ZM327.795 53.312C332.127 53.312 335.729 52.1566 338.6 49.8457C341.471 47.4856 343.31 44.1913 344.116 39.9628C344.317 38.9795 344.418 37.9223 344.418 36.7915C344.418 33.4972 343.385 30.965 341.32 29.195C339.255 27.4249 336.358 26.5399 332.631 26.5399H327.568L322.656 53.312H327.795Z" fill="black"/>
<path d="M284.934 25.4336L283.423 34.0626H300.424L298.384 45.0517H281.382L279.645 54.4921H298.913L296.873 65.9975H262.719L272.164 14.002H306.242L304.202 25.4336H284.934Z" fill="black"/>
<path d="M226.855 14.002L232.144 51.4682L250.959 14.002H266.751L238.945 65.9975H220.054L211.062 14.002H226.855Z" fill="black"/>
<path d="M193.245 57.5159H174.355L169.972 65.9975H154.406L183.195 14.002H200.272L210.246 65.9975H194.605L193.245 57.5159ZM191.507 46.5268L188.862 29.6375L180.097 46.5268H191.507Z" fill="black"/>
<path d="M168.911 14.002L146.47 65.9975H128.259L126.673 34.0626L113.374 65.9975H95.1633L91.6875 14.002H107.707L107.555 49.5507L122.29 14.002H138.536L140.274 49.4031L152.892 14.002H168.911Z" fill="black"/>
</svg>
