<svg width="33" height="33" viewBox="0 0 33 33" fill="none" xmlns="http://www.w3.org/2000/svg">
<g clip-path="url(#clip0_3364_50468)">
<rect width="33" height="33" rx="16.5" fill="white"/>
<path fill-rule="evenodd" clip-rule="evenodd" d="M7.54365 32.9751C5.47193 32.8753 3.67788 32.1769 2.40414 30.8291C-1.40383 26.7998 0.880505 18.4915 7.50634 12.2722C14.1322 6.05286 22.5905 4.27755 26.3984 8.30692C28.029 10.0323 28.5425 12.5422 28.0764 15.3368C31.0768 15.9977 33.3592 17.5662 34.2414 19.9052C35.3863 22.9408 33.8989 26.5482 30.7035 29.5227C31.0234 30.1279 31.2018 30.7712 31.2164 31.4403C31.2994 35.2516 26.0333 38.4565 19.4542 38.5988C13.4749 38.7281 8.46887 36.2831 7.54365 32.9751Z" fill="white"/>
<path d="M7.54365 32.9751L8.02542 32.8399L7.92845 32.4932L7.56847 32.4759L7.54365 32.9751ZM2.40414 30.8291L2.04021 31.1725L2.04021 31.1725L2.40414 30.8291ZM7.50634 12.2722L7.16413 11.9082L7.16413 11.9082L7.50634 12.2722ZM26.3984 8.30692L26.0345 8.65033L26.0345 8.65033L26.3984 8.30692ZM28.0764 15.3368L27.583 15.2553L27.5051 15.7228L27.9681 15.8248L28.0764 15.3368ZM34.2414 19.9052L34.7095 19.7284L34.7095 19.7284L34.2414 19.9052ZM30.7035 29.5227L30.3628 29.1573L30.0822 29.4184L30.2611 29.7567L30.7035 29.5227ZM31.2164 31.4403L30.7163 31.4519L30.7163 31.4519L31.2164 31.4403ZM19.4542 38.5988L19.4643 39.0985L19.4643 39.0985L19.4542 38.5988ZM7.56847 32.4759C5.59453 32.3808 3.93387 31.7193 2.76808 30.4857L2.04021 31.1725C3.4219 32.6346 5.34932 33.3698 7.51883 33.4743L7.56847 32.4759ZM2.76808 30.4857C1.02913 28.6457 0.627172 25.7687 1.52489 22.5036C2.41999 19.2481 4.59155 15.6934 7.84855 12.6362L7.16413 11.9082C3.7953 15.0703 1.51177 18.7794 0.560236 22.2402C-0.388675 25.6914 -0.0288142 28.9832 2.04021 31.1725L2.76808 30.4857ZM7.84855 12.6362C11.1055 9.57907 14.7962 7.63119 18.1112 6.9354C21.4363 6.2375 24.2951 6.80981 26.0345 8.65033L26.7624 7.96351C24.6938 5.77466 21.4195 5.21994 17.9069 5.95719C14.3844 6.69654 10.533 8.74599 7.16413 11.9082L7.84855 12.6362ZM26.0345 8.65033C27.5246 10.2271 28.0325 12.5601 27.583 15.2553L28.5698 15.4182C29.0525 12.5244 28.5334 9.83749 26.7624 7.96351L26.0345 8.65033ZM27.9681 15.8248C30.8712 16.4643 32.9715 17.9562 33.7733 20.0821L34.7095 19.7284C33.7469 17.1762 31.2824 15.531 28.1848 14.8487L27.9681 15.8248ZM33.7733 20.0821C34.813 22.8387 33.4949 26.2417 30.3628 29.1573L31.0441 29.8882C34.303 26.8547 35.9596 23.0429 34.7095 19.7284L33.7733 20.0821ZM30.2611 29.7567C30.5479 30.2992 30.7036 30.8669 30.7163 31.4519L31.7165 31.4287C31.7001 30.6755 31.4989 29.9566 31.1458 29.2888L30.2611 29.7567ZM30.7163 31.4519C30.7523 33.1043 29.6269 34.7191 27.5738 35.9687C25.5333 37.2106 22.6616 38.0296 19.4441 38.0991L19.4643 39.0985C22.8259 39.0258 25.8768 38.1711 28.0933 36.8221C30.2973 35.4808 31.7635 33.5875 31.7165 31.4287L30.7163 31.4519ZM19.4441 38.0991C16.5214 38.1623 13.8543 37.5953 11.8197 36.6248C9.77284 35.6485 8.43387 34.3002 8.02542 32.8399L7.06188 33.1102C7.57865 34.9579 9.20528 36.4861 11.3876 37.527C13.5821 38.5737 16.4077 39.1646 19.4643 39.0985L19.4441 38.0991Z" fill="#838A94"/>
<path d="M14.3283 22.3133C14.0522 23.7204 13.3815 24.8923 12.5441 25.6547C11.7068 26.4171 10.7317 26.7497 9.80693 26.5694C8.8822 26.3891 8.1047 25.7149 7.61729 24.6942C7.12989 23.6736 6.95175 22.3362 7.22793 20.9291C7.50411 19.522 8.17477 18.35 9.01214 17.5876C9.84953 16.8252 10.8246 16.4927 11.7494 16.6729C12.6741 16.8532 13.4516 17.5274 13.939 18.5481C14.4264 19.5688 14.6045 20.9062 14.3283 22.3133Z" fill="white" stroke="#838A94"/>
<path fill-rule="evenodd" clip-rule="evenodd" d="M12.4549 21.0909L10.2103 21.6567L11.8953 23.3839C11.2635 24.5348 10.1891 25.2179 9.13423 25.0123C7.72183 24.7369 6.87933 22.9727 7.25244 21.0717C7.62556 19.1707 9.07301 17.8528 10.4854 18.1282C11.6507 18.3553 12.4281 19.5961 12.4549 21.0909Z" fill="#838A94"/>
<mask id="path-7-inside-1_3364_50468" fill="white">
<path d="M14.9575 21.0513C14.9692 19.6016 14.5401 18.2714 13.7646 17.3532C12.9891 16.435 11.9307 16.004 10.8222 16.1552C9.71379 16.3063 8.64611 17.0271 7.85406 18.1591C7.06201 19.291 6.61047 20.7414 6.59878 22.1911L10.7781 21.6212L14.9575 21.0513Z"/>
</mask>
<path d="M14.9575 21.0513C14.9692 19.6016 14.5401 18.2714 13.7646 17.3532C12.9891 16.435 11.9307 16.004 10.8222 16.1552C9.71379 16.3063 8.64611 17.0271 7.85406 18.1591C7.06201 19.291 6.61047 20.7414 6.59878 22.1911L10.7781 21.6212L14.9575 21.0513Z" fill="white" stroke="#838A94" stroke-width="2" mask="url(#path-7-inside-1_3364_50468)"/>
<path d="M21.2658 22.3133C20.9897 23.7204 20.319 24.8923 19.4816 25.6547C18.6443 26.4171 17.6692 26.7497 16.7444 26.5694C15.8197 26.3891 15.0422 25.7149 14.5548 24.6942C14.0674 23.6736 13.8893 22.3362 14.1654 20.9291C14.4416 19.522 15.1123 18.35 15.9496 17.5876C16.787 16.8252 17.7621 16.4927 18.6869 16.6729C19.6116 16.8532 20.3891 17.5274 20.8765 18.5481C21.3639 19.5688 21.542 20.9062 21.2658 22.3133Z" fill="white" stroke="#838A94"/>
<path fill-rule="evenodd" clip-rule="evenodd" d="M19.4744 20.971L17.2347 21.5357L18.9166 23.2596C18.2851 24.4125 17.2096 25.097 16.1538 24.8912C14.7414 24.6158 13.8989 22.8516 14.272 20.9506C14.6451 19.0496 16.0925 17.7317 17.5049 18.0071C18.6706 18.2343 19.448 19.4756 19.4744 20.971Z" fill="#838A94"/>
<mask id="path-10-inside-2_3364_50468" fill="white">
<path d="M21.7566 22.4089C21.8968 21.6947 21.9311 20.9671 21.8575 20.2676C21.784 19.5681 21.604 18.9105 21.3279 18.3323C21.0518 17.7541 20.6849 17.2667 20.2483 16.8978C19.8117 16.5289 19.3138 16.2858 18.7832 16.1823C18.2525 16.0788 17.6994 16.1171 17.1555 16.2948C16.6116 16.4726 16.0875 16.7864 15.6131 17.2183C15.1387 17.6502 14.7234 18.1917 14.3908 18.812C14.0582 19.4323 13.8149 20.1192 13.6747 20.8334L17.7156 21.6212L21.7566 22.4089Z"/>
</mask>
<path d="M21.7566 22.4089C21.8968 21.6947 21.9311 20.9671 21.8575 20.2676C21.784 19.5681 21.604 18.9105 21.3279 18.3323C21.0518 17.7541 20.6849 17.2667 20.2483 16.8978C19.8117 16.5289 19.3138 16.2858 18.7832 16.1823C18.2525 16.0788 17.6994 16.1171 17.1555 16.2948C16.6116 16.4726 16.0875 16.7864 15.6131 17.2183C15.1387 17.6502 14.7234 18.1917 14.3908 18.812C14.0582 19.4323 13.8149 20.1192 13.6747 20.8334L17.7156 21.6212L21.7566 22.4089Z" fill="white" stroke="#838A94" stroke-width="2" mask="url(#path-10-inside-2_3364_50468)"/>
<path d="M6 7.5L7.35415 8.69007" stroke="#838A94" stroke-linecap="round"/>
<path d="M10.4414 5L10.5574 6.79904" stroke="#838A94" stroke-linecap="round"/>
</g>
<rect x="0.5" y="0.5" width="32" height="32" rx="16" stroke="#838A94"/>
<defs>
<clipPath id="clip0_3364_50468">
<rect width="33" height="33" rx="16.5" fill="white"/>
</clipPath>
</defs>
</svg>
