<svg width="24" height="24" viewBox="0 0 24 24" fill="none" xmlns="http://www.w3.org/2000/svg">
<path fill-rule="evenodd" clip-rule="evenodd" d="M21 5C21 3.89543 20.1046 3 19 3H5C3.89543 3 3 3.89543 3 5V19C3 20.1046 3.89543 21 5 21H19C20.1046 21 21 20.1046 21 19V5ZM17.3033 9.12132C17.6938 8.7308 17.6938 8.09763 17.3033 7.70711C16.9127 7.31658 16.2796 7.31658 15.8891 7.70711L11.6465 11.9496C10.8655 12.7306 9.59927 12.7307 8.8182 11.9497L8.11091 11.2426C7.72036 10.8521 7.08721 10.8521 6.6967 11.2426C6.30616 11.6332 6.30616 12.2663 6.6967 12.6569L8.81799 14.7782C9.59904 15.5592 10.8654 15.5592 11.6464 14.7782L17.3033 9.12132Z" fill="#2470FF"/>
</svg>
