<svg width="24" height="25" viewBox="0 0 24 25" fill="none" xmlns="http://www.w3.org/2000/svg">
<path d="M21.5306 5.96948L18.5306 2.96948C18.461 2.89974 18.3783 2.84442 18.2872 2.80668C18.1962 2.76894 18.0986 2.74951 18 2.74951C17.9014 2.74951 17.8038 2.76894 17.7128 2.80668C17.6217 2.84442 17.539 2.89974 17.4694 2.96948L8.46937 11.9695C8.39975 12.0392 8.34454 12.1219 8.3069 12.213C8.26926 12.304 8.24992 12.4016 8.25 12.5001V15.5001C8.25 15.699 8.32902 15.8898 8.46967 16.0304C8.61032 16.1711 8.80109 16.2501 9 16.2501H12C12.0985 16.2502 12.1961 16.2308 12.2871 16.1932C12.3782 16.1556 12.4609 16.1004 12.5306 16.0307L21.5306 7.03073C21.6004 6.96107 21.6557 6.87836 21.6934 6.78731C21.7312 6.69626 21.7506 6.59866 21.7506 6.5001C21.7506 6.40154 21.7312 6.30395 21.6934 6.2129C21.6557 6.12185 21.6004 6.03913 21.5306 5.96948ZM11.6897 14.7501H9.75V12.8104L15.75 6.81041L17.6897 8.7501L11.6897 14.7501ZM18.75 7.68979L16.8103 5.7501L18 4.56041L19.9397 6.5001L18.75 7.68979ZM21 11.7501V20.0001C21 20.3979 20.842 20.7795 20.5607 21.0608C20.2794 21.3421 19.8978 21.5001 19.5 21.5001H4.5C4.10218 21.5001 3.72064 21.3421 3.43934 21.0608C3.15804 20.7795 3 20.3979 3 20.0001V5.0001C3 4.60228 3.15804 4.22075 3.43934 3.93944C3.72064 3.65814 4.10218 3.5001 4.5 3.5001H12.75C12.9489 3.5001 13.1397 3.57912 13.2803 3.71977C13.421 3.86042 13.5 4.05119 13.5 4.2501C13.5 4.44901 13.421 4.63978 13.2803 4.78043C13.1397 4.92108 12.9489 5.0001 12.75 5.0001H4.5V20.0001H19.5V11.7501C19.5 11.5512 19.579 11.3604 19.7197 11.2198C19.8603 11.0791 20.0511 11.0001 20.25 11.0001C20.4489 11.0001 20.6397 11.0791 20.7803 11.2198C20.921 11.3604 21 11.5512 21 11.7501Z" fill="#ECEEF0"/>
</svg>
