<svg width="1404" height="320" viewBox="0 0 1404 320" fill="none" xmlns="http://www.w3.org/2000/svg">
<path fill-rule="evenodd" clip-rule="evenodd" d="M76.3591 247.244C59.7889 246.446 45.4397 240.872 35.2516 230.116C4.78842 197.956 23.0627 131.643 76.0684 82.0035C129.074 32.3638 196.739 18.1941 227.202 50.3546C240.251 64.13 244.357 84.171 240.623 106.484C264.631 111.757 282.894 124.278 289.953 142.949C299.112 167.179 287.212 195.972 261.648 219.714C264.199 224.537 265.621 229.663 265.738 234.994C266.402 265.414 224.273 290.994 171.642 292.13C123.808 293.162 83.7605 273.647 76.3591 247.244Z" fill="#2470FF"/>
<path d="M76.3591 247.244L79.9217 246.245L79.2017 243.676L76.537 243.548L76.3591 247.244ZM35.2516 230.116L32.5654 232.661L32.5654 232.661L35.2516 230.116ZM76.0684 82.0035L78.5976 84.7042L78.5976 84.7042L76.0684 82.0035ZM227.202 50.3546L224.516 52.8991L224.516 52.8991L227.202 50.3546ZM240.623 106.484L236.974 105.873L236.393 109.343L239.829 110.098L240.623 106.484ZM289.953 142.949L286.492 144.258L286.492 144.258L289.953 142.949ZM261.648 219.714L259.13 217.003L257.05 218.935L258.377 221.444L261.648 219.714ZM265.738 234.994L262.039 235.075L262.039 235.075L265.738 234.994ZM171.642 292.13L171.562 288.431L171.562 288.431L171.642 292.13ZM76.537 243.548C60.6869 242.785 47.3249 237.482 37.9378 227.572L32.5654 232.661C43.5546 244.262 58.8909 250.107 76.1811 250.939L76.537 243.548ZM37.9378 227.572C23.9339 212.788 20.7301 189.71 27.9262 163.598C35.103 137.555 52.5077 109.137 78.5976 84.7042L73.5393 79.3029C46.6235 104.51 28.3882 134.068 20.7922 161.632C13.2155 189.125 16.1061 215.284 32.5654 232.661L37.9378 227.572ZM78.5976 84.7042C104.687 60.2715 134.262 44.6926 160.847 39.1254C187.509 33.5422 210.505 38.1074 224.516 52.8991L229.889 47.8102C213.436 30.4414 187.368 26.0111 159.33 31.8825C131.216 37.7699 100.456 54.0958 73.5393 79.3029L78.5976 84.7042ZM224.516 52.8991C236.52 65.5715 240.585 84.2975 236.974 105.873L244.272 107.095C248.13 84.0445 243.982 62.6885 229.889 47.8102L224.516 52.8991ZM239.829 110.098C263.121 115.214 280.032 127.17 286.492 144.258L293.414 141.641C285.757 121.386 266.14 108.301 241.417 102.87L239.829 110.098ZM286.492 144.258C294.867 166.414 284.23 193.693 259.13 217.003L264.165 222.425C290.195 198.252 303.357 167.944 293.414 141.641L286.492 144.258ZM258.377 221.444C260.682 225.802 261.936 230.367 262.039 235.075L269.437 234.913C269.307 228.958 267.715 223.272 264.918 217.984L258.377 221.444ZM262.039 235.075C262.33 248.405 253.23 261.377 236.755 271.381C220.376 281.326 197.346 287.874 171.562 288.431L171.722 295.829C198.569 295.25 222.919 288.44 240.596 277.706C258.177 267.03 269.81 252.002 269.437 234.913L262.039 235.075ZM171.562 288.431C148.138 288.936 126.753 284.402 110.428 276.634C94.0115 268.821 83.2192 258.008 79.9217 246.245L72.7964 248.242C76.9004 262.882 89.8324 275.028 107.248 283.316C124.756 291.647 147.311 296.356 171.722 295.829L171.562 288.431Z" fill="black"/>
<path d="M77.0841 160.815C73.1853 172.117 73.1188 183.377 75.9924 192.392C78.866 201.407 84.5696 207.941 92.1274 210.519C99.6851 213.096 108.221 211.419 116.055 206.056C123.888 200.693 130.787 191.762 134.686 180.46C138.584 169.158 138.651 157.898 135.777 148.883C132.904 139.868 127.2 133.334 119.642 130.756C112.085 128.179 103.548 129.856 95.7148 135.219C87.8814 140.582 80.9829 149.513 77.0841 160.815Z" fill="white" stroke="black" stroke-width="7.40728"/>
<path fill-rule="evenodd" clip-rule="evenodd" d="M96.8728 156.795L112.04 171.458L90.773 177.444C90.4627 189.524 95.874 199.915 105.253 203.114C117.776 207.385 132.632 197.215 138.433 180.398C144.234 163.58 138.785 146.485 126.261 142.214C115.917 138.686 103.983 145.01 96.8728 156.795Z" fill="black"/>
<path d="M134.604 160.815C130.705 172.117 130.638 183.377 133.512 192.392C136.386 201.407 142.089 207.941 149.647 210.519C157.205 213.096 165.741 211.419 173.574 206.056C181.408 200.693 188.306 191.762 192.205 180.46C196.104 169.158 196.17 157.898 193.297 148.883C190.423 139.868 184.72 133.334 177.162 130.756C169.604 128.179 161.068 129.856 153.234 135.219C145.401 140.582 138.502 149.513 134.604 160.815Z" fill="white" stroke="black" stroke-width="7.40728"/>
<path fill-rule="evenodd" clip-rule="evenodd" d="M153.279 156.162L168.447 170.826L147.179 176.811C146.869 188.891 152.28 199.283 161.659 202.481C174.183 206.753 189.038 196.582 194.839 179.765C200.641 162.948 195.191 145.852 182.668 141.581C172.324 138.053 160.389 144.377 153.279 156.162Z" fill="black"/>
<path d="M1309.39 56C1328.93 56 1345.86 59.4421 1360.17 66.3262C1374.47 73.0137 1385.35 82.5532 1392.81 94.9447C1400.27 107.336 1403.99 121.793 1403.99 138.315C1403.99 145.789 1403.29 152.968 1401.88 159.852C1398.25 179.915 1390.39 197.814 1378.3 213.549C1366.41 229.284 1351.2 241.676 1332.66 250.723C1314.32 259.574 1293.97 264 1271.61 264H1187.28L1225.06 56H1309.39ZM1276.44 213.254C1293.77 213.254 1308.18 208.632 1319.66 199.387C1331.15 189.946 1338.5 176.768 1341.73 159.852C1342.53 155.919 1342.94 151.69 1342.94 147.166C1342.94 133.988 1338.81 123.858 1330.55 116.777C1322.28 109.696 1310.7 106.156 1295.79 106.156H1275.54L1255.89 213.254H1276.44Z" fill="black"/>
<path d="M1105 101.73L1098.95 136.25H1166.96L1158.8 180.21H1090.79L1083.84 217.974H1160.91L1152.75 264H1016.13L1053.91 56H1190.23L1182.07 101.73H1105Z" fill="black"/>
<path d="M872.675 56L893.833 205.878L969.094 56H1032.26L921.035 264H845.472L809.504 56H872.675Z" fill="black"/>
<path d="M738.229 230.071H662.666L645.135 264H582.871L698.03 56H766.339L806.237 264H743.67L738.229 230.071ZM731.278 186.111L720.699 118.548L685.637 186.111H731.278Z" fill="black"/>
<path d="M640.895 56L551.126 264H478.283L471.936 136.25L418.739 264H345.896L331.992 56H396.07L395.465 198.207L454.405 56H519.389L526.341 197.617L576.818 56H640.895Z" fill="black"/>
</svg>
