<svg width="24" height="24" viewBox="0 0 24 24" fill="none" xmlns="http://www.w3.org/2000/svg">
<path d="M21 10.8327V19.4999C21 19.8977 20.842 20.2792 20.5607 20.5605C20.2794 20.8418 19.8978 20.9999 19.5 20.9999H15.75C15.3522 20.9999 14.9706 20.8418 14.6893 20.5605C14.408 20.2792 14.25 19.8977 14.25 19.4999V15.7499C14.25 15.551 14.171 15.3602 14.0303 15.2195C13.8897 15.0789 13.6989 14.9999 13.5 14.9999H10.5C10.3011 14.9999 10.1103 15.0789 9.96967 15.2195C9.82902 15.3602 9.75 15.551 9.75 15.7499V19.4999C9.75 19.8977 9.59196 20.2792 9.31066 20.5605C9.02936 20.8418 8.64782 20.9999 8.25 20.9999H4.5C4.10218 20.9999 3.72064 20.8418 3.43934 20.5605C3.15804 20.2792 3 19.8977 3 19.4999V10.8327C2.99997 10.6251 3.04303 10.4197 3.12646 10.2296C3.20989 10.0395 3.33187 9.86883 3.48469 9.72831L10.9847 2.65206L10.995 2.64175C11.2711 2.39062 11.631 2.25146 12.0042 2.25146C12.3775 2.25146 12.7373 2.39062 13.0134 2.64175C13.0166 2.64541 13.0201 2.64886 13.0238 2.65206L20.5238 9.72831C20.675 9.86957 20.7954 10.0406 20.8774 10.2307C20.9594 10.4207 21.0011 10.6257 21 10.8327Z" fill="#343330"/>
</svg>
