<svg width="24" height="24" viewBox="0 0 24 24" fill="none" xmlns="http://www.w3.org/2000/svg">
<path d="M9.75 3.75H5.25C4.85218 3.75 4.47064 3.90804 4.18934 4.18934C3.90804 4.47064 3.75 4.85218 3.75 5.25V9.75C3.75 10.1478 3.90804 10.5294 4.18934 10.8107C4.47064 11.092 4.85218 11.25 5.25 11.25H9.75C10.1478 11.25 10.5294 11.092 10.8107 10.8107C11.092 10.5294 11.25 10.1478 11.25 9.75V5.25C11.25 4.85218 11.092 4.47064 10.8107 4.18934C10.5294 3.90804 10.1478 3.75 9.75 3.75ZM9.75 9.75H5.25V5.25H9.75V9.75ZM9.75 12.75H5.25C4.85218 12.75 4.47064 12.908 4.18934 13.1893C3.90804 13.4706 3.75 13.8522 3.75 14.25V18.75C3.75 19.1478 3.90804 19.5294 4.18934 19.8107C4.47064 20.092 4.85218 20.25 5.25 20.25H9.75C10.1478 20.25 10.5294 20.092 10.8107 19.8107C11.092 19.5294 11.25 19.1478 11.25 18.75V14.25C11.25 13.8522 11.092 13.4706 10.8107 13.1893C10.5294 12.908 10.1478 12.75 9.75 12.75ZM9.75 18.75H5.25V14.25H9.75V18.75ZM18.75 3.75H14.25C13.8522 3.75 13.4706 3.90804 13.1893 4.18934C12.908 4.47064 12.75 4.85218 12.75 5.25V9.75C12.75 10.1478 12.908 10.5294 13.1893 10.8107C13.4706 11.092 13.8522 11.25 14.25 11.25H18.75C19.1478 11.25 19.5294 11.092 19.8107 10.8107C20.092 10.5294 20.25 10.1478 20.25 9.75V5.25C20.25 4.85218 20.092 4.47064 19.8107 4.18934C19.5294 3.90804 19.1478 3.75 18.75 3.75ZM18.75 9.75H14.25V5.25H18.75V9.75ZM12.75 16.5V13.5C12.75 13.3011 12.829 13.1103 12.9697 12.9697C13.1103 12.829 13.3011 12.75 13.5 12.75C13.6989 12.75 13.8897 12.829 14.0303 12.9697C14.171 13.1103 14.25 13.3011 14.25 13.5V16.5C14.25 16.6989 14.171 16.8897 14.0303 17.0303C13.8897 17.171 13.6989 17.25 13.5 17.25C13.3011 17.25 13.1103 17.171 12.9697 17.0303C12.829 16.8897 12.75 16.6989 12.75 16.5ZM20.25 15C20.25 15.1989 20.171 15.3897 20.0303 15.5303C19.8897 15.671 19.6989 15.75 19.5 15.75H17.25V19.5C17.25 19.6989 17.171 19.8897 17.0303 20.0303C16.8897 20.171 16.6989 20.25 16.5 20.25H13.5C13.3011 20.25 13.1103 20.171 12.9697 20.0303C12.829 19.8897 12.75 19.6989 12.75 19.5C12.75 19.3011 12.829 19.1103 12.9697 18.9697C13.1103 18.829 13.3011 18.75 13.5 18.75H15.75V13.5C15.75 13.3011 15.829 13.1103 15.9697 12.9697C16.1103 12.829 16.3011 12.75 16.5 12.75C16.6989 12.75 16.8897 12.829 17.0303 12.9697C17.171 13.1103 17.25 13.3011 17.25 13.5V14.25H19.5C19.6989 14.25 19.8897 14.329 20.0303 14.4697C20.171 14.6103 20.25 14.8011 20.25 15ZM20.25 18V19.5C20.25 19.6989 20.171 19.8897 20.0303 20.0303C19.8897 20.171 19.6989 20.25 19.5 20.25C19.3011 20.25 19.1103 20.171 18.9697 20.0303C18.829 19.8897 18.75 19.6989 18.75 19.5V18C18.75 17.8011 18.829 17.6103 18.9697 17.4697C19.1103 17.329 19.3011 17.25 19.5 17.25C19.6989 17.25 19.8897 17.329 20.0303 17.4697C20.171 17.6103 20.25 17.8011 20.25 18Z" fill="#838A94"/>
</svg>
