<svg width="16" height="11" viewBox="0 0 16 11" fill="none" xmlns="http://www.w3.org/2000/svg">
<path d="M10.2796 9.72718C10.3288 9.80262 10.3567 9.88994 10.3604 9.97993C10.364 10.0699 10.3433 10.1592 10.3004 10.2384C10.2575 10.3176 10.194 10.3838 10.1167 10.4299C10.0393 10.476 9.9509 10.5003 9.86084 10.5003H0.639587C0.549522 10.5003 0.461132 10.476 0.383756 10.4299C0.30638 10.3838 0.242891 10.3176 0.199996 10.2384C0.157102 10.1592 0.136395 10.0699 0.140063 9.97993C0.143732 9.88994 0.171639 9.80262 0.220837 9.72718C0.924653 8.64382 1.95989 7.81707 3.17209 7.3703C2.50196 6.92417 1.99319 6.27423 1.72102 5.51658C1.44885 4.75894 1.42773 3.93382 1.66077 3.16324C1.89381 2.39266 2.36865 1.71753 3.01507 1.23769C3.66149 0.757854 4.44516 0.498779 5.25021 0.498779C6.05526 0.498779 6.83894 0.757854 7.48535 1.23769C8.13177 1.71753 8.60661 2.39266 8.83965 3.16324C9.0727 3.93382 9.05157 4.75894 8.7794 5.51658C8.50723 6.27423 7.99846 6.92417 7.32834 7.3703C8.54053 7.81707 9.57577 8.64382 10.2796 9.72718ZM15.774 9.7178C15.07 8.63901 14.037 7.81582 12.8283 7.3703C13.6195 6.8374 14.1778 6.02305 14.3896 5.09302C14.6015 4.16298 14.451 3.18716 13.9687 2.36419C13.4865 1.54122 12.7087 0.93295 11.7938 0.663194C10.8789 0.393438 9.89555 0.482473 9.04396 0.912176C9.0114 0.928989 8.98293 0.952756 8.96057 0.981794C8.93821 1.01083 8.92251 1.04443 8.91458 1.08021C8.90665 1.11599 8.90668 1.15307 8.91468 1.18884C8.92267 1.22461 8.93843 1.25818 8.96084 1.28718C9.59407 2.07706 9.95773 3.04895 9.99856 4.0605C10.0394 5.07204 9.75523 6.07008 9.18771 6.90842C9.15103 6.96321 9.13748 7.03027 9.15 7.095C9.16253 7.15974 9.20012 7.2169 9.25459 7.25405C9.99452 7.77047 10.628 8.4247 11.1202 9.18092C11.3187 9.48496 11.3998 9.85086 11.3483 10.2103C11.3425 10.2461 11.3446 10.2826 11.3543 10.3175C11.3641 10.3524 11.3813 10.3848 11.4048 10.4124C11.4282 10.4399 11.4574 10.4621 11.4903 10.4773C11.5232 10.4925 11.559 10.5003 11.5952 10.5003H15.364C15.4741 10.5003 15.5811 10.464 15.6684 10.397C15.7558 10.33 15.8186 10.236 15.8471 10.1297C15.8645 10.0597 15.8669 9.98692 15.8543 9.91596C15.8417 9.845 15.8144 9.77748 15.774 9.7178Z" fill="#F9F9FA"/>
</svg>
