<svg width="24" height="24" viewBox="0 0 24 24" fill="none" xmlns="http://www.w3.org/2000/svg">
<g clip-path="url(#clip0_3420_56114)">
<rect width="24" height="24" rx="2" fill="#E9F1FF"/>
<circle cx="12" cy="13" r="6" fill="#FFF9C6"/>
<rect y="14" width="25" height="14" fill="#508DFF"/>
<path d="M5.30603 2.51718L6.08154 2.46795C7.94102 2.89767 9.63377 5.75723 11.0103 8.68252C12.1423 11.0881 11.9249 16.4811 11.8425 19.2707L6.12777 22.4211C5.94605 22.0114 5.32044 22.1037 5.32044 22.1037C5.32044 22.1037 4.541 20.6194 4.09123 19.4595C2.86579 15.5992 2.56691 15.1258 2.73009 11.1055C2.91102 6.64797 4.47585 3.14808 5.30603 2.51718Z" fill="white"/>
<path d="M3.55117 10.9352L9.97186 6.73896C10.7663 7.71101 11.3142 9.60555 11.4888 10.4313L3.86336 15.0788C3.41344 14.3405 3.55672 11.9847 3.55117 10.9352Z" fill="#508DFF"/>
<path d="M4.53148 17.8021L11.9818 13.1862C12.2226 14.8142 11.9644 16.5195 12.0077 17.2014L5.72967 21.1828C5.27974 20.4445 5.0577 19.4119 4.53148 17.8021Z" fill="#508DFF"/>
<path d="M6.69531 4.21094C6.69531 4.21094 7.42847 8.99082 7.77033 11.7657C8.09445 14.3966 8.91982 19.7721 8.91982 19.7721" stroke="black" stroke-width="0.25" stroke-linecap="round" stroke-linejoin="round"/>
<path d="M6.29856 2.31795C6.29856 2.31795 3.55874 6.01508 3.54622 12.3523C3.53737 16.8334 6.26544 22.4087 6.26544 22.4087M6.29856 2.31795C6.29856 2.31795 10.1356 4.31105 11.657 10.9702C12.3433 13.974 11.8775 19.4147 11.8775 19.4147L6.26544 22.4087M6.29856 2.31795L5.29482 2.38167C5.00417 2.61314 3.83501 5.10719 3.77534 5.47393M6.26544 22.4087L5.33624 22.1395C5.33624 22.1395 2.61161 17.3241 2.67934 12.4074C2.71415 9.88027 2.99706 8.47797 3.62915 6.03096" stroke="black" stroke-width="0.25" stroke-linecap="round" stroke-linejoin="round"/>
<path d="M16.6183 14.3806C15.0077 17.4205 14.2256 18.9972 14.0093 19.439C13.9738 19.5115 14.0051 19.5984 14.0782 19.6326L14.8884 20.0107C14.9661 20.0469 15.0571 20.011 15.0854 19.9301C15.3196 19.2598 16.2903 16.4591 16.8566 14.4705C16.903 14.3073 16.6977 14.2306 16.6183 14.3806Z" fill="black" stroke="black" stroke-width="0.25" stroke-linecap="round" stroke-linejoin="round"/>
<path d="M16.2254 11.3099C15.6118 10.5331 14.1736 9.63053 13.2789 9.11303C13.137 9.03093 13.0091 9.19052 13.1084 9.32104C14.0537 10.564 15.7809 13.3126 16.3866 14.5548C16.4375 14.6593 16.5784 14.6652 16.6269 14.5595C16.8731 14.0236 17.3025 12.6736 16.2254 11.3099Z" fill="#99F2BC" stroke="black" stroke-width="0.25" stroke-linecap="round" stroke-linejoin="round"/>
<path d="M18.9575 11.9739C19.8953 11.657 21.5931 11.6842 22.6253 11.7379C22.789 11.7465 22.8093 11.95 22.6549 12.0053C21.1848 12.5321 18.2386 13.8952 17.0538 14.6065C16.9541 14.6664 16.8328 14.5945 16.8497 14.4795C16.9354 13.896 17.3112 12.5301 18.9575 11.9739Z" fill="#99F2BC" stroke="black" stroke-width="0.25" stroke-linecap="round" stroke-linejoin="round"/>
<path d="M20.0373 14.545C20.877 15.0693 21.9327 16.3993 22.5456 17.2314C22.6429 17.3635 22.4984 17.5081 22.3577 17.4238C21.0181 16.6213 18.0958 15.2076 16.7945 14.7426C16.685 14.7034 16.6636 14.5641 16.7633 14.5042C17.2689 14.2004 18.5632 13.6248 20.0373 14.545Z" fill="#99F2BC" stroke="black" stroke-width="0.25" stroke-linecap="round" stroke-linejoin="round"/>
<path d="M19.2945 16.2741C19.6964 17.1788 19.8257 18.8719 19.8672 19.9046C19.8738 20.0685 19.673 20.1073 19.6037 19.9587C18.9438 18.5434 17.3152 15.7352 16.4978 14.6209C16.429 14.5271 16.4894 14.3998 16.6055 14.406C17.1944 14.4377 18.5891 14.686 19.2945 16.2741Z" fill="#99F2BC" stroke="black" stroke-width="0.25" stroke-linecap="round" stroke-linejoin="round"/>
<path d="M14.0449 12.5257C13.0552 12.5058 11.4443 13.0426 10.4762 13.4045C10.3226 13.4619 10.3645 13.662 10.5284 13.6683C12.0888 13.7284 15.3087 14.1417 16.6526 14.4635C16.7658 14.4906 16.8598 14.3855 16.809 14.2809C16.5517 13.7502 15.7823 12.5608 14.0449 12.5257Z" fill="#99F2BC" stroke="black" stroke-width="0.25" stroke-linecap="round" stroke-linejoin="round"/>
<path d="M13.5189 14.2328C12.6711 14.7439 11.595 16.0574 10.9692 16.88C10.8699 17.0105 11.0122 17.1574 11.1542 17.0753C12.506 16.2935 15.4499 14.9253 16.7582 14.4805C16.8684 14.4431 16.8919 14.3041 16.7931 14.2426C16.2923 13.9311 15.007 13.3355 13.5189 14.2328Z" fill="#99F2BC" stroke="black" stroke-width="0.25" stroke-linecap="round" stroke-linejoin="round"/>
<path d="M9.45045 19.0923C2.7027 19.7013 1 25 1 25L22 25C22 25 20.1081 18.1305 9.45045 19.0923Z" fill="#FBF5C0" stroke="black" stroke-width="0.25" stroke-linecap="round" stroke-linejoin="round"/>
<ellipse cx="14.9706" cy="22.0285" rx="0.201076" ry="0.200394" fill="black"/>
<ellipse cx="15.1698" cy="21.0246" rx="0.201076" ry="0.200394" fill="black"/>
<ellipse cx="13.8651" cy="21.6262" rx="0.201076" ry="0.200394" fill="black"/>
<path fill-rule="evenodd" clip-rule="evenodd" d="M15.1798 5.1646C15.4247 5.01459 15.8838 4.76822 16.4225 4.70601C16.9543 4.6446 17.5673 4.76166 18.1387 5.34466C18.1468 5.35323 18.1562 5.3607 18.1666 5.36675C18.1799 5.37445 18.1942 5.37952 18.209 5.38195C18.227 5.38497 18.245 5.38391 18.2618 5.37939C18.2786 5.3749 18.2947 5.36684 18.3088 5.3552C18.3203 5.34573 18.3302 5.33416 18.3379 5.32087C18.3439 5.31041 18.3483 5.29926 18.351 5.28779C18.5543 4.49719 19.0267 4.08931 19.518 3.87659C20.0156 3.66112 20.5364 3.64493 20.8235 3.65237C20.8925 3.65416 20.9499 3.59966 20.9517 3.53065C20.9535 3.46164 20.899 3.40424 20.83 3.40245C20.5299 3.39468 19.9659 3.41018 19.4186 3.64717C18.9092 3.86776 18.4175 4.27936 18.1674 5.02706C17.5769 4.50458 16.9453 4.39398 16.3938 4.45766C15.8013 4.52608 15.3052 4.79465 15.0492 4.9514C14.9903 4.98746 14.9718 5.06441 15.0079 5.12328C15.0439 5.18216 15.1209 5.20065 15.1798 5.1646Z" fill="black"/>
<path fill-rule="evenodd" clip-rule="evenodd" d="M18.1565 6.35474C18.3792 6.29681 18.7892 6.21219 19.2225 6.26852C19.6498 6.32406 20.096 6.51555 20.4141 7.00754C20.4238 7.02503 20.4379 7.04043 20.4559 7.05198C20.4769 7.06541 20.5003 7.0718 20.5235 7.07175C20.5466 7.0718 20.5701 7.06541 20.591 7.05198C20.6091 7.04043 20.6231 7.02503 20.6328 7.00754C20.9509 6.51555 21.3971 6.32406 21.8244 6.26852C22.2577 6.21219 22.6677 6.29681 22.8904 6.35474C22.9573 6.37212 23.0255 6.33204 23.0429 6.26523C23.0603 6.19842 23.0202 6.13017 22.9534 6.11279C22.7192 6.05189 22.2726 5.95816 21.7922 6.02061C21.3523 6.07778 20.8811 6.26676 20.5235 6.72955C20.1658 6.26676 19.6946 6.07778 19.2548 6.02061C18.7743 5.95816 18.3277 6.05189 18.0936 6.11279C18.0268 6.13017 17.9867 6.19842 18.0041 6.26523C18.0214 6.33204 18.0897 6.37212 18.1565 6.35474Z" fill="black"/>
</g>
<defs>
<clipPath id="clip0_3420_56114">
<rect width="24" height="24" rx="2" fill="white"/>
</clipPath>
</defs>
</svg>
