<svg width="122" height="26" viewBox="0 0 122 26" fill="none" xmlns="http://www.w3.org/2000/svg">
<mask id="path-1-inside-1_3571_47270" fill="white">
<path fill-rule="evenodd" clip-rule="evenodd" d="M6.20524 20.0888C4.85678 20.0248 3.68904 19.5719 2.86022 18.6968C0.385106 16.0836 1.86988 10.6954 6.17657 6.66193C10.4832 2.62844 15.981 1.47708 18.4561 4.09029C19.5162 5.20952 19.8499 6.83779 19.5466 8.65064C21.4986 9.0788 22.9836 10.0964 23.5574 11.6143C24.3014 13.5825 23.3353 15.9214 21.2593 17.8502C21.4666 18.2421 21.5822 18.6586 21.5917 19.0918C21.6456 21.5636 18.2227 23.6421 13.9465 23.7344C10.0609 23.8182 6.8078 22.2333 6.20524 20.0888Z"/>
</mask>
<path fill-rule="evenodd" clip-rule="evenodd" d="M6.20524 20.0888C4.85678 20.0248 3.68904 19.5719 2.86022 18.6968C0.385106 16.0836 1.86988 10.6954 6.17657 6.66193C10.4832 2.62844 15.981 1.47708 18.4561 4.09029C19.5162 5.20952 19.8499 6.83779 19.5466 8.65064C21.4986 9.0788 22.9836 10.0964 23.5574 11.6143C24.3014 13.5825 23.3353 15.9214 21.2593 17.8502C21.4666 18.2421 21.5822 18.6586 21.5917 19.0918C21.6456 21.5636 18.2227 23.6421 13.9465 23.7344C10.0609 23.8182 6.8078 22.2333 6.20524 20.0888Z" fill="#2470FF"/>
<path d="M6.20524 20.0888L6.91725 19.8877L6.77359 19.3764L6.24211 19.3512L6.20524 20.0888ZM2.86022 18.6968L2.3224 19.205L2.3224 19.205L2.86022 18.6968ZM6.17657 6.66193L6.68173 7.19997L6.17657 6.66193ZM18.4561 4.09029L17.9183 4.5984L17.9183 4.5984L18.4561 4.09029ZM19.5466 8.65064L18.8172 8.53068L18.7016 9.22173L19.3863 9.3719L19.5466 8.65064ZM23.5574 11.6143L22.8655 11.8765L22.8655 11.8765L23.5574 11.6143ZM21.2593 17.8502L20.7563 17.3101L20.3408 17.6962L20.6053 18.1963L21.2593 17.8502ZM21.5917 19.0918L22.331 19.0739L22.331 19.0739L21.5917 19.0918ZM13.9465 23.7344L13.9323 22.9961L13.9323 22.9961L13.9465 23.7344ZM6.24211 19.3512C5.03791 19.2941 4.06725 18.8953 3.39804 18.1887L2.3224 19.205C3.31083 20.2485 4.67565 20.7556 6.16837 20.8264L6.24211 19.3512ZM3.39805 18.1887C2.40456 17.1398 2.12608 15.4461 2.68816 13.4063C3.24642 11.3804 4.61122 9.13913 6.68173 7.19997L5.6714 6.12389C3.43523 8.21821 1.9043 10.6878 1.26228 13.0177C0.62408 15.3337 0.840769 17.6407 2.3224 19.205L3.39805 18.1887ZM6.68173 7.19997C8.75216 5.26088 11.0844 4.03957 13.1533 3.6063C15.237 3.16991 16.9237 3.54834 17.9183 4.5984L18.9939 3.58218C17.5134 2.01903 15.2137 1.66653 12.8531 2.1609C10.4776 2.65838 7.90765 4.02949 5.6714 6.12389L6.68173 7.19997ZM17.9183 4.5984C18.7707 5.49835 19.0959 6.86504 18.8172 8.53068L20.2759 8.7706C20.6039 6.81054 20.2617 4.92069 18.9939 3.58218L17.9183 4.5984ZM19.3863 9.3719C21.195 9.76865 22.4108 10.6736 22.8655 11.8765L24.2493 11.352C23.5565 9.51916 21.8021 8.38895 19.7069 7.92938L19.3863 9.3719ZM22.8655 11.8765C23.4535 13.4322 22.7384 15.4685 20.7563 17.3101L21.7623 18.3902C23.9321 16.3742 25.1492 13.7328 24.2493 11.352L22.8655 11.8765ZM20.6053 18.1963C20.7637 18.4958 20.8456 18.8007 20.8524 19.1097L22.331 19.0739C22.3188 18.5165 22.1695 17.9883 21.9134 17.5041L20.6053 18.1963ZM20.8524 19.1097C20.8712 19.9706 20.2819 20.9023 19.0098 21.6747C17.7565 22.4358 15.964 22.9523 13.9323 22.9961L13.9606 24.4726C16.2052 24.4242 18.2623 23.8553 19.776 22.9361C21.271 22.0283 22.3661 20.6847 22.331 19.0739L20.8524 19.1097ZM13.9323 22.9961C12.0883 23.0359 10.4204 22.6781 9.16411 22.0804C7.88954 21.4741 7.13822 20.6741 6.91725 19.8877L5.49322 20.2899C5.87481 21.648 7.05134 22.7128 8.52537 23.414C10.0176 24.1239 11.9191 24.5167 13.9606 24.4726L13.9323 22.9961Z" fill="black" mask="url(#path-1-inside-1_3571_47270)"/>
<path d="M6.32189 13.0902C6.00936 13.9962 6.00507 14.8962 6.23368 15.6134C6.4623 16.3307 6.91276 16.8414 7.50118 17.0421C8.0896 17.2428 8.76049 17.1146 9.38371 16.6878C10.0069 16.2612 10.559 15.548 10.8716 14.642C11.1841 13.7359 11.1884 12.8359 10.9598 12.1187C10.7312 11.4015 10.2807 10.8907 9.69228 10.69C9.10386 10.4893 8.43297 10.6176 7.80975 11.0443C7.18655 11.471 6.63441 12.1841 6.32189 13.0902Z" fill="white" stroke="black" stroke-width="0.738956"/>
<path fill-rule="evenodd" clip-rule="evenodd" d="M7.87672 12.7441L9.10603 13.9327L7.38271 14.4177C7.35696 15.4 7.7967 16.2452 8.55915 16.5052C9.57668 16.8523 10.7837 16.0259 11.255 14.6594C11.7264 13.2929 11.2836 11.9038 10.2661 11.5567C9.42487 11.2698 8.4542 11.7849 7.87672 12.7441Z" fill="black"/>
<path d="M10.9977 13.0902C10.6851 13.9962 10.6808 14.8962 10.9095 15.6134C11.1381 16.3307 11.5885 16.8414 12.177 17.0421C12.7654 17.2428 13.4363 17.1146 14.0595 16.6878C14.6827 16.2612 15.2348 15.548 15.5473 14.642C15.8599 13.7359 15.8642 12.8359 15.6356 12.1187C15.4069 11.4015 14.9565 10.8907 14.3681 10.69C13.7796 10.4893 13.1087 10.6176 12.4855 11.0443C11.8623 11.471 11.3102 12.1841 10.9977 13.0902Z" fill="white" stroke="black" stroke-width="0.738956"/>
<path fill-rule="evenodd" clip-rule="evenodd" d="M12.4548 12.6933L13.6842 13.8819L11.9608 14.367C11.9351 15.3492 12.3748 16.1944 13.1373 16.4544C14.1548 16.8015 15.3618 15.9751 15.8331 14.6086C16.3045 13.2421 15.8617 11.853 14.8442 11.506C14.003 11.219 13.0323 11.7341 12.4548 12.6933Z" fill="black"/>
<path d="M113.882 4C115.559 4 117.012 4.29787 118.239 4.89361C119.467 5.47233 120.401 6.29786 121.041 7.37019C121.681 8.44252 122.001 9.69358 122.001 11.1234C122.001 11.7702 121.94 12.3914 121.819 12.9872C121.508 14.7233 120.833 16.2723 119.796 17.634C118.776 18.9956 117.47 20.068 115.879 20.851C114.305 21.6169 112.559 21.9999 110.639 21.9999H103.402L106.645 4H113.882ZM111.054 17.6084C112.542 17.6084 113.778 17.2084 114.764 16.4084C115.749 15.5914 116.381 14.451 116.657 12.9872C116.726 12.6468 116.761 12.2808 116.761 11.8893C116.761 10.7489 116.406 9.8723 115.697 9.25954C114.988 8.64678 113.994 8.3404 112.714 8.3404H110.977L109.291 17.6084H111.054Z" fill="black"/>
<path d="M96.337 7.95742L95.8182 10.9446H101.655L100.954 14.7489H95.1179L94.5213 18.0169H101.136L100.435 21.9999H88.7109L91.9533 4H103.652L102.951 7.95742H96.337Z" fill="black"/>
<path d="M76.3978 4L78.2136 16.9701L84.6724 4H90.0936L80.5481 21.9999H74.0633L70.9766 4H76.3978Z" fill="black"/>
<path d="M64.8561 19.0637H58.3714L56.8669 21.9999H51.5234L61.4062 4H67.2684L70.6924 21.9999H65.323L64.8561 19.0637ZM64.2595 15.2595L63.3517 9.41273L60.3427 15.2595H64.2595Z" fill="black"/>
<path d="M56.5097 4L48.8058 21.9999H42.5545L42.0098 10.9446L37.4445 21.9999H31.1932L30 4H35.4991L35.4472 16.3063L40.5053 4H46.0822L46.6788 16.2552L51.0106 4H56.5097Z" fill="black"/>
</svg>
