<svg width="24" height="24" viewBox="0 0 24 24" fill="none" xmlns="http://www.w3.org/2000/svg">
<path d="M20.9066 5.3445C19.8877 4.32811 18.5077 3.75655 17.0685 3.75479C15.6294 3.75303 14.248 4.32123 13.2266 5.33512L12.0004 6.47419L10.7732 5.33137C9.752 4.31307 8.36814 3.74212 6.92602 3.74415C5.48389 3.74617 4.10163 4.32099 3.08333 5.34216C2.06502 6.36332 1.49408 7.74718 1.4961 9.18931C1.49812 10.6314 2.07294 12.0137 3.09411 13.032L11.4707 21.5314C11.5405 21.6022 11.6236 21.6585 11.7154 21.6969C11.8071 21.7353 11.9056 21.7551 12.005 21.7551C12.1045 21.7551 12.203 21.7353 12.2947 21.6969C12.3864 21.6585 12.4696 21.6022 12.5394 21.5314L20.9066 13.032C21.9256 12.0124 22.4981 10.6298 22.4981 9.18825C22.4981 7.74669 21.9256 6.36414 20.9066 5.3445ZM19.8425 11.9782L12.0004 19.932L4.15348 11.9707C3.41502 11.2323 3.00016 10.2307 3.00016 9.18637C3.00016 8.14203 3.41502 7.14046 4.15348 6.402C4.89195 5.66354 5.89352 5.24867 6.93786 5.24867C7.9822 5.24867 8.98377 5.66354 9.72223 6.402L9.74098 6.42075L11.4894 8.04731C11.6282 8.17647 11.8108 8.24827 12.0004 8.24827C12.1899 8.24827 12.3725 8.17647 12.5113 8.04731L14.2597 6.42075L14.2785 6.402C15.0174 5.66403 16.0193 5.24984 17.0636 5.25055C18.108 5.25125 19.1093 5.66679 19.8472 6.40575C20.5852 7.14471 20.9994 8.14656 20.9987 9.1909C20.998 10.2352 20.5824 11.2365 19.8435 11.9745L19.8425 11.9782Z" fill="white"/>
</svg>
