<svg width="33" height="33" viewBox="0 0 33 33" fill="none" xmlns="http://www.w3.org/2000/svg">
<g clip-path="url(#clip0_3364_50433)">
<rect width="33" height="33" rx="16.5" fill="white"/>
<mask id="path-3-inside-1_3364_50433" fill="white">
<path fill-rule="evenodd" clip-rule="evenodd" d="M7.54365 31.9751C5.47192 31.8753 3.67788 31.1769 2.40414 29.8291C-1.40383 25.7998 0.880505 17.4915 7.50634 11.2722C14.1322 5.05286 22.5905 3.27755 26.3984 7.30692C28.029 9.0323 28.5425 11.5422 28.0764 14.3368C31.0768 14.9977 33.3592 16.5662 34.2414 18.9052C35.3863 21.9408 33.8989 25.5482 30.7035 28.5227C31.0234 29.1279 31.2018 29.7712 31.2164 30.4403C31.2994 34.2516 26.0333 37.4565 19.4542 37.5988C13.4749 37.7281 8.46887 35.2831 7.54365 31.9751Z"/>
</mask>
<path fill-rule="evenodd" clip-rule="evenodd" d="M7.54365 31.9751C5.47192 31.8753 3.67788 31.1769 2.40414 29.8291C-1.40383 25.7998 0.880505 17.4915 7.50634 11.2722C14.1322 5.05286 22.5905 3.27755 26.3984 7.30692C28.029 9.0323 28.5425 11.5422 28.0764 14.3368C31.0768 14.9977 33.3592 16.5662 34.2414 18.9052C35.3863 21.9408 33.8989 25.5482 30.7035 28.5227C31.0234 29.1279 31.2018 29.7712 31.2164 30.4403C31.2994 34.2516 26.0333 37.4565 19.4542 37.5988C13.4749 37.7281 8.46887 35.2831 7.54365 31.9751Z" fill="#508DFF"/>
<path d="M7.54365 31.9751L8.53711 31.6963L8.33715 30.9814L7.59484 30.9456L7.54365 31.9751ZM2.40414 29.8291L1.65367 30.5373L1.65367 30.5373L2.40414 29.8291ZM7.50634 11.2722L6.80067 10.5215L7.50634 11.2722ZM26.3984 7.30692L25.648 8.01507L25.648 8.01507L26.3984 7.30692ZM28.0764 14.3368L27.059 14.1688L26.8982 15.1329L27.8529 15.3432L28.0764 14.3368ZM34.2414 18.9052L35.2067 18.5405L35.2067 18.5405L34.2414 18.9052ZM30.7035 28.5227L30.0009 27.7692L29.4225 28.3076L29.7912 29.0052L30.7035 28.5227ZM31.2164 30.4403L30.1852 30.4642L31.2164 30.4403ZM19.4542 37.5988L19.475 38.6292L19.4542 37.5988ZM7.59484 30.9456C5.72474 30.8556 4.20575 30.2332 3.15462 29.121L1.65367 30.5373C3.15002 32.1206 5.21911 32.895 7.49247 33.0045L7.59484 30.9456ZM3.15462 29.121C1.59096 27.4664 1.16664 24.8097 2.03718 21.6435C2.9023 18.4971 5.0144 15.0243 8.21201 12.0228L6.80067 10.5215C3.37245 13.7394 1.02946 17.5304 0.0479526 21.1002C-0.928142 24.6503 -0.590638 28.1625 1.65367 30.5373L3.15462 29.121ZM8.21201 12.0228C11.4096 9.02147 15.0149 7.12754 18.2197 6.45488C21.4452 5.77788 24.0834 6.35953 25.648 8.01507L27.1489 6.59877C24.9055 4.22494 21.4106 3.67955 17.7984 4.4377C14.1657 5.20019 10.229 7.30358 6.80067 10.5215L8.21201 12.0228ZM25.648 8.01507C26.9889 9.43402 27.4909 11.579 27.059 14.1688L29.0939 14.5047C29.5941 11.5054 29.0691 8.63058 27.1489 6.59877L25.648 8.01507ZM27.8529 15.3432C30.6528 15.96 32.5597 17.3705 33.2761 19.2699L35.2067 18.5405C34.1587 15.7619 31.5008 14.0354 28.2999 13.3303L27.8529 15.3432ZM33.2761 19.2699C34.204 21.7303 33.0658 24.9162 30.0009 27.7692L31.406 29.2763C34.7321 26.1802 36.5685 22.1514 35.2067 18.5405L33.2761 19.2699ZM29.7912 29.0052C30.0429 29.4812 30.1744 29.9686 30.1852 30.4642L32.2477 30.4163C32.2293 29.5738 32.0039 28.7746 31.6157 28.0403L29.7912 29.0052ZM30.1852 30.4642C30.2153 31.8477 29.2709 33.3147 27.2979 34.5154C25.3509 35.7004 22.5743 36.5005 19.4334 36.5684L19.475 38.6292C22.9132 38.5548 26.0592 37.6813 28.3692 36.2754C30.6533 34.8853 32.3005 32.8441 32.2477 30.4163L30.1852 30.4642ZM19.4334 36.5684C16.5818 36.6301 13.9988 36.0756 12.0491 35.1457C10.0742 34.2038 8.88803 32.951 8.53711 31.6963L6.55019 32.2538C7.12449 34.3071 8.90387 35.9309 11.1581 37.0061C13.4376 38.0934 16.3473 38.6968 19.475 38.6292L19.4334 36.5684Z" fill="black" mask="url(#path-3-inside-1_3364_50433)"/>
<path d="M14.3131 22.3103C14.0375 23.7145 13.3684 24.8833 12.5337 25.6432C11.699 26.4032 10.7287 26.7333 9.80992 26.5542C8.89112 26.3751 8.11714 25.7049 7.6313 24.6875C7.14548 23.6702 6.96757 22.3362 7.24317 20.932C7.51878 19.5279 8.18793 18.359 9.02259 17.5991C9.85727 16.8392 10.8276 16.5091 11.7464 16.6882C12.6652 16.8673 13.4391 17.5374 13.925 18.5548C14.4108 19.5722 14.5887 20.9061 14.3131 22.3103Z" fill="white" stroke="black" stroke-width="1.03105"/>
<path fill-rule="evenodd" clip-rule="evenodd" d="M12.4549 21.0909L10.2103 21.6567L11.8953 23.3839C11.2635 24.5348 10.1891 25.2179 9.13423 25.0123C7.72183 24.7369 6.87933 22.9727 7.25244 21.0717C7.62556 19.1707 9.07301 17.8528 10.4854 18.1282C11.6507 18.3553 12.4281 19.5961 12.4549 21.0909Z" fill="black"/>
<path d="M21.2506 22.3103C20.975 23.7145 20.3059 24.8833 19.4712 25.6432C18.6365 26.4032 17.6662 26.7333 16.7474 26.5542C15.8286 26.3751 15.0546 25.7049 14.5688 24.6875C14.083 23.6702 13.9051 22.3362 14.1807 20.932C14.4563 19.5279 15.1254 18.359 15.9601 17.5991C16.7948 16.8392 17.7651 16.5091 18.6839 16.6882C19.6027 16.8673 20.3766 17.5374 20.8625 18.5548C21.3483 19.5722 21.5262 20.9061 21.2506 22.3103Z" fill="white" stroke="black" stroke-width="1.03105"/>
<path fill-rule="evenodd" clip-rule="evenodd" d="M19.4744 20.971L17.2347 21.5357L18.9166 23.2596C18.2851 24.4125 17.2096 25.097 16.1538 24.8912C14.7414 24.6158 13.8989 22.8516 14.272 20.9506C14.6451 19.0496 16.0925 17.7317 17.5049 18.0071C18.6706 18.2343 19.448 19.4756 19.4744 20.971Z" fill="black"/>
<path d="M6.56614 6.73908C6.55934 6.62097 6.71917 6.57815 6.77233 6.68384L7.2061 7.54616C7.22565 7.58503 7.26645 7.60855 7.30988 7.60599L8.27478 7.54911C8.39305 7.54214 8.43595 7.70226 8.33005 7.75535L7.46598 8.18854C7.42708 8.20804 7.40351 8.2488 7.40601 8.29224L7.46152 9.25592C7.46832 9.37404 7.3085 9.41686 7.25533 9.31117L6.82156 8.44884C6.80201 8.40997 6.76121 8.38646 6.71778 8.38902L5.75288 8.4459C5.63461 8.45287 5.59171 8.29275 5.69762 8.23966L6.56169 7.80647C6.60058 7.78697 6.62416 7.7462 6.62165 7.70276L6.56614 6.73908Z" fill="black"/>
<path d="M9.62468 3.9377C9.65753 3.77912 9.88402 3.77912 9.91687 3.9377L10.1849 5.23156C10.197 5.28988 10.2426 5.33543 10.3009 5.34744L11.5969 5.61408C11.7557 5.64676 11.7557 5.87367 11.5969 5.90635L10.3009 6.17299C10.2426 6.185 10.197 6.23055 10.1849 6.28887L9.91687 7.58273C9.88402 7.74131 9.65753 7.74131 9.62468 7.58273L9.35665 6.28887C9.34457 6.23055 9.29896 6.185 9.24062 6.17299L7.94466 5.90635C7.78582 5.87367 7.78582 5.64676 7.94466 5.61408L9.24062 5.34744C9.29896 5.33543 9.34457 5.28988 9.35665 5.23156L9.62468 3.9377Z" fill="black"/>
</g>
<rect x="0.5" y="0.5" width="32" height="32" rx="16" stroke="black"/>
<defs>
<clipPath id="clip0_3364_50433">
<rect width="33" height="33" rx="16.5" fill="white"/>
</clipPath>
</defs>
</svg>
