<svg width="33" height="33" viewBox="0 0 33 33" fill="none" xmlns="http://www.w3.org/2000/svg">
<rect x="0.5" y="0.5" width="32" height="32" rx="16" fill="#DEE1E5"/>
<rect x="0.5" y="0.5" width="32" height="32" rx="16" stroke="#DEE1E5"/>
<circle cx="16.5" cy="16.5" r="12" stroke="#3C3F44"/>
<circle cx="14.2247" cy="13.2247" r="1" transform="rotate(15 14.2247 13.2247)" fill="#3C3F44"/>
<circle cx="19.0528" cy="13.2247" r="1" transform="rotate(15 19.0528 13.2247)" fill="#3C3F44"/>
<path d="M21.45 21.5C21.7538 21.5 22.0029 21.2531 21.9725 20.9509C21.8465 19.6939 21.2903 18.5121 20.3891 17.6109C19.3576 16.5795 17.9587 16 16.5 16C15.0413 16 13.6424 16.5795 12.6109 17.6109C11.7097 18.5121 11.1535 19.6939 11.0275 20.9509C10.9971 21.2531 11.2462 21.5 11.55 21.5C11.8538 21.5 12.0965 21.2528 12.1343 20.9514C12.2555 19.9867 12.6939 19.0835 13.3887 18.3887C14.2139 17.5636 15.333 17.1 16.5 17.1C17.667 17.1 18.7861 17.5636 19.6113 18.3887C20.3061 19.0835 20.7445 19.9867 20.8657 20.9514C20.9036 21.2528 21.1462 21.5 21.45 21.5Z" fill="#3C3F44"/>
</svg>
