<svg width="24" height="24" viewBox="0 0 24 24" fill="none" xmlns="http://www.w3.org/2000/svg">
<g clip-path="url(#clip0_3487_70276)">
<path d="M10.9447 2.03925C9.95492 1.89512 9.72588 2.15303 9.75042 2.72953C9.78314 3.61704 9.61954 4.87623 8.7361 6.18095C7.21463 8.41109 3.82812 10.6109 3.82812 14.4037C3.82812 18.1964 5.46412 21.9892 12.0081 21.9892C18.5521 21.9892 20.1881 18.1964 20.1881 14.4037C20.1881 12.0218 18.5112 9.1393 17.9386 8.20628C17.3251 7.19741 16.7606 7.73598 16.4825 8.28972C16.3189 8.6159 16.278 8.79796 16.0817 9.05586C15.9508 9.22275 15.6645 9.15447 15.6318 8.94208C15.5337 8.1987 15.2555 6.7802 14.4539 5.30102C13.5132 3.56394 12.1553 2.2213 10.9447 2.03925Z" fill="#2470FF" stroke="black" stroke-width="0.227221"/>
<path d="M12.5801 9.55649C13.12 9.47305 13.2509 9.61717 13.2345 9.93576C13.2182 10.4212 13.3081 11.1191 13.7908 11.8321C14.6251 13.061 16.4901 14.2671 16.4901 16.3531C16.4901 18.4391 15.5904 20.5252 11.9912 20.5252C8.39198 20.5252 7.49219 18.4391 7.49219 16.3531C7.49219 15.0484 8.41652 13.4555 8.72736 12.9396C9.06274 12.3859 9.37358 12.6817 9.529 12.9851C9.61898 13.1672 9.64352 13.2658 9.74986 13.4024C9.82348 13.4934 9.9789 13.4555 9.99526 13.3417C10.0525 12.932 10.2079 12.1507 10.6415 11.3391C11.1568 10.3757 11.9175 9.6551 12.5801 9.55649Z" fill="white" stroke="black" stroke-width="0.227221"/>
<path d="M11.7403 14.8209C11.4949 14.783 11.4376 14.8512 11.4376 14.9954C11.4458 15.2153 11.4049 15.5339 11.184 15.8601C10.7996 16.4138 9.95703 16.9676 9.95703 17.9158C9.95703 18.864 10.366 19.8122 12.002 19.8122C13.638 19.8122 14.047 18.864 14.047 17.9158C14.047 17.3241 13.6298 16.5959 13.4826 16.3683C13.3272 16.118 13.1881 16.2546 13.1145 16.3911C13.0736 16.4745 13.0654 16.52 13.0163 16.5807C12.9836 16.6262 12.91 16.6035 12.9018 16.5504C12.8773 16.3683 12.8037 16.0118 12.6073 15.6401C12.3701 15.2002 12.0347 14.8664 11.7321 14.8209H11.7403Z" fill="#1A50B5" stroke="black" stroke-width="0.227221"/>
</g>
<defs>
<clipPath id="clip0_3487_70276">
<rect width="18" height="22" fill="white" transform="translate(3 1)"/>
</clipPath>
</defs>
</svg>
