<svg width="33" height="33" viewBox="0 0 33 33" fill="none" xmlns="http://www.w3.org/2000/svg">
<g clip-path="url(#clip0_3364_50453)">
<rect width="33" height="33" rx="16.5" fill="black"/>
<mask id="path-3-inside-1_3364_50453" fill="white">
<path fill-rule="evenodd" clip-rule="evenodd" d="M7.41391 32.4955C5.31734 32.3929 3.50182 31.6829 2.21243 30.3139C-1.64643 26.2167 0.66843 17.7688 7.38281 11.4449C14.0972 5.121 22.6685 3.31584 26.5274 7.41297C28.1803 9.16796 28.7005 11.7212 28.2273 14.5639C31.267 15.2362 33.5793 16.8309 34.4731 19.2089C35.6336 22.2962 34.1254 25.9652 30.8857 28.9902C31.2084 29.6042 31.3884 30.2567 31.4032 30.9354C31.4872 34.8108 26.1507 38.0696 19.4838 38.2143C13.4242 38.3458 8.35117 35.8594 7.41391 32.4955Z"/>
</mask>
<path fill-rule="evenodd" clip-rule="evenodd" d="M7.41391 32.4955C5.31734 32.3929 3.50182 31.6829 2.21243 30.3139C-1.64643 26.2167 0.66843 17.7688 7.38281 11.4449C14.0972 5.121 22.6685 3.31584 26.5274 7.41297C28.1803 9.16796 28.7005 11.7212 28.2273 14.5639C31.267 15.2362 33.5793 16.8309 34.4731 19.2089C35.6336 22.2962 34.1254 25.9652 30.8857 28.9902C31.2084 29.6042 31.3884 30.2567 31.4032 30.9354C31.4872 34.8108 26.1507 38.0696 19.4838 38.2143C13.4242 38.3458 8.35117 35.8594 7.41391 32.4955Z" fill="#BFC4CD"/>
<path d="M7.41391 32.4955L8.52982 32.1846L8.30547 31.3794L7.47057 31.3385L7.41391 32.4955ZM2.21243 30.3139L1.36915 31.1081L1.36915 31.1081L2.21243 30.3139ZM7.38281 11.4449L8.17705 12.2882L7.38281 11.4449ZM26.5274 7.41297L27.3706 6.61873L27.3706 6.61873L26.5274 7.41297ZM28.2273 14.5639L27.0846 14.3738L26.9042 15.4577L27.9772 15.695L28.2273 14.5639ZM34.4731 19.2089L33.3888 19.6165L34.4731 19.2089ZM30.8857 28.9902L30.0952 28.1435L29.4491 28.7467L29.8603 29.5291L30.8857 28.9902ZM31.4032 30.9354L32.5613 30.9103L31.4032 30.9354ZM19.4838 38.2143L19.5089 39.3724L19.5089 39.3724L19.4838 38.2143ZM7.47057 31.3385C5.60117 31.247 4.09501 30.6231 3.05571 29.5196L1.36915 31.1081C2.90863 32.7426 5.0335 33.5388 7.35726 33.6526L7.47057 31.3385ZM3.05571 29.5196C1.50825 27.8766 1.07298 25.2208 1.94989 22.0206C2.82057 18.8431 4.94894 15.3286 8.17705 12.2882L6.58857 10.6016C3.1023 13.8852 0.716052 17.7566 -0.284577 21.4083C-1.27897 25.0373 -0.942247 28.654 1.36915 31.1081L3.05571 29.5196ZM8.17705 12.2882C11.4052 9.24781 15.0407 7.33357 18.2646 6.6546C21.5116 5.97077 24.1366 6.5642 25.6841 8.2072L27.3706 6.61873C25.0592 4.16461 21.4692 3.61205 17.7872 4.3875C14.0821 5.16781 10.0748 7.3181 6.58857 10.6016L8.17705 12.2882ZM25.6841 8.2072C27.0118 9.61686 27.5197 11.7599 27.0846 14.3738L29.37 14.7541C29.8812 11.6826 29.3488 8.71906 27.3706 6.61873L25.6841 8.2072ZM27.9772 15.695C30.7903 16.3172 32.6809 17.7332 33.3888 19.6165L35.5575 18.8013C34.4777 15.9287 31.7437 14.1552 28.4774 13.4329L27.9772 15.695ZM33.3888 19.6165C34.3066 22.0584 33.1886 25.2551 30.0952 28.1435L31.6763 29.8369C35.0623 26.6754 36.9606 22.5341 35.5575 18.8013L33.3888 19.6165ZM29.8603 29.5291C30.1068 29.998 30.2345 30.4758 30.245 30.9605L32.5613 30.9103C32.5424 30.0376 32.3101 29.2104 31.9112 28.4512L29.8603 29.5291ZM30.245 30.9605C30.2744 32.3132 29.3536 33.7747 27.3714 34.9852C25.418 36.1781 22.6246 36.9874 19.4586 37.0561L19.5089 39.3724C23.0099 39.2965 26.2183 38.404 28.5789 36.9625C30.9106 35.5385 32.616 33.4329 32.5613 30.9103L30.245 30.9605ZM19.4586 37.0561C16.5843 37.1185 13.9852 36.5575 12.0281 35.6208C10.0431 34.6707 8.87335 33.4175 8.52982 32.1846L6.298 32.8065C6.89174 34.9374 8.72717 36.6094 11.0279 37.7106C13.3565 38.8251 16.3237 39.4415 19.5089 39.3724L19.4586 37.0561Z" fill="black" mask="url(#path-3-inside-1_3364_50453)"/>
<path d="M14.1999 22.6481C13.9226 24.0658 13.2496 25.2436 12.4133 26.0076C11.5769 26.7717 10.6114 27.0979 9.70275 26.9202C8.79415 26.7424 8.02265 26.0764 7.53583 25.0535C7.04906 24.0307 6.86949 22.6862 7.14681 21.2685C7.42413 19.8507 8.09708 18.673 8.93336 17.909C9.76974 17.1449 10.7353 16.8187 11.6439 16.9964C12.5525 17.1741 13.324 17.8402 13.8109 18.8631C14.2976 19.8859 14.4772 21.2304 14.1999 22.6481Z" fill="#BFC4CD" stroke="black" stroke-width="1.15842"/>
<mask id="path-6-inside-2_3364_50453" fill="white">
<path d="M14.9088 21.3007C14.9048 19.8289 14.4548 18.4867 13.6577 17.5694C12.8606 16.6521 11.7817 16.2347 10.6584 16.4091C9.53511 16.5835 8.45938 17.3354 7.66789 18.4994C6.87639 19.6634 6.43396 21.1442 6.43792 22.6159L10.6733 21.9583L14.9088 21.3007Z"/>
</mask>
<path d="M14.9088 21.3007C14.9048 19.8289 14.4548 18.4867 13.6577 17.5694C12.8606 16.6521 11.7817 16.2347 10.6584 16.4091C9.53511 16.5835 8.45938 17.3354 7.66789 18.4994C6.87639 19.6634 6.43396 21.1442 6.43792 22.6159L10.6733 21.9583L14.9088 21.3007Z" fill="#BFC4CD" stroke="black" stroke-width="2.31683" mask="url(#path-6-inside-2_3364_50453)"/>
<path d="M21.2233 22.6481C20.946 24.0658 20.273 25.2436 19.4368 26.0076C18.6004 26.7717 17.6348 27.0979 16.7262 26.9202C15.8176 26.7424 15.0461 26.0764 14.5593 25.0535C14.0725 24.0307 13.8929 22.6862 14.1702 21.2685C14.4476 19.8507 15.1205 18.673 15.9568 17.909C16.7932 17.1449 17.7588 16.8187 18.6674 16.9964C19.576 17.1741 20.3475 17.8402 20.8343 18.8631C21.3211 19.8859 21.5006 21.2304 21.2233 22.6481Z" fill="#BFC4CD" stroke="black" stroke-width="1.15842"/>
<mask id="path-8-inside-3_3364_50453" fill="white">
<path d="M21.7918 22.7593C22.0787 21.2926 21.9224 19.8015 21.3573 18.6142C20.7922 17.4268 19.8646 16.6404 18.7786 16.428C17.6925 16.2155 16.537 16.5944 15.5661 17.4814C14.5953 18.3683 13.8887 19.6905 13.6018 21.1573L17.6968 21.9583L21.7918 22.7593Z"/>
</mask>
<path d="M21.7918 22.7593C22.0787 21.2926 21.9224 19.8015 21.3573 18.6142C20.7922 17.4268 19.8646 16.6404 18.7786 16.428C17.6925 16.2155 16.537 16.5944 15.5661 17.4814C14.5953 18.3683 13.8887 19.6905 13.6018 21.1573L17.6968 21.9583L21.7918 22.7593Z" fill="#BFC4CD" stroke="black" stroke-width="2.31683" mask="url(#path-8-inside-3_3364_50453)"/>
<path d="M26.4575 27.4982C26.4575 28.6978 25.9388 29.091 25.299 29.091C24.6593 29.091 24.1406 28.6978 24.1406 27.4982C24.1406 26.2986 25.299 25.3262 25.299 25.3262C25.299 25.3262 26.4575 26.2986 26.4575 27.4982Z" fill="#E9F1FF" stroke="black" stroke-width="1.15842"/>
</g>
<rect x="0.5" y="0.5" width="32" height="32" rx="16" stroke="black"/>
<defs>
<clipPath id="clip0_3364_50453">
<rect width="33" height="33" rx="16.5" fill="white"/>
</clipPath>
</defs>
</svg>
