<svg width="69" height="68" viewBox="0 0 69 68" fill="none" xmlns="http://www.w3.org/2000/svg">
<path fill-rule="evenodd" clip-rule="evenodd" d="M5.14778 7.26562C5.64591 6.92171 6.30194 6.91092 6.81112 7.23825C7.979 7.98903 9.63363 8.83604 11.6343 9.86018C12.5049 10.3059 13.4411 10.7851 14.4312 11.3045C17.6238 12.9794 21.2418 15.009 24.5287 17.4903C28.5466 20.5235 32.1974 24.3398 33.9147 29.1124C36.065 24.4565 40.1015 20.9637 44.4344 18.3023C47.9437 16.1468 51.7393 14.4726 55.0774 13.1108C56.1127 12.6885 57.0904 12.301 57.9997 11.9407C60.0891 11.1126 61.8172 10.4278 63.0516 9.79217C63.5897 9.51506 64.2417 9.58856 64.7047 9.97854C65.1676 10.3685 65.3508 10.9985 65.1691 11.576C64.9832 12.1667 64.8022 12.7463 64.6245 13.3149C62.4254 20.3547 60.7491 25.7205 56.9215 29.8999C52.7428 34.4625 46.1766 37.4672 34.2993 40.3603C34.2335 40.3763 34.1671 40.3878 34.1005 40.3947C33.6444 42.0496 33.2326 44.1534 33.0716 46.4786C32.8203 50.1095 33.1873 54.1772 34.8556 57.8845C35.1956 58.6399 34.8587 59.5279 34.1033 59.8679C33.3478 60.2079 32.4598 59.871 32.1198 59.1156C30.1881 54.8229 29.8052 50.2239 30.0788 46.2714C30.2432 43.8964 30.6472 41.7177 31.1196 39.9268C20.4552 36.1031 14.5605 32.5799 10.9895 27.8401C7.57918 23.3138 6.42396 17.8122 4.90835 10.5944L4.90834 10.5943L4.90829 10.5941C4.78588 10.0112 4.66112 9.41701 4.53263 8.81128C4.40703 8.21913 4.64964 7.60952 5.14778 7.26562ZM8.15488 11.4406C9.54707 17.9833 10.6297 22.3772 13.3855 26.0349C16.3806 30.0102 21.4969 33.2607 31.826 36.9926C32.7145 29.7037 28.4846 24.2355 22.7212 19.8847C19.6332 17.5535 16.1887 15.6144 13.0375 13.9611C12.1511 13.4961 11.2756 13.0479 10.4347 12.6174L10.4346 12.6173L10.4345 12.6173C9.63677 12.2089 8.87016 11.8164 8.15488 11.4406ZM61.3119 13.8467C59.3002 20.2262 57.8022 24.4963 54.7091 27.8737C51.3475 31.5442 45.9437 34.2903 35.305 37.017C35.1178 29.6765 39.8515 24.638 46.0046 20.8586C49.3015 18.8335 52.9157 17.2327 56.2106 15.8886C57.1374 15.5105 58.0518 15.1481 58.93 14.8L58.9302 14.7999L58.9307 14.7997C59.7637 14.4696 60.5641 14.1523 61.3119 13.8467Z" fill="#DEE1E5"/>
</svg>
