<svg width="25" height="24" viewBox="0 0 25 24" fill="none" xmlns="http://www.w3.org/2000/svg">
<path d="M10.5 9.75C10.5 9.55109 10.579 9.36032 10.7197 9.21967C10.8603 9.07902 11.0511 9 11.25 9H17.25C17.4489 9 17.6397 9.07902 17.7803 9.21967C17.921 9.36032 18 9.55109 18 9.75C18 9.94891 17.921 10.1397 17.7803 10.2803C17.6397 10.421 17.4489 10.5 17.25 10.5H11.25C11.0511 10.5 10.8603 10.421 10.7197 10.2803C10.579 10.1397 10.5 9.94891 10.5 9.75ZM11.25 13.5H17.25C17.4489 13.5 17.6397 13.421 17.7803 13.2803C17.921 13.1397 18 12.9489 18 12.75C18 12.5511 17.921 12.3603 17.7803 12.2197C17.6397 12.079 17.4489 12 17.25 12H11.25C11.0511 12 10.8603 12.079 10.7197 12.2197C10.579 12.3603 10.5 12.5511 10.5 12.75C10.5 12.9489 10.579 13.1397 10.7197 13.2803C10.8603 13.421 11.0511 13.5 11.25 13.5ZM23.25 18C23.25 18.7956 22.9339 19.5587 22.3713 20.1213C21.8087 20.6839 21.0456 21 20.25 21H9.75C8.95435 21 8.19129 20.6839 7.62868 20.1213C7.06607 19.5587 6.75 18.7956 6.75 18V6C6.75 5.60218 6.59196 5.22064 6.31066 4.93934C6.02936 4.65804 5.64782 4.5 5.25 4.5C4.85218 4.5 4.47064 4.65804 4.18934 4.93934C3.90804 5.22064 3.75 5.60218 3.75 6C3.75 6.53812 4.20281 6.90188 4.2075 6.90563C4.33163 7.00115 4.42273 7.13313 4.46804 7.28306C4.51334 7.43299 4.51057 7.59335 4.46011 7.74162C4.40965 7.8899 4.31404 8.01866 4.18668 8.10983C4.05933 8.201 3.90663 8.25002 3.75 8.25C3.58781 8.25028 3.43003 8.19725 3.30094 8.09906C3.19219 8.01937 2.25 7.27594 2.25 6C2.25 5.20435 2.56607 4.44129 3.12868 3.87868C3.69129 3.31607 4.45435 3 5.25 3H18C18.7956 3 19.5587 3.31607 20.1213 3.87868C20.6839 4.44129 21 5.20435 21 6V15.75H21.75C21.9123 15.75 22.0702 15.8026 22.2 15.9C22.3125 15.9806 23.25 16.7241 23.25 18ZM10.5244 16.2637C10.5756 16.1125 10.6734 15.9813 10.8038 15.889C10.9341 15.7968 11.0903 15.7481 11.25 15.75H19.5V6C19.5 5.60218 19.342 5.22064 19.0607 4.93934C18.7794 4.65804 18.3978 4.5 18 4.5H7.84594C8.11119 4.95535 8.25064 5.47302 8.25 6V18C8.25 18.3978 8.40804 18.7794 8.68934 19.0607C8.97064 19.342 9.35218 19.5 9.75 19.5C10.1478 19.5 10.5294 19.342 10.8107 19.0607C11.092 18.7794 11.25 18.3978 11.25 18C11.25 17.4619 10.7972 17.0981 10.7925 17.0944C10.6647 17.0029 10.5696 16.8729 10.5214 16.7233C10.4731 16.5738 10.4741 16.4127 10.5244 16.2637ZM21.75 18C21.7406 17.7221 21.6334 17.4565 21.4472 17.25H12.6347C12.7101 17.4929 12.7483 17.7457 12.7481 18C12.7488 18.5267 12.6101 19.0443 12.3459 19.5H20.25C20.6478 19.5 21.0294 19.342 21.3107 19.0607C21.592 18.7794 21.75 18.3978 21.75 18Z" fill="#838A94"/>
</svg>
