<svg width="1668" height="720" viewBox="0 0 1668 720" fill="none" xmlns="http://www.w3.org/2000/svg">
<path d="M3.61671 320.098C3.98104 298.427 27.6896 285.295 46.2541 296.482L202.205 390.46C219.954 401.156 230.927 420.253 231.23 440.973L234.069 635.161C234.236 646.588 222.074 653.997 211.996 648.608L48.4681 561.154C18.7112 545.241 0.356666 514.018 0.923881 480.278L3.61671 320.098Z" fill="#2470FF"/>
<path d="M233.696 49.7854C233.696 27.8999 257.593 14.4003 276.338 25.6963L430.97 118.88C448.987 129.737 460.002 149.236 460.002 170.27V504.522C460.002 574.651 383.346 617.836 323.367 581.497L233.696 527.17V49.7854Z" fill="#2470FF" fill-opacity="0.3"/>
<path d="M119.785 180.265C119.785 159.045 142.388 145.468 161.122 155.437L314.276 236.931C333.855 247.35 346.091 267.72 346.091 289.899V569.783C346.091 637.777 273.59 681.214 213.637 649.141L119.785 598.933V180.265Z" fill="#2470FF" fill-opacity="0.6"/>
<path d="M627.491 286.025V451.161C627.491 469.296 634.577 478.363 648.748 478.363C662.875 478.363 669.946 469.296 669.946 451.161V286.025H731.497V451.161C731.497 469.296 738.552 478.363 752.694 478.363C766.821 478.363 773.892 469.296 773.892 451.161V286.025H835.442V461.79C835.442 472.644 833.656 482.672 830.098 491.874C826.57 501.047 821.391 509.049 814.545 515.894C807.7 522.71 799.263 528.069 789.264 531.988C779.251 535.861 767.767 537.812 754.796 537.812C744.182 537.812 733.974 535.921 724.171 532.168C714.398 528.37 706.576 522.23 700.691 513.733C694.806 522.23 686.955 528.37 677.152 532.168C667.379 535.921 657.185 537.812 646.587 537.812C633.856 537.812 622.477 535.921 612.478 532.168C602.465 528.37 593.983 523.07 587.017 516.255C580.082 509.409 574.842 501.392 571.284 492.175C567.756 482.972 566 472.839 566 461.79V286.025H627.491Z" fill="#508DFF"/>
<path d="M1052.46 533.549H990.969V447.258H952.417V391.412H990.969V367.032C990.969 358.79 988.717 351.839 984.243 346.195C979.755 340.52 973.63 337.668 965.868 337.668C958.092 337.668 951.967 340.52 947.493 346.195C943.004 351.839 940.768 358.79 940.768 367.032V533.549H879.217V369.494C879.217 356.764 881.273 345.039 885.402 334.305C889.515 323.586 895.4 314.339 903.056 306.562C910.743 298.801 919.885 292.736 930.499 288.367C941.098 284.013 952.898 281.822 965.868 281.822C979.079 281.822 991.029 284.074 1001.72 288.547C1012.44 292.991 1021.56 299.176 1029.1 307.103C1036.67 314.999 1042.45 324.307 1046.45 335.026C1050.45 345.759 1052.46 357.244 1052.46 369.494V533.549Z" fill="#508DFF"/>
<path d="M1135.88 286.025L1170.23 458.607H1170.89L1209.08 286.025H1273.46L1226.08 473.079C1222.74 486.53 1219.32 497.444 1215.81 505.806C1212.28 514.183 1208.39 520.729 1204.16 525.442C1199.91 530.126 1194.94 533.354 1189.27 535.11C1183.62 536.912 1177.03 537.813 1169.51 537.813C1161.94 537.813 1155.4 536.807 1149.87 534.81C1144.35 532.814 1139.46 529.451 1135.22 524.722C1130.97 520.008 1127.25 513.763 1124.05 505.986C1120.88 498.18 1118 488.392 1115.41 476.622L1071.21 286.025H1135.88Z" fill="#508DFF"/>
<path d="M1430.4 286.024V343.312H1424.4C1416.38 343.312 1407.48 343.732 1397.67 344.573C1387.9 345.383 1379.25 347.8 1371.73 351.839C1366.52 354.646 1362.15 358.654 1358.64 363.849C1355.11 369.013 1351.57 375.378 1348.01 382.944H1430.4V436.689H1348.01C1351.33 444.465 1354.69 450.77 1358.1 455.604C1361.54 460.408 1365.44 464.296 1369.81 467.254C1374.16 470.226 1379.3 472.343 1385.18 473.619C1391.07 474.91 1398.12 475.661 1406.38 475.901C1409.89 476.141 1413.6 476.261 1417.49 476.261C1421.41 476.261 1425.72 476.261 1430.4 476.261V533.549H1394.01C1378.19 533.549 1363.5 530.426 1349.93 524.181C1336.39 517.936 1324.62 509.274 1314.62 498.179C1304.61 487.1 1296.7 474.025 1290.9 458.967C1285.14 443.88 1282.26 427.486 1282.26 409.786C1282.26 392.342 1285.08 376.084 1290.72 361.026C1296.4 345.939 1304.25 332.848 1314.26 321.754C1324.26 310.675 1336.06 301.937 1349.63 295.572C1363.2 289.207 1377.99 286.024 1394.01 286.024H1430.4Z" fill="#508DFF"/>
<path d="M1532.23 286.025C1551.8 286.025 1569.89 289.057 1586.51 295.092C1603.12 301.097 1617.44 309.594 1629.45 320.553C1641.49 331.482 1650.92 344.678 1657.73 360.126C1664.58 375.588 1668 392.853 1668 411.948C1668 429.603 1664.94 445.861 1658.81 460.709C1652.69 475.571 1644.13 488.362 1633.17 499.08C1622.2 509.814 1609.11 518.236 1593.9 524.361C1578.72 530.486 1562.04 533.549 1543.88 533.549V474.16C1552.84 474.16 1561.08 472.403 1568.62 468.875C1576.18 465.318 1582.67 460.709 1588.07 455.064C1593.51 449.419 1597.7 442.904 1600.62 435.488C1603.58 428.042 1605.07 420.415 1605.07 412.609C1605.07 391.397 1598.4 374.958 1585.07 363.308C1571.77 351.629 1553.1 345.684 1529.05 345.474V533.549H1467.55V286.025H1532.23Z" fill="#508DFF"/>
</svg>
