<svg width="24" height="24" viewBox="0 0 24 24" fill="none" xmlns="http://www.w3.org/2000/svg">
<g clip-path="url(#clip0_3687_50613)">
<rect width="24" height="24" rx="2" fill="white"/>
<path d="M25.5796 24.7247C18.848 21.6097 20.4363 17.7858 22.0719 16.2633C22.0719 16.2633 14.862 14.1873 12.9456 17.3287C11.5723 19.5799 12.0246 22.7568 12.0246 22.7568L25.5796 24.7247Z" fill="#508DFF" stroke="black" stroke-width="0.25" stroke-linecap="round"/>
<path d="M19.1033 17.7338C18.4569 19.7472 18.2601 25.058 24.6308 25.3078" stroke="black" stroke-width="0.25" stroke-linecap="round"/>
<path d="M17.4168 17.183C16.5116 19.0909 15.6174 24.3302 21.8926 25.4536" stroke="black" stroke-width="0.25" stroke-linecap="round"/>
<path d="M15.323 16.9194C14.4178 18.8272 13.5237 24.0666 19.7988 25.1899" stroke="black" stroke-width="0.25" stroke-linecap="round"/>
<path fill-rule="evenodd" clip-rule="evenodd" d="M19.998 14.9985C19.9353 15.0616 19.8857 15.1354 19.8486 15.2181C18.9283 14.4691 17.937 14.2203 17.483 14.6782C17.3989 14.7629 17.3383 14.8669 17.2999 14.986C16.0858 14.4571 13.9591 15.2082 12.8241 17.1719C12.7028 17.3818 12.7387 17.3553 12.8928 17.2415C13.2994 16.9415 14.5286 16.0343 15.8668 17.2542C17.084 18.445 18.1555 18.7456 18.6855 18.2111C18.749 18.1471 18.7991 18.0723 18.8363 17.9882C19.7564 18.7367 20.7472 18.9852 21.2011 18.5275C21.2638 18.4644 21.3134 18.3906 21.3505 18.3078C22.2708 19.0569 23.2621 19.3057 23.7161 18.8478C24.2461 18.3134 23.8435 17.0184 22.8167 15.9554C21.79 14.8924 20.528 14.464 19.998 14.9985Z" fill="white"/>
<path d="M19.8486 15.2181L19.7702 15.3152L19.8963 15.4178L19.9626 15.2698L19.8486 15.2181ZM19.998 14.9985L19.9092 14.91L19.9092 14.91L19.998 14.9985ZM17.483 14.6782L17.3942 14.5897L17.3942 14.5897L17.483 14.6782ZM17.2999 14.986L17.2506 15.1007L17.3766 15.1557L17.4188 15.0249L17.2999 14.986ZM12.8241 17.1719L12.716 17.1088L12.716 17.1088L12.8241 17.1719ZM12.8928 17.2415L12.9671 17.3424L12.9671 17.3424L12.8928 17.2415ZM15.8668 17.2542L15.9538 17.1647L15.9506 17.1617L15.8668 17.2542ZM18.6855 18.2111L18.7743 18.2995L18.7743 18.2995L18.6855 18.2111ZM18.8363 17.9882L18.9147 17.8912L18.7881 17.7881L18.7221 17.937L18.8363 17.9882ZM21.2011 18.5275L21.1124 18.4391L21.1124 18.4391L21.2011 18.5275ZM21.3505 18.3078L21.4289 18.2108L21.3028 18.1082L21.2365 18.2561L21.3505 18.3078ZM23.7161 18.8478L23.6274 18.7594L23.6274 18.7594L23.7161 18.8478ZM22.8167 15.9554L22.7272 16.0423L22.7272 16.0423L22.8167 15.9554ZM19.9626 15.2698C19.9939 15.1999 20.0353 15.1388 20.0867 15.0869L19.9092 14.91C19.8354 14.9845 19.7775 15.0709 19.7347 15.1664L19.9626 15.2698ZM17.5717 14.7666C17.7552 14.5815 18.0634 14.5235 18.463 14.6174C18.8595 14.7106 19.3205 14.9492 19.7702 15.3152L19.9271 15.1211C19.4564 14.7381 18.9617 14.4778 18.519 14.3737C18.0793 14.2704 17.6648 14.3169 17.3942 14.5897L17.5717 14.7666ZM17.4188 15.0249C17.4518 14.9225 17.5028 14.8361 17.5717 14.7666L17.3942 14.5897C17.295 14.6898 17.2248 14.8113 17.1811 14.9471L17.4188 15.0249ZM12.9322 17.2349C13.4864 16.2762 14.2816 15.6153 15.0834 15.2586C15.8885 14.9005 16.6857 14.8547 17.2506 15.1007L17.3493 14.8713C16.7 14.5884 15.8268 14.6537 14.9813 15.0298C14.1325 15.4074 13.2969 16.1038 12.716 17.1088L12.9322 17.2349ZM12.8185 17.1406C12.7787 17.17 12.7509 17.1905 12.7312 17.2034C12.7211 17.2101 12.7179 17.2115 12.7192 17.2109C12.7198 17.2106 12.7261 17.2077 12.7361 17.2056C12.7442 17.204 12.7708 17.1994 12.8023 17.2124C12.8194 17.2195 12.8358 17.2309 12.8489 17.2467C12.8617 17.2621 12.8686 17.2781 12.8722 17.291C12.8787 17.3145 12.8758 17.3327 12.8751 17.3372C12.8734 17.3471 12.8711 17.3498 12.876 17.3389C12.8843 17.3202 12.9018 17.2877 12.9322 17.2349L12.716 17.1088C12.6858 17.161 12.6623 17.2038 12.648 17.2357C12.6416 17.2501 12.6326 17.2717 12.6287 17.2951C12.6269 17.3062 12.624 17.3297 12.6316 17.3572C12.6409 17.3907 12.6654 17.4261 12.7081 17.4437C12.7428 17.4581 12.7737 17.4536 12.7872 17.4508C12.8027 17.4477 12.8154 17.4425 12.8234 17.4388C12.8398 17.4313 12.8558 17.4214 12.8687 17.4129C12.8954 17.3954 12.9299 17.3699 12.9671 17.3424L12.8185 17.1406ZM15.9506 17.1617C15.2506 16.5237 14.5673 16.4356 14.004 16.5555C13.4497 16.6734 13.0217 16.9907 12.8185 17.1406L12.9671 17.3424C13.1705 17.1923 13.5604 16.906 14.0569 16.8003C14.5443 16.6966 15.1448 16.7648 15.783 17.3466L15.9506 17.1617ZM18.5968 18.1227C18.3764 18.3449 18.0317 18.4092 17.5717 18.2605C17.1106 18.1115 16.5547 17.7527 15.9538 17.1648L15.7798 17.3435C16.3961 17.9464 16.9845 18.3334 17.496 18.4987C18.0086 18.6644 18.4646 18.6118 18.7743 18.2995L18.5968 18.1227ZM18.7221 17.937C18.6906 18.0081 18.6489 18.0701 18.5968 18.1227L18.7743 18.2995C18.849 18.2241 18.9075 18.1364 18.9504 18.0394L18.7221 17.937ZM21.1124 18.4391C20.929 18.6241 20.6209 18.6821 20.2215 18.5884C19.8252 18.4953 19.3643 18.2569 18.9147 17.8912L18.7579 18.0852C19.2284 18.468 19.723 18.7281 20.1656 18.832C20.6051 18.9352 21.0194 18.8887 21.2899 18.6159L21.1124 18.4391ZM21.2365 18.2561C21.2052 18.3261 21.1639 18.3872 21.1124 18.4391L21.2899 18.6159C21.3637 18.5415 21.4216 18.4551 21.4644 18.3595L21.2365 18.2561ZM23.6274 18.7594C23.4439 18.9445 23.1357 19.0025 22.7361 18.9086C22.3397 18.8154 21.8786 18.5768 21.4289 18.2108L21.272 18.4049C21.7427 18.7879 22.2374 19.0482 22.6802 19.1523C23.1199 19.2556 23.5343 19.2091 23.8049 18.9362L23.6274 18.7594ZM22.7272 16.0423C23.2297 16.5625 23.5752 17.1354 23.731 17.6366C23.8892 18.1451 23.8429 18.5421 23.6274 18.7594L23.8049 18.9362C24.1194 18.6191 24.1368 18.1014 23.9694 17.5631C23.7997 17.0174 23.4305 16.4113 22.9062 15.8686L22.7272 16.0423ZM20.0867 15.0869C20.301 14.8708 20.6872 14.8286 21.1815 14.9964C21.6689 15.1619 22.2247 15.522 22.7272 16.0423L22.9062 15.8686C22.382 15.3259 21.7934 14.9403 21.2607 14.7594C20.7348 14.5809 20.225 14.5916 19.9092 14.91L20.0867 15.0869Z" fill="black"/>
<path d="M21.503 24.5002C12.0801 24.0398 12.2321 13.3065 13.4192 10.708C13.4192 10.708 2.86654 9.05245 -0.133365 13.1912C-1.08013 14.4973 -1.33959 18.5608 -1.33959 18.5608L9.61376 25.8888L21.503 24.5002Z" fill="#2470FF" stroke="black" stroke-width="0.25" stroke-linecap="round"/>
<path d="M10.6682 12.6123C10.0192 15.2494 10.003 24.9992 18.5053 24.9992" stroke="black" stroke-width="0.25" stroke-linecap="round"/>
<path d="M2.29488 12.775C0.930829 15.426 -0.713742 24.7337 9.5908 24.9645" stroke="black" stroke-width="0.25" stroke-linecap="round"/>
<path d="M4.91358 13.2629C3.67001 15.9638 2.44975 25.3178 12.769 25.1254" stroke="black" stroke-width="0.25" stroke-linecap="round"/>
<path d="M7.97723 12.0673C6.80251 14.7941 5.68488 26.9304 16.0039 26.5" stroke="black" stroke-width="0.25" stroke-linecap="round"/>
<path fill-rule="evenodd" clip-rule="evenodd" d="M9.50158 7.00654C9.43734 7.14491 9.4019 7.29092 9.39333 7.44238C7.37745 6.90983 5.56473 7.18649 5.10119 8.18492C5.01466 8.3713 4.98038 8.57153 4.99365 8.78029C2.6446 8.80183 -0.358636 11.446 -0.991794 15.1918C-1.03212 15.4304 -1.00884 15.3894 -0.900498 15.1987C-0.529908 14.5463 0.835893 12.1419 4.0551 13.1823C6.85111 14.1931 8.83224 13.9425 9.37355 12.7766C9.43829 12.6371 9.47378 12.4899 9.48199 12.3371C11.4993 12.871 13.314 12.5946 13.7778 11.5956C13.8421 11.4572 13.8775 11.3112 13.8861 11.1597C15.902 11.6923 17.7147 11.4156 18.1782 10.4172C18.7195 9.25126 17.216 7.54258 14.82 6.60076C12.424 5.65893 10.0429 5.8406 9.50158 7.00654Z" fill="white"/>
<path d="M9.39333 7.44238L9.3601 7.56354L9.50911 7.60291L9.51788 7.44784L9.39333 7.44238ZM9.50158 7.00654L9.61452 7.05822L9.61452 7.05822L9.50158 7.00654ZM5.10119 8.18492L4.98825 8.13324L4.98825 8.13324L5.10119 8.18492ZM4.99365 8.78029L4.99314 8.90554L5.12663 8.90432L5.11814 8.77067L4.99365 8.78029ZM-0.991794 15.1918L-0.868814 15.2112L-0.868814 15.2112L-0.991794 15.1918ZM-0.900498 15.1987L-0.792338 15.2597L-0.792337 15.2597L-0.900498 15.1987ZM4.0551 13.1823L4.09876 13.0644L4.09475 13.0631L4.0551 13.1823ZM9.37355 12.7766L9.2606 12.7249L9.2606 12.7249L9.37355 12.7766ZM9.48199 12.3371L9.51527 12.216L9.36578 12.1764L9.35742 12.332L9.48199 12.3371ZM13.7778 11.5956L13.8908 11.6473L13.8908 11.6473L13.7778 11.5956ZM13.8861 11.1597L13.9193 11.0386L13.7703 10.9992L13.7615 11.1543L13.8861 11.1597ZM18.1782 10.4172L18.0653 10.3655L18.0653 10.3655L18.1782 10.4172ZM14.82 6.60076L14.8668 6.48404L14.8668 6.48404L14.82 6.60076ZM9.51788 7.44784C9.52558 7.31168 9.55732 7.18143 9.61452 7.05822L9.38864 6.95486C9.31736 7.10838 9.27822 7.27016 9.26879 7.43693L9.51788 7.44784ZM5.21413 8.23661C5.41981 7.79358 5.9375 7.48771 6.68401 7.36308C7.42558 7.23928 8.36455 7.30054 9.3601 7.56354L9.42656 7.32123C8.40623 7.05168 7.4309 6.98499 6.64626 7.11598C5.86654 7.24615 5.2461 7.57783 4.98825 8.13324L5.21413 8.23661ZM5.11814 8.77067C5.1061 8.58119 5.13723 8.40224 5.21413 8.2366L4.98825 8.13324C4.8921 8.34035 4.85467 8.56188 4.86915 8.78991L5.11814 8.77067ZM-0.868814 15.2112C-0.556867 13.3657 0.339045 11.7917 1.44524 10.6773C2.55377 9.56049 3.86188 8.91591 4.99314 8.90554L4.99416 8.65504C3.77637 8.66621 2.40834 9.35449 1.26969 10.5016C0.128722 11.6511 -0.793563 13.2722 -1.11477 15.1725L-0.868814 15.2112ZM-1.00866 15.1377C-1.03632 15.1864 -1.05656 15.222 -1.07164 15.2462C-1.07932 15.2585 -1.08348 15.2643 -1.08494 15.2662C-1.08571 15.2671 -1.08366 15.2644 -1.07909 15.2602C-1.07658 15.2579 -1.06156 15.2438 -1.03592 15.2362C-1.02133 15.2319 -1.00086 15.2289 -0.977453 15.2338C-0.953297 15.2388 -0.933609 15.2506 -0.919231 15.2646C-0.894281 15.2887 -0.888467 15.3156 -0.88738 15.3205C-0.884518 15.3335 -0.886153 15.3397 -0.885314 15.3272C-0.884001 15.3076 -0.878981 15.2714 -0.868814 15.2112L-1.11477 15.1725C-1.12477 15.2316 -1.13196 15.2797 -1.13424 15.3136C-1.13519 15.3278 -1.13647 15.353 -1.13101 15.3777C-1.12862 15.3886 -1.12095 15.4196 -1.09357 15.4461C-1.0562 15.4822 -1.00671 15.4879 -0.967871 15.4763C-0.938645 15.4676 -0.919468 15.4508 -0.9122 15.4442C-0.902881 15.4356 -0.895486 15.4269 -0.890316 15.4203C-0.879883 15.4071 -0.869746 15.3917 -0.860638 15.3771C-0.842137 15.3474 -0.818841 15.3063 -0.792338 15.2597L-1.00866 15.1377ZM4.09475 13.0631C2.44818 12.5309 1.2612 12.878 0.43869 13.4532C-0.376817 14.0235 -0.822679 14.8103 -1.00866 15.1377L-0.792337 15.2597C-0.607726 14.9347 -0.185394 14.193 0.57945 13.6582C1.33729 13.1282 2.44281 12.7933 4.01546 13.3016L4.09475 13.0631ZM9.2606 12.7249C9.01679 13.2501 8.4397 13.591 7.55034 13.671C6.66224 13.7508 5.48692 13.5663 4.09873 13.0644L4.01148 13.3003C5.41929 13.8092 6.63254 14.0047 7.56933 13.9205C8.50487 13.8364 9.189 13.469 9.48649 12.8282L9.2606 12.7249ZM9.35742 12.332C9.35004 12.4694 9.31826 12.6007 9.2606 12.7249L9.48649 12.8282C9.55833 12.6735 9.59751 12.5104 9.60655 12.3422L9.35742 12.332ZM13.6649 11.5439C13.4591 11.9872 12.9409 12.2932 12.1937 12.4176C11.4514 12.5413 10.5116 12.4797 9.51527 12.216L9.44871 12.4583C10.4698 12.7285 11.446 12.7956 12.2313 12.6648C13.0117 12.5348 13.6328 12.203 13.8908 11.6473L13.6649 11.5439ZM13.7615 11.1543C13.7538 11.2904 13.7221 11.4207 13.6649 11.5439L13.8908 11.6473C13.9621 11.4937 14.0012 11.332 14.0106 11.1652L13.7615 11.1543ZM18.0653 10.3655C17.8596 10.8085 17.3419 11.1144 16.5954 11.239C15.8538 11.3628 14.9149 11.3016 13.9193 11.0386L13.8529 11.2809C14.8732 11.5504 15.8485 11.6171 16.6332 11.4861C17.4129 11.356 18.0333 11.0243 18.2912 10.4689L18.0653 10.3655ZM14.7732 6.71747C15.9575 7.183 16.9146 7.83575 17.5066 8.50856C18.1041 9.18759 18.3036 9.85229 18.0653 10.3655L18.2912 10.4689C18.5942 9.81617 18.3125 9.04356 17.6946 8.34131C17.0712 7.63284 16.0785 6.96034 14.8668 6.48404L14.7732 6.71747ZM9.61452 7.05822C9.85504 6.54015 10.5234 6.21059 11.4731 6.13813C12.4136 6.06637 13.5891 6.25203 14.7732 6.71747L14.8668 6.48404C13.6549 6.00765 12.4419 5.81324 11.4575 5.88834C10.4823 5.96275 9.68942 6.307 9.38864 6.95486L9.61452 7.05822Z" fill="black"/>
<path d="M16.8438 25.8098C7.70875 22.971 9.1251 17.9243 10.9751 15.7558C10.9751 15.7558 1.23024 14.3974 -0.717411 18.6405C-2.11307 21.681 -0.853048 25.4913 -0.853048 25.4913L16.8438 25.8098Z" fill="#004BD8" stroke="black" stroke-width="0.25" stroke-linecap="round"/>
<path d="M7.42057 18.0722C6.91821 20.6995 7.52684 27.3901 15.7347 26.6932" stroke="black" stroke-width="0.25" stroke-linecap="round"/>
<path d="M5.16889 17.6495C4.31765 20.1853 4.02069 26.8969 12.2477 27.3106" stroke="black" stroke-width="0.25" stroke-linecap="round"/>
<path d="M2.4267 17.6495C1.57546 20.1853 1.2785 26.8969 9.50546 27.3106" stroke="black" stroke-width="0.25" stroke-linecap="round"/>
<path fill-rule="evenodd" clip-rule="evenodd" d="M8.11456 14.5001C8.04379 14.5902 7.99182 14.6917 7.95769 14.8026C6.65612 14.0089 5.34455 13.8539 4.83657 14.5001C4.74246 14.6199 4.68159 14.7599 4.65173 14.9154C3.00989 14.4382 0.398578 15.717 -0.740089 18.3637C-0.861603 18.6461 -0.8199 18.6072 -0.6407 18.4401C-0.168128 17.9994 1.26066 16.667 3.17399 17.9844C4.92755 19.2847 6.34996 19.4917 6.94281 18.7375C7.01429 18.6465 7.06659 18.5439 7.10069 18.4316C8.40407 19.2283 9.71861 19.3846 10.2273 18.7375C10.2981 18.6474 10.3501 18.5459 10.3842 18.435C11.6857 19.2287 12.9973 19.3837 13.5053 18.7375C14.0982 17.9833 13.372 16.4233 11.8834 15.2532C10.3948 14.0831 8.70741 13.7459 8.11456 14.5001Z" fill="white"/>
<path d="M7.95769 14.8026L7.89261 14.9094L8.0299 14.9931L8.07717 14.8394L7.95769 14.8026ZM8.11456 14.5001L8.21284 14.5774L8.21284 14.5774L8.11456 14.5001ZM4.83657 14.5001L4.73829 14.4229L4.73829 14.4229L4.83657 14.5001ZM4.65173 14.9154L4.61684 15.0355L4.74861 15.0738L4.77449 14.939L4.65173 14.9154ZM-0.740089 18.3637L-0.854913 18.3143L-0.854913 18.3143L-0.740089 18.3637ZM-0.6407 18.4401L-0.55545 18.5315L-0.55545 18.5315L-0.6407 18.4401ZM3.17399 17.9844L3.24848 17.884L3.24488 17.8815L3.17399 17.9844ZM6.94281 18.7375L7.04108 18.8147L7.04108 18.8147L6.94281 18.7375ZM7.10069 18.4316L7.16588 18.325L7.02805 18.2407L6.98109 18.3953L7.10069 18.4316ZM10.2273 18.7375L10.3256 18.8147L10.3256 18.8147L10.2273 18.7375ZM10.3842 18.435L10.4493 18.3283L10.312 18.2445L10.2647 18.3982L10.3842 18.435ZM13.5053 18.7375L13.407 18.6602L13.407 18.6602L13.5053 18.7375ZM11.8834 15.2532L11.9606 15.1549L11.9606 15.1549L11.8834 15.2532ZM8.07717 14.8394C8.10704 14.7423 8.1521 14.6546 8.21284 14.5774L8.01629 14.4229C7.93548 14.5257 7.8766 14.6411 7.83821 14.7659L8.07717 14.8394ZM4.93484 14.5774C5.15057 14.3029 5.55209 14.1805 6.0867 14.2357C6.61768 14.2905 7.25323 14.5195 7.89261 14.9094L8.02277 14.6959C7.36058 14.2921 6.68956 14.0466 6.11237 13.987C5.53881 13.9278 5.03055 14.0511 4.73829 14.4229L4.93484 14.5774ZM4.77449 14.939C4.80096 14.8011 4.85424 14.6799 4.93484 14.5774L4.73829 14.4229C4.63068 14.5598 4.56222 14.7187 4.52897 14.8919L4.77449 14.939ZM-0.625265 18.4131C-0.0667285 17.1149 0.852431 16.1535 1.8307 15.5757C2.81198 14.9961 3.83925 14.8094 4.61684 15.0355L4.68662 14.7954C3.82237 14.5442 2.72306 14.7583 1.70356 15.3605C0.681048 15.9644 -0.274782 16.9659 -0.854913 18.3143L-0.625265 18.4131ZM-0.725951 18.3487C-0.771885 18.3915 -0.805107 18.4225 -0.829059 18.4425C-0.834735 18.4472 -0.839217 18.4508 -0.842668 18.4534C-0.846263 18.4561 -0.847773 18.457 -0.847588 18.4569C-0.847421 18.4568 -0.846321 18.4561 -0.844405 18.4552C-0.842566 18.4543 -0.839097 18.4527 -0.834254 18.451C-0.827238 18.4487 -0.802674 18.4413 -0.771014 18.4497C-0.75375 18.4543 -0.736533 18.4631 -0.721702 18.4767C-0.707229 18.4899 -0.698364 18.5045 -0.693103 18.5168C-0.683589 18.539 -0.684236 18.5571 -0.684389 18.561C-0.684731 18.5696 -0.686255 18.5702 -0.681634 18.5553C-0.673449 18.5289 -0.655756 18.484 -0.625265 18.4131L-0.854913 18.3143C-0.885179 18.3846 -0.907841 18.4407 -0.920412 18.4812C-0.926169 18.4998 -0.933172 18.5253 -0.934193 18.5511C-0.934686 18.5635 -0.934474 18.5883 -0.922912 18.6153C-0.908815 18.6482 -0.879388 18.6795 -0.83531 18.6913C-0.799241 18.7009 -0.769094 18.6928 -0.755331 18.6883C-0.739727 18.6831 -0.72691 18.676 -0.718286 18.6708C-0.700891 18.6603 -0.683682 18.6468 -0.668776 18.6343C-0.638306 18.6089 -0.599115 18.5723 -0.55545 18.5315L-0.725951 18.3487ZM3.24488 17.8815C2.25449 17.1996 1.37751 17.1989 0.686016 17.4347C0.00282683 17.6677 -0.489591 18.1283 -0.725951 18.3487L-0.55545 18.5315C-0.319237 18.3113 0.139026 17.8853 0.766706 17.6713C1.38608 17.4601 2.18016 17.4519 3.1031 18.0874L3.24488 17.8815ZM6.84453 18.6602C6.58739 18.9874 6.13933 19.1237 5.5164 19.0085C4.89301 18.8932 4.11665 18.5278 3.24844 17.884L3.09954 18.0849C3.98489 18.7413 4.79651 19.1296 5.47093 19.2543C6.14581 19.3791 6.70537 19.2418 7.04108 18.8147L6.84453 18.6602ZM6.98109 18.3953C6.95123 18.4936 6.90587 18.5822 6.84453 18.6602L7.04108 18.8147C7.1227 18.7109 7.18195 18.5942 7.2203 18.468L6.98109 18.3953ZM10.129 18.6602C9.913 18.9351 9.51065 19.0574 8.97494 19.0017C8.4429 18.9463 7.80616 18.7163 7.16588 18.325L7.0355 18.5383C7.6986 18.9436 8.37082 19.1901 8.94907 19.2503C9.52365 19.3101 10.0329 19.1871 10.3256 18.8147L10.129 18.6602ZM10.2647 18.3982C10.2348 18.4954 10.1898 18.583 10.129 18.6602L10.3256 18.8147C10.4064 18.7119 10.4653 18.5965 10.5037 18.4717L10.2647 18.3982ZM13.407 18.6602C13.1913 18.9347 12.7898 19.0571 12.2552 19.0019C11.7242 18.9471 11.0886 18.7182 10.4493 18.3283L10.3191 18.5417C10.9813 18.9455 11.6523 19.191 12.2295 19.2506C12.8031 19.3098 13.3113 19.1865 13.6036 18.8147L13.407 18.6602ZM11.8061 15.3514C12.5383 15.927 13.0779 16.5948 13.3616 17.204C13.6485 17.8205 13.659 18.3397 13.407 18.6602L13.6036 18.8147C13.9445 18.381 13.8883 17.7432 13.5882 17.0985C13.2848 16.4467 12.7171 15.7495 11.9606 15.1549L11.8061 15.3514ZM8.21284 14.5774C8.46477 14.2569 8.97182 14.1444 9.63857 14.2776C10.2976 14.4093 11.074 14.7759 11.8061 15.3514L11.9606 15.1549C11.2042 14.5603 10.3926 14.1733 9.68755 14.0325C8.99025 13.8931 8.3572 13.9892 8.01629 14.4229L8.21284 14.5774Z" fill="black"/>
<circle cx="15.7275" cy="3.72754" r="0.727536" fill="white" stroke="black" stroke-width="0.25"/>
<circle cx="20.8073" cy="5.14327" r="1.14327" fill="white" stroke="black" stroke-width="0.25"/>
<circle cx="20.0709" cy="8.88344" r="0.883436" fill="white" stroke="black" stroke-width="0.25"/>
</g>
<defs>
<clipPath id="clip0_3687_50613">
<rect width="24" height="24" rx="2" fill="white"/>
</clipPath>
</defs>
</svg>
