<svg width="33" height="33" viewBox="0 0 33 33" fill="none" xmlns="http://www.w3.org/2000/svg">
<g clip-path="url(#clip0_3364_50453)">
<rect width="33" height="33" rx="16.5" fill="black"/>
<path fill-rule="evenodd" clip-rule="evenodd" d="M7.41391 33.4955C5.31734 33.3929 3.50182 32.6829 2.21243 31.3139C-1.64643 27.2167 0.66843 18.7688 7.38281 12.4449C14.0972 6.121 22.6685 4.31584 26.5274 8.41297C28.1803 10.168 28.7005 12.7212 28.2273 15.5639C31.267 16.2362 33.5793 17.8309 34.4731 20.2089C35.6336 23.2962 34.1254 26.9652 30.8857 29.9902C31.2084 30.6042 31.3884 31.2567 31.4032 31.9354C31.4872 35.8108 26.1507 39.0696 19.4838 39.2143C13.4242 39.3458 8.35117 36.8594 7.41391 33.4955Z" fill="#BFC4CD"/>
<path d="M7.41391 33.4955L7.89557 33.3613L7.79873 33.0138L7.43837 32.9961L7.41391 33.4955ZM2.21243 31.3139L1.84845 31.6567L1.84845 31.6567L2.21243 31.3139ZM7.38281 12.4449L7.72562 12.8089L7.72562 12.8089L7.38281 12.4449ZM26.5274 8.41297L26.1634 8.75578L26.1634 8.75578L26.5274 8.41297ZM28.2273 15.5639L27.7341 15.4819L27.6562 15.9497L28.1193 16.0522L28.2273 15.5639ZM34.4731 20.2089L34.0051 20.3848L34.0051 20.3848L34.4731 20.2089ZM30.8857 29.9902L30.5445 29.6247L30.2656 29.8851L30.4431 30.2228L30.8857 29.9902ZM31.4032 31.9354L31.903 31.9246L31.903 31.9246L31.4032 31.9354ZM19.4838 39.2143L19.4946 39.7142L19.4946 39.7142L19.4838 39.2143ZM7.43837 32.9961C5.43984 32.8983 3.75785 32.2254 2.57641 30.971L1.84845 31.6567C3.24578 33.1403 5.19483 33.8875 7.38946 33.9949L7.43837 32.9961ZM2.57641 30.971C0.811848 29.0975 0.40458 26.1686 1.31488 22.8466C2.22249 19.5343 4.42415 15.9184 7.72562 12.8089L7.04 12.0809C3.62709 15.2954 1.31413 19.0653 0.350432 22.5823C-0.610577 26.0894 -0.245844 29.4331 1.84845 31.6567L2.57641 30.971ZM7.72562 12.8089C11.0271 9.69941 14.7683 7.71809 18.1289 7.01032C21.4995 6.30045 24.3988 6.88226 26.1634 8.75578L26.8913 8.07015C24.797 5.84654 21.4812 5.28237 17.9229 6.03178C14.3545 6.78329 10.4529 8.8665 7.04 12.0809L7.72562 12.8089ZM26.1634 8.75578C27.6759 10.3617 28.1908 12.7379 27.7341 15.4819L28.7205 15.646C29.2101 12.7046 28.6847 9.9742 26.8913 8.07015L26.1634 8.75578ZM28.1193 16.0522C31.0613 16.7028 33.1915 18.2204 34.0051 20.3848L34.9412 20.033C33.9671 17.4415 31.4727 15.7696 28.3353 15.0757L28.1193 16.0522ZM34.0051 20.3848C35.0609 23.1936 33.7211 26.6587 30.5445 29.6247L31.227 30.3556C34.5298 27.2718 36.2063 23.3989 34.9412 20.033L34.0051 20.3848ZM30.4431 30.2228C30.7329 30.7742 30.8904 31.3513 30.9033 31.9462L31.903 31.9246C31.8865 31.1622 31.684 30.4342 31.3283 29.7576L30.4431 30.2228ZM30.9033 31.9462C30.9398 33.6314 29.7961 35.276 27.7145 36.5471C25.6454 37.8107 22.7341 38.6436 19.4729 38.7144L19.4946 39.7142C22.9004 39.6403 25.9908 38.7715 28.2357 37.4006C30.4681 36.0373 31.9506 34.1147 31.903 31.9246L30.9033 31.9462ZM19.4729 38.7144C16.5103 38.7787 13.8065 38.2019 11.7438 37.2147C9.66911 36.2216 8.3102 34.8495 7.89557 33.3613L6.93226 33.6297C7.45489 35.5055 9.10113 37.0584 11.3121 38.1167C13.5352 39.1807 16.3977 39.7814 19.4946 39.7142L19.4729 38.7144Z" fill="black"/>
<path d="M14.2776 22.6633C13.9974 24.096 13.3168 25.2895 12.4667 26.0661C11.6166 26.8427 10.6265 27.1816 9.68755 26.9979C8.74856 26.8142 7.95912 26.1273 7.46431 25.0875C6.96954 24.0479 6.78883 22.686 7.06908 21.2533C7.34933 19.8206 8.02991 18.6271 8.87994 17.8505C9.73005 17.0739 10.7201 16.735 11.6591 16.9187C12.5981 17.1023 13.3876 17.7893 13.8824 18.829C14.3771 19.8686 14.5579 21.2306 14.2776 22.6633Z" fill="#BFC4CD" stroke="black"/>
<mask id="path-6-inside-1_3364_50453" fill="white">
<path d="M14.9088 21.3007C14.9048 19.8289 14.4548 18.4867 13.6577 17.5694C12.8606 16.6521 11.7817 16.2347 10.6584 16.4091C9.53511 16.5835 8.45938 17.3354 7.66789 18.4994C6.87639 19.6634 6.43396 21.1442 6.43792 22.6159L10.6733 21.9583L14.9088 21.3007Z"/>
</mask>
<path d="M14.9088 21.3007C14.9048 19.8289 14.4548 18.4867 13.6577 17.5694C12.8606 16.6521 11.7817 16.2347 10.6584 16.4091C9.53511 16.5835 8.45938 17.3354 7.66789 18.4994C6.87639 19.6634 6.43396 21.1442 6.43792 22.6159L10.6733 21.9583L14.9088 21.3007Z" fill="#BFC4CD" stroke="black" stroke-width="2" mask="url(#path-6-inside-1_3364_50453)"/>
<path d="M21.301 22.6633C21.0208 24.096 20.3402 25.2895 19.4902 26.0661C18.6401 26.8427 17.65 27.1816 16.711 26.9979C15.772 26.8142 14.9826 26.1273 14.4877 25.0875C13.993 24.0479 13.8123 22.686 14.0925 21.2533C14.3728 19.8206 15.0533 18.6271 15.9034 17.8505C16.7535 17.0739 17.7436 16.735 18.6826 16.9187C19.6216 17.1023 20.411 17.7893 20.9058 18.829C21.4006 19.8686 21.5813 21.2306 21.301 22.6633Z" fill="#BFC4CD" stroke="black"/>
<mask id="path-8-inside-2_3364_50453" fill="white">
<path d="M21.7918 22.7593C22.0787 21.2926 21.9224 19.8015 21.3573 18.6142C20.7922 17.4268 19.8646 16.6404 18.7786 16.428C17.6925 16.2155 16.537 16.5944 15.5661 17.4814C14.5953 18.3683 13.8887 19.6905 13.6018 21.1573L17.6968 21.9583L21.7918 22.7593Z"/>
</mask>
<path d="M21.7918 22.7593C22.0787 21.2926 21.9224 19.8015 21.3573 18.6142C20.7922 17.4268 19.8646 16.6404 18.7786 16.428C17.6925 16.2155 16.537 16.5944 15.5661 17.4814C14.5953 18.3683 13.8887 19.6905 13.6018 21.1573L17.6968 21.9583L21.7918 22.7593Z" fill="#BFC4CD" stroke="black" stroke-width="2" mask="url(#path-8-inside-2_3364_50453)"/>
<path d="M26.4575 27.4982C26.4575 28.6978 25.9388 29.091 25.299 29.091C24.6593 29.091 24.1406 28.6978 24.1406 27.4982C24.1406 26.2986 25.299 25.3262 25.299 25.3262C25.299 25.3262 26.4575 26.2986 26.4575 27.4982Z" fill="#E9F1FF" stroke="black"/>
</g>
<rect x="0.5" y="0.5" width="32" height="32" rx="16" stroke="black"/>
<defs>
<clipPath id="clip0_3364_50453">
<rect width="33" height="33" rx="16.5" fill="white"/>
</clipPath>
</defs>
</svg>
