<svg width="24" height="24" viewBox="0 0 24 24" fill="none" xmlns="http://www.w3.org/2000/svg">
<g clip-path="url(#clip0_3420_56142)">
<rect width="24" height="24" rx="2" fill="white"/>
<path d="M25.5835 24.7247C18.8519 21.6097 20.4402 17.7858 22.0758 16.2633C22.0758 16.2633 14.8659 14.1873 12.9495 17.3287C11.5762 19.5798 12.0285 22.7568 12.0285 22.7568L25.5835 24.7247Z" fill="#508DFF" stroke="black" stroke-width="0.25" stroke-linecap="round"/>
<path d="M19.1072 17.7338C18.4608 19.7472 18.264 25.058 24.6347 25.3078" stroke="black" stroke-width="0.25" stroke-linecap="round"/>
<path d="M17.4207 17.183C16.5155 19.0909 15.6213 24.3302 21.8965 25.4536" stroke="black" stroke-width="0.25" stroke-linecap="round"/>
<path d="M15.3269 16.9194C14.4217 18.8272 13.5276 24.0666 19.8027 25.1899" stroke="black" stroke-width="0.25" stroke-linecap="round"/>
<mask id="path-6-inside-1_3420_56142" fill="white">
<path fill-rule="evenodd" clip-rule="evenodd" d="M19.998 14.9985C19.9355 15.0615 19.8859 15.1351 19.8489 15.2177C18.9292 14.4702 17.9393 14.2222 17.4857 14.6797C17.4016 14.7645 17.341 14.8685 17.3026 14.9876C16.0886 14.458 13.9612 15.209 12.8259 17.1731C12.7046 17.383 12.7405 17.3565 12.8947 17.2428C13.3012 16.9427 14.5304 16.0356 15.8686 17.2554C17.0858 18.4462 18.1573 18.7468 18.6874 18.2124C18.7509 18.1483 18.801 18.0733 18.8383 17.9891C19.7586 18.7381 20.7498 18.9869 21.2038 18.529C21.2664 18.466 21.3159 18.3924 21.353 18.3099C22.2726 19.0573 23.2625 19.3053 23.7161 18.8478C24.2461 18.3134 23.8435 17.0184 22.8167 15.9554C21.79 14.8924 20.528 14.464 19.998 14.9985Z"/>
</mask>
<path fill-rule="evenodd" clip-rule="evenodd" d="M19.998 14.9985C19.9355 15.0615 19.8859 15.1351 19.8489 15.2177C18.9292 14.4702 17.9393 14.2222 17.4857 14.6797C17.4016 14.7645 17.341 14.8685 17.3026 14.9876C16.0886 14.458 13.9612 15.209 12.8259 17.1731C12.7046 17.383 12.7405 17.3565 12.8947 17.2428C13.3012 16.9427 14.5304 16.0356 15.8686 17.2554C17.0858 18.4462 18.1573 18.7468 18.6874 18.2124C18.7509 18.1483 18.801 18.0733 18.8383 17.9891C19.7586 18.7381 20.7498 18.9869 21.2038 18.529C21.2664 18.466 21.3159 18.3924 21.353 18.3099C22.2726 19.0573 23.2625 19.3053 23.7161 18.8478C24.2461 18.3134 23.8435 17.0184 22.8167 15.9554C21.79 14.8924 20.528 14.464 19.998 14.9985Z" fill="white"/>
<path d="M19.8489 15.2177L19.6921 15.4118L19.944 15.6166L20.0767 15.3212L19.8489 15.2177ZM19.998 14.9985L20.1755 15.1753L20.1755 15.1753L19.998 14.9985ZM17.4857 14.6797L17.6632 14.8565L17.6632 14.8565L17.4857 14.6797ZM17.3026 14.9876L17.2038 15.2171L17.456 15.3271L17.5403 15.0654L17.3026 14.9876ZM12.8259 17.1731L12.6097 17.0469L12.8259 17.1731ZM12.8947 17.2428L13.0433 17.4445L12.8947 17.2428ZM15.8686 17.2554L16.0427 17.0766L16.0362 17.0706L15.8686 17.2554ZM18.6874 18.2124L18.5099 18.0355L18.5099 18.0355L18.6874 18.2124ZM18.8383 17.9891L18.9952 17.7951L18.7418 17.5889L18.6099 17.8868L18.8383 17.9891ZM21.2038 18.529L21.3813 18.7059L21.3813 18.7059L21.2038 18.529ZM21.353 18.3099L21.5097 18.1157L21.2578 17.911L21.1252 18.2063L21.353 18.3099ZM23.7161 18.8478L23.5386 18.671L23.7161 18.8478ZM22.8167 15.9554L22.9958 15.7817L22.8167 15.9554ZM20.0767 15.3212C20.1022 15.2642 20.1352 15.2159 20.1755 15.1753L19.8205 14.8216C19.7357 14.9071 19.6696 15.006 19.6211 15.1141L20.0767 15.3212ZM17.6632 14.8565C17.803 14.7155 18.0577 14.6517 18.4367 14.7405C18.8096 14.8279 19.2533 15.0551 19.6921 15.4118L20.0056 15.0235C19.5248 14.6327 19.0137 14.3622 18.5484 14.2531C18.0891 14.1455 17.622 14.1864 17.3082 14.5028L17.6632 14.8565ZM17.5403 15.0654C17.5679 14.9796 17.6094 14.9107 17.6632 14.8565L17.3082 14.5028C17.1938 14.6183 17.114 14.7573 17.0649 14.9098L17.5403 15.0654ZM13.0422 17.2993C13.5831 16.3635 14.3584 15.7202 15.1368 15.3741C15.9219 15.025 16.6812 14.9891 17.2038 15.2171L17.4014 14.7582C16.7099 14.4566 15.7986 14.5313 14.9326 14.9164C14.0601 15.3044 13.2041 16.0186 12.6097 17.0469L13.0422 17.2993ZM12.746 17.041C12.705 17.0713 12.6804 17.0893 12.6643 17.0999C12.6555 17.1056 12.6587 17.1028 12.669 17.0982C12.6739 17.0959 12.6896 17.0889 12.7124 17.0843C12.7313 17.0804 12.7865 17.0713 12.8512 17.0979C12.9316 17.1311 12.9773 17.1981 12.9943 17.2592C13.0078 17.3081 13.0021 17.3472 13.0001 17.3595C12.9956 17.3861 12.9877 17.4009 12.9918 17.3917C12.9971 17.3797 13.0115 17.3522 13.0422 17.2993L12.6097 17.0469C12.5797 17.0989 12.5531 17.1469 12.5358 17.1854C12.5287 17.2015 12.514 17.2353 12.5074 17.2753C12.5042 17.2942 12.4985 17.3386 12.5132 17.3915C12.5312 17.4565 12.5791 17.5262 12.6628 17.5607C12.7307 17.5887 12.7903 17.5797 12.8145 17.5747C12.8428 17.5689 12.8649 17.5596 12.8774 17.554C12.9026 17.5425 12.925 17.5284 12.9393 17.5189C12.9695 17.4991 13.0072 17.4711 13.0433 17.4445L12.746 17.041ZM16.0362 17.0706C15.3053 16.4044 14.5807 16.3063 13.9794 16.4343C13.3963 16.5584 12.9492 16.8911 12.746 17.041L13.0433 17.4445C13.2467 17.2944 13.6175 17.0235 14.0852 16.924C14.5347 16.8283 15.0937 16.8866 15.701 17.4402L16.0362 17.0706ZM18.5099 18.0355C18.3342 18.2127 18.0451 18.2829 17.6114 18.1427C17.1755 18.0018 16.6359 17.6571 16.0426 17.0767L15.6946 17.4341C16.3186 18.0446 16.9233 18.4455 17.46 18.619C17.9989 18.7932 18.5105 18.7465 18.8648 18.3892L18.5099 18.0355ZM18.6099 17.8868C18.5842 17.945 18.5507 17.9943 18.5099 18.0355L18.8648 18.3892C18.951 18.3023 19.0179 18.2016 19.0666 18.0914L18.6099 17.8868ZM21.0264 18.3522C20.8864 18.4934 20.6313 18.5571 20.2519 18.468C19.8785 18.3803 19.4343 18.1525 18.9952 17.7951L18.6814 18.1831C19.1626 18.5747 19.6741 18.8459 20.1399 18.9553C20.5997 19.0633 21.0673 19.0226 21.3813 18.7059L21.0264 18.3522ZM21.1252 18.2063C21.0996 18.2633 21.0666 18.3117 21.0264 18.3522L21.3813 18.7059C21.4661 18.6204 21.5322 18.5215 21.5807 18.4134L21.1252 18.2063ZM23.5386 18.671C23.3988 18.812 23.1441 18.8758 22.7651 18.787C22.3922 18.6996 21.9485 18.4724 21.5097 18.1157L21.1962 18.504C21.677 18.8948 22.1881 19.1653 22.6534 19.2744C23.1128 19.382 23.5798 19.3411 23.8936 19.0247L23.5386 18.671ZM22.6377 16.1291C23.1293 16.638 23.4629 17.1944 23.6118 17.6733C23.7653 18.167 23.7046 18.5036 23.5386 18.671L23.8936 19.0247C24.2576 18.6576 24.2606 18.0795 24.0886 17.5263C23.912 16.9584 23.5309 16.3358 22.9958 15.7817L22.6377 16.1291ZM20.1755 15.1753C20.339 15.0104 20.6634 14.9525 21.1419 15.1149C21.6066 15.2727 22.146 15.62 22.6377 16.1291L22.9958 15.7817C22.4607 15.2278 21.8557 14.8295 21.3003 14.6409C20.7586 14.457 20.187 14.452 19.8205 14.8216L20.1755 15.1753Z" fill="black" mask="url(#path-6-inside-1_3420_56142)"/>
<path d="M21.4991 24.5002C12.0762 24.0398 12.2282 13.3065 13.4153 10.708C13.4153 10.708 2.86263 9.05245 -0.137269 13.1912C-1.08403 14.4973 -1.3435 18.5608 -1.3435 18.5608L9.60985 25.8888L21.4991 24.5002Z" fill="#2470FF" stroke="black" stroke-width="0.25" stroke-linecap="round"/>
<path d="M10.6643 12.6123C10.0152 15.2494 9.99908 24.9992 18.5013 24.9992" stroke="black" stroke-width="0.25" stroke-linecap="round"/>
<path d="M2.29098 12.775C0.926922 15.426 -0.71765 24.7337 9.5869 24.9645" stroke="black" stroke-width="0.25" stroke-linecap="round"/>
<path d="M4.90967 13.2629C3.66611 15.9638 2.44584 25.3178 12.7651 25.1254" stroke="black" stroke-width="0.25" stroke-linecap="round"/>
<path d="M7.97332 12.0673C6.7986 14.7941 5.68097 26.9304 16 26.5" stroke="black" stroke-width="0.25" stroke-linecap="round"/>
<mask id="path-13-inside-2_3420_56142" fill="white">
<path fill-rule="evenodd" clip-rule="evenodd" d="M9.50158 7.00459C9.4373 7.14304 9.40186 7.28914 9.39332 7.4407C7.3775 6.90821 5.56486 7.18488 5.10133 8.18329C5.01488 8.3695 4.98059 8.56957 4.99376 8.77814C2.6448 8.80008 -0.358024 11.4441 -0.991131 15.1897C-1.03146 15.4282 -1.00817 15.3873 -0.899835 15.1965C-0.529245 14.5441 0.836556 12.1397 4.05577 13.1802C6.85177 14.191 8.83291 13.9403 9.37421 12.7744C9.43886 12.6351 9.47434 12.4881 9.48261 12.3356C11.4998 12.8693 13.3142 12.5929 13.778 11.5939C13.8423 11.4555 13.8777 11.3094 13.8862 11.1578C15.9021 11.6903 17.7147 11.4136 18.1782 10.4152C18.7195 9.24931 17.216 7.54063 14.82 6.5988C12.424 5.65698 10.0429 5.83865 9.50158 7.00459Z"/>
</mask>
<path fill-rule="evenodd" clip-rule="evenodd" d="M9.50158 7.00459C9.4373 7.14304 9.40186 7.28914 9.39332 7.4407C7.3775 6.90821 5.56486 7.18488 5.10133 8.18329C5.01488 8.3695 4.98059 8.56957 4.99376 8.77814C2.6448 8.80008 -0.358024 11.4441 -0.991131 15.1897C-1.03146 15.4282 -1.00817 15.3873 -0.899835 15.1965C-0.529245 14.5441 0.836556 12.1397 4.05577 13.1802C6.85177 14.191 8.83291 13.9403 9.37421 12.7744C9.43886 12.6351 9.47434 12.4881 9.48261 12.3356C11.4998 12.8693 13.3142 12.5929 13.778 11.5939C13.8423 11.4555 13.8777 11.3094 13.8862 11.1578C15.9021 11.6903 17.7147 11.4136 18.1782 10.4152C18.7195 9.24931 17.216 7.54063 14.82 6.5988C12.424 5.65698 10.0429 5.83865 9.50158 7.00459Z" fill="white"/>
<path d="M9.39332 7.4407L9.32686 7.68302L9.62493 7.76176L9.64241 7.45155L9.39332 7.4407ZM9.50158 7.00459L9.2757 6.90122L9.2757 6.90122L9.50158 7.00459ZM5.10133 8.18329L4.87545 8.07992L4.87545 8.07992L5.10133 8.18329ZM4.99376 8.77814L4.99278 9.02863L5.25963 9.02614L5.24275 8.75899L4.99376 8.77814ZM-0.991131 15.1897L-0.745172 15.2284L-0.745172 15.2284L-0.991131 15.1897ZM-0.899835 15.1965L-0.683515 15.3185L-0.683515 15.3185L-0.899835 15.1965ZM4.05577 13.1802L4.14307 12.9442L4.13505 12.9416L4.05577 13.1802ZM9.37421 12.7744L9.60009 12.8778L9.60009 12.8778L9.37421 12.7744ZM9.48261 12.3356L9.54916 12.0933L9.25036 12.0143L9.23349 12.3253L9.48261 12.3356ZM13.778 11.5939L14.0039 11.6973L13.778 11.5939ZM13.8862 11.1578L13.9527 10.9155L13.6546 10.8368L13.6372 11.147L13.8862 11.1578ZM18.1782 10.4152L18.4041 10.5186L18.4041 10.5186L18.1782 10.4152ZM14.82 6.5988L14.7264 6.83223L14.82 6.5988ZM9.64241 7.45155C9.64922 7.33063 9.67726 7.21607 9.72746 7.10795L9.2757 6.90122C9.19734 7.07 9.15449 7.24765 9.14422 7.42985L9.64241 7.45155ZM5.32722 8.28665C5.50681 7.89982 5.9731 7.60687 6.70297 7.485C7.42298 7.36479 8.34373 7.42332 9.32686 7.68302L9.45977 7.19838C8.42709 6.92559 7.43361 6.85621 6.62747 6.9908C5.83118 7.12376 5.15939 7.46834 4.87545 8.07992L5.32722 8.28665ZM5.24275 8.75899C5.23201 8.58894 5.26 8.43144 5.32722 8.28665L4.87545 8.07992C4.76976 8.30757 4.72916 8.55019 4.74477 8.79728L5.24275 8.75899ZM-0.745172 15.2284C-0.437881 13.4104 0.444731 11.8601 1.53343 10.7632C2.62677 9.66161 3.90481 9.0388 4.99278 9.02863L4.99474 8.52764C3.73375 8.53942 2.3359 9.24961 1.18231 10.4119C0.0240769 11.5789 -0.911274 13.2234 -1.23709 15.1509L-0.745172 15.2284ZM-1.11615 15.0746C-1.1444 15.1243 -1.16312 15.1572 -1.17648 15.1786C-1.18344 15.1898 -1.18461 15.1908 -1.18158 15.1869C-1.18016 15.1851 -1.17339 15.1766 -1.16188 15.166C-1.15447 15.1592 -1.12236 15.1298 -1.06928 15.114C-1.0392 15.105 -0.997436 15.099 -0.949881 15.109C-0.900818 15.1192 -0.860762 15.1432 -0.8314 15.1716C-0.780285 15.2211 -0.767726 15.2769 -0.764903 15.2897C-0.757879 15.3216 -0.760969 15.3434 -0.760188 15.3318C-0.759359 15.3194 -0.755424 15.2891 -0.745172 15.2284L-1.23709 15.1509C-1.247 15.2096 -1.25528 15.2635 -1.25804 15.3046C-1.25905 15.3197 -1.26178 15.3605 -1.25216 15.4042C-1.24804 15.4229 -1.23362 15.4828 -1.18007 15.5346C-1.10655 15.6058 -1.00908 15.6168 -0.933185 15.5942C-0.876524 15.5773 -0.84025 15.5451 -0.82809 15.534C-0.811828 15.5191 -0.79971 15.5045 -0.792342 15.4952C-0.777423 15.4763 -0.764296 15.4561 -0.754474 15.4403C-0.734261 15.4079 -0.709437 15.3641 -0.683515 15.3185L-1.11615 15.0746ZM4.13505 12.9416C2.45153 12.3975 1.22382 12.7508 0.368971 13.3486C-0.471866 13.9366 -0.929493 14.746 -1.11615 15.0746L-0.683515 15.3185C-0.499586 14.9947 -0.0890188 14.2756 0.650494 13.7585C1.376 13.2511 2.44079 12.9224 3.97648 13.4187L4.13505 12.9416ZM9.14833 12.671C8.93134 13.1384 8.40779 13.4662 7.54151 13.5441C6.67776 13.6217 5.5214 13.4427 4.14302 12.9444L3.96851 13.416C5.38614 13.9285 6.61834 14.1295 7.57949 14.0431C8.53811 13.9569 9.27577 13.5763 9.60009 12.8778L9.14833 12.671ZM9.23349 12.3253C9.22689 12.447 9.19881 12.5623 9.14833 12.671L9.60009 12.8778C9.67891 12.708 9.72179 12.5293 9.73174 12.346L9.23349 12.3253ZM13.5521 11.4906C13.3724 11.8776 12.9057 12.1707 12.1751 12.2924C11.4545 12.4125 10.533 12.3536 9.54916 12.0933L9.41607 12.5779C10.4494 12.8513 11.4437 12.9211 12.2505 12.7866C13.0474 12.6539 13.7198 12.3092 14.0039 11.6973L13.5521 11.4906ZM13.6372 11.147C13.6303 11.2679 13.6023 11.3825 13.5521 11.4906L14.0039 11.6973C14.0822 11.5285 14.1251 11.3509 14.1353 11.1687L13.6372 11.147ZM17.9524 10.3119C17.7728 10.6987 17.3065 10.9917 16.5766 11.1135C15.8566 11.2337 14.9358 11.1752 13.9527 10.9155L13.8198 11.4001C14.8525 11.6729 15.846 11.7423 16.6521 11.6077C17.4484 11.4748 18.1202 11.1302 18.4041 10.5186L17.9524 10.3119ZM14.7264 6.83223C15.897 7.29238 16.8363 7.93526 17.4127 8.59023C18 9.25765 18.1582 9.8684 17.9524 10.3119L18.4041 10.5186C18.7395 9.79615 18.4167 8.96959 17.7885 8.25573C17.1494 7.52943 16.139 6.84705 14.9136 6.36537L14.7264 6.83223ZM9.72746 7.10795C9.93785 6.65477 10.5439 6.33256 11.4809 6.26107C12.3994 6.19099 13.5563 6.37227 14.7264 6.83223L14.9136 6.36537C13.6878 5.88351 12.4561 5.68471 11.4497 5.7615C10.4618 5.83687 9.6066 6.18846 9.2757 6.90122L9.72746 7.10795Z" fill="black" mask="url(#path-13-inside-2_3420_56142)"/>
<path d="M16.8398 25.8098C7.70484 22.971 9.12119 17.9243 10.9712 15.7558C10.9712 15.7558 1.22633 14.3974 -0.721315 18.6405C-2.11698 21.681 -0.856953 25.4913 -0.856953 25.4913L16.8398 25.8098Z" fill="#004BD8" stroke="black" stroke-width="0.25" stroke-linecap="round"/>
<path d="M7.41666 18.0702C6.9143 20.6975 7.52294 27.3881 15.7308 26.6913" stroke="black" stroke-width="0.25" stroke-linecap="round"/>
<path d="M5.16107 17.6495C4.30983 20.1853 4.01287 26.8969 12.2398 27.3106" stroke="black" stroke-width="0.25" stroke-linecap="round"/>
<path d="M2.42279 17.6495C1.57155 20.1853 1.27459 26.8969 9.50156 27.3106" stroke="black" stroke-width="0.25" stroke-linecap="round"/>
<mask id="path-19-inside-3_3420_56142" fill="white">
<path fill-rule="evenodd" clip-rule="evenodd" d="M8.11456 14.5001C8.04376 14.5902 7.99177 14.6918 7.95764 14.8028C6.65598 14.0089 5.34427 13.8538 4.83625 14.5001C4.74223 14.6198 4.68138 14.7596 4.65149 14.915C3.00957 14.4389 0.399403 15.7178 -0.738946 18.3637C-0.860459 18.6461 -0.818757 18.6072 -0.639557 18.4401C-0.166983 17.9994 1.26181 16.667 3.17513 17.9844C4.9287 19.2847 6.3511 19.4917 6.94395 18.7375C7.01527 18.6467 7.0675 18.5443 7.10161 18.4324C8.40458 19.2284 9.71846 19.3844 10.227 18.7375C10.2978 18.6474 10.3498 18.5458 10.3839 18.4348C11.6856 19.2287 12.9973 19.3838 13.5053 18.7375C14.0982 17.9833 13.372 16.4233 11.8834 15.2532C10.3948 14.0831 8.70741 13.7459 8.11456 14.5001Z"/>
</mask>
<path fill-rule="evenodd" clip-rule="evenodd" d="M8.11456 14.5001C8.04376 14.5902 7.99177 14.6918 7.95764 14.8028C6.65598 14.0089 5.34427 13.8538 4.83625 14.5001C4.74223 14.6198 4.68138 14.7596 4.65149 14.915C3.00957 14.4389 0.399403 15.7178 -0.738946 18.3637C-0.860459 18.6461 -0.818757 18.6072 -0.639557 18.4401C-0.166983 17.9994 1.26181 16.667 3.17513 17.9844C4.9287 19.2847 6.3511 19.4917 6.94395 18.7375C7.01527 18.6467 7.0675 18.5443 7.10161 18.4324C8.40458 19.2284 9.71846 19.3844 10.227 18.7375C10.2978 18.6474 10.3498 18.5458 10.3839 18.4348C11.6856 19.2287 12.9973 19.3838 13.5053 18.7375C14.0982 17.9833 13.372 16.4233 11.8834 15.2532C10.3948 14.0831 8.70741 13.7459 8.11456 14.5001Z" fill="white"/>
<path d="M7.95764 14.8028L7.82747 15.0162L8.1021 15.1837L8.19661 14.8763L7.95764 14.8028ZM8.11456 14.5001L8.31111 14.6546L8.31111 14.6546L8.11456 14.5001ZM4.83625 14.5001L4.6397 14.3456L4.6397 14.3456L4.83625 14.5001ZM4.65149 14.915L4.58186 15.1551L4.8452 15.2315L4.89699 14.9622L4.65149 14.915ZM-0.738946 18.3637L-0.968594 18.2649L-0.738946 18.3637ZM-0.639557 18.4401L-0.810058 18.2573L-0.810059 18.2573L-0.639557 18.4401ZM3.17513 17.9844L3.32412 17.7835L3.31691 17.7785L3.17513 17.9844ZM6.94395 18.7375L6.7474 18.583L6.7474 18.583L6.94395 18.7375ZM7.10161 18.4324L7.23194 18.219L6.95652 18.0508L6.86246 18.3595L7.10161 18.4324ZM10.227 18.7375L10.4235 18.892L10.4235 18.892L10.227 18.7375ZM10.3839 18.4348L10.5141 18.2214L10.2395 18.0539L10.1449 18.3614L10.3839 18.4348ZM13.5053 18.7375L13.7019 18.892L13.7019 18.892L13.5053 18.7375ZM11.8834 15.2532L12.0379 15.0566L11.8834 15.2532ZM8.19661 14.8763C8.22222 14.7929 8.26038 14.7192 8.31111 14.6546L7.91801 14.3456C7.82713 14.4613 7.76131 14.5906 7.71868 14.7294L8.19661 14.8763ZM5.0328 14.6546C5.21028 14.4288 5.55846 14.3069 6.07365 14.3601C6.58159 14.4125 7.19945 14.6332 7.82747 15.0162L8.08782 14.5894C7.41417 14.1785 6.72536 13.9247 6.12501 13.8627C5.53193 13.8015 4.97024 13.9251 4.6397 14.3456L5.0328 14.6546ZM4.89699 14.9622C4.9201 14.8421 4.96576 14.7399 5.0328 14.6546L4.6397 14.3456C4.5187 14.4996 4.44266 14.6772 4.40599 14.8678L4.89699 14.9622ZM-0.509298 18.4625C0.0382882 17.1897 0.938761 16.2486 1.89461 15.6838C2.85647 15.1155 3.84751 14.9422 4.58186 15.1551L4.72112 14.6749C3.81355 14.4117 2.67854 14.6398 1.64025 15.2534C0.595955 15.8704 -0.377831 16.8918 -0.968594 18.2649L-0.509298 18.4625ZM-0.810059 18.2573C-0.857128 18.3012 -0.887364 18.3293 -0.908057 18.3465C-0.919061 18.3557 -0.918714 18.3545 -0.911096 18.3499C-0.907434 18.3477 -0.893662 18.3395 -0.872573 18.3324C-0.855167 18.3266 -0.803248 18.3115 -0.737724 18.3289C-0.656183 18.3506 -0.602179 18.409 -0.577057 18.4676C-0.557003 18.5144 -0.557868 18.5539 -0.558344 18.5659C-0.559369 18.5918 -0.565155 18.6054 -0.561102 18.5923C-0.55511 18.573 -0.539901 18.5336 -0.509298 18.4625L-0.968594 18.2649C-0.998748 18.335 -1.02389 18.3966 -1.03866 18.4442C-1.04498 18.4646 -1.05625 18.5032 -1.05795 18.5462C-1.05877 18.5668 -1.05877 18.6129 -1.03667 18.6645C-1.0095 18.7279 -0.952264 18.7892 -0.866314 18.8121C-0.796381 18.8307 -0.738878 18.8149 -0.714727 18.8069C-0.686891 18.7976 -0.665211 18.7855 -0.652491 18.7778C-0.626759 18.7623 -0.603698 18.7438 -0.587492 18.7303C-0.553762 18.7021 -0.511587 18.6626 -0.469056 18.623L-0.810059 18.2573ZM3.31691 17.7785C2.29279 17.0734 1.37437 17.0683 0.646815 17.3164C-0.0641281 17.5588 -0.573624 18.0368 -0.810058 18.2573L-0.469056 18.623C-0.232916 18.4027 0.20827 17.9942 0.808196 17.7896C1.39151 17.5907 2.14414 17.5781 3.03335 18.1904L3.31691 17.7785ZM6.7474 18.583C6.52955 18.8601 6.13723 18.996 5.54027 18.8856C4.9424 18.775 4.18367 18.421 3.32403 17.7836L3.02623 18.1853C3.92016 18.8481 4.74941 19.2478 5.44934 19.3772C6.1502 19.5068 6.7655 19.369 7.1405 18.892L6.7474 18.583ZM6.86246 18.3595C6.83684 18.4436 6.79849 18.518 6.7474 18.583L7.1405 18.892C7.23205 18.7755 7.29816 18.6451 7.34076 18.5052L6.86246 18.3595ZM10.0304 18.583C9.85279 18.809 9.50405 18.931 8.98805 18.8774C8.47935 18.8245 7.86061 18.6031 7.23194 18.219L6.97128 18.6457C7.64559 19.0577 8.33527 19.3123 8.93638 19.3747C9.53019 19.4364 10.0927 19.3129 10.4235 18.892L10.0304 18.583ZM10.1449 18.3614C10.1193 18.4447 10.0812 18.5185 10.0304 18.583L10.4235 18.892C10.5144 18.7764 10.5802 18.647 10.6229 18.5083L10.1449 18.3614ZM13.3088 18.583C13.1313 18.8088 12.7831 18.9307 12.2679 18.8775C11.76 18.8251 11.1421 18.6044 10.5141 18.2214L10.2537 18.6482C10.9274 19.0591 11.6162 19.3129 12.2165 19.3749C12.8096 19.4361 13.3713 19.3125 13.7019 18.892L13.3088 18.583ZM11.7289 15.4497C12.4489 16.0157 12.9745 16.6688 13.2482 17.2568C13.5286 17.8591 13.5162 18.3191 13.3088 18.583L13.7019 18.892C14.0872 18.4017 14.0082 17.7046 13.7015 17.0458C13.3882 16.3727 12.8064 15.6607 12.0379 15.0566L11.7289 15.4497ZM8.31111 14.6546C8.51856 14.3907 8.9626 14.27 9.61407 14.4002C10.2501 14.5273 11.0088 14.8837 11.7289 15.4497L12.0379 15.0566C11.2693 14.4525 10.44 14.0553 9.71204 13.9099C8.99947 13.7675 8.30341 13.8553 7.91801 14.3456L8.31111 14.6546Z" fill="black" mask="url(#path-19-inside-3_3420_56142)"/>
<circle cx="15.7275" cy="3.72754" r="0.602536" fill="white" stroke="black" stroke-width="0.25"/>
<circle cx="20.8112" cy="5.14327" r="1.01827" fill="white" stroke="black" stroke-width="0.25"/>
<circle cx="20.0709" cy="8.88344" r="0.758436" fill="white" stroke="black" stroke-width="0.25"/>
</g>
<defs>
<clipPath id="clip0_3420_56142">
<rect width="24" height="24" rx="2" fill="white"/>
</clipPath>
</defs>
</svg>
